G75*
%MOIN*%
%OFA0B0*%
%FSLAX25Y25*%
%IPPOS*%
%LPD*%
%AMOC8*
5,1,8,0,0,1.08239X$1,22.5*
%
%ADD10R,0.10800X0.10800*%
%ADD11C,0.10800*%
%ADD12C,0.13800*%
%ADD13C,0.03300*%
%ADD14C,0.04808*%
%ADD15R,0.10300X0.10300*%
%ADD16C,0.10300*%
%ADD17C,0.08200*%
D10*
X0076520Y0140043D03*
X0178520Y0140043D03*
X0280520Y0140043D03*
X0280520Y0342043D03*
X0178520Y0342043D03*
X0076520Y0342043D03*
D11*
X0100142Y0334169D03*
X0100142Y0286138D03*
X0052898Y0286138D03*
X0052898Y0334169D03*
X0154898Y0334169D03*
X0154898Y0286138D03*
X0202142Y0286138D03*
X0202142Y0334169D03*
X0256898Y0334169D03*
X0256898Y0286138D03*
X0304142Y0286138D03*
X0304142Y0334169D03*
X0304142Y0132169D03*
X0304142Y0084138D03*
X0256898Y0084138D03*
X0256898Y0132169D03*
X0202142Y0132169D03*
X0202142Y0084138D03*
X0154898Y0084138D03*
X0154898Y0132169D03*
X0100142Y0132169D03*
X0100142Y0084138D03*
X0052898Y0084138D03*
X0052898Y0132169D03*
D12*
X0036500Y0216500D03*
X0036500Y0238500D03*
X0116500Y0238500D03*
X0116500Y0216500D03*
X0138500Y0216500D03*
X0138500Y0238500D03*
X0218500Y0238500D03*
X0218500Y0216500D03*
X0240500Y0216500D03*
X0240500Y0238500D03*
X0320500Y0238500D03*
X0320500Y0216500D03*
X0320500Y0036500D03*
X0240500Y0036500D03*
X0218500Y0036500D03*
X0138500Y0036500D03*
X0116500Y0036500D03*
X0036500Y0036500D03*
X0036500Y0418500D03*
X0116500Y0418500D03*
X0138500Y0418500D03*
X0218500Y0418500D03*
X0240500Y0418500D03*
X0320500Y0418500D03*
D13*
X0029000Y0029000D03*
X0131000Y0029000D03*
X0233000Y0029000D03*
X0226000Y0224000D03*
X0233000Y0231000D03*
X0328000Y0224000D03*
X0328000Y0426000D03*
X0226000Y0426000D03*
X0124000Y0426000D03*
X0131000Y0231000D03*
X0124000Y0224000D03*
X0029000Y0231000D03*
D14*
X0066500Y0193000D03*
X0076500Y0193000D03*
X0076500Y0183000D03*
X0066500Y0183000D03*
X0086500Y0183000D03*
X0086500Y0193000D03*
X0168500Y0193000D03*
X0178500Y0193000D03*
X0178500Y0183000D03*
X0168500Y0183000D03*
X0188500Y0183000D03*
X0188500Y0193000D03*
X0270500Y0193000D03*
X0280500Y0193000D03*
X0280500Y0183000D03*
X0270500Y0183000D03*
X0290500Y0183000D03*
X0290500Y0193000D03*
X0290500Y0385000D03*
X0290500Y0395000D03*
X0280500Y0395000D03*
X0280500Y0385000D03*
X0270500Y0385000D03*
X0270500Y0395000D03*
X0188500Y0395000D03*
X0188500Y0385000D03*
X0178500Y0385000D03*
X0178500Y0395000D03*
X0168500Y0395000D03*
X0168500Y0385000D03*
X0086500Y0385000D03*
X0086500Y0395000D03*
X0076500Y0395000D03*
X0076500Y0385000D03*
X0066500Y0385000D03*
X0066500Y0395000D03*
D15*
X0056500Y0243500D03*
X0158500Y0243500D03*
X0260500Y0243500D03*
X0260500Y0041500D03*
X0158500Y0041500D03*
X0056500Y0041500D03*
D16*
X0076185Y0041500D03*
X0095870Y0041500D03*
X0178185Y0041500D03*
X0197870Y0041500D03*
X0280185Y0041500D03*
X0299870Y0041500D03*
X0299870Y0243500D03*
X0280185Y0243500D03*
X0197870Y0243500D03*
X0178185Y0243500D03*
X0095870Y0243500D03*
X0076185Y0243500D03*
D17*
X0071500Y0221500D03*
X0061500Y0221500D03*
X0081500Y0221500D03*
X0091500Y0221500D03*
X0163500Y0221500D03*
X0173500Y0221500D03*
X0183500Y0221500D03*
X0193500Y0221500D03*
X0265500Y0221500D03*
X0275500Y0221500D03*
X0285500Y0221500D03*
X0295500Y0221500D03*
X0295500Y0423500D03*
X0285500Y0423500D03*
X0275500Y0423500D03*
X0265500Y0423500D03*
X0193500Y0423500D03*
X0183500Y0423500D03*
X0173500Y0423500D03*
X0163500Y0423500D03*
X0091500Y0423500D03*
X0081500Y0423500D03*
X0071500Y0423500D03*
X0061500Y0423500D03*
M02*
