G75*
%MOIN*%
%OFA0B0*%
%FSLAX25Y25*%
%IPPOS*%
%LPD*%
%AMOC8*
5,1,8,0,0,1.08239X$1,22.5*
%
%ADD10R,0.05131X0.04737*%
%ADD11R,0.03280X0.04068*%
%ADD12C,0.01421*%
%ADD13R,0.08674X0.05524*%
%ADD14R,0.06115X0.03162*%
%ADD15R,0.10800X0.10800*%
%ADD16C,0.10800*%
%ADD17C,0.13800*%
%ADD18R,0.04737X0.05131*%
%ADD19R,0.03300X0.05800*%
%ADD20R,0.04343X0.03950*%
%ADD21R,0.10300X0.10300*%
%ADD22C,0.10300*%
%ADD23R,0.03800X0.06800*%
%ADD24R,0.06706X0.05918*%
%ADD25C,0.03300*%
%ADD26C,0.08200*%
D10*
X0033154Y0161500D03*
X0039846Y0161500D03*
X0039846Y0171500D03*
X0033154Y0171500D03*
X0048154Y0176500D03*
X0054846Y0176500D03*
X0053154Y0206500D03*
X0059846Y0206500D03*
X0093154Y0206500D03*
X0099846Y0206500D03*
X0098154Y0176500D03*
X0104846Y0176500D03*
X0113154Y0166500D03*
X0119846Y0166500D03*
X0135154Y0161500D03*
X0141846Y0161500D03*
X0141846Y0171500D03*
X0135154Y0171500D03*
X0150154Y0176500D03*
X0156846Y0176500D03*
X0155154Y0206500D03*
X0161846Y0206500D03*
X0195154Y0206500D03*
X0201846Y0206500D03*
X0200154Y0176500D03*
X0206846Y0176500D03*
X0215154Y0166500D03*
X0221846Y0166500D03*
X0237154Y0161500D03*
X0243846Y0161500D03*
X0243846Y0171500D03*
X0237154Y0171500D03*
X0252154Y0176500D03*
X0258846Y0176500D03*
X0257154Y0206500D03*
X0263846Y0206500D03*
X0297154Y0206500D03*
X0303846Y0206500D03*
X0302154Y0176500D03*
X0308846Y0176500D03*
X0317154Y0166500D03*
X0323846Y0166500D03*
X0243846Y0363500D03*
X0237154Y0363500D03*
X0237154Y0373500D03*
X0243846Y0373500D03*
X0252154Y0378500D03*
X0258846Y0378500D03*
X0257154Y0408500D03*
X0263846Y0408500D03*
X0297154Y0408500D03*
X0303846Y0408500D03*
X0302154Y0378500D03*
X0308846Y0378500D03*
X0317154Y0368500D03*
X0323846Y0368500D03*
X0221846Y0368500D03*
X0215154Y0368500D03*
X0206846Y0378500D03*
X0200154Y0378500D03*
X0201846Y0408500D03*
X0195154Y0408500D03*
X0161846Y0408500D03*
X0155154Y0408500D03*
X0156846Y0378500D03*
X0150154Y0378500D03*
X0141846Y0373500D03*
X0135154Y0373500D03*
X0135154Y0363500D03*
X0141846Y0363500D03*
X0119846Y0368500D03*
X0113154Y0368500D03*
X0104846Y0378500D03*
X0098154Y0378500D03*
X0099846Y0408500D03*
X0093154Y0408500D03*
X0059846Y0408500D03*
X0053154Y0408500D03*
X0054846Y0378500D03*
X0048154Y0378500D03*
X0039846Y0373500D03*
X0033154Y0373500D03*
X0033154Y0363500D03*
X0039846Y0363500D03*
D11*
X0041028Y0358500D03*
X0031972Y0358500D03*
X0133972Y0358500D03*
X0143028Y0358500D03*
X0235972Y0358500D03*
X0245028Y0358500D03*
X0245028Y0156500D03*
X0235972Y0156500D03*
X0143028Y0156500D03*
X0133972Y0156500D03*
X0041028Y0156500D03*
X0031972Y0156500D03*
D12*
X0034705Y0164842D02*
X0034705Y0168158D01*
X0034705Y0164842D02*
X0031389Y0164842D01*
X0031389Y0168158D01*
X0034705Y0168158D01*
X0034705Y0166262D02*
X0031389Y0166262D01*
X0031389Y0167682D02*
X0034705Y0167682D01*
X0041611Y0168158D02*
X0041611Y0164842D01*
X0038295Y0164842D01*
X0038295Y0168158D01*
X0041611Y0168158D01*
X0041611Y0166262D02*
X0038295Y0166262D01*
X0038295Y0167682D02*
X0041611Y0167682D01*
X0114705Y0169842D02*
X0114705Y0173158D01*
X0114705Y0169842D02*
X0111389Y0169842D01*
X0111389Y0173158D01*
X0114705Y0173158D01*
X0114705Y0171262D02*
X0111389Y0171262D01*
X0111389Y0172682D02*
X0114705Y0172682D01*
X0121611Y0173158D02*
X0121611Y0169842D01*
X0118295Y0169842D01*
X0118295Y0173158D01*
X0121611Y0173158D01*
X0121611Y0171262D02*
X0118295Y0171262D01*
X0118295Y0172682D02*
X0121611Y0172682D01*
X0136705Y0168158D02*
X0136705Y0164842D01*
X0133389Y0164842D01*
X0133389Y0168158D01*
X0136705Y0168158D01*
X0136705Y0166262D02*
X0133389Y0166262D01*
X0133389Y0167682D02*
X0136705Y0167682D01*
X0143611Y0168158D02*
X0143611Y0164842D01*
X0140295Y0164842D01*
X0140295Y0168158D01*
X0143611Y0168158D01*
X0143611Y0166262D02*
X0140295Y0166262D01*
X0140295Y0167682D02*
X0143611Y0167682D01*
X0216705Y0169842D02*
X0216705Y0173158D01*
X0216705Y0169842D02*
X0213389Y0169842D01*
X0213389Y0173158D01*
X0216705Y0173158D01*
X0216705Y0171262D02*
X0213389Y0171262D01*
X0213389Y0172682D02*
X0216705Y0172682D01*
X0223611Y0173158D02*
X0223611Y0169842D01*
X0220295Y0169842D01*
X0220295Y0173158D01*
X0223611Y0173158D01*
X0223611Y0171262D02*
X0220295Y0171262D01*
X0220295Y0172682D02*
X0223611Y0172682D01*
X0238705Y0168158D02*
X0238705Y0164842D01*
X0235389Y0164842D01*
X0235389Y0168158D01*
X0238705Y0168158D01*
X0238705Y0166262D02*
X0235389Y0166262D01*
X0235389Y0167682D02*
X0238705Y0167682D01*
X0245611Y0168158D02*
X0245611Y0164842D01*
X0242295Y0164842D01*
X0242295Y0168158D01*
X0245611Y0168158D01*
X0245611Y0166262D02*
X0242295Y0166262D01*
X0242295Y0167682D02*
X0245611Y0167682D01*
X0318705Y0169842D02*
X0318705Y0173158D01*
X0318705Y0169842D02*
X0315389Y0169842D01*
X0315389Y0173158D01*
X0318705Y0173158D01*
X0318705Y0171262D02*
X0315389Y0171262D01*
X0315389Y0172682D02*
X0318705Y0172682D01*
X0325611Y0173158D02*
X0325611Y0169842D01*
X0322295Y0169842D01*
X0322295Y0173158D01*
X0325611Y0173158D01*
X0325611Y0171262D02*
X0322295Y0171262D01*
X0322295Y0172682D02*
X0325611Y0172682D01*
X0245611Y0366842D02*
X0245611Y0370158D01*
X0245611Y0366842D02*
X0242295Y0366842D01*
X0242295Y0370158D01*
X0245611Y0370158D01*
X0245611Y0368262D02*
X0242295Y0368262D01*
X0242295Y0369682D02*
X0245611Y0369682D01*
X0238705Y0370158D02*
X0238705Y0366842D01*
X0235389Y0366842D01*
X0235389Y0370158D01*
X0238705Y0370158D01*
X0238705Y0368262D02*
X0235389Y0368262D01*
X0235389Y0369682D02*
X0238705Y0369682D01*
X0223611Y0371842D02*
X0223611Y0375158D01*
X0223611Y0371842D02*
X0220295Y0371842D01*
X0220295Y0375158D01*
X0223611Y0375158D01*
X0223611Y0373262D02*
X0220295Y0373262D01*
X0220295Y0374682D02*
X0223611Y0374682D01*
X0216705Y0375158D02*
X0216705Y0371842D01*
X0213389Y0371842D01*
X0213389Y0375158D01*
X0216705Y0375158D01*
X0216705Y0373262D02*
X0213389Y0373262D01*
X0213389Y0374682D02*
X0216705Y0374682D01*
X0143611Y0370158D02*
X0143611Y0366842D01*
X0140295Y0366842D01*
X0140295Y0370158D01*
X0143611Y0370158D01*
X0143611Y0368262D02*
X0140295Y0368262D01*
X0140295Y0369682D02*
X0143611Y0369682D01*
X0136705Y0370158D02*
X0136705Y0366842D01*
X0133389Y0366842D01*
X0133389Y0370158D01*
X0136705Y0370158D01*
X0136705Y0368262D02*
X0133389Y0368262D01*
X0133389Y0369682D02*
X0136705Y0369682D01*
X0121611Y0371842D02*
X0121611Y0375158D01*
X0121611Y0371842D02*
X0118295Y0371842D01*
X0118295Y0375158D01*
X0121611Y0375158D01*
X0121611Y0373262D02*
X0118295Y0373262D01*
X0118295Y0374682D02*
X0121611Y0374682D01*
X0114705Y0375158D02*
X0114705Y0371842D01*
X0111389Y0371842D01*
X0111389Y0375158D01*
X0114705Y0375158D01*
X0114705Y0373262D02*
X0111389Y0373262D01*
X0111389Y0374682D02*
X0114705Y0374682D01*
X0041611Y0370158D02*
X0041611Y0366842D01*
X0038295Y0366842D01*
X0038295Y0370158D01*
X0041611Y0370158D01*
X0041611Y0368262D02*
X0038295Y0368262D01*
X0038295Y0369682D02*
X0041611Y0369682D01*
X0034705Y0370158D02*
X0034705Y0366842D01*
X0031389Y0366842D01*
X0031389Y0370158D01*
X0034705Y0370158D01*
X0034705Y0368262D02*
X0031389Y0368262D01*
X0031389Y0369682D02*
X0034705Y0369682D01*
X0318705Y0371842D02*
X0318705Y0375158D01*
X0318705Y0371842D02*
X0315389Y0371842D01*
X0315389Y0375158D01*
X0318705Y0375158D01*
X0318705Y0373262D02*
X0315389Y0373262D01*
X0315389Y0374682D02*
X0318705Y0374682D01*
X0325611Y0375158D02*
X0325611Y0371842D01*
X0322295Y0371842D01*
X0322295Y0375158D01*
X0325611Y0375158D01*
X0325611Y0373262D02*
X0322295Y0373262D01*
X0322295Y0374682D02*
X0325611Y0374682D01*
D13*
X0324969Y0382476D03*
X0324969Y0404524D03*
X0236031Y0404524D03*
X0222969Y0404524D03*
X0222969Y0382476D03*
X0236031Y0382476D03*
X0134031Y0382476D03*
X0120969Y0382476D03*
X0120969Y0404524D03*
X0134031Y0404524D03*
X0032031Y0404524D03*
X0032031Y0382476D03*
X0032031Y0202524D03*
X0032031Y0180476D03*
X0120969Y0180476D03*
X0134031Y0180476D03*
X0134031Y0202524D03*
X0120969Y0202524D03*
X0222969Y0202524D03*
X0236031Y0202524D03*
X0236031Y0180476D03*
X0222969Y0180476D03*
X0324969Y0180476D03*
X0324969Y0202524D03*
D14*
X0310500Y0197406D03*
X0310500Y0193469D03*
X0310500Y0189531D03*
X0310500Y0185594D03*
X0250500Y0185594D03*
X0250500Y0189531D03*
X0250500Y0193469D03*
X0250500Y0197406D03*
X0208500Y0197406D03*
X0208500Y0193469D03*
X0208500Y0189531D03*
X0208500Y0185594D03*
X0148500Y0185594D03*
X0148500Y0189531D03*
X0148500Y0193469D03*
X0148500Y0197406D03*
X0106500Y0197406D03*
X0106500Y0193469D03*
X0106500Y0189531D03*
X0106500Y0185594D03*
X0046500Y0185594D03*
X0046500Y0189531D03*
X0046500Y0193469D03*
X0046500Y0197406D03*
X0046500Y0387594D03*
X0046500Y0391531D03*
X0046500Y0395469D03*
X0046500Y0399406D03*
X0106500Y0399406D03*
X0106500Y0395469D03*
X0106500Y0391531D03*
X0106500Y0387594D03*
X0148500Y0387594D03*
X0148500Y0391531D03*
X0148500Y0395469D03*
X0148500Y0399406D03*
X0208500Y0399406D03*
X0208500Y0395469D03*
X0208500Y0391531D03*
X0208500Y0387594D03*
X0250500Y0387594D03*
X0250500Y0391531D03*
X0250500Y0395469D03*
X0250500Y0399406D03*
X0310500Y0399406D03*
X0310500Y0395469D03*
X0310500Y0391531D03*
X0310500Y0387594D03*
D15*
X0280520Y0342043D03*
X0178520Y0342043D03*
X0076520Y0342043D03*
X0076520Y0140043D03*
X0178520Y0140043D03*
X0280520Y0140043D03*
D16*
X0304142Y0132169D03*
X0304142Y0084138D03*
X0256898Y0084138D03*
X0256898Y0132169D03*
X0202142Y0132169D03*
X0202142Y0084138D03*
X0154898Y0084138D03*
X0154898Y0132169D03*
X0100142Y0132169D03*
X0100142Y0084138D03*
X0052898Y0084138D03*
X0052898Y0132169D03*
X0052898Y0286138D03*
X0052898Y0334169D03*
X0100142Y0334169D03*
X0100142Y0286138D03*
X0154898Y0286138D03*
X0154898Y0334169D03*
X0202142Y0334169D03*
X0202142Y0286138D03*
X0256898Y0286138D03*
X0256898Y0334169D03*
X0304142Y0334169D03*
X0304142Y0286138D03*
D17*
X0036500Y0036500D03*
X0116500Y0036500D03*
X0138500Y0036500D03*
X0218500Y0036500D03*
X0240500Y0036500D03*
X0320500Y0036500D03*
X0320500Y0216500D03*
X0320500Y0238500D03*
X0240500Y0238500D03*
X0240500Y0216500D03*
X0218500Y0216500D03*
X0218500Y0238500D03*
X0138500Y0238500D03*
X0138500Y0216500D03*
X0116500Y0216500D03*
X0116500Y0238500D03*
X0036500Y0238500D03*
X0036500Y0216500D03*
X0036500Y0418500D03*
X0116500Y0418500D03*
X0138500Y0418500D03*
X0218500Y0418500D03*
X0240500Y0418500D03*
X0320500Y0418500D03*
D18*
X0290500Y0417346D03*
X0290500Y0410654D03*
X0270500Y0410654D03*
X0270500Y0417346D03*
X0188500Y0417346D03*
X0188500Y0410654D03*
X0168500Y0410654D03*
X0168500Y0417346D03*
X0086500Y0417346D03*
X0086500Y0410654D03*
X0066500Y0410654D03*
X0066500Y0417346D03*
X0066500Y0215346D03*
X0066500Y0208654D03*
X0086500Y0208654D03*
X0086500Y0215346D03*
X0168500Y0215346D03*
X0168500Y0208654D03*
X0188500Y0208654D03*
X0188500Y0215346D03*
X0270500Y0215346D03*
X0270500Y0208654D03*
X0290500Y0208654D03*
X0290500Y0215346D03*
D19*
X0283700Y0212000D03*
X0280500Y0212000D03*
X0277300Y0212000D03*
X0181700Y0212000D03*
X0178500Y0212000D03*
X0175300Y0212000D03*
X0079700Y0212000D03*
X0076500Y0212000D03*
X0073300Y0212000D03*
X0073300Y0414000D03*
X0076500Y0414000D03*
X0079700Y0414000D03*
X0175300Y0414000D03*
X0178500Y0414000D03*
X0181700Y0414000D03*
X0277300Y0414000D03*
X0280500Y0414000D03*
X0283700Y0414000D03*
D20*
X0316563Y0362240D03*
X0316563Y0354760D03*
X0324831Y0358500D03*
X0222831Y0358500D03*
X0214563Y0354760D03*
X0214563Y0362240D03*
X0120831Y0358500D03*
X0112563Y0354760D03*
X0112563Y0362240D03*
X0112563Y0160240D03*
X0112563Y0152760D03*
X0120831Y0156500D03*
X0214563Y0152760D03*
X0214563Y0160240D03*
X0222831Y0156500D03*
X0316563Y0152760D03*
X0316563Y0160240D03*
X0324831Y0156500D03*
D21*
X0260500Y0243500D03*
X0158500Y0243500D03*
X0056500Y0243500D03*
X0056500Y0041500D03*
X0158500Y0041500D03*
X0260500Y0041500D03*
D22*
X0280185Y0041500D03*
X0299870Y0041500D03*
X0197870Y0041500D03*
X0178185Y0041500D03*
X0095870Y0041500D03*
X0076185Y0041500D03*
X0076185Y0243500D03*
X0095870Y0243500D03*
X0178185Y0243500D03*
X0197870Y0243500D03*
X0280185Y0243500D03*
X0299870Y0243500D03*
D23*
X0288000Y0202673D03*
X0283000Y0202673D03*
X0278000Y0202673D03*
X0273000Y0202673D03*
X0273000Y0173500D03*
X0278000Y0173500D03*
X0283000Y0173500D03*
X0288000Y0173500D03*
X0186000Y0173500D03*
X0181000Y0173500D03*
X0176000Y0173500D03*
X0171000Y0173500D03*
X0171000Y0202673D03*
X0176000Y0202673D03*
X0181000Y0202673D03*
X0186000Y0202673D03*
X0084000Y0202673D03*
X0079000Y0202673D03*
X0074000Y0202673D03*
X0069000Y0202673D03*
X0069000Y0173500D03*
X0074000Y0173500D03*
X0079000Y0173500D03*
X0084000Y0173500D03*
X0084000Y0375500D03*
X0079000Y0375500D03*
X0074000Y0375500D03*
X0069000Y0375500D03*
X0069000Y0404673D03*
X0074000Y0404673D03*
X0079000Y0404673D03*
X0084000Y0404673D03*
X0171000Y0404673D03*
X0176000Y0404673D03*
X0181000Y0404673D03*
X0186000Y0404673D03*
X0186000Y0375500D03*
X0181000Y0375500D03*
X0176000Y0375500D03*
X0171000Y0375500D03*
X0273000Y0375500D03*
X0278000Y0375500D03*
X0283000Y0375500D03*
X0288000Y0375500D03*
X0288000Y0404673D03*
X0283000Y0404673D03*
X0278000Y0404673D03*
X0273000Y0404673D03*
D24*
X0262783Y0367500D03*
X0262783Y0357500D03*
X0298217Y0357500D03*
X0298217Y0367500D03*
X0196217Y0367500D03*
X0196217Y0357500D03*
X0160783Y0357500D03*
X0160783Y0367500D03*
X0094217Y0367500D03*
X0094217Y0357500D03*
X0058783Y0357500D03*
X0058783Y0367500D03*
X0058783Y0165500D03*
X0058783Y0155500D03*
X0094217Y0155500D03*
X0094217Y0165500D03*
X0160783Y0165500D03*
X0160783Y0155500D03*
X0196217Y0155500D03*
X0196217Y0165500D03*
X0262783Y0165500D03*
X0262783Y0155500D03*
X0298217Y0155500D03*
X0298217Y0165500D03*
D25*
X0328000Y0231000D03*
X0233500Y0224000D03*
X0226000Y0231000D03*
X0131500Y0224000D03*
X0124000Y0231000D03*
X0029500Y0224000D03*
X0124000Y0029000D03*
X0226000Y0029000D03*
X0328000Y0029000D03*
X0233500Y0426000D03*
X0131500Y0426000D03*
X0029500Y0426000D03*
D26*
X0061500Y0423500D03*
X0071500Y0423500D03*
X0081500Y0423500D03*
X0091500Y0423500D03*
X0163500Y0423500D03*
X0173500Y0423500D03*
X0183500Y0423500D03*
X0193500Y0423500D03*
X0265500Y0423500D03*
X0275500Y0423500D03*
X0285500Y0423500D03*
X0295500Y0423500D03*
X0295500Y0221500D03*
X0285500Y0221500D03*
X0275500Y0221500D03*
X0265500Y0221500D03*
X0193500Y0221500D03*
X0183500Y0221500D03*
X0173500Y0221500D03*
X0163500Y0221500D03*
X0091500Y0221500D03*
X0081500Y0221500D03*
X0071500Y0221500D03*
X0061500Y0221500D03*
M02*
