%
M48
M72
T01C0.0150
T02C0.0200
T03C0.0400
T04C0.0512
T05C0.1300
%
T01
X10150Y14650
X7850Y17950
X7650Y18800
X8823Y20025
X10150Y21150
X10400Y20200
X11250Y19150
X15050Y18150
X15850Y19650
X15350Y20150
X17850Y18800
X18050Y17950
X19023Y20025
X20350Y21150
X20600Y20200
X21450Y19150
X25250Y18150
X26050Y19650
X25550Y20150
X28050Y18800
X28250Y17950
X29223Y20025
X30550Y21150
X30800Y20200
X31650Y19150
X30550Y14650
X25500Y15400
X20350Y14650
X15300Y15400
X5650Y19650
X5150Y20150
X4850Y18150
X5100Y15400
X10150Y34850
X7850Y38150
X7650Y39000
X8823Y40225
X10150Y41350
X10400Y40400
X11250Y39350
X15050Y38350
X15850Y39850
X15350Y40350
X17850Y39000
X18050Y38150
X19023Y40225
X20350Y41350
X20600Y40400
X21450Y39350
X25250Y38350
X26050Y39850
X25550Y40350
X28050Y39000
X28250Y38150
X29223Y40225
X30550Y41350
X30800Y40400
X31650Y39350
X30550Y34850
X25500Y35600
X20350Y34850
X15300Y35600
X5650Y39850
X5150Y40350
X4850Y38350
X5100Y35600
T02
X6650Y38500
X6650Y39500
X7650Y39500
X7650Y38500
X8650Y38500
X8650Y39500
X16850Y39500
X16850Y38500
X17850Y38500
X17850Y39500
X18850Y39500
X18850Y38500
X27050Y38500
X27050Y39500
X28050Y39500
X28050Y38500
X29050Y38500
X29050Y39500
X29050Y19300
X29050Y18300
X28050Y18300
X27050Y18300
X27050Y19300
X28050Y19300
X18850Y19300
X18850Y18300
X17850Y18300
X16850Y18300
X16850Y19300
X17850Y19300
X8650Y19300
X8650Y18300
X7650Y18300
X6650Y18300
X6650Y19300
X7650Y19300
T03
X7150Y22150
X6150Y22150
X8150Y22150
X9150Y22150
X16350Y22150
X17350Y22150
X18350Y22150
X19350Y22150
X26550Y22150
X27550Y22150
X28550Y22150
X29550Y22150
X29550Y42350
X28550Y42350
X27550Y42350
X26550Y42350
X19350Y42350
X18350Y42350
X17350Y42350
X16350Y42350
X9150Y42350
X8150Y42350
X7150Y42350
X6150Y42350
T04
X7652Y34204
X10014Y33417
X10014Y28614
X9587Y24350
X7619Y24350
X5650Y24350
X5290Y28614
X5290Y33417
X15490Y33417
X17852Y34204
X20214Y33417
X20214Y28614
X19787Y24350
X17819Y24350
X15850Y24350
X15490Y28614
X25690Y28614
X26050Y24350
X28019Y24350
X29987Y24350
X30414Y28614
X30414Y33417
X28052Y34204
X25690Y33417
X28052Y14004
X30414Y13217
X30414Y8414
X29987Y4150
X28019Y4150
X26050Y4150
X25690Y8414
X25690Y13217
X20214Y13217
X17852Y14004
X15490Y13217
X15490Y8414
X15850Y4150
X17819Y4150
X19787Y4150
X20214Y8414
X10014Y8414
X9587Y4150
X7619Y4150
X5650Y4150
X5290Y8414
X5290Y13217
X7652Y14004
X10014Y13217
T05
X3650Y3650
X11650Y3650
X13850Y3650
X21850Y3650
X24050Y3650
X32050Y3650
X32050Y21650
X32050Y23850
X24050Y23850
X24050Y21650
X21850Y21650
X21850Y23850
X13850Y23850
X13850Y21650
X11650Y21650
X11650Y23850
X3650Y23850
X3650Y21650
X3650Y41850
X11650Y41850
X13850Y41850
X21850Y41850
X24050Y41850
X32050Y41850
M30
