G75*
%MOIN*%
%OFA0B0*%
%FSLAX25Y25*%
%IPPOS*%
%LPD*%
%AMOC8*
5,1,8,0,0,1.08239X$1,22.5*
%
%ADD10R,0.04331X0.03937*%
%ADD11R,0.02480X0.03268*%
%ADD12C,0.01181*%
%ADD13R,0.07874X0.04724*%
%ADD14R,0.05315X0.02362*%
%ADD15C,0.10000*%
%ADD16R,0.03937X0.04331*%
%ADD17R,0.02500X0.05000*%
%ADD18C,0.03400*%
%ADD19R,0.03543X0.03150*%
%ADD20R,0.03000X0.06000*%
%ADD21R,0.05906X0.05118*%
%ADD22C,0.02500*%
%ADD23C,0.07400*%
%ADD24R,0.09500X0.09500*%
%ADD25C,0.09500*%
%ADD26C,0.03937*%
%ADD27C,0.05906*%
%ADD28C,0.00700*%
%ADD29C,0.02900*%
%ADD30C,0.10000*%
%ADD31C,0.01000*%
D10*
X0058404Y0206750D03*
X0065096Y0206750D03*
X0065096Y0216750D03*
X0073404Y0221750D03*
X0080096Y0221750D03*
X0058404Y0216750D03*
X0078404Y0251750D03*
X0085096Y0251750D03*
X0118404Y0251750D03*
X0125096Y0251750D03*
X0123404Y0221750D03*
X0130096Y0221750D03*
X0138404Y0211750D03*
X0145096Y0211750D03*
X0160404Y0206750D03*
X0167096Y0206750D03*
X0167096Y0216750D03*
X0175404Y0221750D03*
X0182096Y0221750D03*
X0160404Y0216750D03*
X0180404Y0251750D03*
X0187096Y0251750D03*
X0220404Y0251750D03*
X0227096Y0251750D03*
X0225404Y0221750D03*
X0232096Y0221750D03*
X0240404Y0211750D03*
X0247096Y0211750D03*
X0262404Y0206750D03*
X0269096Y0206750D03*
X0269096Y0216750D03*
X0277404Y0221750D03*
X0284096Y0221750D03*
X0262404Y0216750D03*
X0282404Y0251750D03*
X0289096Y0251750D03*
X0322404Y0251750D03*
X0329096Y0251750D03*
X0327404Y0221750D03*
X0334096Y0221750D03*
X0342404Y0211750D03*
X0349096Y0211750D03*
X0269096Y0428750D03*
X0262404Y0428750D03*
X0262404Y0438750D03*
X0269096Y0438750D03*
X0277404Y0443750D03*
X0284096Y0443750D03*
X0282404Y0473750D03*
X0289096Y0473750D03*
X0322404Y0473750D03*
X0329096Y0473750D03*
X0327404Y0443750D03*
X0334096Y0443750D03*
X0342404Y0433750D03*
X0349096Y0433750D03*
X0247096Y0433750D03*
X0240404Y0433750D03*
X0232096Y0443750D03*
X0225404Y0443750D03*
X0227096Y0473750D03*
X0220404Y0473750D03*
X0187096Y0473750D03*
X0180404Y0473750D03*
X0182096Y0443750D03*
X0175404Y0443750D03*
X0167096Y0438750D03*
X0160404Y0438750D03*
X0160404Y0428750D03*
X0167096Y0428750D03*
X0145096Y0433750D03*
X0138404Y0433750D03*
X0130096Y0443750D03*
X0123404Y0443750D03*
X0125096Y0473750D03*
X0118404Y0473750D03*
X0085096Y0473750D03*
X0078404Y0473750D03*
X0080096Y0443750D03*
X0073404Y0443750D03*
X0065096Y0438750D03*
X0058404Y0438750D03*
X0058404Y0428750D03*
X0065096Y0428750D03*
D11*
X0066278Y0423750D03*
X0057222Y0423750D03*
X0159222Y0423750D03*
X0168278Y0423750D03*
X0261222Y0423750D03*
X0270278Y0423750D03*
X0270278Y0201750D03*
X0261222Y0201750D03*
X0168278Y0201750D03*
X0159222Y0201750D03*
X0066278Y0201750D03*
X0057222Y0201750D03*
D12*
X0059675Y0210372D02*
X0059675Y0213128D01*
X0059675Y0210372D02*
X0056919Y0210372D01*
X0056919Y0213128D01*
X0059675Y0213128D01*
X0059675Y0211552D02*
X0056919Y0211552D01*
X0056919Y0212732D02*
X0059675Y0212732D01*
X0066581Y0213128D02*
X0066581Y0210372D01*
X0063825Y0210372D01*
X0063825Y0213128D01*
X0066581Y0213128D01*
X0066581Y0211552D02*
X0063825Y0211552D01*
X0063825Y0212732D02*
X0066581Y0212732D01*
X0139675Y0215372D02*
X0139675Y0218128D01*
X0139675Y0215372D02*
X0136919Y0215372D01*
X0136919Y0218128D01*
X0139675Y0218128D01*
X0139675Y0216552D02*
X0136919Y0216552D01*
X0136919Y0217732D02*
X0139675Y0217732D01*
X0146581Y0218128D02*
X0146581Y0215372D01*
X0143825Y0215372D01*
X0143825Y0218128D01*
X0146581Y0218128D01*
X0146581Y0216552D02*
X0143825Y0216552D01*
X0143825Y0217732D02*
X0146581Y0217732D01*
X0161675Y0213128D02*
X0161675Y0210372D01*
X0158919Y0210372D01*
X0158919Y0213128D01*
X0161675Y0213128D01*
X0161675Y0211552D02*
X0158919Y0211552D01*
X0158919Y0212732D02*
X0161675Y0212732D01*
X0168581Y0213128D02*
X0168581Y0210372D01*
X0165825Y0210372D01*
X0165825Y0213128D01*
X0168581Y0213128D01*
X0168581Y0211552D02*
X0165825Y0211552D01*
X0165825Y0212732D02*
X0168581Y0212732D01*
X0241675Y0215372D02*
X0241675Y0218128D01*
X0241675Y0215372D02*
X0238919Y0215372D01*
X0238919Y0218128D01*
X0241675Y0218128D01*
X0241675Y0216552D02*
X0238919Y0216552D01*
X0238919Y0217732D02*
X0241675Y0217732D01*
X0248581Y0218128D02*
X0248581Y0215372D01*
X0245825Y0215372D01*
X0245825Y0218128D01*
X0248581Y0218128D01*
X0248581Y0216552D02*
X0245825Y0216552D01*
X0245825Y0217732D02*
X0248581Y0217732D01*
X0263675Y0213128D02*
X0263675Y0210372D01*
X0260919Y0210372D01*
X0260919Y0213128D01*
X0263675Y0213128D01*
X0263675Y0211552D02*
X0260919Y0211552D01*
X0260919Y0212732D02*
X0263675Y0212732D01*
X0270581Y0213128D02*
X0270581Y0210372D01*
X0267825Y0210372D01*
X0267825Y0213128D01*
X0270581Y0213128D01*
X0270581Y0211552D02*
X0267825Y0211552D01*
X0267825Y0212732D02*
X0270581Y0212732D01*
X0343675Y0215372D02*
X0343675Y0218128D01*
X0343675Y0215372D02*
X0340919Y0215372D01*
X0340919Y0218128D01*
X0343675Y0218128D01*
X0343675Y0216552D02*
X0340919Y0216552D01*
X0340919Y0217732D02*
X0343675Y0217732D01*
X0350581Y0218128D02*
X0350581Y0215372D01*
X0347825Y0215372D01*
X0347825Y0218128D01*
X0350581Y0218128D01*
X0350581Y0216552D02*
X0347825Y0216552D01*
X0347825Y0217732D02*
X0350581Y0217732D01*
X0270581Y0432372D02*
X0270581Y0435128D01*
X0270581Y0432372D02*
X0267825Y0432372D01*
X0267825Y0435128D01*
X0270581Y0435128D01*
X0270581Y0433552D02*
X0267825Y0433552D01*
X0267825Y0434732D02*
X0270581Y0434732D01*
X0263675Y0435128D02*
X0263675Y0432372D01*
X0260919Y0432372D01*
X0260919Y0435128D01*
X0263675Y0435128D01*
X0263675Y0433552D02*
X0260919Y0433552D01*
X0260919Y0434732D02*
X0263675Y0434732D01*
X0248581Y0437372D02*
X0248581Y0440128D01*
X0248581Y0437372D02*
X0245825Y0437372D01*
X0245825Y0440128D01*
X0248581Y0440128D01*
X0248581Y0438552D02*
X0245825Y0438552D01*
X0245825Y0439732D02*
X0248581Y0439732D01*
X0241675Y0440128D02*
X0241675Y0437372D01*
X0238919Y0437372D01*
X0238919Y0440128D01*
X0241675Y0440128D01*
X0241675Y0438552D02*
X0238919Y0438552D01*
X0238919Y0439732D02*
X0241675Y0439732D01*
X0168581Y0435128D02*
X0168581Y0432372D01*
X0165825Y0432372D01*
X0165825Y0435128D01*
X0168581Y0435128D01*
X0168581Y0433552D02*
X0165825Y0433552D01*
X0165825Y0434732D02*
X0168581Y0434732D01*
X0161675Y0435128D02*
X0161675Y0432372D01*
X0158919Y0432372D01*
X0158919Y0435128D01*
X0161675Y0435128D01*
X0161675Y0433552D02*
X0158919Y0433552D01*
X0158919Y0434732D02*
X0161675Y0434732D01*
X0146581Y0437372D02*
X0146581Y0440128D01*
X0146581Y0437372D02*
X0143825Y0437372D01*
X0143825Y0440128D01*
X0146581Y0440128D01*
X0146581Y0438552D02*
X0143825Y0438552D01*
X0143825Y0439732D02*
X0146581Y0439732D01*
X0139675Y0440128D02*
X0139675Y0437372D01*
X0136919Y0437372D01*
X0136919Y0440128D01*
X0139675Y0440128D01*
X0139675Y0438552D02*
X0136919Y0438552D01*
X0136919Y0439732D02*
X0139675Y0439732D01*
X0066581Y0435128D02*
X0066581Y0432372D01*
X0063825Y0432372D01*
X0063825Y0435128D01*
X0066581Y0435128D01*
X0066581Y0433552D02*
X0063825Y0433552D01*
X0063825Y0434732D02*
X0066581Y0434732D01*
X0059675Y0435128D02*
X0059675Y0432372D01*
X0056919Y0432372D01*
X0056919Y0435128D01*
X0059675Y0435128D01*
X0059675Y0433552D02*
X0056919Y0433552D01*
X0056919Y0434732D02*
X0059675Y0434732D01*
X0343675Y0437372D02*
X0343675Y0440128D01*
X0343675Y0437372D02*
X0340919Y0437372D01*
X0340919Y0440128D01*
X0343675Y0440128D01*
X0343675Y0438552D02*
X0340919Y0438552D01*
X0340919Y0439732D02*
X0343675Y0439732D01*
X0350581Y0440128D02*
X0350581Y0437372D01*
X0347825Y0437372D01*
X0347825Y0440128D01*
X0350581Y0440128D01*
X0350581Y0438552D02*
X0347825Y0438552D01*
X0347825Y0439732D02*
X0350581Y0439732D01*
D13*
X0350219Y0447726D03*
X0350219Y0469774D03*
X0261281Y0469774D03*
X0248219Y0469774D03*
X0248219Y0447726D03*
X0261281Y0447726D03*
X0159281Y0447726D03*
X0146219Y0447726D03*
X0146219Y0469774D03*
X0159281Y0469774D03*
X0057281Y0469774D03*
X0057281Y0447726D03*
X0057281Y0247774D03*
X0057281Y0225726D03*
X0146219Y0225726D03*
X0159281Y0225726D03*
X0159281Y0247774D03*
X0146219Y0247774D03*
X0248219Y0247774D03*
X0261281Y0247774D03*
X0261281Y0225726D03*
X0248219Y0225726D03*
X0350219Y0225726D03*
X0350219Y0247774D03*
D14*
X0335750Y0242656D03*
X0335750Y0238719D03*
X0335750Y0234781D03*
X0335750Y0230844D03*
X0275750Y0230844D03*
X0275750Y0234781D03*
X0275750Y0238719D03*
X0275750Y0242656D03*
X0233750Y0242656D03*
X0233750Y0238719D03*
X0233750Y0234781D03*
X0233750Y0230844D03*
X0173750Y0230844D03*
X0173750Y0234781D03*
X0173750Y0238719D03*
X0173750Y0242656D03*
X0131750Y0242656D03*
X0131750Y0238719D03*
X0131750Y0234781D03*
X0131750Y0230844D03*
X0071750Y0230844D03*
X0071750Y0234781D03*
X0071750Y0238719D03*
X0071750Y0242656D03*
X0071750Y0452844D03*
X0071750Y0456781D03*
X0071750Y0460719D03*
X0071750Y0464656D03*
X0131750Y0464656D03*
X0131750Y0460719D03*
X0131750Y0456781D03*
X0131750Y0452844D03*
X0173750Y0452844D03*
X0173750Y0456781D03*
X0173750Y0460719D03*
X0173750Y0464656D03*
X0233750Y0464656D03*
X0233750Y0460719D03*
X0233750Y0456781D03*
X0233750Y0452844D03*
X0275750Y0452844D03*
X0275750Y0456781D03*
X0275750Y0460719D03*
X0275750Y0464656D03*
X0335750Y0464656D03*
X0335750Y0460719D03*
X0335750Y0456781D03*
X0335750Y0452844D03*
D15*
X0305770Y0407293D03*
X0329392Y0399419D03*
X0329392Y0351388D03*
X0282148Y0351388D03*
X0282148Y0399419D03*
X0227392Y0399419D03*
X0203770Y0407293D03*
X0180148Y0399419D03*
X0180148Y0351388D03*
X0227392Y0351388D03*
X0125392Y0351388D03*
X0125392Y0399419D03*
X0101770Y0407293D03*
X0078148Y0399419D03*
X0078148Y0351388D03*
X0101770Y0185293D03*
X0078148Y0177419D03*
X0078148Y0129388D03*
X0125392Y0129388D03*
X0125392Y0177419D03*
X0180148Y0177419D03*
X0203770Y0185293D03*
X0227392Y0177419D03*
X0227392Y0129388D03*
X0180148Y0129388D03*
X0282148Y0129388D03*
X0282148Y0177419D03*
X0305770Y0185293D03*
X0329392Y0177419D03*
X0329392Y0129388D03*
D16*
X0315750Y0253904D03*
X0315750Y0260596D03*
X0295750Y0260596D03*
X0295750Y0253904D03*
X0213750Y0253904D03*
X0213750Y0260596D03*
X0193750Y0260596D03*
X0193750Y0253904D03*
X0111750Y0253904D03*
X0111750Y0260596D03*
X0091750Y0260596D03*
X0091750Y0253904D03*
X0091750Y0475904D03*
X0091750Y0482596D03*
X0111750Y0482596D03*
X0111750Y0475904D03*
X0193750Y0475904D03*
X0193750Y0482596D03*
X0213750Y0482596D03*
X0213750Y0475904D03*
X0295750Y0475904D03*
X0295750Y0482596D03*
X0315750Y0482596D03*
X0315750Y0475904D03*
D17*
X0308950Y0479250D03*
X0305750Y0479250D03*
X0302550Y0479250D03*
X0206950Y0479250D03*
X0203750Y0479250D03*
X0200550Y0479250D03*
X0104950Y0479250D03*
X0101750Y0479250D03*
X0098550Y0479250D03*
X0098550Y0257250D03*
X0101750Y0257250D03*
X0104950Y0257250D03*
X0200550Y0257250D03*
X0203750Y0257250D03*
X0206950Y0257250D03*
X0302550Y0257250D03*
X0305750Y0257250D03*
X0308950Y0257250D03*
D18*
X0305750Y0238250D03*
X0305750Y0228250D03*
X0315750Y0228250D03*
X0315750Y0238250D03*
X0325750Y0241750D03*
X0295750Y0238250D03*
X0295750Y0228250D03*
X0284750Y0216750D03*
X0265750Y0236750D03*
X0223750Y0241750D03*
X0213750Y0238250D03*
X0213750Y0228250D03*
X0203750Y0228250D03*
X0203750Y0238250D03*
X0193750Y0238250D03*
X0193750Y0228250D03*
X0182750Y0216750D03*
X0163750Y0236750D03*
X0121750Y0241750D03*
X0111750Y0238250D03*
X0111750Y0228250D03*
X0101750Y0228250D03*
X0101750Y0238250D03*
X0091750Y0238250D03*
X0091750Y0228250D03*
X0080750Y0216750D03*
X0061750Y0236750D03*
X0080750Y0438750D03*
X0091750Y0450250D03*
X0091750Y0460250D03*
X0101750Y0460250D03*
X0101750Y0450250D03*
X0111750Y0450250D03*
X0111750Y0460250D03*
X0121750Y0463750D03*
X0163750Y0458750D03*
X0182750Y0438750D03*
X0193750Y0450250D03*
X0193750Y0460250D03*
X0203750Y0460250D03*
X0203750Y0450250D03*
X0213750Y0450250D03*
X0213750Y0460250D03*
X0223750Y0463750D03*
X0265750Y0458750D03*
X0284750Y0438750D03*
X0295750Y0450250D03*
X0295750Y0460250D03*
X0305750Y0460250D03*
X0305750Y0450250D03*
X0315750Y0450250D03*
X0315750Y0460250D03*
X0325750Y0463750D03*
X0061750Y0458750D03*
D19*
X0137813Y0427490D03*
X0137813Y0420010D03*
X0146081Y0423750D03*
X0239813Y0420010D03*
X0239813Y0427490D03*
X0248081Y0423750D03*
X0341813Y0420010D03*
X0341813Y0427490D03*
X0350081Y0423750D03*
X0341813Y0205490D03*
X0341813Y0198010D03*
X0350081Y0201750D03*
X0248081Y0201750D03*
X0239813Y0198010D03*
X0239813Y0205490D03*
X0146081Y0201750D03*
X0137813Y0198010D03*
X0137813Y0205490D03*
D20*
X0109250Y0218750D03*
X0104250Y0218750D03*
X0099250Y0218750D03*
X0094250Y0218750D03*
X0094250Y0247923D03*
X0099250Y0247923D03*
X0104250Y0247923D03*
X0109250Y0247923D03*
X0196250Y0247923D03*
X0201250Y0247923D03*
X0206250Y0247923D03*
X0211250Y0247923D03*
X0211250Y0218750D03*
X0206250Y0218750D03*
X0201250Y0218750D03*
X0196250Y0218750D03*
X0298250Y0218750D03*
X0303250Y0218750D03*
X0308250Y0218750D03*
X0313250Y0218750D03*
X0313250Y0247923D03*
X0308250Y0247923D03*
X0303250Y0247923D03*
X0298250Y0247923D03*
X0298250Y0440750D03*
X0303250Y0440750D03*
X0308250Y0440750D03*
X0313250Y0440750D03*
X0313250Y0469923D03*
X0308250Y0469923D03*
X0303250Y0469923D03*
X0298250Y0469923D03*
X0211250Y0469923D03*
X0206250Y0469923D03*
X0201250Y0469923D03*
X0196250Y0469923D03*
X0196250Y0440750D03*
X0201250Y0440750D03*
X0206250Y0440750D03*
X0211250Y0440750D03*
X0109250Y0440750D03*
X0104250Y0440750D03*
X0099250Y0440750D03*
X0094250Y0440750D03*
X0094250Y0469923D03*
X0099250Y0469923D03*
X0104250Y0469923D03*
X0109250Y0469923D03*
D21*
X0119467Y0432750D03*
X0119467Y0422750D03*
X0084033Y0422750D03*
X0084033Y0432750D03*
X0186033Y0432750D03*
X0186033Y0422750D03*
X0221467Y0422750D03*
X0221467Y0432750D03*
X0288033Y0432750D03*
X0288033Y0422750D03*
X0323467Y0422750D03*
X0323467Y0432750D03*
X0323467Y0210750D03*
X0323467Y0200750D03*
X0288033Y0200750D03*
X0288033Y0210750D03*
X0221467Y0210750D03*
X0221467Y0200750D03*
X0186033Y0200750D03*
X0186033Y0210750D03*
X0119467Y0210750D03*
X0119467Y0200750D03*
X0084033Y0200750D03*
X0084033Y0210750D03*
D22*
X0054750Y0269250D03*
X0149250Y0296250D03*
X0156750Y0269250D03*
X0251250Y0296250D03*
X0258750Y0269250D03*
X0353250Y0296250D03*
X0258750Y0491250D03*
X0156750Y0491250D03*
X0054750Y0491250D03*
X0149250Y0074250D03*
X0251250Y0074250D03*
X0353250Y0074250D03*
D23*
X0320750Y0266750D03*
X0310750Y0266750D03*
X0300750Y0266750D03*
X0290750Y0266750D03*
X0218750Y0266750D03*
X0208750Y0266750D03*
X0198750Y0266750D03*
X0188750Y0266750D03*
X0116750Y0266750D03*
X0106750Y0266750D03*
X0096750Y0266750D03*
X0086750Y0266750D03*
X0086750Y0488750D03*
X0096750Y0488750D03*
X0106750Y0488750D03*
X0116750Y0488750D03*
X0188750Y0488750D03*
X0198750Y0488750D03*
X0208750Y0488750D03*
X0218750Y0488750D03*
X0290750Y0488750D03*
X0300750Y0488750D03*
X0310750Y0488750D03*
X0320750Y0488750D03*
D24*
X0325750Y0313750D03*
X0223750Y0313750D03*
X0121750Y0313750D03*
X0121750Y0091750D03*
X0223750Y0091750D03*
X0325750Y0091750D03*
D25*
X0306065Y0091750D03*
X0286380Y0091750D03*
X0204065Y0091750D03*
X0184380Y0091750D03*
X0102065Y0091750D03*
X0082380Y0091750D03*
X0082380Y0313750D03*
X0102065Y0313750D03*
X0184380Y0313750D03*
X0204065Y0313750D03*
X0286380Y0313750D03*
X0306065Y0313750D03*
D26*
X0328750Y0502000D03*
X0078750Y0502000D03*
D27*
X0078750Y0043500D03*
D28*
X0078148Y0177419D02*
X0071581Y0177419D01*
X0057222Y0191778D01*
X0057222Y0201750D01*
X0057222Y0203722D01*
X0058404Y0204904D01*
X0058404Y0206750D01*
X0057904Y0207250D01*
X0054688Y0207518D02*
X0053700Y0207518D01*
X0053700Y0206820D02*
X0054688Y0206820D01*
X0054688Y0206121D02*
X0053700Y0206121D01*
X0053700Y0205422D02*
X0054688Y0205422D01*
X0054688Y0204724D02*
X0053700Y0204724D01*
X0053700Y0204025D02*
X0054432Y0204025D01*
X0054432Y0204026D02*
X0054432Y0199474D01*
X0055322Y0198584D01*
X0055322Y0198268D01*
X0053700Y0198260D01*
X0053700Y0221814D01*
X0061861Y0221814D01*
X0062768Y0222722D01*
X0062768Y0228731D01*
X0061861Y0229639D01*
X0053700Y0229639D01*
X0053700Y0243861D01*
X0061861Y0243861D01*
X0062768Y0244769D01*
X0062768Y0250778D01*
X0061861Y0251686D01*
X0053700Y0251686D01*
X0053700Y0257193D01*
X0054555Y0255712D01*
X0057054Y0253616D01*
X0060119Y0252500D01*
X0063381Y0252500D01*
X0064850Y0253035D01*
X0064850Y0235963D01*
X0065963Y0234850D01*
X0067543Y0233270D01*
X0067543Y0232958D01*
X0067688Y0232813D01*
X0067543Y0232668D01*
X0067543Y0229021D01*
X0068450Y0228113D01*
X0071068Y0228113D01*
X0070750Y0227347D01*
X0070750Y0226153D01*
X0071116Y0225268D01*
X0070596Y0225268D01*
X0069688Y0224361D01*
X0069688Y0219139D01*
X0070596Y0218231D01*
X0076211Y0218231D01*
X0076750Y0218771D01*
X0077289Y0218231D01*
X0081850Y0218231D01*
X0081850Y0214859D01*
X0080439Y0214859D01*
X0079531Y0213951D01*
X0079531Y0207549D01*
X0080439Y0206641D01*
X0087628Y0206641D01*
X0088536Y0207549D01*
X0088536Y0210777D01*
X0090350Y0208963D01*
X0091463Y0207850D01*
X0110537Y0207850D01*
X0114964Y0212277D01*
X0114964Y0207549D01*
X0115872Y0206641D01*
X0123061Y0206641D01*
X0123969Y0207549D01*
X0123969Y0213951D01*
X0123061Y0214859D01*
X0122546Y0214859D01*
X0124191Y0216504D01*
X0125304Y0217617D01*
X0125304Y0218231D01*
X0126211Y0218231D01*
X0126750Y0218771D01*
X0127289Y0218231D01*
X0132904Y0218231D01*
X0133812Y0219139D01*
X0133812Y0219850D01*
X0135614Y0219850D01*
X0134779Y0219015D01*
X0134779Y0214485D01*
X0134796Y0214468D01*
X0134688Y0214361D01*
X0134688Y0209139D01*
X0135306Y0208522D01*
X0134491Y0207707D01*
X0134491Y0207390D01*
X0129703Y0207390D01*
X0128590Y0206277D01*
X0124963Y0202650D01*
X0123969Y0202650D01*
X0123969Y0203951D01*
X0123061Y0204859D01*
X0115872Y0204859D01*
X0114964Y0203951D01*
X0114964Y0198566D01*
X0112633Y0198554D01*
X0112537Y0198650D01*
X0098596Y0198650D01*
X0098596Y0198702D01*
X0098666Y0198792D01*
X0098596Y0199350D01*
X0098596Y0199650D01*
X0102413Y0199650D01*
X0103350Y0200587D01*
X0103350Y0201913D01*
X0102413Y0202850D01*
X0097234Y0202850D01*
X0097208Y0202870D01*
X0097047Y0202850D01*
X0096453Y0202850D01*
X0096292Y0202870D01*
X0096266Y0202850D01*
X0094587Y0202850D01*
X0093650Y0201913D01*
X0093650Y0200587D01*
X0094587Y0199650D01*
X0094904Y0199650D01*
X0094904Y0199350D01*
X0094834Y0198792D01*
X0094904Y0198702D01*
X0094904Y0198650D01*
X0090963Y0198650D01*
X0090758Y0198445D01*
X0088846Y0198435D01*
X0088833Y0198952D01*
X0088336Y0199425D01*
X0088336Y0200400D01*
X0084384Y0200400D01*
X0084384Y0201100D01*
X0088336Y0201100D01*
X0088336Y0203487D01*
X0088244Y0203830D01*
X0088066Y0204138D01*
X0087815Y0204389D01*
X0087507Y0204567D01*
X0087164Y0204659D01*
X0084383Y0204659D01*
X0084383Y0201100D01*
X0083683Y0201100D01*
X0083683Y0200400D01*
X0079731Y0200400D01*
X0079731Y0198390D01*
X0079140Y0198387D01*
X0079250Y0198653D01*
X0079250Y0199847D01*
X0078793Y0200949D01*
X0077949Y0201793D01*
X0076847Y0202250D01*
X0075653Y0202250D01*
X0075500Y0202187D01*
X0069037Y0208650D01*
X0068812Y0208650D01*
X0068812Y0209361D01*
X0068704Y0209468D01*
X0068721Y0209485D01*
X0068721Y0214015D01*
X0068504Y0214232D01*
X0068520Y0214260D01*
X0068612Y0214604D01*
X0068612Y0216400D01*
X0065446Y0216400D01*
X0065446Y0217100D01*
X0064746Y0217100D01*
X0064746Y0220068D01*
X0062753Y0220068D01*
X0062410Y0219976D01*
X0062102Y0219799D01*
X0061891Y0219588D01*
X0061211Y0220268D01*
X0055596Y0220268D01*
X0054688Y0219361D01*
X0054688Y0214139D01*
X0054796Y0214032D01*
X0054779Y0214015D01*
X0054779Y0209485D01*
X0054796Y0209468D01*
X0054688Y0209361D01*
X0054688Y0204282D01*
X0054432Y0204026D01*
X0054432Y0203327D02*
X0053700Y0203327D01*
X0053700Y0202628D02*
X0054432Y0202628D01*
X0054432Y0201930D02*
X0053700Y0201930D01*
X0053700Y0201231D02*
X0054432Y0201231D01*
X0054432Y0200533D02*
X0053700Y0200533D01*
X0053700Y0199834D02*
X0054432Y0199834D01*
X0054770Y0199136D02*
X0053700Y0199136D01*
X0053700Y0198437D02*
X0055322Y0198437D01*
X0054688Y0208217D02*
X0053700Y0208217D01*
X0053700Y0208915D02*
X0054688Y0208915D01*
X0054779Y0209614D02*
X0053700Y0209614D01*
X0053700Y0210312D02*
X0054779Y0210312D01*
X0054779Y0211011D02*
X0053700Y0211011D01*
X0053700Y0211709D02*
X0054779Y0211709D01*
X0054779Y0212408D02*
X0053700Y0212408D01*
X0053700Y0213106D02*
X0054779Y0213106D01*
X0054779Y0213805D02*
X0053700Y0213805D01*
X0053700Y0214503D02*
X0054688Y0214503D01*
X0054688Y0215202D02*
X0053700Y0215202D01*
X0053700Y0215900D02*
X0054688Y0215900D01*
X0054688Y0216599D02*
X0053700Y0216599D01*
X0053700Y0217297D02*
X0054688Y0217297D01*
X0054688Y0217996D02*
X0053700Y0217996D01*
X0053700Y0218694D02*
X0054688Y0218694D01*
X0054720Y0219393D02*
X0053700Y0219393D01*
X0053700Y0220091D02*
X0055419Y0220091D01*
X0053700Y0220790D02*
X0069688Y0220790D01*
X0069688Y0221488D02*
X0053700Y0221488D01*
X0058404Y0216750D02*
X0058404Y0211856D01*
X0058297Y0211750D01*
X0064746Y0217297D02*
X0065446Y0217297D01*
X0065446Y0217100D02*
X0065446Y0220068D01*
X0067440Y0220068D01*
X0067783Y0219976D01*
X0068091Y0219799D01*
X0068342Y0219547D01*
X0068520Y0219240D01*
X0068612Y0218896D01*
X0068612Y0217100D01*
X0065446Y0217100D01*
X0065096Y0216750D02*
X0072750Y0216750D01*
X0076750Y0212750D01*
X0076750Y0205250D01*
X0081250Y0200750D01*
X0084033Y0200750D01*
X0083683Y0200533D02*
X0078966Y0200533D01*
X0079250Y0199834D02*
X0079731Y0199834D01*
X0079731Y0199136D02*
X0079250Y0199136D01*
X0079161Y0198437D02*
X0079731Y0198437D01*
X0079731Y0201100D02*
X0083683Y0201100D01*
X0083683Y0204659D01*
X0080903Y0204659D01*
X0080560Y0204567D01*
X0080252Y0204389D01*
X0080000Y0204138D01*
X0079823Y0203830D01*
X0079731Y0203487D01*
X0079731Y0201100D01*
X0079731Y0201231D02*
X0078511Y0201231D01*
X0077619Y0201930D02*
X0079731Y0201930D01*
X0079731Y0202628D02*
X0075059Y0202628D01*
X0074360Y0203327D02*
X0079731Y0203327D01*
X0079935Y0204025D02*
X0073662Y0204025D01*
X0072963Y0204724D02*
X0115737Y0204724D01*
X0115038Y0204025D02*
X0088131Y0204025D01*
X0088336Y0203327D02*
X0114964Y0203327D01*
X0114964Y0202628D02*
X0102634Y0202628D01*
X0103333Y0201930D02*
X0114964Y0201930D01*
X0114964Y0201231D02*
X0103350Y0201231D01*
X0103296Y0200533D02*
X0114964Y0200533D01*
X0114964Y0199834D02*
X0102597Y0199834D01*
X0098623Y0199136D02*
X0114964Y0199136D01*
X0119467Y0200750D02*
X0125750Y0200750D01*
X0130490Y0205490D01*
X0137813Y0205490D01*
X0141135Y0205422D02*
X0144052Y0205422D01*
X0144181Y0205294D02*
X0144181Y0204875D01*
X0143667Y0204875D01*
X0142759Y0203967D01*
X0142759Y0199533D01*
X0143583Y0198709D01*
X0140935Y0198696D01*
X0140935Y0199762D01*
X0140843Y0200106D01*
X0140665Y0200414D01*
X0140414Y0200665D01*
X0140106Y0200843D01*
X0139762Y0200935D01*
X0138163Y0200935D01*
X0138163Y0198682D01*
X0137463Y0198679D01*
X0137463Y0200935D01*
X0135864Y0200935D01*
X0135520Y0200843D01*
X0135212Y0200665D01*
X0134961Y0200414D01*
X0134783Y0200106D01*
X0134691Y0199762D01*
X0134691Y0198665D01*
X0123969Y0198611D01*
X0123969Y0198850D01*
X0126537Y0198850D01*
X0131277Y0203590D01*
X0134491Y0203590D01*
X0134491Y0203273D01*
X0135399Y0202365D01*
X0140227Y0202365D01*
X0141135Y0203273D01*
X0141135Y0207707D01*
X0140610Y0208231D01*
X0141211Y0208231D01*
X0141750Y0208771D01*
X0142289Y0208231D01*
X0143196Y0208231D01*
X0143196Y0206278D01*
X0144181Y0205294D01*
X0143516Y0204724D02*
X0141135Y0204724D01*
X0141135Y0204025D02*
X0142818Y0204025D01*
X0142759Y0203327D02*
X0141135Y0203327D01*
X0140490Y0202628D02*
X0142759Y0202628D01*
X0142759Y0201930D02*
X0129617Y0201930D01*
X0130315Y0202628D02*
X0135136Y0202628D01*
X0134491Y0203327D02*
X0131014Y0203327D01*
X0128918Y0201231D02*
X0142759Y0201231D01*
X0142759Y0200533D02*
X0140546Y0200533D01*
X0140915Y0199834D02*
X0142759Y0199834D01*
X0143156Y0199136D02*
X0140935Y0199136D01*
X0138163Y0199136D02*
X0137463Y0199136D01*
X0137463Y0199834D02*
X0138163Y0199834D01*
X0138163Y0200533D02*
X0137463Y0200533D01*
X0135080Y0200533D02*
X0128220Y0200533D01*
X0127521Y0199834D02*
X0134711Y0199834D01*
X0134691Y0199136D02*
X0126823Y0199136D01*
X0125640Y0203327D02*
X0123969Y0203327D01*
X0123895Y0204025D02*
X0126338Y0204025D01*
X0127037Y0204724D02*
X0123196Y0204724D01*
X0123240Y0206820D02*
X0129133Y0206820D01*
X0128434Y0206121D02*
X0071566Y0206121D01*
X0072264Y0205422D02*
X0127735Y0205422D01*
X0123938Y0207518D02*
X0134491Y0207518D01*
X0135001Y0208217D02*
X0123969Y0208217D01*
X0123969Y0208915D02*
X0134913Y0208915D01*
X0134688Y0209614D02*
X0123969Y0209614D01*
X0123969Y0210312D02*
X0134688Y0210312D01*
X0134688Y0211011D02*
X0123969Y0211011D01*
X0123969Y0211709D02*
X0134688Y0211709D01*
X0134688Y0212408D02*
X0123969Y0212408D01*
X0123969Y0213106D02*
X0134688Y0213106D01*
X0134688Y0213805D02*
X0123969Y0213805D01*
X0123417Y0214503D02*
X0134779Y0214503D01*
X0134779Y0215202D02*
X0122889Y0215202D01*
X0123587Y0215900D02*
X0134779Y0215900D01*
X0134779Y0216599D02*
X0124286Y0216599D01*
X0124984Y0217297D02*
X0134779Y0217297D01*
X0134779Y0217996D02*
X0125304Y0217996D01*
X0126674Y0218694D02*
X0126826Y0218694D01*
X0123404Y0218404D02*
X0123404Y0221750D01*
X0123404Y0218404D02*
X0119467Y0214467D01*
X0119467Y0210750D01*
X0114964Y0211011D02*
X0113698Y0211011D01*
X0114396Y0211709D02*
X0114964Y0211709D01*
X0114964Y0210312D02*
X0112999Y0210312D01*
X0112301Y0209614D02*
X0114964Y0209614D01*
X0114964Y0208915D02*
X0111602Y0208915D01*
X0110904Y0208217D02*
X0114964Y0208217D01*
X0114995Y0207518D02*
X0088505Y0207518D01*
X0088536Y0208217D02*
X0091096Y0208217D01*
X0090398Y0208915D02*
X0088536Y0208915D01*
X0088536Y0209614D02*
X0089699Y0209614D01*
X0089001Y0210312D02*
X0088536Y0210312D01*
X0087807Y0206820D02*
X0115693Y0206820D01*
X0109750Y0209750D02*
X0116750Y0216750D01*
X0116750Y0226750D01*
X0126750Y0236750D01*
X0125096Y0238404D01*
X0125096Y0251750D01*
X0123196Y0248231D02*
X0123196Y0237617D01*
X0124063Y0236750D01*
X0115963Y0228650D01*
X0114850Y0227537D01*
X0114850Y0217537D01*
X0108963Y0211650D01*
X0103893Y0211650D01*
X0104293Y0212051D01*
X0104750Y0213153D01*
X0104750Y0214200D01*
X0106392Y0214200D01*
X0106891Y0214699D01*
X0106921Y0214670D01*
X0107229Y0214492D01*
X0107572Y0214400D01*
X0108900Y0214400D01*
X0108900Y0218400D01*
X0109600Y0218400D01*
X0109600Y0219100D01*
X0108900Y0219100D01*
X0108900Y0223100D01*
X0107572Y0223100D01*
X0107229Y0223008D01*
X0106921Y0222830D01*
X0106891Y0222801D01*
X0106395Y0223297D01*
X0106750Y0224153D01*
X0106750Y0225347D01*
X0106293Y0226449D01*
X0105449Y0227293D01*
X0104956Y0227498D01*
X0105000Y0227604D01*
X0105000Y0228813D01*
X0106037Y0229850D01*
X0107150Y0230963D01*
X0107150Y0238958D01*
X0107653Y0238750D01*
X0108500Y0238750D01*
X0108500Y0237604D01*
X0108995Y0236409D01*
X0109909Y0235495D01*
X0111104Y0235000D01*
X0112396Y0235000D01*
X0113591Y0235495D01*
X0114505Y0236409D01*
X0115000Y0237604D01*
X0115000Y0238813D01*
X0120304Y0244117D01*
X0120304Y0248231D01*
X0121211Y0248231D01*
X0121750Y0248771D01*
X0122289Y0248231D01*
X0123196Y0248231D01*
X0123196Y0248032D02*
X0120304Y0248032D01*
X0120304Y0247333D02*
X0123196Y0247333D01*
X0123196Y0246635D02*
X0120304Y0246635D01*
X0120304Y0245936D02*
X0123196Y0245936D01*
X0123196Y0245238D02*
X0120304Y0245238D01*
X0120304Y0244539D02*
X0123196Y0244539D01*
X0123196Y0243841D02*
X0120028Y0243841D01*
X0119329Y0243142D02*
X0123196Y0243142D01*
X0123196Y0242444D02*
X0118631Y0242444D01*
X0117932Y0241745D02*
X0123196Y0241745D01*
X0123196Y0241047D02*
X0117234Y0241047D01*
X0116535Y0240348D02*
X0123196Y0240348D01*
X0123196Y0239650D02*
X0115837Y0239650D01*
X0115138Y0238951D02*
X0123196Y0238951D01*
X0123196Y0238253D02*
X0115000Y0238253D01*
X0114979Y0237554D02*
X0123259Y0237554D01*
X0123957Y0236855D02*
X0114690Y0236855D01*
X0114253Y0236157D02*
X0123470Y0236157D01*
X0122771Y0235458D02*
X0113503Y0235458D01*
X0111750Y0238250D02*
X0118404Y0244904D01*
X0118404Y0251750D01*
X0121710Y0248730D02*
X0121790Y0248730D01*
X0126750Y0256750D02*
X0116750Y0256750D01*
X0116750Y0266750D01*
X0111750Y0260596D02*
X0108404Y0257250D01*
X0104950Y0257250D01*
X0101750Y0257250D02*
X0101750Y0261750D01*
X0096750Y0266750D01*
X0091750Y0260596D02*
X0095096Y0257250D01*
X0098550Y0257250D01*
X0100904Y0253404D02*
X0099250Y0251750D01*
X0099250Y0247923D01*
X0099250Y0240750D01*
X0101750Y0238250D01*
X0101250Y0237750D01*
X0097750Y0237750D01*
X0090844Y0230844D01*
X0071750Y0230844D01*
X0070927Y0227775D02*
X0062768Y0227775D01*
X0062768Y0228473D02*
X0068091Y0228473D01*
X0067543Y0229172D02*
X0062327Y0229172D01*
X0062768Y0227076D02*
X0070750Y0227076D01*
X0070750Y0226378D02*
X0062768Y0226378D01*
X0062768Y0225679D02*
X0070946Y0225679D01*
X0070308Y0224981D02*
X0062768Y0224981D01*
X0062768Y0224282D02*
X0069688Y0224282D01*
X0069688Y0223584D02*
X0062768Y0223584D01*
X0062768Y0222885D02*
X0069688Y0222885D01*
X0069688Y0222187D02*
X0062233Y0222187D01*
X0061388Y0220091D02*
X0069688Y0220091D01*
X0069688Y0219393D02*
X0068431Y0219393D01*
X0068612Y0218694D02*
X0070133Y0218694D01*
X0068612Y0217996D02*
X0081850Y0217996D01*
X0081850Y0217297D02*
X0068612Y0217297D01*
X0068612Y0215900D02*
X0081850Y0215900D01*
X0081850Y0215202D02*
X0068612Y0215202D01*
X0068585Y0214503D02*
X0080083Y0214503D01*
X0079531Y0213805D02*
X0068721Y0213805D01*
X0068721Y0213106D02*
X0079531Y0213106D01*
X0079531Y0212408D02*
X0068721Y0212408D01*
X0068721Y0211709D02*
X0079531Y0211709D01*
X0079531Y0211011D02*
X0068721Y0211011D01*
X0068721Y0210312D02*
X0079531Y0210312D01*
X0079531Y0209614D02*
X0068721Y0209614D01*
X0068812Y0208915D02*
X0079531Y0208915D01*
X0079531Y0208217D02*
X0069470Y0208217D01*
X0070169Y0207518D02*
X0079562Y0207518D01*
X0080260Y0206820D02*
X0070867Y0206820D01*
X0068250Y0206750D02*
X0075750Y0199250D01*
X0076250Y0199250D01*
X0083683Y0201231D02*
X0084383Y0201231D01*
X0084384Y0200533D02*
X0093704Y0200533D01*
X0093650Y0201231D02*
X0088336Y0201231D01*
X0088336Y0201930D02*
X0093667Y0201930D01*
X0094366Y0202628D02*
X0088336Y0202628D01*
X0088336Y0199834D02*
X0094403Y0199834D01*
X0094877Y0199136D02*
X0088640Y0199136D01*
X0088846Y0198437D02*
X0089227Y0198437D01*
X0084383Y0201930D02*
X0083683Y0201930D01*
X0083683Y0202628D02*
X0084383Y0202628D01*
X0084383Y0203327D02*
X0083683Y0203327D01*
X0083683Y0204025D02*
X0084383Y0204025D01*
X0084033Y0210750D02*
X0083750Y0211033D01*
X0083750Y0221250D01*
X0083250Y0221750D01*
X0080096Y0221750D01*
X0076826Y0218694D02*
X0076674Y0218694D01*
X0073404Y0221750D02*
X0073404Y0226404D01*
X0073750Y0226750D01*
X0067543Y0229870D02*
X0053700Y0229870D01*
X0053700Y0230569D02*
X0067543Y0230569D01*
X0067543Y0231267D02*
X0053700Y0231267D01*
X0053700Y0231966D02*
X0067543Y0231966D01*
X0067543Y0232664D02*
X0053700Y0232664D01*
X0053700Y0233363D02*
X0067450Y0233363D01*
X0066752Y0234061D02*
X0053700Y0234061D01*
X0053700Y0234760D02*
X0066053Y0234760D01*
X0065355Y0235458D02*
X0053700Y0235458D01*
X0053700Y0236157D02*
X0064850Y0236157D01*
X0064850Y0236855D02*
X0053700Y0236855D01*
X0053700Y0237554D02*
X0064850Y0237554D01*
X0064850Y0238253D02*
X0053700Y0238253D01*
X0053700Y0238951D02*
X0064850Y0238951D01*
X0064850Y0239650D02*
X0053700Y0239650D01*
X0053700Y0240348D02*
X0064850Y0240348D01*
X0064850Y0241047D02*
X0053700Y0241047D01*
X0053700Y0241745D02*
X0064850Y0241745D01*
X0064850Y0242444D02*
X0053700Y0242444D01*
X0053700Y0243142D02*
X0064850Y0243142D01*
X0064850Y0243841D02*
X0053700Y0243841D01*
X0053700Y0252223D02*
X0064850Y0252223D01*
X0064850Y0252921D02*
X0064538Y0252921D01*
X0064850Y0251524D02*
X0062022Y0251524D01*
X0062721Y0250826D02*
X0064850Y0250826D01*
X0064850Y0250127D02*
X0062768Y0250127D01*
X0062768Y0249429D02*
X0064850Y0249429D01*
X0064850Y0248730D02*
X0062768Y0248730D01*
X0062768Y0248032D02*
X0064850Y0248032D01*
X0064850Y0247333D02*
X0062768Y0247333D01*
X0062768Y0246635D02*
X0064850Y0246635D01*
X0064850Y0245936D02*
X0062768Y0245936D01*
X0062768Y0245238D02*
X0064850Y0245238D01*
X0064850Y0244539D02*
X0062538Y0244539D01*
X0068650Y0245116D02*
X0068650Y0251463D01*
X0071537Y0254350D01*
X0075044Y0254350D01*
X0074980Y0254240D01*
X0074888Y0253896D01*
X0074888Y0252100D01*
X0078053Y0252100D01*
X0078053Y0251400D01*
X0074888Y0251400D01*
X0074888Y0249604D01*
X0074980Y0249260D01*
X0075158Y0248953D01*
X0075409Y0248701D01*
X0075717Y0248523D01*
X0076060Y0248431D01*
X0078054Y0248431D01*
X0078054Y0251400D01*
X0078754Y0251400D01*
X0078754Y0248431D01*
X0080747Y0248431D01*
X0081090Y0248523D01*
X0081398Y0248701D01*
X0081609Y0248912D01*
X0082289Y0248231D01*
X0083196Y0248231D01*
X0083196Y0245883D01*
X0082063Y0244750D01*
X0081153Y0244750D01*
X0080051Y0244293D01*
X0079207Y0243449D01*
X0078750Y0242347D01*
X0078750Y0241437D01*
X0077931Y0240618D01*
X0075881Y0240618D01*
X0075622Y0240877D01*
X0075665Y0240953D01*
X0075757Y0241297D01*
X0075757Y0242415D01*
X0071991Y0242415D01*
X0071991Y0242896D01*
X0075757Y0242896D01*
X0075757Y0244014D01*
X0075665Y0244358D01*
X0075488Y0244666D01*
X0075236Y0244917D01*
X0074929Y0245095D01*
X0074585Y0245187D01*
X0071991Y0245187D01*
X0071991Y0242896D01*
X0071509Y0242896D01*
X0071509Y0245187D01*
X0068915Y0245187D01*
X0068650Y0245116D01*
X0068650Y0245238D02*
X0082551Y0245238D01*
X0083196Y0245936D02*
X0068650Y0245936D01*
X0068650Y0246635D02*
X0083196Y0246635D01*
X0083196Y0247333D02*
X0068650Y0247333D01*
X0068650Y0248032D02*
X0083196Y0248032D01*
X0081790Y0248730D02*
X0081427Y0248730D01*
X0078754Y0248730D02*
X0078054Y0248730D01*
X0078750Y0248750D02*
X0075750Y0245750D01*
X0073750Y0245750D01*
X0071750Y0243750D01*
X0071750Y0242656D01*
X0071991Y0242444D02*
X0078790Y0242444D01*
X0078750Y0241745D02*
X0075757Y0241745D01*
X0075690Y0241047D02*
X0078360Y0241047D01*
X0079079Y0243142D02*
X0075757Y0243142D01*
X0075757Y0243841D02*
X0079598Y0243841D01*
X0080644Y0244539D02*
X0075561Y0244539D01*
X0071991Y0244539D02*
X0071509Y0244539D01*
X0071509Y0243841D02*
X0071991Y0243841D01*
X0071991Y0243142D02*
X0071509Y0243142D01*
X0071750Y0238719D02*
X0078719Y0238719D01*
X0081750Y0241750D01*
X0085096Y0245096D01*
X0085096Y0246750D01*
X0086750Y0246750D01*
X0093077Y0246750D01*
X0094250Y0247923D01*
X0091750Y0253904D02*
X0090596Y0253904D01*
X0088250Y0256250D01*
X0070750Y0256250D01*
X0066750Y0252250D01*
X0066750Y0236750D01*
X0068719Y0234781D01*
X0071750Y0234781D01*
X0083219Y0234781D01*
X0083250Y0234750D01*
X0091750Y0226750D02*
X0086750Y0221750D01*
X0086750Y0215250D01*
X0092250Y0209750D01*
X0109750Y0209750D01*
X0109022Y0211709D02*
X0103952Y0211709D01*
X0104441Y0212408D02*
X0109721Y0212408D01*
X0110419Y0213106D02*
X0104730Y0213106D01*
X0104750Y0213805D02*
X0111118Y0213805D01*
X0110928Y0214400D02*
X0111271Y0214492D01*
X0111579Y0214670D01*
X0111830Y0214921D01*
X0112008Y0215229D01*
X0112100Y0215572D01*
X0112100Y0218400D01*
X0109600Y0218400D01*
X0109600Y0214400D01*
X0110928Y0214400D01*
X0111290Y0214503D02*
X0111816Y0214503D01*
X0111992Y0215202D02*
X0112515Y0215202D01*
X0112100Y0215900D02*
X0113213Y0215900D01*
X0113912Y0216599D02*
X0112100Y0216599D01*
X0112100Y0217297D02*
X0114610Y0217297D01*
X0114850Y0217996D02*
X0112100Y0217996D01*
X0112100Y0219100D02*
X0109600Y0219100D01*
X0109600Y0223100D01*
X0110928Y0223100D01*
X0111271Y0223008D01*
X0111579Y0222830D01*
X0111830Y0222579D01*
X0112008Y0222271D01*
X0112100Y0221928D01*
X0112100Y0219100D01*
X0112100Y0219393D02*
X0114850Y0219393D01*
X0114850Y0220091D02*
X0112100Y0220091D01*
X0112100Y0220790D02*
X0114850Y0220790D01*
X0114850Y0221488D02*
X0112100Y0221488D01*
X0112031Y0222187D02*
X0114850Y0222187D01*
X0114850Y0222885D02*
X0111484Y0222885D01*
X0109600Y0222885D02*
X0108900Y0222885D01*
X0108900Y0222187D02*
X0109600Y0222187D01*
X0109600Y0221488D02*
X0108900Y0221488D01*
X0108900Y0220790D02*
X0109600Y0220790D01*
X0109600Y0220091D02*
X0108900Y0220091D01*
X0108900Y0219393D02*
X0109600Y0219393D01*
X0109600Y0218694D02*
X0114850Y0218694D01*
X0118650Y0218694D02*
X0120133Y0218694D01*
X0120570Y0218257D02*
X0118650Y0216337D01*
X0118650Y0225963D01*
X0126750Y0234063D01*
X0127543Y0233270D01*
X0127543Y0232958D01*
X0127878Y0232623D01*
X0127835Y0232547D01*
X0127743Y0232203D01*
X0127743Y0231085D01*
X0131509Y0231085D01*
X0131509Y0230604D01*
X0127743Y0230604D01*
X0127743Y0229486D01*
X0127835Y0229142D01*
X0128012Y0228834D01*
X0128264Y0228583D01*
X0128571Y0228405D01*
X0128915Y0228313D01*
X0131509Y0228313D01*
X0131509Y0230604D01*
X0131991Y0230604D01*
X0131991Y0228313D01*
X0134585Y0228313D01*
X0134850Y0228384D01*
X0134850Y0223650D01*
X0133812Y0223650D01*
X0133812Y0224361D01*
X0132904Y0225268D01*
X0127289Y0225268D01*
X0126750Y0224729D01*
X0126211Y0225268D01*
X0120596Y0225268D01*
X0119688Y0224361D01*
X0119688Y0219139D01*
X0120570Y0218257D01*
X0120309Y0217996D02*
X0118650Y0217996D01*
X0118650Y0217297D02*
X0119610Y0217297D01*
X0118912Y0216599D02*
X0118650Y0216599D01*
X0118650Y0219393D02*
X0119688Y0219393D01*
X0119688Y0220091D02*
X0118650Y0220091D01*
X0118650Y0220790D02*
X0119688Y0220790D01*
X0119688Y0221488D02*
X0118650Y0221488D01*
X0118650Y0222187D02*
X0119688Y0222187D01*
X0119688Y0222885D02*
X0118650Y0222885D01*
X0118650Y0223584D02*
X0119688Y0223584D01*
X0119688Y0224282D02*
X0118650Y0224282D01*
X0118650Y0224981D02*
X0120308Y0224981D01*
X0118650Y0225679D02*
X0134850Y0225679D01*
X0134850Y0224981D02*
X0133192Y0224981D01*
X0133812Y0224282D02*
X0134850Y0224282D01*
X0134850Y0226378D02*
X0119065Y0226378D01*
X0119763Y0227076D02*
X0134850Y0227076D01*
X0134850Y0227775D02*
X0120462Y0227775D01*
X0121160Y0228473D02*
X0128454Y0228473D01*
X0127827Y0229172D02*
X0121859Y0229172D01*
X0122557Y0229870D02*
X0127743Y0229870D01*
X0127743Y0230569D02*
X0123256Y0230569D01*
X0123954Y0231267D02*
X0127743Y0231267D01*
X0127844Y0230844D02*
X0126750Y0229750D01*
X0127844Y0230844D02*
X0131750Y0230844D01*
X0131509Y0230569D02*
X0131991Y0230569D01*
X0131991Y0229870D02*
X0131509Y0229870D01*
X0131509Y0229172D02*
X0131991Y0229172D01*
X0131991Y0228473D02*
X0131509Y0228473D01*
X0127743Y0231966D02*
X0124653Y0231966D01*
X0125351Y0232664D02*
X0127836Y0232664D01*
X0127450Y0233363D02*
X0126050Y0233363D01*
X0126748Y0234061D02*
X0126752Y0234061D01*
X0128719Y0234781D02*
X0126750Y0236750D01*
X0128719Y0234781D02*
X0131750Y0234781D01*
X0135219Y0234781D01*
X0136750Y0233250D01*
X0136750Y0221750D01*
X0143750Y0221750D01*
X0145203Y0220297D01*
X0145203Y0216750D01*
X0145096Y0211750D02*
X0145096Y0207065D01*
X0146081Y0206081D01*
X0146081Y0201750D01*
X0146081Y0186081D01*
X0136750Y0176750D01*
X0126061Y0176750D01*
X0125392Y0177419D01*
X0133010Y0198010D02*
X0137813Y0198010D01*
X0141135Y0206121D02*
X0143353Y0206121D01*
X0143196Y0206820D02*
X0141135Y0206820D01*
X0141135Y0207518D02*
X0143196Y0207518D01*
X0143196Y0208217D02*
X0140625Y0208217D01*
X0138404Y0211750D02*
X0138297Y0211856D01*
X0138297Y0216750D01*
X0134779Y0218694D02*
X0133367Y0218694D01*
X0133812Y0219393D02*
X0135157Y0219393D01*
X0136750Y0221750D02*
X0130096Y0221750D01*
X0127001Y0224981D02*
X0126499Y0224981D01*
X0120676Y0233363D02*
X0107150Y0233363D01*
X0107150Y0234061D02*
X0121374Y0234061D01*
X0122073Y0234760D02*
X0107150Y0234760D01*
X0107150Y0235458D02*
X0109997Y0235458D01*
X0109247Y0236157D02*
X0107150Y0236157D01*
X0107150Y0236855D02*
X0108810Y0236855D01*
X0108521Y0237554D02*
X0107150Y0237554D01*
X0107150Y0238253D02*
X0108500Y0238253D01*
X0107168Y0238951D02*
X0107150Y0238951D01*
X0105250Y0239750D02*
X0105250Y0231750D01*
X0101750Y0228250D01*
X0105000Y0228473D02*
X0108700Y0228473D01*
X0108700Y0228400D02*
X0111600Y0228400D01*
X0111600Y0231300D01*
X0111450Y0231300D01*
X0110860Y0231183D01*
X0110305Y0230953D01*
X0109806Y0230619D01*
X0109381Y0230194D01*
X0109047Y0229695D01*
X0108817Y0229140D01*
X0108700Y0228550D01*
X0108700Y0228400D01*
X0108700Y0228100D02*
X0108700Y0227950D01*
X0108817Y0227360D01*
X0109047Y0226805D01*
X0109381Y0226306D01*
X0109806Y0225881D01*
X0110305Y0225547D01*
X0110860Y0225317D01*
X0111450Y0225200D01*
X0111600Y0225200D01*
X0111600Y0228100D01*
X0111900Y0228100D01*
X0111900Y0228400D01*
X0114800Y0228400D01*
X0114800Y0228550D01*
X0114683Y0229140D01*
X0114453Y0229695D01*
X0114119Y0230194D01*
X0113694Y0230619D01*
X0113195Y0230953D01*
X0112640Y0231183D01*
X0112050Y0231300D01*
X0111900Y0231300D01*
X0111900Y0228400D01*
X0111600Y0228400D01*
X0111600Y0228100D01*
X0108700Y0228100D01*
X0108735Y0227775D02*
X0105000Y0227775D01*
X0105666Y0227076D02*
X0108935Y0227076D01*
X0109333Y0226378D02*
X0106323Y0226378D01*
X0106612Y0225679D02*
X0110107Y0225679D01*
X0111600Y0225679D02*
X0111900Y0225679D01*
X0111900Y0225200D02*
X0112050Y0225200D01*
X0112640Y0225317D01*
X0113195Y0225547D01*
X0113694Y0225881D01*
X0114119Y0226306D01*
X0114453Y0226805D01*
X0114683Y0227360D01*
X0114800Y0227950D01*
X0114800Y0228100D01*
X0111900Y0228100D01*
X0111900Y0225200D01*
X0111900Y0226378D02*
X0111600Y0226378D01*
X0111600Y0227076D02*
X0111900Y0227076D01*
X0111900Y0227775D02*
X0111600Y0227775D01*
X0111600Y0228473D02*
X0111900Y0228473D01*
X0111900Y0229172D02*
X0111600Y0229172D01*
X0111600Y0229870D02*
X0111900Y0229870D01*
X0111900Y0230569D02*
X0111600Y0230569D01*
X0111600Y0231267D02*
X0111900Y0231267D01*
X0112214Y0231267D02*
X0118580Y0231267D01*
X0117882Y0230569D02*
X0113744Y0230569D01*
X0114335Y0229870D02*
X0117183Y0229870D01*
X0116485Y0229172D02*
X0114669Y0229172D01*
X0114800Y0228473D02*
X0115786Y0228473D01*
X0115963Y0228650D02*
X0115963Y0228650D01*
X0115088Y0227775D02*
X0114765Y0227775D01*
X0114850Y0227076D02*
X0114565Y0227076D01*
X0114850Y0226378D02*
X0114167Y0226378D01*
X0114850Y0225679D02*
X0113393Y0225679D01*
X0114850Y0224981D02*
X0106750Y0224981D01*
X0106750Y0224282D02*
X0114850Y0224282D01*
X0114850Y0223584D02*
X0106514Y0223584D01*
X0106807Y0222885D02*
X0107016Y0222885D01*
X0108900Y0217996D02*
X0109600Y0217996D01*
X0109600Y0217297D02*
X0108900Y0217297D01*
X0108900Y0216599D02*
X0109600Y0216599D01*
X0109600Y0215900D02*
X0108900Y0215900D01*
X0108900Y0215202D02*
X0109600Y0215202D01*
X0109600Y0214503D02*
X0108900Y0214503D01*
X0107210Y0214503D02*
X0106695Y0214503D01*
X0101750Y0213750D02*
X0100250Y0213750D01*
X0099250Y0214750D01*
X0099250Y0218750D01*
X0094250Y0218750D02*
X0094250Y0225750D01*
X0096750Y0228250D01*
X0096750Y0231750D01*
X0098250Y0233250D01*
X0101750Y0233250D01*
X0105359Y0229172D02*
X0108831Y0229172D01*
X0109165Y0229870D02*
X0106057Y0229870D01*
X0106756Y0230569D02*
X0109756Y0230569D01*
X0111286Y0231267D02*
X0107150Y0231267D01*
X0107150Y0231966D02*
X0119279Y0231966D01*
X0119977Y0232664D02*
X0107150Y0232664D01*
X0105250Y0239750D02*
X0107250Y0241750D01*
X0108250Y0241750D01*
X0109250Y0242750D01*
X0109250Y0247923D01*
X0104250Y0247923D02*
X0103750Y0247423D01*
X0103750Y0242750D01*
X0100904Y0253404D02*
X0111250Y0253404D01*
X0111750Y0253904D01*
X0113904Y0253904D01*
X0116750Y0256750D01*
X0126750Y0256750D02*
X0131750Y0251750D01*
X0131750Y0242656D01*
X0129813Y0238750D02*
X0137750Y0238750D01*
X0129813Y0238750D02*
X0129781Y0238719D01*
X0155700Y0238951D02*
X0166850Y0238951D01*
X0166850Y0238253D02*
X0155700Y0238253D01*
X0155700Y0237554D02*
X0166850Y0237554D01*
X0166850Y0236855D02*
X0155700Y0236855D01*
X0155700Y0236157D02*
X0166850Y0236157D01*
X0166850Y0235963D02*
X0167963Y0234850D01*
X0169543Y0233270D01*
X0169543Y0232958D01*
X0169688Y0232813D01*
X0169543Y0232668D01*
X0169543Y0229021D01*
X0170450Y0228113D01*
X0173068Y0228113D01*
X0172750Y0227347D01*
X0172750Y0226153D01*
X0173116Y0225268D01*
X0172596Y0225268D01*
X0171688Y0224361D01*
X0171688Y0219139D01*
X0172596Y0218231D01*
X0178211Y0218231D01*
X0178750Y0218771D01*
X0179289Y0218231D01*
X0183850Y0218231D01*
X0183850Y0214859D01*
X0182439Y0214859D01*
X0181531Y0213951D01*
X0181531Y0207549D01*
X0182439Y0206641D01*
X0189628Y0206641D01*
X0190536Y0207549D01*
X0190536Y0210777D01*
X0192350Y0208963D01*
X0193463Y0207850D01*
X0204944Y0207850D01*
X0204944Y0202319D01*
X0204413Y0202850D01*
X0199234Y0202850D01*
X0199208Y0202870D01*
X0199047Y0202850D01*
X0198453Y0202850D01*
X0198292Y0202870D01*
X0198266Y0202850D01*
X0196587Y0202850D01*
X0195650Y0201913D01*
X0195650Y0200587D01*
X0196587Y0199650D01*
X0196904Y0199650D01*
X0196904Y0199350D01*
X0196834Y0198792D01*
X0196904Y0198702D01*
X0196904Y0198650D01*
X0192963Y0198650D01*
X0192758Y0198445D01*
X0190846Y0198435D01*
X0190833Y0198952D01*
X0190336Y0199425D01*
X0190336Y0200400D01*
X0186384Y0200400D01*
X0186384Y0201100D01*
X0190336Y0201100D01*
X0190336Y0203487D01*
X0190244Y0203830D01*
X0190066Y0204138D01*
X0189815Y0204389D01*
X0189507Y0204567D01*
X0189164Y0204659D01*
X0186383Y0204659D01*
X0186383Y0201100D01*
X0185683Y0201100D01*
X0185683Y0200400D01*
X0181731Y0200400D01*
X0181731Y0198390D01*
X0181140Y0198387D01*
X0181250Y0198653D01*
X0181250Y0199847D01*
X0180793Y0200949D01*
X0179949Y0201793D01*
X0178847Y0202250D01*
X0177653Y0202250D01*
X0177500Y0202187D01*
X0171037Y0208650D01*
X0170812Y0208650D01*
X0170812Y0209361D01*
X0170704Y0209468D01*
X0170721Y0209485D01*
X0170721Y0214015D01*
X0170504Y0214232D01*
X0170520Y0214260D01*
X0170612Y0214604D01*
X0170612Y0216400D01*
X0167446Y0216400D01*
X0167446Y0217100D01*
X0166746Y0217100D01*
X0166746Y0220068D01*
X0164753Y0220068D01*
X0164410Y0219976D01*
X0164102Y0219799D01*
X0163891Y0219588D01*
X0163211Y0220268D01*
X0157596Y0220268D01*
X0156688Y0219361D01*
X0156688Y0214139D01*
X0156796Y0214032D01*
X0156779Y0214015D01*
X0156779Y0209485D01*
X0156796Y0209468D01*
X0156688Y0209361D01*
X0156688Y0204282D01*
X0156432Y0204026D01*
X0156432Y0199474D01*
X0157322Y0198584D01*
X0157322Y0198268D01*
X0155700Y0198260D01*
X0155700Y0221814D01*
X0163861Y0221814D01*
X0164768Y0222722D01*
X0164768Y0228731D01*
X0163861Y0229639D01*
X0155700Y0229639D01*
X0155700Y0243861D01*
X0163861Y0243861D01*
X0164768Y0244769D01*
X0164768Y0250778D01*
X0163861Y0251686D01*
X0155700Y0251686D01*
X0155700Y0257193D01*
X0156555Y0255712D01*
X0159054Y0253616D01*
X0162119Y0252500D01*
X0165381Y0252500D01*
X0166850Y0253035D01*
X0166850Y0235963D01*
X0167355Y0235458D02*
X0155700Y0235458D01*
X0155700Y0234760D02*
X0168053Y0234760D01*
X0168752Y0234061D02*
X0155700Y0234061D01*
X0155700Y0233363D02*
X0169450Y0233363D01*
X0169543Y0232664D02*
X0155700Y0232664D01*
X0155700Y0231966D02*
X0169543Y0231966D01*
X0169543Y0231267D02*
X0155700Y0231267D01*
X0155700Y0230569D02*
X0169543Y0230569D01*
X0169543Y0229870D02*
X0155700Y0229870D01*
X0155700Y0221488D02*
X0171688Y0221488D01*
X0171688Y0220790D02*
X0155700Y0220790D01*
X0155700Y0220091D02*
X0157419Y0220091D01*
X0156720Y0219393D02*
X0155700Y0219393D01*
X0155700Y0218694D02*
X0156688Y0218694D01*
X0156688Y0217996D02*
X0155700Y0217996D01*
X0155700Y0217297D02*
X0156688Y0217297D01*
X0156688Y0216599D02*
X0155700Y0216599D01*
X0155700Y0215900D02*
X0156688Y0215900D01*
X0156688Y0215202D02*
X0155700Y0215202D01*
X0155700Y0214503D02*
X0156688Y0214503D01*
X0156779Y0213805D02*
X0155700Y0213805D01*
X0155700Y0213106D02*
X0156779Y0213106D01*
X0156779Y0212408D02*
X0155700Y0212408D01*
X0155700Y0211709D02*
X0156779Y0211709D01*
X0156779Y0211011D02*
X0155700Y0211011D01*
X0155700Y0210312D02*
X0156779Y0210312D01*
X0156779Y0209614D02*
X0155700Y0209614D01*
X0155700Y0208915D02*
X0156688Y0208915D01*
X0156688Y0208217D02*
X0155700Y0208217D01*
X0155700Y0207518D02*
X0156688Y0207518D01*
X0156688Y0206820D02*
X0155700Y0206820D01*
X0155700Y0206121D02*
X0156688Y0206121D01*
X0156688Y0205422D02*
X0155700Y0205422D01*
X0155700Y0204724D02*
X0156688Y0204724D01*
X0156432Y0204025D02*
X0155700Y0204025D01*
X0155700Y0203327D02*
X0156432Y0203327D01*
X0156432Y0202628D02*
X0155700Y0202628D01*
X0155700Y0201930D02*
X0156432Y0201930D01*
X0156432Y0201231D02*
X0155700Y0201231D01*
X0155700Y0200533D02*
X0156432Y0200533D01*
X0156432Y0199834D02*
X0155700Y0199834D01*
X0155700Y0199136D02*
X0156770Y0199136D01*
X0157322Y0198437D02*
X0155700Y0198437D01*
X0159222Y0201750D02*
X0159222Y0191778D01*
X0173581Y0177419D01*
X0180148Y0177419D01*
X0181161Y0198437D02*
X0181731Y0198437D01*
X0181731Y0199136D02*
X0181250Y0199136D01*
X0181250Y0199834D02*
X0181731Y0199834D01*
X0180966Y0200533D02*
X0185683Y0200533D01*
X0186033Y0200750D02*
X0183250Y0200750D01*
X0178750Y0205250D01*
X0178750Y0212750D01*
X0174750Y0216750D01*
X0167096Y0216750D01*
X0167446Y0216599D02*
X0183850Y0216599D01*
X0183850Y0217297D02*
X0170612Y0217297D01*
X0170612Y0217100D02*
X0170612Y0218896D01*
X0170520Y0219240D01*
X0170342Y0219547D01*
X0170091Y0219799D01*
X0169783Y0219976D01*
X0169440Y0220068D01*
X0167446Y0220068D01*
X0167446Y0217100D01*
X0170612Y0217100D01*
X0170612Y0217996D02*
X0183850Y0217996D01*
X0183850Y0215900D02*
X0170612Y0215900D01*
X0170612Y0215202D02*
X0183850Y0215202D01*
X0182083Y0214503D02*
X0170585Y0214503D01*
X0170721Y0213805D02*
X0181531Y0213805D01*
X0181531Y0213106D02*
X0170721Y0213106D01*
X0170721Y0212408D02*
X0181531Y0212408D01*
X0181531Y0211709D02*
X0170721Y0211709D01*
X0170721Y0211011D02*
X0181531Y0211011D01*
X0181531Y0210312D02*
X0170721Y0210312D01*
X0170721Y0209614D02*
X0181531Y0209614D01*
X0181531Y0208915D02*
X0170812Y0208915D01*
X0171470Y0208217D02*
X0181531Y0208217D01*
X0181562Y0207518D02*
X0172169Y0207518D01*
X0172867Y0206820D02*
X0182260Y0206820D01*
X0182903Y0204659D02*
X0182560Y0204567D01*
X0182252Y0204389D01*
X0182000Y0204138D01*
X0181823Y0203830D01*
X0181731Y0203487D01*
X0181731Y0201100D01*
X0185683Y0201100D01*
X0185683Y0204659D01*
X0182903Y0204659D01*
X0181935Y0204025D02*
X0175662Y0204025D01*
X0176360Y0203327D02*
X0181731Y0203327D01*
X0181731Y0202628D02*
X0177059Y0202628D01*
X0179619Y0201930D02*
X0181731Y0201930D01*
X0181731Y0201231D02*
X0180511Y0201231D01*
X0178250Y0199250D02*
X0177750Y0199250D01*
X0170250Y0206750D01*
X0167096Y0206750D01*
X0167203Y0206856D01*
X0167203Y0211750D01*
X0167446Y0217297D02*
X0166746Y0217297D01*
X0166746Y0217996D02*
X0167446Y0217996D01*
X0167446Y0218694D02*
X0166746Y0218694D01*
X0166746Y0219393D02*
X0167446Y0219393D01*
X0170431Y0219393D02*
X0171688Y0219393D01*
X0171688Y0220091D02*
X0163388Y0220091D01*
X0164233Y0222187D02*
X0171688Y0222187D01*
X0171688Y0222885D02*
X0164768Y0222885D01*
X0164768Y0223584D02*
X0171688Y0223584D01*
X0171688Y0224282D02*
X0164768Y0224282D01*
X0164768Y0224981D02*
X0172308Y0224981D01*
X0172946Y0225679D02*
X0164768Y0225679D01*
X0164768Y0226378D02*
X0172750Y0226378D01*
X0172750Y0227076D02*
X0164768Y0227076D01*
X0164768Y0227775D02*
X0172927Y0227775D01*
X0175404Y0226404D02*
X0175750Y0226750D01*
X0175404Y0226404D02*
X0175404Y0221750D01*
X0178674Y0218694D02*
X0178826Y0218694D01*
X0182096Y0221750D02*
X0185250Y0221750D01*
X0185750Y0221250D01*
X0185750Y0211033D01*
X0186033Y0210750D01*
X0190536Y0210312D02*
X0191001Y0210312D01*
X0190536Y0209614D02*
X0191699Y0209614D01*
X0192398Y0208915D02*
X0190536Y0208915D01*
X0190536Y0208217D02*
X0193096Y0208217D01*
X0194250Y0209750D02*
X0211750Y0209750D01*
X0218750Y0216750D01*
X0218750Y0226750D01*
X0228750Y0236750D01*
X0227096Y0238404D01*
X0227096Y0251750D01*
X0225196Y0248231D02*
X0225196Y0237617D01*
X0226063Y0236750D01*
X0217963Y0228650D01*
X0216850Y0227537D01*
X0216850Y0217537D01*
X0210963Y0211650D01*
X0208556Y0211650D01*
X0208556Y0214364D01*
X0208891Y0214699D01*
X0208921Y0214670D01*
X0209229Y0214492D01*
X0209572Y0214400D01*
X0210900Y0214400D01*
X0210900Y0218400D01*
X0211600Y0218400D01*
X0211600Y0219100D01*
X0210900Y0219100D01*
X0210900Y0223100D01*
X0209572Y0223100D01*
X0209229Y0223008D01*
X0208921Y0222830D01*
X0208891Y0222801D01*
X0208556Y0223136D01*
X0208556Y0223685D01*
X0208750Y0224153D01*
X0208750Y0225347D01*
X0208556Y0225815D01*
X0208556Y0230369D01*
X0209150Y0230963D01*
X0209150Y0238958D01*
X0209653Y0238750D01*
X0210500Y0238750D01*
X0210500Y0237604D01*
X0210995Y0236409D01*
X0211909Y0235495D01*
X0213104Y0235000D01*
X0214396Y0235000D01*
X0215591Y0235495D01*
X0216505Y0236409D01*
X0217000Y0237604D01*
X0217000Y0238813D01*
X0222304Y0244117D01*
X0222304Y0248231D01*
X0223211Y0248231D01*
X0223750Y0248771D01*
X0224289Y0248231D01*
X0225196Y0248231D01*
X0225196Y0248032D02*
X0222304Y0248032D01*
X0222304Y0247333D02*
X0225196Y0247333D01*
X0225196Y0246635D02*
X0222304Y0246635D01*
X0222304Y0245936D02*
X0225196Y0245936D01*
X0225196Y0245238D02*
X0222304Y0245238D01*
X0222304Y0244539D02*
X0225196Y0244539D01*
X0225196Y0243841D02*
X0222028Y0243841D01*
X0221329Y0243142D02*
X0225196Y0243142D01*
X0225196Y0242444D02*
X0220631Y0242444D01*
X0219932Y0241745D02*
X0225196Y0241745D01*
X0225196Y0241047D02*
X0219234Y0241047D01*
X0218535Y0240348D02*
X0225196Y0240348D01*
X0225196Y0239650D02*
X0217837Y0239650D01*
X0217138Y0238951D02*
X0225196Y0238951D01*
X0225196Y0238253D02*
X0217000Y0238253D01*
X0216979Y0237554D02*
X0225259Y0237554D01*
X0225957Y0236855D02*
X0216690Y0236855D01*
X0216253Y0236157D02*
X0225470Y0236157D01*
X0224771Y0235458D02*
X0215503Y0235458D01*
X0213750Y0238250D02*
X0220404Y0244904D01*
X0220404Y0251750D01*
X0223710Y0248730D02*
X0223790Y0248730D01*
X0228750Y0256750D02*
X0218750Y0256750D01*
X0218750Y0266750D01*
X0213750Y0260596D02*
X0210404Y0257250D01*
X0206950Y0257250D01*
X0203750Y0257250D02*
X0203750Y0261750D01*
X0198750Y0266750D01*
X0193750Y0260596D02*
X0197096Y0257250D01*
X0200550Y0257250D01*
X0202904Y0253404D02*
X0201250Y0251750D01*
X0201250Y0247923D01*
X0201250Y0240750D01*
X0203750Y0238250D01*
X0203250Y0237750D01*
X0199750Y0237750D01*
X0192844Y0230844D01*
X0173750Y0230844D01*
X0173750Y0234781D02*
X0185219Y0234781D01*
X0185250Y0234750D01*
X0180719Y0238719D02*
X0183750Y0241750D01*
X0187096Y0245096D01*
X0187096Y0246750D01*
X0188750Y0246750D01*
X0195077Y0246750D01*
X0196250Y0247923D01*
X0193750Y0253904D02*
X0192596Y0253904D01*
X0190250Y0256250D01*
X0172750Y0256250D01*
X0168750Y0252250D01*
X0168750Y0236750D01*
X0170719Y0234781D01*
X0173750Y0234781D01*
X0173750Y0238719D02*
X0180719Y0238719D01*
X0179931Y0240618D02*
X0180750Y0241437D01*
X0180750Y0242347D01*
X0181207Y0243449D01*
X0182051Y0244293D01*
X0183153Y0244750D01*
X0184063Y0244750D01*
X0185196Y0245883D01*
X0185196Y0248231D01*
X0184289Y0248231D01*
X0183609Y0248912D01*
X0183398Y0248701D01*
X0183090Y0248523D01*
X0182747Y0248431D01*
X0180754Y0248431D01*
X0180754Y0251400D01*
X0180054Y0251400D01*
X0180054Y0248431D01*
X0178060Y0248431D01*
X0177717Y0248523D01*
X0177409Y0248701D01*
X0177158Y0248953D01*
X0176980Y0249260D01*
X0176888Y0249604D01*
X0176888Y0251400D01*
X0180053Y0251400D01*
X0180053Y0252100D01*
X0176888Y0252100D01*
X0176888Y0253896D01*
X0176980Y0254240D01*
X0177044Y0254350D01*
X0173537Y0254350D01*
X0170650Y0251463D01*
X0170650Y0245116D01*
X0170915Y0245187D01*
X0173509Y0245187D01*
X0173509Y0242896D01*
X0173991Y0242896D01*
X0177757Y0242896D01*
X0177757Y0244014D01*
X0177665Y0244358D01*
X0177488Y0244666D01*
X0177236Y0244917D01*
X0176929Y0245095D01*
X0176585Y0245187D01*
X0173991Y0245187D01*
X0173991Y0242896D01*
X0173991Y0242415D01*
X0177757Y0242415D01*
X0177757Y0241297D01*
X0177665Y0240953D01*
X0177622Y0240877D01*
X0177881Y0240618D01*
X0179931Y0240618D01*
X0180360Y0241047D02*
X0177690Y0241047D01*
X0177757Y0241745D02*
X0180750Y0241745D01*
X0180790Y0242444D02*
X0173991Y0242444D01*
X0173750Y0242656D02*
X0173750Y0243750D01*
X0175750Y0245750D01*
X0177750Y0245750D01*
X0180750Y0248750D01*
X0180750Y0251404D01*
X0180404Y0251750D01*
X0175250Y0251750D01*
X0176888Y0252223D02*
X0171410Y0252223D01*
X0172108Y0252921D02*
X0176888Y0252921D01*
X0176888Y0253620D02*
X0172807Y0253620D01*
X0173505Y0254318D02*
X0177026Y0254318D01*
X0176888Y0250826D02*
X0170650Y0250826D01*
X0170650Y0250127D02*
X0176888Y0250127D01*
X0176935Y0249429D02*
X0170650Y0249429D01*
X0170650Y0248730D02*
X0177380Y0248730D01*
X0180054Y0248730D02*
X0180754Y0248730D01*
X0180754Y0249429D02*
X0180054Y0249429D01*
X0180054Y0250127D02*
X0180754Y0250127D01*
X0180754Y0250826D02*
X0180054Y0250826D01*
X0180053Y0251524D02*
X0170711Y0251524D01*
X0170650Y0248032D02*
X0185196Y0248032D01*
X0185196Y0247333D02*
X0170650Y0247333D01*
X0170650Y0246635D02*
X0185196Y0246635D01*
X0185196Y0245936D02*
X0170650Y0245936D01*
X0170650Y0245238D02*
X0184551Y0245238D01*
X0182644Y0244539D02*
X0177561Y0244539D01*
X0177757Y0243841D02*
X0181598Y0243841D01*
X0181079Y0243142D02*
X0177757Y0243142D01*
X0173991Y0243142D02*
X0173509Y0243142D01*
X0173509Y0243841D02*
X0173991Y0243841D01*
X0173991Y0244539D02*
X0173509Y0244539D01*
X0166850Y0244539D02*
X0164538Y0244539D01*
X0164768Y0245238D02*
X0166850Y0245238D01*
X0166850Y0245936D02*
X0164768Y0245936D01*
X0164768Y0246635D02*
X0166850Y0246635D01*
X0166850Y0247333D02*
X0164768Y0247333D01*
X0164768Y0248032D02*
X0166850Y0248032D01*
X0166850Y0248730D02*
X0164768Y0248730D01*
X0164768Y0249429D02*
X0166850Y0249429D01*
X0166850Y0250127D02*
X0164768Y0250127D01*
X0164721Y0250826D02*
X0166850Y0250826D01*
X0166850Y0251524D02*
X0164022Y0251524D01*
X0166538Y0252921D02*
X0166850Y0252921D01*
X0166850Y0252223D02*
X0155700Y0252223D01*
X0155700Y0252921D02*
X0160962Y0252921D01*
X0159054Y0253616D02*
X0159054Y0253616D01*
X0159049Y0253620D02*
X0155700Y0253620D01*
X0155700Y0254318D02*
X0158216Y0254318D01*
X0157384Y0255017D02*
X0155700Y0255017D01*
X0155700Y0255715D02*
X0156553Y0255715D01*
X0156555Y0255712D02*
X0156555Y0255712D01*
X0156150Y0256414D02*
X0155700Y0256414D01*
X0155700Y0257112D02*
X0155747Y0257112D01*
X0155700Y0243841D02*
X0166850Y0243841D01*
X0166850Y0243142D02*
X0155700Y0243142D01*
X0155700Y0242444D02*
X0166850Y0242444D01*
X0166850Y0241745D02*
X0155700Y0241745D01*
X0155700Y0241047D02*
X0166850Y0241047D01*
X0166850Y0240348D02*
X0155700Y0240348D01*
X0155700Y0239650D02*
X0166850Y0239650D01*
X0164327Y0229172D02*
X0169543Y0229172D01*
X0170091Y0228473D02*
X0164768Y0228473D01*
X0170612Y0218694D02*
X0172133Y0218694D01*
X0173566Y0206121D02*
X0204944Y0206121D01*
X0204944Y0206820D02*
X0189807Y0206820D01*
X0190505Y0207518D02*
X0204944Y0207518D01*
X0204944Y0205422D02*
X0174264Y0205422D01*
X0174963Y0204724D02*
X0204944Y0204724D01*
X0204944Y0204025D02*
X0190131Y0204025D01*
X0190336Y0203327D02*
X0204944Y0203327D01*
X0204944Y0202628D02*
X0204634Y0202628D01*
X0208556Y0211709D02*
X0211022Y0211709D01*
X0211721Y0212408D02*
X0208556Y0212408D01*
X0208556Y0213106D02*
X0212419Y0213106D01*
X0213118Y0213805D02*
X0208556Y0213805D01*
X0208695Y0214503D02*
X0209210Y0214503D01*
X0210900Y0214503D02*
X0211600Y0214503D01*
X0211600Y0214400D02*
X0212928Y0214400D01*
X0213271Y0214492D01*
X0213579Y0214670D01*
X0213830Y0214921D01*
X0214008Y0215229D01*
X0214100Y0215572D01*
X0214100Y0218400D01*
X0211600Y0218400D01*
X0211600Y0214400D01*
X0211600Y0215202D02*
X0210900Y0215202D01*
X0210900Y0215900D02*
X0211600Y0215900D01*
X0211600Y0216599D02*
X0210900Y0216599D01*
X0210900Y0217297D02*
X0211600Y0217297D01*
X0211600Y0217996D02*
X0210900Y0217996D01*
X0211600Y0218694D02*
X0216850Y0218694D01*
X0216850Y0217996D02*
X0214100Y0217996D01*
X0214100Y0217297D02*
X0216610Y0217297D01*
X0215912Y0216599D02*
X0214100Y0216599D01*
X0214100Y0215900D02*
X0215213Y0215900D01*
X0214515Y0215202D02*
X0213992Y0215202D01*
X0213816Y0214503D02*
X0213290Y0214503D01*
X0214100Y0219100D02*
X0211600Y0219100D01*
X0211600Y0223100D01*
X0212928Y0223100D01*
X0213271Y0223008D01*
X0213579Y0222830D01*
X0213830Y0222579D01*
X0214008Y0222271D01*
X0214100Y0221928D01*
X0214100Y0219100D01*
X0214100Y0219393D02*
X0216850Y0219393D01*
X0216850Y0220091D02*
X0214100Y0220091D01*
X0214100Y0220790D02*
X0216850Y0220790D01*
X0216850Y0221488D02*
X0214100Y0221488D01*
X0214031Y0222187D02*
X0216850Y0222187D01*
X0216850Y0222885D02*
X0213484Y0222885D01*
X0211600Y0222885D02*
X0210900Y0222885D01*
X0210900Y0222187D02*
X0211600Y0222187D01*
X0211600Y0221488D02*
X0210900Y0221488D01*
X0210900Y0220790D02*
X0211600Y0220790D01*
X0211600Y0220091D02*
X0210900Y0220091D01*
X0210900Y0219393D02*
X0211600Y0219393D01*
X0209016Y0222885D02*
X0208807Y0222885D01*
X0208556Y0223584D02*
X0216850Y0223584D01*
X0216850Y0224282D02*
X0208750Y0224282D01*
X0208750Y0224981D02*
X0216850Y0224981D01*
X0216850Y0225679D02*
X0215393Y0225679D01*
X0215195Y0225547D02*
X0215694Y0225881D01*
X0216119Y0226306D01*
X0216453Y0226805D01*
X0216683Y0227360D01*
X0216800Y0227950D01*
X0216800Y0228100D01*
X0213900Y0228100D01*
X0213900Y0228400D01*
X0216800Y0228400D01*
X0216800Y0228550D01*
X0216683Y0229140D01*
X0216453Y0229695D01*
X0216119Y0230194D01*
X0215694Y0230619D01*
X0215195Y0230953D01*
X0214640Y0231183D01*
X0214050Y0231300D01*
X0213900Y0231300D01*
X0213900Y0228400D01*
X0213600Y0228400D01*
X0213600Y0231300D01*
X0213450Y0231300D01*
X0212860Y0231183D01*
X0212305Y0230953D01*
X0211806Y0230619D01*
X0211381Y0230194D01*
X0211047Y0229695D01*
X0210817Y0229140D01*
X0210700Y0228550D01*
X0210700Y0228400D01*
X0213600Y0228400D01*
X0213600Y0228100D01*
X0213900Y0228100D01*
X0213900Y0225200D01*
X0214050Y0225200D01*
X0214640Y0225317D01*
X0215195Y0225547D01*
X0216167Y0226378D02*
X0216850Y0226378D01*
X0216850Y0227076D02*
X0216565Y0227076D01*
X0216765Y0227775D02*
X0217088Y0227775D01*
X0216800Y0228473D02*
X0217786Y0228473D01*
X0218485Y0229172D02*
X0216669Y0229172D01*
X0216335Y0229870D02*
X0219183Y0229870D01*
X0219882Y0230569D02*
X0215744Y0230569D01*
X0214214Y0231267D02*
X0220580Y0231267D01*
X0221279Y0231966D02*
X0209150Y0231966D01*
X0209150Y0232664D02*
X0221977Y0232664D01*
X0222676Y0233363D02*
X0209150Y0233363D01*
X0209150Y0234061D02*
X0223374Y0234061D01*
X0224073Y0234760D02*
X0209150Y0234760D01*
X0209150Y0235458D02*
X0211997Y0235458D01*
X0211247Y0236157D02*
X0209150Y0236157D01*
X0209150Y0236855D02*
X0210810Y0236855D01*
X0210521Y0237554D02*
X0209150Y0237554D01*
X0209150Y0238253D02*
X0210500Y0238253D01*
X0209168Y0238951D02*
X0209150Y0238951D01*
X0207250Y0239750D02*
X0207250Y0231750D01*
X0203750Y0228250D01*
X0198750Y0228250D02*
X0198750Y0231750D01*
X0200250Y0233250D01*
X0203750Y0233250D01*
X0198750Y0228250D02*
X0196250Y0225750D01*
X0196250Y0218750D01*
X0201250Y0218750D02*
X0201250Y0214750D01*
X0202250Y0213750D01*
X0203750Y0213750D01*
X0203250Y0213750D01*
X0194250Y0209750D02*
X0188750Y0215250D01*
X0188750Y0221750D01*
X0193750Y0226750D01*
X0207250Y0239750D02*
X0209250Y0241750D01*
X0210250Y0241750D01*
X0211250Y0242750D01*
X0211250Y0247923D01*
X0206250Y0247923D02*
X0205750Y0247423D01*
X0205750Y0242750D01*
X0202904Y0253404D02*
X0213250Y0253404D01*
X0213750Y0253904D01*
X0215904Y0253904D01*
X0218750Y0256750D01*
X0228750Y0256750D02*
X0233750Y0251750D01*
X0233750Y0242656D01*
X0231813Y0238750D02*
X0239750Y0238750D01*
X0237219Y0234781D02*
X0233750Y0234781D01*
X0230719Y0234781D01*
X0228750Y0236750D01*
X0228750Y0234063D02*
X0229543Y0233270D01*
X0229543Y0232958D01*
X0229878Y0232623D01*
X0229835Y0232547D01*
X0229743Y0232203D01*
X0229743Y0231085D01*
X0233509Y0231085D01*
X0233509Y0230604D01*
X0229743Y0230604D01*
X0229743Y0229486D01*
X0229835Y0229142D01*
X0230012Y0228834D01*
X0230264Y0228583D01*
X0230571Y0228405D01*
X0230915Y0228313D01*
X0233509Y0228313D01*
X0233509Y0230604D01*
X0233991Y0230604D01*
X0233991Y0228313D01*
X0236585Y0228313D01*
X0236850Y0228384D01*
X0236850Y0223650D01*
X0235812Y0223650D01*
X0235812Y0224361D01*
X0234904Y0225268D01*
X0229289Y0225268D01*
X0228750Y0224729D01*
X0228211Y0225268D01*
X0222596Y0225268D01*
X0221688Y0224361D01*
X0221688Y0219139D01*
X0222570Y0218257D01*
X0220650Y0216337D01*
X0220650Y0225963D01*
X0228750Y0234063D01*
X0228748Y0234061D02*
X0228752Y0234061D01*
X0229450Y0233363D02*
X0228050Y0233363D01*
X0227351Y0232664D02*
X0229836Y0232664D01*
X0229743Y0231966D02*
X0226653Y0231966D01*
X0225954Y0231267D02*
X0229743Y0231267D01*
X0229844Y0230844D02*
X0228750Y0229750D01*
X0229743Y0229870D02*
X0224557Y0229870D01*
X0223859Y0229172D02*
X0229827Y0229172D01*
X0230454Y0228473D02*
X0223160Y0228473D01*
X0222462Y0227775D02*
X0236850Y0227775D01*
X0236850Y0227076D02*
X0221763Y0227076D01*
X0221065Y0226378D02*
X0236850Y0226378D01*
X0236850Y0225679D02*
X0220650Y0225679D01*
X0220650Y0224981D02*
X0222308Y0224981D01*
X0221688Y0224282D02*
X0220650Y0224282D01*
X0220650Y0223584D02*
X0221688Y0223584D01*
X0221688Y0222885D02*
X0220650Y0222885D01*
X0220650Y0222187D02*
X0221688Y0222187D01*
X0221688Y0221488D02*
X0220650Y0221488D01*
X0220650Y0220790D02*
X0221688Y0220790D01*
X0221688Y0220091D02*
X0220650Y0220091D01*
X0220650Y0219393D02*
X0221688Y0219393D01*
X0222133Y0218694D02*
X0220650Y0218694D01*
X0220650Y0217996D02*
X0222309Y0217996D01*
X0221610Y0217297D02*
X0220650Y0217297D01*
X0220650Y0216599D02*
X0220912Y0216599D01*
X0221467Y0214467D02*
X0225404Y0218404D01*
X0225404Y0221750D01*
X0228499Y0224981D02*
X0229001Y0224981D01*
X0232096Y0221750D02*
X0238750Y0221750D01*
X0238750Y0233250D01*
X0237219Y0234781D01*
X0233750Y0230844D02*
X0229844Y0230844D01*
X0229743Y0230569D02*
X0225256Y0230569D01*
X0233509Y0230569D02*
X0233991Y0230569D01*
X0233991Y0229870D02*
X0233509Y0229870D01*
X0233509Y0229172D02*
X0233991Y0229172D01*
X0233991Y0228473D02*
X0233509Y0228473D01*
X0235192Y0224981D02*
X0236850Y0224981D01*
X0236850Y0224282D02*
X0235812Y0224282D01*
X0238750Y0221750D02*
X0245750Y0221750D01*
X0247203Y0220297D01*
X0247203Y0216750D01*
X0247096Y0211750D02*
X0247096Y0207065D01*
X0248081Y0206081D01*
X0248081Y0201750D01*
X0248081Y0186081D01*
X0238750Y0176750D01*
X0228061Y0176750D01*
X0227392Y0177419D01*
X0225969Y0198611D02*
X0225969Y0198850D01*
X0228537Y0198850D01*
X0233277Y0203590D01*
X0236491Y0203590D01*
X0236491Y0203273D01*
X0237399Y0202365D01*
X0242227Y0202365D01*
X0243135Y0203273D01*
X0243135Y0207707D01*
X0242610Y0208231D01*
X0243211Y0208231D01*
X0243750Y0208771D01*
X0244289Y0208231D01*
X0245196Y0208231D01*
X0245196Y0206278D01*
X0246181Y0205294D01*
X0246181Y0204875D01*
X0245667Y0204875D01*
X0244759Y0203967D01*
X0244759Y0199533D01*
X0245583Y0198709D01*
X0242935Y0198696D01*
X0242935Y0199762D01*
X0242843Y0200106D01*
X0242665Y0200414D01*
X0242414Y0200665D01*
X0242106Y0200843D01*
X0241762Y0200935D01*
X0240163Y0200935D01*
X0240163Y0198682D01*
X0239463Y0198679D01*
X0239463Y0200935D01*
X0237864Y0200935D01*
X0237520Y0200843D01*
X0237212Y0200665D01*
X0236961Y0200414D01*
X0236783Y0200106D01*
X0236691Y0199762D01*
X0236691Y0198665D01*
X0225969Y0198611D01*
X0227750Y0200750D02*
X0221467Y0200750D01*
X0227750Y0200750D02*
X0232490Y0205490D01*
X0239813Y0205490D01*
X0243135Y0205422D02*
X0246052Y0205422D01*
X0245516Y0204724D02*
X0243135Y0204724D01*
X0243135Y0204025D02*
X0244818Y0204025D01*
X0244759Y0203327D02*
X0243135Y0203327D01*
X0242490Y0202628D02*
X0244759Y0202628D01*
X0244759Y0201930D02*
X0231617Y0201930D01*
X0232315Y0202628D02*
X0237136Y0202628D01*
X0236491Y0203327D02*
X0233014Y0203327D01*
X0230918Y0201231D02*
X0244759Y0201231D01*
X0244759Y0200533D02*
X0242546Y0200533D01*
X0242915Y0199834D02*
X0244759Y0199834D01*
X0245156Y0199136D02*
X0242935Y0199136D01*
X0240163Y0199136D02*
X0239463Y0199136D01*
X0239463Y0199834D02*
X0240163Y0199834D01*
X0240163Y0200533D02*
X0239463Y0200533D01*
X0237080Y0200533D02*
X0230220Y0200533D01*
X0229521Y0199834D02*
X0236711Y0199834D01*
X0236691Y0199136D02*
X0228823Y0199136D01*
X0235010Y0198010D02*
X0239813Y0198010D01*
X0243135Y0206121D02*
X0245353Y0206121D01*
X0245196Y0206820D02*
X0243135Y0206820D01*
X0243135Y0207518D02*
X0245196Y0207518D01*
X0245196Y0208217D02*
X0242625Y0208217D01*
X0240404Y0211750D02*
X0240297Y0211856D01*
X0240297Y0216750D01*
X0257700Y0216599D02*
X0258688Y0216599D01*
X0258688Y0217297D02*
X0257700Y0217297D01*
X0257700Y0217996D02*
X0258688Y0217996D01*
X0258688Y0218694D02*
X0257700Y0218694D01*
X0257700Y0219393D02*
X0258720Y0219393D01*
X0258688Y0219361D02*
X0258688Y0214139D01*
X0258796Y0214032D01*
X0258779Y0214015D01*
X0258779Y0209485D01*
X0258796Y0209468D01*
X0258688Y0209361D01*
X0258688Y0204282D01*
X0258432Y0204026D01*
X0258432Y0199474D01*
X0259322Y0198584D01*
X0259322Y0198268D01*
X0257700Y0198260D01*
X0257700Y0221814D01*
X0265861Y0221814D01*
X0266768Y0222722D01*
X0266768Y0228731D01*
X0265861Y0229639D01*
X0257700Y0229639D01*
X0257700Y0243861D01*
X0265861Y0243861D01*
X0266768Y0244769D01*
X0266768Y0250778D01*
X0265861Y0251686D01*
X0257700Y0251686D01*
X0257700Y0257193D01*
X0258555Y0255712D01*
X0261054Y0253616D01*
X0264119Y0252500D01*
X0267381Y0252500D01*
X0268850Y0253035D01*
X0268850Y0235963D01*
X0269963Y0234850D01*
X0271543Y0233270D01*
X0271543Y0232958D01*
X0271688Y0232813D01*
X0271543Y0232668D01*
X0271543Y0229021D01*
X0272450Y0228113D01*
X0275068Y0228113D01*
X0274750Y0227347D01*
X0274750Y0226153D01*
X0275116Y0225268D01*
X0274596Y0225268D01*
X0273688Y0224361D01*
X0273688Y0219139D01*
X0274596Y0218231D01*
X0280211Y0218231D01*
X0280750Y0218771D01*
X0281289Y0218231D01*
X0285850Y0218231D01*
X0285850Y0214859D01*
X0284439Y0214859D01*
X0283531Y0213951D01*
X0283531Y0207549D01*
X0284439Y0206641D01*
X0291628Y0206641D01*
X0292536Y0207549D01*
X0292536Y0210777D01*
X0294350Y0208963D01*
X0295463Y0207850D01*
X0306944Y0207850D01*
X0306944Y0202319D01*
X0306413Y0202850D01*
X0301234Y0202850D01*
X0301208Y0202870D01*
X0301047Y0202850D01*
X0300453Y0202850D01*
X0300292Y0202870D01*
X0300266Y0202850D01*
X0298587Y0202850D01*
X0297650Y0201913D01*
X0297650Y0200587D01*
X0298587Y0199650D01*
X0298904Y0199650D01*
X0298904Y0199350D01*
X0298834Y0198792D01*
X0298904Y0198702D01*
X0298904Y0198650D01*
X0294963Y0198650D01*
X0294758Y0198445D01*
X0292846Y0198435D01*
X0292833Y0198952D01*
X0292336Y0199425D01*
X0292336Y0200400D01*
X0288384Y0200400D01*
X0288384Y0201100D01*
X0292336Y0201100D01*
X0292336Y0203487D01*
X0292244Y0203830D01*
X0292066Y0204138D01*
X0291815Y0204389D01*
X0291507Y0204567D01*
X0291164Y0204659D01*
X0288383Y0204659D01*
X0288383Y0201100D01*
X0287683Y0201100D01*
X0287683Y0200400D01*
X0283731Y0200400D01*
X0283731Y0198390D01*
X0283140Y0198387D01*
X0283250Y0198653D01*
X0283250Y0199847D01*
X0282793Y0200949D01*
X0281949Y0201793D01*
X0280847Y0202250D01*
X0279653Y0202250D01*
X0279500Y0202187D01*
X0273037Y0208650D01*
X0272812Y0208650D01*
X0272812Y0209361D01*
X0272704Y0209468D01*
X0272721Y0209485D01*
X0272721Y0214015D01*
X0272504Y0214232D01*
X0272520Y0214260D01*
X0272612Y0214604D01*
X0272612Y0216400D01*
X0269446Y0216400D01*
X0269446Y0217100D01*
X0268746Y0217100D01*
X0268746Y0220068D01*
X0266753Y0220068D01*
X0266410Y0219976D01*
X0266102Y0219799D01*
X0265891Y0219588D01*
X0265211Y0220268D01*
X0259596Y0220268D01*
X0258688Y0219361D01*
X0259419Y0220091D02*
X0257700Y0220091D01*
X0257700Y0220790D02*
X0273688Y0220790D01*
X0273688Y0221488D02*
X0257700Y0221488D01*
X0257700Y0215900D02*
X0258688Y0215900D01*
X0258688Y0215202D02*
X0257700Y0215202D01*
X0257700Y0214503D02*
X0258688Y0214503D01*
X0258779Y0213805D02*
X0257700Y0213805D01*
X0257700Y0213106D02*
X0258779Y0213106D01*
X0258779Y0212408D02*
X0257700Y0212408D01*
X0257700Y0211709D02*
X0258779Y0211709D01*
X0258779Y0211011D02*
X0257700Y0211011D01*
X0257700Y0210312D02*
X0258779Y0210312D01*
X0258779Y0209614D02*
X0257700Y0209614D01*
X0257700Y0208915D02*
X0258688Y0208915D01*
X0258688Y0208217D02*
X0257700Y0208217D01*
X0257700Y0207518D02*
X0258688Y0207518D01*
X0258688Y0206820D02*
X0257700Y0206820D01*
X0257700Y0206121D02*
X0258688Y0206121D01*
X0258688Y0205422D02*
X0257700Y0205422D01*
X0257700Y0204724D02*
X0258688Y0204724D01*
X0258432Y0204025D02*
X0257700Y0204025D01*
X0257700Y0203327D02*
X0258432Y0203327D01*
X0258432Y0202628D02*
X0257700Y0202628D01*
X0257700Y0201930D02*
X0258432Y0201930D01*
X0258432Y0201231D02*
X0257700Y0201231D01*
X0257700Y0200533D02*
X0258432Y0200533D01*
X0258432Y0199834D02*
X0257700Y0199834D01*
X0257700Y0199136D02*
X0258770Y0199136D01*
X0259322Y0198437D02*
X0257700Y0198437D01*
X0261222Y0201750D02*
X0261222Y0191778D01*
X0275581Y0177419D01*
X0282148Y0177419D01*
X0283161Y0198437D02*
X0283731Y0198437D01*
X0283731Y0199136D02*
X0283250Y0199136D01*
X0283250Y0199834D02*
X0283731Y0199834D01*
X0282966Y0200533D02*
X0287683Y0200533D01*
X0288033Y0200750D02*
X0285250Y0200750D01*
X0280750Y0205250D01*
X0280750Y0212750D01*
X0276750Y0216750D01*
X0269096Y0216750D01*
X0269446Y0216599D02*
X0285850Y0216599D01*
X0285850Y0217297D02*
X0272612Y0217297D01*
X0272612Y0217100D02*
X0272612Y0218896D01*
X0272520Y0219240D01*
X0272342Y0219547D01*
X0272091Y0219799D01*
X0271783Y0219976D01*
X0271440Y0220068D01*
X0269446Y0220068D01*
X0269446Y0217100D01*
X0272612Y0217100D01*
X0272612Y0217996D02*
X0285850Y0217996D01*
X0285850Y0215900D02*
X0272612Y0215900D01*
X0272612Y0215202D02*
X0285850Y0215202D01*
X0284083Y0214503D02*
X0272585Y0214503D01*
X0272721Y0213805D02*
X0283531Y0213805D01*
X0283531Y0213106D02*
X0272721Y0213106D01*
X0272721Y0212408D02*
X0283531Y0212408D01*
X0283531Y0211709D02*
X0272721Y0211709D01*
X0272721Y0211011D02*
X0283531Y0211011D01*
X0283531Y0210312D02*
X0272721Y0210312D01*
X0272721Y0209614D02*
X0283531Y0209614D01*
X0283531Y0208915D02*
X0272812Y0208915D01*
X0273470Y0208217D02*
X0283531Y0208217D01*
X0283562Y0207518D02*
X0274169Y0207518D01*
X0274867Y0206820D02*
X0284260Y0206820D01*
X0284903Y0204659D02*
X0284560Y0204567D01*
X0284252Y0204389D01*
X0284000Y0204138D01*
X0283823Y0203830D01*
X0283731Y0203487D01*
X0283731Y0201100D01*
X0287683Y0201100D01*
X0287683Y0204659D01*
X0284903Y0204659D01*
X0283935Y0204025D02*
X0277662Y0204025D01*
X0278360Y0203327D02*
X0283731Y0203327D01*
X0283731Y0202628D02*
X0279059Y0202628D01*
X0281619Y0201930D02*
X0283731Y0201930D01*
X0283731Y0201231D02*
X0282511Y0201231D01*
X0280250Y0199250D02*
X0279750Y0199250D01*
X0272250Y0206750D01*
X0269096Y0206750D01*
X0269203Y0206856D01*
X0269203Y0211750D01*
X0269446Y0217297D02*
X0268746Y0217297D01*
X0268746Y0217996D02*
X0269446Y0217996D01*
X0269446Y0218694D02*
X0268746Y0218694D01*
X0268746Y0219393D02*
X0269446Y0219393D01*
X0272431Y0219393D02*
X0273688Y0219393D01*
X0273688Y0220091D02*
X0265388Y0220091D01*
X0266233Y0222187D02*
X0273688Y0222187D01*
X0273688Y0222885D02*
X0266768Y0222885D01*
X0266768Y0223584D02*
X0273688Y0223584D01*
X0273688Y0224282D02*
X0266768Y0224282D01*
X0266768Y0224981D02*
X0274308Y0224981D01*
X0274946Y0225679D02*
X0266768Y0225679D01*
X0266768Y0226378D02*
X0274750Y0226378D01*
X0274750Y0227076D02*
X0266768Y0227076D01*
X0266768Y0227775D02*
X0274927Y0227775D01*
X0277404Y0226404D02*
X0277750Y0226750D01*
X0277404Y0226404D02*
X0277404Y0221750D01*
X0280674Y0218694D02*
X0280826Y0218694D01*
X0284096Y0221750D02*
X0287250Y0221750D01*
X0287750Y0221250D01*
X0287750Y0211033D01*
X0288033Y0210750D01*
X0292536Y0210312D02*
X0293001Y0210312D01*
X0292536Y0209614D02*
X0293699Y0209614D01*
X0294398Y0208915D02*
X0292536Y0208915D01*
X0292536Y0208217D02*
X0295096Y0208217D01*
X0296250Y0209750D02*
X0313750Y0209750D01*
X0320750Y0216750D01*
X0320750Y0226750D01*
X0330750Y0236750D01*
X0329096Y0238404D01*
X0329096Y0251750D01*
X0327196Y0248231D02*
X0327196Y0237617D01*
X0328063Y0236750D01*
X0318850Y0227537D01*
X0318850Y0217537D01*
X0312963Y0211650D01*
X0310556Y0211650D01*
X0310556Y0214364D01*
X0310891Y0214699D01*
X0310921Y0214670D01*
X0311229Y0214492D01*
X0311572Y0214400D01*
X0312900Y0214400D01*
X0312900Y0218400D01*
X0313600Y0218400D01*
X0313600Y0219100D01*
X0312900Y0219100D01*
X0312900Y0223100D01*
X0311572Y0223100D01*
X0311229Y0223008D01*
X0310921Y0222830D01*
X0310891Y0222801D01*
X0310556Y0223136D01*
X0310556Y0223685D01*
X0310750Y0224153D01*
X0310750Y0225347D01*
X0310556Y0225815D01*
X0310556Y0230369D01*
X0311150Y0230963D01*
X0311150Y0238958D01*
X0311653Y0238750D01*
X0312500Y0238750D01*
X0312500Y0237604D01*
X0312995Y0236409D01*
X0313909Y0235495D01*
X0315104Y0235000D01*
X0316396Y0235000D01*
X0317591Y0235495D01*
X0318505Y0236409D01*
X0319000Y0237604D01*
X0319000Y0238813D01*
X0324304Y0244117D01*
X0324304Y0248231D01*
X0325211Y0248231D01*
X0325750Y0248771D01*
X0326289Y0248231D01*
X0327196Y0248231D01*
X0327196Y0248032D02*
X0324304Y0248032D01*
X0324304Y0247333D02*
X0327196Y0247333D01*
X0327196Y0246635D02*
X0324304Y0246635D01*
X0324304Y0245936D02*
X0327196Y0245936D01*
X0327196Y0245238D02*
X0324304Y0245238D01*
X0324304Y0244539D02*
X0327196Y0244539D01*
X0327196Y0243841D02*
X0324028Y0243841D01*
X0323329Y0243142D02*
X0327196Y0243142D01*
X0327196Y0242444D02*
X0322631Y0242444D01*
X0321932Y0241745D02*
X0327196Y0241745D01*
X0327196Y0241047D02*
X0321234Y0241047D01*
X0320535Y0240348D02*
X0327196Y0240348D01*
X0327196Y0239650D02*
X0319837Y0239650D01*
X0319138Y0238951D02*
X0327196Y0238951D01*
X0327196Y0238253D02*
X0319000Y0238253D01*
X0318979Y0237554D02*
X0327259Y0237554D01*
X0327957Y0236855D02*
X0318690Y0236855D01*
X0318253Y0236157D02*
X0327470Y0236157D01*
X0326771Y0235458D02*
X0317503Y0235458D01*
X0315750Y0238250D02*
X0322404Y0244904D01*
X0322404Y0251750D01*
X0325710Y0248730D02*
X0325790Y0248730D01*
X0330750Y0256750D02*
X0320750Y0256750D01*
X0320750Y0266750D01*
X0315750Y0260596D02*
X0312404Y0257250D01*
X0308950Y0257250D01*
X0305750Y0257250D02*
X0305750Y0261750D01*
X0300750Y0266750D01*
X0295750Y0260596D02*
X0299096Y0257250D01*
X0302550Y0257250D01*
X0304904Y0253404D02*
X0303250Y0251750D01*
X0303250Y0247923D01*
X0303250Y0240750D01*
X0305750Y0238250D01*
X0305250Y0237750D01*
X0301750Y0237750D01*
X0294844Y0230844D01*
X0275750Y0230844D01*
X0275750Y0234781D02*
X0287219Y0234781D01*
X0287250Y0234750D01*
X0282719Y0238719D02*
X0285750Y0241750D01*
X0289096Y0245096D01*
X0289096Y0246750D01*
X0290750Y0246750D01*
X0297077Y0246750D01*
X0298250Y0247923D01*
X0295750Y0253904D02*
X0294596Y0253904D01*
X0292250Y0256250D01*
X0274750Y0256250D01*
X0270750Y0252250D01*
X0270750Y0236750D01*
X0272719Y0234781D01*
X0275750Y0234781D01*
X0275750Y0238719D02*
X0282719Y0238719D01*
X0281931Y0240618D02*
X0282750Y0241437D01*
X0282750Y0242347D01*
X0283207Y0243449D01*
X0284051Y0244293D01*
X0285153Y0244750D01*
X0286063Y0244750D01*
X0287196Y0245883D01*
X0287196Y0248231D01*
X0286289Y0248231D01*
X0285609Y0248912D01*
X0285398Y0248701D01*
X0285090Y0248523D01*
X0284747Y0248431D01*
X0282754Y0248431D01*
X0282754Y0251400D01*
X0282054Y0251400D01*
X0282054Y0248431D01*
X0280060Y0248431D01*
X0279717Y0248523D01*
X0279409Y0248701D01*
X0279158Y0248953D01*
X0278980Y0249260D01*
X0278888Y0249604D01*
X0278888Y0251400D01*
X0282053Y0251400D01*
X0282053Y0252100D01*
X0278888Y0252100D01*
X0278888Y0253896D01*
X0278980Y0254240D01*
X0279044Y0254350D01*
X0275537Y0254350D01*
X0272650Y0251463D01*
X0272650Y0245116D01*
X0272915Y0245187D01*
X0275509Y0245187D01*
X0275509Y0242896D01*
X0275991Y0242896D01*
X0279757Y0242896D01*
X0279757Y0244014D01*
X0279665Y0244358D01*
X0279488Y0244666D01*
X0279236Y0244917D01*
X0278929Y0245095D01*
X0278585Y0245187D01*
X0275991Y0245187D01*
X0275991Y0242896D01*
X0275991Y0242415D01*
X0279757Y0242415D01*
X0279757Y0241297D01*
X0279665Y0240953D01*
X0279622Y0240877D01*
X0279881Y0240618D01*
X0281931Y0240618D01*
X0282360Y0241047D02*
X0279690Y0241047D01*
X0279757Y0241745D02*
X0282750Y0241745D01*
X0282790Y0242444D02*
X0275991Y0242444D01*
X0275750Y0242656D02*
X0275750Y0243750D01*
X0277750Y0245750D01*
X0279750Y0245750D01*
X0282750Y0248750D01*
X0282750Y0251404D01*
X0282404Y0251750D01*
X0277250Y0251750D01*
X0278888Y0252223D02*
X0273410Y0252223D01*
X0274108Y0252921D02*
X0278888Y0252921D01*
X0278888Y0253620D02*
X0274807Y0253620D01*
X0275505Y0254318D02*
X0279026Y0254318D01*
X0278888Y0250826D02*
X0272650Y0250826D01*
X0272650Y0250127D02*
X0278888Y0250127D01*
X0278935Y0249429D02*
X0272650Y0249429D01*
X0272650Y0248730D02*
X0279380Y0248730D01*
X0282054Y0248730D02*
X0282754Y0248730D01*
X0282754Y0249429D02*
X0282054Y0249429D01*
X0282054Y0250127D02*
X0282754Y0250127D01*
X0282754Y0250826D02*
X0282054Y0250826D01*
X0282053Y0251524D02*
X0272711Y0251524D01*
X0272650Y0248032D02*
X0287196Y0248032D01*
X0287196Y0247333D02*
X0272650Y0247333D01*
X0272650Y0246635D02*
X0287196Y0246635D01*
X0287196Y0245936D02*
X0272650Y0245936D01*
X0272650Y0245238D02*
X0286551Y0245238D01*
X0284644Y0244539D02*
X0279561Y0244539D01*
X0279757Y0243841D02*
X0283598Y0243841D01*
X0283079Y0243142D02*
X0279757Y0243142D01*
X0275991Y0243142D02*
X0275509Y0243142D01*
X0275509Y0243841D02*
X0275991Y0243841D01*
X0275991Y0244539D02*
X0275509Y0244539D01*
X0268850Y0244539D02*
X0266538Y0244539D01*
X0266768Y0245238D02*
X0268850Y0245238D01*
X0268850Y0245936D02*
X0266768Y0245936D01*
X0266768Y0246635D02*
X0268850Y0246635D01*
X0268850Y0247333D02*
X0266768Y0247333D01*
X0266768Y0248032D02*
X0268850Y0248032D01*
X0268850Y0248730D02*
X0266768Y0248730D01*
X0266768Y0249429D02*
X0268850Y0249429D01*
X0268850Y0250127D02*
X0266768Y0250127D01*
X0266721Y0250826D02*
X0268850Y0250826D01*
X0268850Y0251524D02*
X0266022Y0251524D01*
X0268538Y0252921D02*
X0268850Y0252921D01*
X0268850Y0252223D02*
X0257700Y0252223D01*
X0257700Y0252921D02*
X0262962Y0252921D01*
X0261049Y0253620D02*
X0257700Y0253620D01*
X0257700Y0254318D02*
X0260216Y0254318D01*
X0259384Y0255017D02*
X0257700Y0255017D01*
X0257700Y0255715D02*
X0258553Y0255715D01*
X0258555Y0255712D02*
X0258555Y0255712D01*
X0258150Y0256414D02*
X0257700Y0256414D01*
X0257700Y0257112D02*
X0257747Y0257112D01*
X0257700Y0243841D02*
X0268850Y0243841D01*
X0268850Y0243142D02*
X0257700Y0243142D01*
X0257700Y0242444D02*
X0268850Y0242444D01*
X0268850Y0241745D02*
X0257700Y0241745D01*
X0257700Y0241047D02*
X0268850Y0241047D01*
X0268850Y0240348D02*
X0257700Y0240348D01*
X0257700Y0239650D02*
X0268850Y0239650D01*
X0268850Y0238951D02*
X0257700Y0238951D01*
X0257700Y0238253D02*
X0268850Y0238253D01*
X0268850Y0237554D02*
X0257700Y0237554D01*
X0257700Y0236855D02*
X0268850Y0236855D01*
X0268850Y0236157D02*
X0257700Y0236157D01*
X0257700Y0235458D02*
X0269355Y0235458D01*
X0270053Y0234760D02*
X0257700Y0234760D01*
X0257700Y0234061D02*
X0270752Y0234061D01*
X0271450Y0233363D02*
X0257700Y0233363D01*
X0257700Y0232664D02*
X0271543Y0232664D01*
X0271543Y0231966D02*
X0257700Y0231966D01*
X0257700Y0231267D02*
X0271543Y0231267D01*
X0271543Y0230569D02*
X0257700Y0230569D01*
X0257700Y0229870D02*
X0271543Y0229870D01*
X0271543Y0229172D02*
X0266327Y0229172D01*
X0266768Y0228473D02*
X0272091Y0228473D01*
X0272612Y0218694D02*
X0274133Y0218694D01*
X0275566Y0206121D02*
X0306944Y0206121D01*
X0306944Y0206820D02*
X0291807Y0206820D01*
X0292505Y0207518D02*
X0306944Y0207518D01*
X0306944Y0205422D02*
X0276264Y0205422D01*
X0276963Y0204724D02*
X0306944Y0204724D01*
X0306944Y0204025D02*
X0292131Y0204025D01*
X0292336Y0203327D02*
X0306944Y0203327D01*
X0306944Y0202628D02*
X0306634Y0202628D01*
X0310556Y0211709D02*
X0313022Y0211709D01*
X0313721Y0212408D02*
X0310556Y0212408D01*
X0310556Y0213106D02*
X0314419Y0213106D01*
X0315118Y0213805D02*
X0310556Y0213805D01*
X0310695Y0214503D02*
X0311210Y0214503D01*
X0312900Y0214503D02*
X0313600Y0214503D01*
X0313600Y0214400D02*
X0314928Y0214400D01*
X0315271Y0214492D01*
X0315579Y0214670D01*
X0315830Y0214921D01*
X0316008Y0215229D01*
X0316100Y0215572D01*
X0316100Y0218400D01*
X0313600Y0218400D01*
X0313600Y0214400D01*
X0313600Y0215202D02*
X0312900Y0215202D01*
X0312900Y0215900D02*
X0313600Y0215900D01*
X0313600Y0216599D02*
X0312900Y0216599D01*
X0312900Y0217297D02*
X0313600Y0217297D01*
X0313600Y0217996D02*
X0312900Y0217996D01*
X0313600Y0218694D02*
X0318850Y0218694D01*
X0318850Y0217996D02*
X0316100Y0217996D01*
X0316100Y0217297D02*
X0318610Y0217297D01*
X0317912Y0216599D02*
X0316100Y0216599D01*
X0316100Y0215900D02*
X0317213Y0215900D01*
X0316515Y0215202D02*
X0315992Y0215202D01*
X0315816Y0214503D02*
X0315290Y0214503D01*
X0316100Y0219100D02*
X0313600Y0219100D01*
X0313600Y0223100D01*
X0314928Y0223100D01*
X0315271Y0223008D01*
X0315579Y0222830D01*
X0315830Y0222579D01*
X0316008Y0222271D01*
X0316100Y0221928D01*
X0316100Y0219100D01*
X0316100Y0219393D02*
X0318850Y0219393D01*
X0318850Y0220091D02*
X0316100Y0220091D01*
X0316100Y0220790D02*
X0318850Y0220790D01*
X0318850Y0221488D02*
X0316100Y0221488D01*
X0316031Y0222187D02*
X0318850Y0222187D01*
X0318850Y0222885D02*
X0315484Y0222885D01*
X0313600Y0222885D02*
X0312900Y0222885D01*
X0312900Y0222187D02*
X0313600Y0222187D01*
X0313600Y0221488D02*
X0312900Y0221488D01*
X0312900Y0220790D02*
X0313600Y0220790D01*
X0313600Y0220091D02*
X0312900Y0220091D01*
X0312900Y0219393D02*
X0313600Y0219393D01*
X0311016Y0222885D02*
X0310807Y0222885D01*
X0310556Y0223584D02*
X0318850Y0223584D01*
X0318850Y0224282D02*
X0310750Y0224282D01*
X0310750Y0224981D02*
X0318850Y0224981D01*
X0318850Y0225679D02*
X0317393Y0225679D01*
X0317195Y0225547D02*
X0317694Y0225881D01*
X0318119Y0226306D01*
X0318453Y0226805D01*
X0318683Y0227360D01*
X0318800Y0227950D01*
X0318800Y0228100D01*
X0315900Y0228100D01*
X0315900Y0228400D01*
X0318800Y0228400D01*
X0318800Y0228550D01*
X0318683Y0229140D01*
X0318453Y0229695D01*
X0318119Y0230194D01*
X0317694Y0230619D01*
X0317195Y0230953D01*
X0316640Y0231183D01*
X0316050Y0231300D01*
X0315900Y0231300D01*
X0315900Y0228400D01*
X0315600Y0228400D01*
X0315600Y0231300D01*
X0315450Y0231300D01*
X0314860Y0231183D01*
X0314305Y0230953D01*
X0313806Y0230619D01*
X0313381Y0230194D01*
X0313047Y0229695D01*
X0312817Y0229140D01*
X0312700Y0228550D01*
X0312700Y0228400D01*
X0315600Y0228400D01*
X0315600Y0228100D01*
X0315900Y0228100D01*
X0315900Y0225200D01*
X0316050Y0225200D01*
X0316640Y0225317D01*
X0317195Y0225547D01*
X0318167Y0226378D02*
X0318850Y0226378D01*
X0318850Y0227076D02*
X0318565Y0227076D01*
X0318765Y0227775D02*
X0319088Y0227775D01*
X0318800Y0228473D02*
X0319786Y0228473D01*
X0320485Y0229172D02*
X0318669Y0229172D01*
X0318335Y0229870D02*
X0321183Y0229870D01*
X0321882Y0230569D02*
X0317744Y0230569D01*
X0316214Y0231267D02*
X0322580Y0231267D01*
X0323279Y0231966D02*
X0311150Y0231966D01*
X0311150Y0232664D02*
X0323977Y0232664D01*
X0324676Y0233363D02*
X0311150Y0233363D01*
X0311150Y0234061D02*
X0325374Y0234061D01*
X0326073Y0234760D02*
X0311150Y0234760D01*
X0311150Y0235458D02*
X0313997Y0235458D01*
X0313247Y0236157D02*
X0311150Y0236157D01*
X0311150Y0236855D02*
X0312810Y0236855D01*
X0312521Y0237554D02*
X0311150Y0237554D01*
X0311150Y0238253D02*
X0312500Y0238253D01*
X0311168Y0238951D02*
X0311150Y0238951D01*
X0309250Y0239750D02*
X0309250Y0231750D01*
X0305750Y0228250D01*
X0310556Y0228473D02*
X0312700Y0228473D01*
X0312700Y0228100D02*
X0312700Y0227950D01*
X0312817Y0227360D01*
X0313047Y0226805D01*
X0313381Y0226306D01*
X0313806Y0225881D01*
X0314305Y0225547D01*
X0314860Y0225317D01*
X0315450Y0225200D01*
X0315600Y0225200D01*
X0315600Y0228100D01*
X0312700Y0228100D01*
X0312735Y0227775D02*
X0310556Y0227775D01*
X0310556Y0227076D02*
X0312935Y0227076D01*
X0313333Y0226378D02*
X0310556Y0226378D01*
X0310612Y0225679D02*
X0314107Y0225679D01*
X0315600Y0225679D02*
X0315900Y0225679D01*
X0315900Y0226378D02*
X0315600Y0226378D01*
X0315600Y0227076D02*
X0315900Y0227076D01*
X0315900Y0227775D02*
X0315600Y0227775D01*
X0315600Y0228473D02*
X0315900Y0228473D01*
X0315900Y0229172D02*
X0315600Y0229172D01*
X0315600Y0229870D02*
X0315900Y0229870D01*
X0315900Y0230569D02*
X0315600Y0230569D01*
X0315600Y0231267D02*
X0315900Y0231267D01*
X0315286Y0231267D02*
X0311150Y0231267D01*
X0310756Y0230569D02*
X0313756Y0230569D01*
X0313165Y0229870D02*
X0310556Y0229870D01*
X0310556Y0229172D02*
X0312831Y0229172D01*
X0305750Y0233250D02*
X0302250Y0233250D01*
X0300750Y0231750D01*
X0300750Y0228250D01*
X0298250Y0225750D01*
X0298250Y0218750D01*
X0303250Y0218750D02*
X0303250Y0214750D01*
X0304250Y0213750D01*
X0305750Y0213750D01*
X0305250Y0213750D01*
X0296250Y0209750D02*
X0290750Y0215250D01*
X0290750Y0221750D01*
X0295750Y0226750D01*
X0309250Y0239750D02*
X0311250Y0241750D01*
X0312250Y0241750D01*
X0313250Y0242750D01*
X0313250Y0247923D01*
X0308250Y0247923D02*
X0307750Y0247423D01*
X0307750Y0242750D01*
X0304904Y0253404D02*
X0315250Y0253404D01*
X0315750Y0253904D01*
X0317904Y0253904D01*
X0320750Y0256750D01*
X0330750Y0256750D02*
X0335750Y0251750D01*
X0335750Y0242656D01*
X0333813Y0238750D02*
X0341750Y0238750D01*
X0339219Y0234781D02*
X0335750Y0234781D01*
X0332719Y0234781D01*
X0330750Y0236750D01*
X0330750Y0234063D02*
X0331543Y0233270D01*
X0331543Y0232958D01*
X0331878Y0232623D01*
X0331835Y0232547D01*
X0331743Y0232203D01*
X0331743Y0231085D01*
X0335509Y0231085D01*
X0335509Y0230604D01*
X0331743Y0230604D01*
X0331743Y0229486D01*
X0331835Y0229142D01*
X0332012Y0228834D01*
X0332264Y0228583D01*
X0332571Y0228405D01*
X0332915Y0228313D01*
X0335509Y0228313D01*
X0335509Y0230604D01*
X0335991Y0230604D01*
X0335991Y0228313D01*
X0338585Y0228313D01*
X0338850Y0228384D01*
X0338850Y0223650D01*
X0337812Y0223650D01*
X0337812Y0224361D01*
X0336904Y0225268D01*
X0331289Y0225268D01*
X0330750Y0224729D01*
X0330211Y0225268D01*
X0324596Y0225268D01*
X0323688Y0224361D01*
X0323688Y0219139D01*
X0324570Y0218257D01*
X0322650Y0216337D01*
X0322650Y0225963D01*
X0330750Y0234063D01*
X0330748Y0234061D02*
X0330752Y0234061D01*
X0331450Y0233363D02*
X0330050Y0233363D01*
X0329351Y0232664D02*
X0331836Y0232664D01*
X0331743Y0231966D02*
X0328653Y0231966D01*
X0327954Y0231267D02*
X0331743Y0231267D01*
X0331844Y0230844D02*
X0330750Y0229750D01*
X0331743Y0229870D02*
X0326557Y0229870D01*
X0325859Y0229172D02*
X0331827Y0229172D01*
X0332454Y0228473D02*
X0325160Y0228473D01*
X0324462Y0227775D02*
X0338850Y0227775D01*
X0338850Y0227076D02*
X0323763Y0227076D01*
X0323065Y0226378D02*
X0338850Y0226378D01*
X0338850Y0225679D02*
X0322650Y0225679D01*
X0322650Y0224981D02*
X0324308Y0224981D01*
X0323688Y0224282D02*
X0322650Y0224282D01*
X0322650Y0223584D02*
X0323688Y0223584D01*
X0323688Y0222885D02*
X0322650Y0222885D01*
X0322650Y0222187D02*
X0323688Y0222187D01*
X0323688Y0221488D02*
X0322650Y0221488D01*
X0322650Y0220790D02*
X0323688Y0220790D01*
X0323688Y0220091D02*
X0322650Y0220091D01*
X0322650Y0219393D02*
X0323688Y0219393D01*
X0324133Y0218694D02*
X0322650Y0218694D01*
X0322650Y0217996D02*
X0324309Y0217996D01*
X0323610Y0217297D02*
X0322650Y0217297D01*
X0322650Y0216599D02*
X0322912Y0216599D01*
X0323467Y0214467D02*
X0327404Y0218404D01*
X0327404Y0221750D01*
X0330499Y0224981D02*
X0331001Y0224981D01*
X0334096Y0221750D02*
X0340750Y0221750D01*
X0340750Y0233250D01*
X0339219Y0234781D01*
X0335750Y0230844D02*
X0331844Y0230844D01*
X0331743Y0230569D02*
X0327256Y0230569D01*
X0335509Y0230569D02*
X0335991Y0230569D01*
X0335991Y0229870D02*
X0335509Y0229870D01*
X0335509Y0229172D02*
X0335991Y0229172D01*
X0335991Y0228473D02*
X0335509Y0228473D01*
X0337192Y0224981D02*
X0338850Y0224981D01*
X0338850Y0224282D02*
X0337812Y0224282D01*
X0340750Y0221750D02*
X0347750Y0221750D01*
X0349203Y0220297D01*
X0349203Y0216750D01*
X0349096Y0211750D02*
X0349096Y0207065D01*
X0350081Y0206081D01*
X0350081Y0201750D01*
X0350081Y0186081D01*
X0340750Y0176750D01*
X0330061Y0176750D01*
X0329392Y0177419D01*
X0327969Y0198611D02*
X0327969Y0198850D01*
X0330537Y0198850D01*
X0335277Y0203590D01*
X0338491Y0203590D01*
X0338491Y0203273D01*
X0339399Y0202365D01*
X0344227Y0202365D01*
X0345135Y0203273D01*
X0345135Y0207707D01*
X0344610Y0208231D01*
X0345211Y0208231D01*
X0345750Y0208771D01*
X0346289Y0208231D01*
X0347196Y0208231D01*
X0347196Y0206278D01*
X0348181Y0205294D01*
X0348181Y0204875D01*
X0347667Y0204875D01*
X0346759Y0203967D01*
X0346759Y0199533D01*
X0347583Y0198709D01*
X0344935Y0198696D01*
X0344935Y0199762D01*
X0344843Y0200106D01*
X0344665Y0200414D01*
X0344414Y0200665D01*
X0344106Y0200843D01*
X0343762Y0200935D01*
X0342163Y0200935D01*
X0342163Y0198682D01*
X0341463Y0198679D01*
X0341463Y0200935D01*
X0339864Y0200935D01*
X0339520Y0200843D01*
X0339212Y0200665D01*
X0338961Y0200414D01*
X0338783Y0200106D01*
X0338691Y0199762D01*
X0338691Y0198665D01*
X0327969Y0198611D01*
X0329750Y0200750D02*
X0323467Y0200750D01*
X0329750Y0200750D02*
X0334490Y0205490D01*
X0341813Y0205490D01*
X0345135Y0205422D02*
X0348052Y0205422D01*
X0347516Y0204724D02*
X0345135Y0204724D01*
X0345135Y0204025D02*
X0346818Y0204025D01*
X0346759Y0203327D02*
X0345135Y0203327D01*
X0344490Y0202628D02*
X0346759Y0202628D01*
X0346759Y0201930D02*
X0333617Y0201930D01*
X0334315Y0202628D02*
X0339136Y0202628D01*
X0338491Y0203327D02*
X0335014Y0203327D01*
X0332918Y0201231D02*
X0346759Y0201231D01*
X0346759Y0200533D02*
X0344546Y0200533D01*
X0344915Y0199834D02*
X0346759Y0199834D01*
X0347156Y0199136D02*
X0344935Y0199136D01*
X0342163Y0199136D02*
X0341463Y0199136D01*
X0341463Y0199834D02*
X0342163Y0199834D01*
X0342163Y0200533D02*
X0341463Y0200533D01*
X0339080Y0200533D02*
X0332220Y0200533D01*
X0331521Y0199834D02*
X0338711Y0199834D01*
X0338691Y0199136D02*
X0330823Y0199136D01*
X0337010Y0198010D02*
X0341813Y0198010D01*
X0345135Y0206121D02*
X0347353Y0206121D01*
X0347196Y0206820D02*
X0345135Y0206820D01*
X0345135Y0207518D02*
X0347196Y0207518D01*
X0347196Y0208217D02*
X0344625Y0208217D01*
X0342404Y0211750D02*
X0342297Y0211856D01*
X0342297Y0216750D01*
X0323467Y0214467D02*
X0323467Y0210750D01*
X0298366Y0202628D02*
X0292336Y0202628D01*
X0292336Y0201930D02*
X0297667Y0201930D01*
X0297650Y0201231D02*
X0292336Y0201231D01*
X0292336Y0199834D02*
X0298403Y0199834D01*
X0298877Y0199136D02*
X0292640Y0199136D01*
X0292846Y0198437D02*
X0293227Y0198437D01*
X0297704Y0200533D02*
X0288384Y0200533D01*
X0288383Y0201231D02*
X0287683Y0201231D01*
X0287683Y0201930D02*
X0288383Y0201930D01*
X0288383Y0202628D02*
X0287683Y0202628D01*
X0287683Y0203327D02*
X0288383Y0203327D01*
X0288383Y0204025D02*
X0287683Y0204025D01*
X0270278Y0201750D02*
X0270278Y0197222D01*
X0261222Y0201750D02*
X0261222Y0203722D01*
X0262404Y0204904D01*
X0262404Y0206750D01*
X0261904Y0207250D01*
X0262297Y0211750D02*
X0262404Y0211856D01*
X0262404Y0216750D01*
X0231813Y0238750D02*
X0231781Y0238719D01*
X0213900Y0231267D02*
X0213600Y0231267D01*
X0213286Y0231267D02*
X0209150Y0231267D01*
X0208756Y0230569D02*
X0211756Y0230569D01*
X0211165Y0229870D02*
X0208556Y0229870D01*
X0208556Y0229172D02*
X0210831Y0229172D01*
X0210700Y0228473D02*
X0208556Y0228473D01*
X0208556Y0227775D02*
X0210735Y0227775D01*
X0210700Y0227950D02*
X0210817Y0227360D01*
X0211047Y0226805D01*
X0211381Y0226306D01*
X0211806Y0225881D01*
X0212305Y0225547D01*
X0212860Y0225317D01*
X0213450Y0225200D01*
X0213600Y0225200D01*
X0213600Y0228100D01*
X0210700Y0228100D01*
X0210700Y0227950D01*
X0210935Y0227076D02*
X0208556Y0227076D01*
X0208556Y0226378D02*
X0211333Y0226378D01*
X0212107Y0225679D02*
X0208612Y0225679D01*
X0213600Y0225679D02*
X0213900Y0225679D01*
X0213900Y0226378D02*
X0213600Y0226378D01*
X0213600Y0227076D02*
X0213900Y0227076D01*
X0213900Y0227775D02*
X0213600Y0227775D01*
X0213600Y0228473D02*
X0213900Y0228473D01*
X0213900Y0229172D02*
X0213600Y0229172D01*
X0213600Y0229870D02*
X0213900Y0229870D01*
X0213900Y0230569D02*
X0213600Y0230569D01*
X0221467Y0214467D02*
X0221467Y0210750D01*
X0196366Y0202628D02*
X0190336Y0202628D01*
X0190336Y0201930D02*
X0195667Y0201930D01*
X0195650Y0201231D02*
X0190336Y0201231D01*
X0190336Y0199834D02*
X0196403Y0199834D01*
X0196877Y0199136D02*
X0190640Y0199136D01*
X0190846Y0198437D02*
X0191227Y0198437D01*
X0195704Y0200533D02*
X0186384Y0200533D01*
X0186383Y0201231D02*
X0185683Y0201231D01*
X0185683Y0201930D02*
X0186383Y0201930D01*
X0186383Y0202628D02*
X0185683Y0202628D01*
X0185683Y0203327D02*
X0186383Y0203327D01*
X0186383Y0204025D02*
X0185683Y0204025D01*
X0168278Y0201750D02*
X0168278Y0197222D01*
X0159222Y0201750D02*
X0159222Y0203722D01*
X0160404Y0204904D01*
X0160404Y0206750D01*
X0159904Y0207250D01*
X0160297Y0211750D02*
X0160404Y0211856D01*
X0160404Y0216750D01*
X0183427Y0248730D02*
X0183790Y0248730D01*
X0187096Y0246750D02*
X0187096Y0251750D01*
X0190231Y0258150D02*
X0172352Y0258150D01*
X0172576Y0258537D01*
X0172576Y0258538D01*
X0173143Y0261750D01*
X0172576Y0264962D01*
X0172576Y0264962D01*
X0170945Y0267787D01*
X0170945Y0267788D01*
X0168547Y0269800D01*
X0184724Y0269800D01*
X0184431Y0269397D01*
X0184070Y0268689D01*
X0183824Y0267933D01*
X0183700Y0267147D01*
X0183700Y0267100D01*
X0188400Y0267100D01*
X0188400Y0266400D01*
X0189100Y0266400D01*
X0189100Y0261700D01*
X0189147Y0261700D01*
X0189933Y0261824D01*
X0190231Y0261921D01*
X0190231Y0258150D01*
X0190231Y0258509D02*
X0172560Y0258509D01*
X0172694Y0259208D02*
X0190231Y0259208D01*
X0190231Y0259906D02*
X0172818Y0259906D01*
X0172941Y0260605D02*
X0190231Y0260605D01*
X0190231Y0261303D02*
X0173064Y0261303D01*
X0173143Y0261750D02*
X0173143Y0261750D01*
X0173098Y0262002D02*
X0187021Y0262002D01*
X0186811Y0262070D02*
X0187567Y0261824D01*
X0188353Y0261700D01*
X0188400Y0261700D01*
X0188400Y0266400D01*
X0183700Y0266400D01*
X0183700Y0266353D01*
X0183824Y0265567D01*
X0184070Y0264811D01*
X0184431Y0264103D01*
X0184898Y0263460D01*
X0185460Y0262898D01*
X0186103Y0262431D01*
X0186811Y0262070D01*
X0185732Y0262700D02*
X0172975Y0262700D01*
X0172852Y0263399D02*
X0184959Y0263399D01*
X0184435Y0264097D02*
X0172729Y0264097D01*
X0172606Y0264796D02*
X0184078Y0264796D01*
X0183848Y0265494D02*
X0172269Y0265494D01*
X0171866Y0266193D02*
X0183725Y0266193D01*
X0183770Y0267590D02*
X0171059Y0267590D01*
X0171463Y0266891D02*
X0188400Y0266891D01*
X0188400Y0266193D02*
X0189100Y0266193D01*
X0189100Y0265494D02*
X0188400Y0265494D01*
X0188400Y0264796D02*
X0189100Y0264796D01*
X0189100Y0264097D02*
X0188400Y0264097D01*
X0188400Y0263399D02*
X0189100Y0263399D01*
X0189100Y0262700D02*
X0188400Y0262700D01*
X0188400Y0262002D02*
X0189100Y0262002D01*
X0183940Y0268289D02*
X0170348Y0268289D01*
X0169516Y0268987D02*
X0184222Y0268987D01*
X0184641Y0269686D02*
X0168683Y0269686D01*
X0101750Y0213750D02*
X0101250Y0213750D01*
X0081850Y0216599D02*
X0065446Y0216599D01*
X0065446Y0217996D02*
X0064746Y0217996D01*
X0064746Y0218694D02*
X0065446Y0218694D01*
X0065446Y0219393D02*
X0064746Y0219393D01*
X0065203Y0211750D02*
X0065203Y0206856D01*
X0065096Y0206750D01*
X0068250Y0206750D01*
X0066278Y0201750D02*
X0066278Y0197222D01*
X0085096Y0246750D02*
X0085096Y0251750D01*
X0078750Y0251404D02*
X0078750Y0248750D01*
X0078754Y0249429D02*
X0078054Y0249429D01*
X0078054Y0250127D02*
X0078754Y0250127D01*
X0078754Y0250826D02*
X0078054Y0250826D01*
X0078053Y0251524D02*
X0068711Y0251524D01*
X0068650Y0250826D02*
X0074888Y0250826D01*
X0074888Y0250127D02*
X0068650Y0250127D01*
X0068650Y0249429D02*
X0074935Y0249429D01*
X0075380Y0248730D02*
X0068650Y0248730D01*
X0069410Y0252223D02*
X0074888Y0252223D01*
X0074888Y0252921D02*
X0070108Y0252921D01*
X0070807Y0253620D02*
X0074888Y0253620D01*
X0075026Y0254318D02*
X0071505Y0254318D01*
X0073250Y0251750D02*
X0078404Y0251750D01*
X0078750Y0251404D01*
X0070352Y0258150D02*
X0070576Y0258537D01*
X0070576Y0258538D01*
X0071143Y0261750D01*
X0070576Y0264962D01*
X0070576Y0264962D01*
X0068945Y0267787D01*
X0068945Y0267788D01*
X0066547Y0269800D01*
X0082724Y0269800D01*
X0082431Y0269397D01*
X0082070Y0268689D01*
X0081824Y0267933D01*
X0081700Y0267147D01*
X0081700Y0267100D01*
X0086400Y0267100D01*
X0086400Y0266400D01*
X0087100Y0266400D01*
X0087100Y0261700D01*
X0087147Y0261700D01*
X0087933Y0261824D01*
X0088231Y0261921D01*
X0088231Y0258150D01*
X0070352Y0258150D01*
X0070560Y0258509D02*
X0088231Y0258509D01*
X0088231Y0259208D02*
X0070694Y0259208D01*
X0070818Y0259906D02*
X0088231Y0259906D01*
X0088231Y0260605D02*
X0070941Y0260605D01*
X0071064Y0261303D02*
X0088231Y0261303D01*
X0087100Y0262002D02*
X0086400Y0262002D01*
X0086400Y0261700D02*
X0086400Y0266400D01*
X0081700Y0266400D01*
X0081700Y0266353D01*
X0081824Y0265567D01*
X0082070Y0264811D01*
X0082431Y0264103D01*
X0082898Y0263460D01*
X0083460Y0262898D01*
X0084103Y0262431D01*
X0084811Y0262070D01*
X0085567Y0261824D01*
X0086353Y0261700D01*
X0086400Y0261700D01*
X0086400Y0262700D02*
X0087100Y0262700D01*
X0087100Y0263399D02*
X0086400Y0263399D01*
X0086400Y0264097D02*
X0087100Y0264097D01*
X0087100Y0264796D02*
X0086400Y0264796D01*
X0086400Y0265494D02*
X0087100Y0265494D01*
X0087100Y0266193D02*
X0086400Y0266193D01*
X0086400Y0266891D02*
X0069463Y0266891D01*
X0069866Y0266193D02*
X0081725Y0266193D01*
X0081848Y0265494D02*
X0070269Y0265494D01*
X0070606Y0264796D02*
X0082078Y0264796D01*
X0082435Y0264097D02*
X0070729Y0264097D01*
X0070852Y0263399D02*
X0082959Y0263399D01*
X0083732Y0262700D02*
X0070975Y0262700D01*
X0071098Y0262002D02*
X0085021Y0262002D01*
X0081770Y0267590D02*
X0069059Y0267590D01*
X0068348Y0268289D02*
X0081940Y0268289D01*
X0082222Y0268987D02*
X0067516Y0268987D01*
X0066683Y0269686D02*
X0082641Y0269686D01*
X0071143Y0261750D02*
X0071143Y0261750D01*
X0058962Y0252921D02*
X0053700Y0252921D01*
X0053700Y0253620D02*
X0057049Y0253620D01*
X0057054Y0253616D02*
X0057054Y0253616D01*
X0056216Y0254318D02*
X0053700Y0254318D01*
X0053700Y0255017D02*
X0055384Y0255017D01*
X0054555Y0255712D02*
X0054555Y0255712D01*
X0054553Y0255715D02*
X0053700Y0255715D01*
X0053700Y0256414D02*
X0054150Y0256414D01*
X0053747Y0257112D02*
X0053700Y0257112D01*
X0071581Y0399419D02*
X0057222Y0413778D01*
X0057222Y0423750D01*
X0057222Y0425722D01*
X0058404Y0426904D01*
X0058404Y0428750D01*
X0057904Y0429250D01*
X0054688Y0428946D02*
X0053700Y0428946D01*
X0053700Y0428248D02*
X0054688Y0428248D01*
X0054688Y0427549D02*
X0053700Y0427549D01*
X0053700Y0426851D02*
X0054688Y0426851D01*
X0054688Y0426282D02*
X0054688Y0431361D01*
X0054796Y0431468D01*
X0054779Y0431485D01*
X0054779Y0436015D01*
X0054796Y0436032D01*
X0054688Y0436139D01*
X0054688Y0441361D01*
X0055596Y0442268D01*
X0061211Y0442268D01*
X0061891Y0441588D01*
X0062102Y0441799D01*
X0062410Y0441976D01*
X0062753Y0442068D01*
X0064746Y0442068D01*
X0064746Y0439100D01*
X0065446Y0439100D01*
X0065446Y0442068D01*
X0067440Y0442068D01*
X0067783Y0441976D01*
X0068091Y0441799D01*
X0068342Y0441547D01*
X0068520Y0441240D01*
X0068612Y0440896D01*
X0068612Y0439100D01*
X0065446Y0439100D01*
X0065446Y0438400D01*
X0068612Y0438400D01*
X0068612Y0436604D01*
X0068520Y0436260D01*
X0068504Y0436232D01*
X0068721Y0436015D01*
X0068721Y0431485D01*
X0068704Y0431468D01*
X0068812Y0431361D01*
X0068812Y0430650D01*
X0069037Y0430650D01*
X0075500Y0424187D01*
X0075653Y0424250D01*
X0076847Y0424250D01*
X0077949Y0423793D01*
X0078793Y0422949D01*
X0079250Y0421847D01*
X0079250Y0420653D01*
X0079140Y0420387D01*
X0079731Y0420390D01*
X0079731Y0422400D01*
X0083683Y0422400D01*
X0083683Y0423100D01*
X0079731Y0423100D01*
X0079731Y0425487D01*
X0079823Y0425830D01*
X0080000Y0426138D01*
X0080252Y0426389D01*
X0080560Y0426567D01*
X0080903Y0426659D01*
X0083683Y0426659D01*
X0083683Y0423100D01*
X0084383Y0423100D01*
X0084383Y0426659D01*
X0087164Y0426659D01*
X0087507Y0426567D01*
X0087815Y0426389D01*
X0088066Y0426138D01*
X0088244Y0425830D01*
X0088336Y0425487D01*
X0088336Y0423100D01*
X0084384Y0423100D01*
X0084384Y0422400D01*
X0088336Y0422400D01*
X0088336Y0421425D01*
X0088833Y0420952D01*
X0088846Y0420435D01*
X0090758Y0420445D01*
X0090963Y0420650D01*
X0094904Y0420650D01*
X0094904Y0420702D01*
X0094834Y0420792D01*
X0094904Y0421350D01*
X0094904Y0421650D01*
X0094587Y0421650D01*
X0093650Y0422587D01*
X0093650Y0423913D01*
X0094587Y0424850D01*
X0096266Y0424850D01*
X0096292Y0424870D01*
X0096453Y0424850D01*
X0097047Y0424850D01*
X0097208Y0424870D01*
X0097234Y0424850D01*
X0102413Y0424850D01*
X0103350Y0423913D01*
X0103350Y0422587D01*
X0102413Y0421650D01*
X0098596Y0421650D01*
X0098596Y0421350D01*
X0098666Y0420792D01*
X0098596Y0420702D01*
X0098596Y0420650D01*
X0112537Y0420650D01*
X0112633Y0420554D01*
X0114964Y0420566D01*
X0114964Y0425951D01*
X0115872Y0426859D01*
X0123061Y0426859D01*
X0123969Y0425951D01*
X0123969Y0424650D01*
X0124963Y0424650D01*
X0128590Y0428277D01*
X0129703Y0429390D01*
X0134491Y0429390D01*
X0134491Y0429707D01*
X0135306Y0430522D01*
X0134688Y0431139D01*
X0134688Y0436361D01*
X0134796Y0436468D01*
X0134779Y0436485D01*
X0134779Y0441015D01*
X0135614Y0441850D01*
X0133812Y0441850D01*
X0133812Y0441139D01*
X0132904Y0440231D01*
X0127289Y0440231D01*
X0126750Y0440771D01*
X0126211Y0440231D01*
X0125304Y0440231D01*
X0125304Y0439617D01*
X0124191Y0438504D01*
X0122546Y0436859D01*
X0123061Y0436859D01*
X0123969Y0435951D01*
X0123969Y0429549D01*
X0123061Y0428641D01*
X0115872Y0428641D01*
X0114964Y0429549D01*
X0114964Y0434277D01*
X0110537Y0429850D01*
X0091463Y0429850D01*
X0090350Y0430963D01*
X0088536Y0432777D01*
X0088536Y0429549D01*
X0087628Y0428641D01*
X0080439Y0428641D01*
X0079531Y0429549D01*
X0079531Y0435951D01*
X0080439Y0436859D01*
X0081850Y0436859D01*
X0081850Y0440231D01*
X0077289Y0440231D01*
X0076750Y0440771D01*
X0076211Y0440231D01*
X0070596Y0440231D01*
X0069688Y0441139D01*
X0069688Y0446361D01*
X0070596Y0447268D01*
X0071116Y0447268D01*
X0070750Y0448153D01*
X0070750Y0449347D01*
X0071068Y0450113D01*
X0068450Y0450113D01*
X0067543Y0451021D01*
X0067543Y0454668D01*
X0067688Y0454813D01*
X0067543Y0454958D01*
X0067543Y0455270D01*
X0065963Y0456850D01*
X0064850Y0457963D01*
X0064850Y0475035D01*
X0063381Y0474500D01*
X0060119Y0474500D01*
X0057054Y0475616D01*
X0057054Y0475616D01*
X0054555Y0477712D01*
X0054555Y0477712D01*
X0053700Y0479193D01*
X0053700Y0473686D01*
X0061861Y0473686D01*
X0062768Y0472778D01*
X0062768Y0466769D01*
X0061861Y0465861D01*
X0053700Y0465861D01*
X0053700Y0451639D01*
X0061861Y0451639D01*
X0062768Y0450731D01*
X0062768Y0444722D01*
X0061861Y0443814D01*
X0053700Y0443814D01*
X0053700Y0420260D01*
X0055322Y0420268D01*
X0055322Y0420584D01*
X0054432Y0421474D01*
X0054432Y0426026D01*
X0054688Y0426282D01*
X0054558Y0426152D02*
X0053700Y0426152D01*
X0053700Y0425454D02*
X0054432Y0425454D01*
X0054432Y0424755D02*
X0053700Y0424755D01*
X0053700Y0424057D02*
X0054432Y0424057D01*
X0054432Y0423358D02*
X0053700Y0423358D01*
X0053700Y0422660D02*
X0054432Y0422660D01*
X0054432Y0421961D02*
X0053700Y0421961D01*
X0053700Y0421262D02*
X0054644Y0421262D01*
X0055322Y0420564D02*
X0053700Y0420564D01*
X0053700Y0429645D02*
X0054688Y0429645D01*
X0054688Y0430343D02*
X0053700Y0430343D01*
X0053700Y0431042D02*
X0054688Y0431042D01*
X0054779Y0431740D02*
X0053700Y0431740D01*
X0053700Y0432439D02*
X0054779Y0432439D01*
X0054779Y0433137D02*
X0053700Y0433137D01*
X0053700Y0433836D02*
X0054779Y0433836D01*
X0054779Y0434534D02*
X0053700Y0434534D01*
X0053700Y0435233D02*
X0054779Y0435233D01*
X0054779Y0435931D02*
X0053700Y0435931D01*
X0053700Y0436630D02*
X0054688Y0436630D01*
X0054688Y0437328D02*
X0053700Y0437328D01*
X0053700Y0438027D02*
X0054688Y0438027D01*
X0054688Y0438725D02*
X0053700Y0438725D01*
X0053700Y0439424D02*
X0054688Y0439424D01*
X0054688Y0440122D02*
X0053700Y0440122D01*
X0053700Y0440821D02*
X0054688Y0440821D01*
X0054847Y0441519D02*
X0053700Y0441519D01*
X0053700Y0442218D02*
X0055545Y0442218D01*
X0053700Y0442916D02*
X0069688Y0442916D01*
X0069688Y0442218D02*
X0061262Y0442218D01*
X0062360Y0444313D02*
X0069688Y0444313D01*
X0069688Y0443615D02*
X0053700Y0443615D01*
X0058404Y0438750D02*
X0058404Y0433856D01*
X0058297Y0433750D01*
X0064746Y0439424D02*
X0065446Y0439424D01*
X0065446Y0440122D02*
X0064746Y0440122D01*
X0064746Y0440821D02*
X0065446Y0440821D01*
X0065446Y0441519D02*
X0064746Y0441519D01*
X0065096Y0438750D02*
X0072750Y0438750D01*
X0076750Y0434750D01*
X0076750Y0427250D01*
X0081250Y0422750D01*
X0084033Y0422750D01*
X0083683Y0422660D02*
X0078913Y0422660D01*
X0079203Y0421961D02*
X0079731Y0421961D01*
X0079731Y0421262D02*
X0079250Y0421262D01*
X0079213Y0420564D02*
X0079731Y0420564D01*
X0079731Y0423358D02*
X0078385Y0423358D01*
X0077314Y0424057D02*
X0079731Y0424057D01*
X0079731Y0424755D02*
X0074932Y0424755D01*
X0074233Y0425454D02*
X0079731Y0425454D01*
X0080015Y0426152D02*
X0073535Y0426152D01*
X0072836Y0426851D02*
X0115863Y0426851D01*
X0115165Y0426152D02*
X0088052Y0426152D01*
X0088336Y0425454D02*
X0114964Y0425454D01*
X0114964Y0424755D02*
X0102508Y0424755D01*
X0103206Y0424057D02*
X0114964Y0424057D01*
X0114964Y0423358D02*
X0103350Y0423358D01*
X0103350Y0422660D02*
X0114964Y0422660D01*
X0114964Y0421961D02*
X0102724Y0421961D01*
X0098607Y0421262D02*
X0114964Y0421262D01*
X0114546Y0420564D02*
X0112623Y0420564D01*
X0119467Y0422750D02*
X0125750Y0422750D01*
X0130490Y0427490D01*
X0137813Y0427490D01*
X0141135Y0427549D02*
X0143925Y0427549D01*
X0144181Y0427294D02*
X0144181Y0426875D01*
X0143667Y0426875D01*
X0142759Y0425967D01*
X0142759Y0421533D01*
X0143583Y0420709D01*
X0140935Y0420696D01*
X0140935Y0421762D01*
X0140843Y0422106D01*
X0140665Y0422414D01*
X0140414Y0422665D01*
X0140106Y0422843D01*
X0139762Y0422935D01*
X0138163Y0422935D01*
X0138163Y0420682D01*
X0137463Y0420679D01*
X0137463Y0422935D01*
X0135864Y0422935D01*
X0135520Y0422843D01*
X0135212Y0422665D01*
X0134961Y0422414D01*
X0134783Y0422106D01*
X0134691Y0421762D01*
X0134691Y0420665D01*
X0123969Y0420611D01*
X0123969Y0420850D01*
X0126537Y0420850D01*
X0131277Y0425590D01*
X0134491Y0425590D01*
X0134491Y0425273D01*
X0135399Y0424365D01*
X0140227Y0424365D01*
X0141135Y0425273D01*
X0141135Y0429707D01*
X0140610Y0430231D01*
X0141211Y0430231D01*
X0141750Y0430771D01*
X0142289Y0430231D01*
X0143196Y0430231D01*
X0143196Y0428278D01*
X0144181Y0427294D01*
X0143643Y0426851D02*
X0141135Y0426851D01*
X0141135Y0426152D02*
X0142944Y0426152D01*
X0142759Y0425454D02*
X0141135Y0425454D01*
X0140616Y0424755D02*
X0142759Y0424755D01*
X0142759Y0424057D02*
X0129744Y0424057D01*
X0130442Y0424755D02*
X0135010Y0424755D01*
X0134491Y0425454D02*
X0131141Y0425454D01*
X0129045Y0423358D02*
X0142759Y0423358D01*
X0142759Y0422660D02*
X0140419Y0422660D01*
X0140881Y0421961D02*
X0142759Y0421961D01*
X0143030Y0421262D02*
X0140935Y0421262D01*
X0138163Y0421262D02*
X0137463Y0421262D01*
X0137463Y0421961D02*
X0138163Y0421961D01*
X0138163Y0422660D02*
X0137463Y0422660D01*
X0135207Y0422660D02*
X0128347Y0422660D01*
X0127648Y0421961D02*
X0134745Y0421961D01*
X0134691Y0421262D02*
X0126949Y0421262D01*
X0125068Y0424755D02*
X0123969Y0424755D01*
X0123969Y0425454D02*
X0125767Y0425454D01*
X0126465Y0426152D02*
X0123768Y0426152D01*
X0123070Y0426851D02*
X0127164Y0426851D01*
X0127862Y0427549D02*
X0072138Y0427549D01*
X0071439Y0428248D02*
X0128561Y0428248D01*
X0129259Y0428946D02*
X0123366Y0428946D01*
X0123969Y0429645D02*
X0134491Y0429645D01*
X0135127Y0430343D02*
X0123969Y0430343D01*
X0123969Y0431042D02*
X0134786Y0431042D01*
X0134688Y0431740D02*
X0123969Y0431740D01*
X0123969Y0432439D02*
X0134688Y0432439D01*
X0134688Y0433137D02*
X0123969Y0433137D01*
X0123969Y0433836D02*
X0134688Y0433836D01*
X0134688Y0434534D02*
X0123969Y0434534D01*
X0123969Y0435233D02*
X0134688Y0435233D01*
X0134688Y0435931D02*
X0123969Y0435931D01*
X0123291Y0436630D02*
X0134779Y0436630D01*
X0134779Y0437328D02*
X0123015Y0437328D01*
X0123714Y0438027D02*
X0134779Y0438027D01*
X0134779Y0438725D02*
X0124412Y0438725D01*
X0125111Y0439424D02*
X0134779Y0439424D01*
X0134779Y0440122D02*
X0125304Y0440122D01*
X0123404Y0440404D02*
X0123404Y0443750D01*
X0123404Y0440404D02*
X0119467Y0436467D01*
X0119467Y0432750D01*
X0114964Y0432439D02*
X0113126Y0432439D01*
X0113824Y0433137D02*
X0114964Y0433137D01*
X0114964Y0433836D02*
X0114523Y0433836D01*
X0114964Y0431740D02*
X0112427Y0431740D01*
X0111729Y0431042D02*
X0114964Y0431042D01*
X0114964Y0430343D02*
X0111030Y0430343D01*
X0109750Y0431750D02*
X0116750Y0438750D01*
X0116750Y0448750D01*
X0126750Y0458750D01*
X0125096Y0460404D01*
X0125096Y0473750D01*
X0123196Y0470231D02*
X0123196Y0459617D01*
X0124063Y0458750D01*
X0115963Y0450650D01*
X0114850Y0449537D01*
X0114850Y0439537D01*
X0108963Y0433650D01*
X0103893Y0433650D01*
X0104293Y0434051D01*
X0104750Y0435153D01*
X0104750Y0436200D01*
X0106392Y0436200D01*
X0106891Y0436699D01*
X0106921Y0436670D01*
X0107229Y0436492D01*
X0107572Y0436400D01*
X0108900Y0436400D01*
X0108900Y0440400D01*
X0109600Y0440400D01*
X0109600Y0441100D01*
X0108900Y0441100D01*
X0108900Y0445100D01*
X0107572Y0445100D01*
X0107229Y0445008D01*
X0106921Y0444830D01*
X0106891Y0444801D01*
X0106395Y0445297D01*
X0106750Y0446153D01*
X0106750Y0447347D01*
X0106293Y0448449D01*
X0105449Y0449293D01*
X0104956Y0449498D01*
X0105000Y0449604D01*
X0105000Y0450813D01*
X0106037Y0451850D01*
X0107150Y0452963D01*
X0107150Y0460958D01*
X0107653Y0460750D01*
X0108500Y0460750D01*
X0108500Y0459604D01*
X0108995Y0458409D01*
X0109909Y0457495D01*
X0111104Y0457000D01*
X0112396Y0457000D01*
X0113591Y0457495D01*
X0114505Y0458409D01*
X0115000Y0459604D01*
X0115000Y0460813D01*
X0120304Y0466117D01*
X0120304Y0470231D01*
X0121211Y0470231D01*
X0121750Y0470771D01*
X0122289Y0470231D01*
X0123196Y0470231D01*
X0123196Y0470158D02*
X0120304Y0470158D01*
X0120304Y0469460D02*
X0123196Y0469460D01*
X0123196Y0468761D02*
X0120304Y0468761D01*
X0120304Y0468063D02*
X0123196Y0468063D01*
X0123196Y0467364D02*
X0120304Y0467364D01*
X0120304Y0466666D02*
X0123196Y0466666D01*
X0123196Y0465967D02*
X0120154Y0465967D01*
X0119456Y0465269D02*
X0123196Y0465269D01*
X0123196Y0464570D02*
X0118757Y0464570D01*
X0118059Y0463872D02*
X0123196Y0463872D01*
X0123196Y0463173D02*
X0117360Y0463173D01*
X0116662Y0462475D02*
X0123196Y0462475D01*
X0123196Y0461776D02*
X0115963Y0461776D01*
X0115265Y0461078D02*
X0123196Y0461078D01*
X0123196Y0460379D02*
X0115000Y0460379D01*
X0115000Y0459681D02*
X0123196Y0459681D01*
X0123831Y0458982D02*
X0114743Y0458982D01*
X0114380Y0458284D02*
X0123597Y0458284D01*
X0122898Y0457585D02*
X0113681Y0457585D01*
X0111750Y0460250D02*
X0118404Y0466904D01*
X0118404Y0473750D01*
X0113904Y0475904D02*
X0116750Y0478750D01*
X0126750Y0478750D01*
X0131750Y0473750D01*
X0131750Y0464656D01*
X0129813Y0460750D02*
X0137750Y0460750D01*
X0135219Y0456781D02*
X0131750Y0456781D01*
X0128719Y0456781D01*
X0126750Y0458750D01*
X0126750Y0456063D02*
X0127543Y0455270D01*
X0127543Y0454958D01*
X0127878Y0454623D01*
X0127835Y0454547D01*
X0127743Y0454203D01*
X0127743Y0453085D01*
X0131509Y0453085D01*
X0131509Y0452604D01*
X0127743Y0452604D01*
X0127743Y0451486D01*
X0127835Y0451142D01*
X0128012Y0450834D01*
X0128264Y0450583D01*
X0128571Y0450405D01*
X0128915Y0450313D01*
X0131509Y0450313D01*
X0131509Y0452604D01*
X0131991Y0452604D01*
X0131991Y0450313D01*
X0134585Y0450313D01*
X0134850Y0450384D01*
X0134850Y0445650D01*
X0133812Y0445650D01*
X0133812Y0446361D01*
X0132904Y0447268D01*
X0127289Y0447268D01*
X0126750Y0446729D01*
X0126211Y0447268D01*
X0120596Y0447268D01*
X0119688Y0446361D01*
X0119688Y0441139D01*
X0120570Y0440257D01*
X0118650Y0438337D01*
X0118650Y0447963D01*
X0126750Y0456063D01*
X0126177Y0455490D02*
X0127323Y0455490D01*
X0127710Y0454791D02*
X0125478Y0454791D01*
X0124780Y0454093D02*
X0127743Y0454093D01*
X0127743Y0453394D02*
X0124081Y0453394D01*
X0123382Y0452695D02*
X0131509Y0452695D01*
X0131750Y0452844D02*
X0127844Y0452844D01*
X0126750Y0451750D01*
X0127743Y0451997D02*
X0122684Y0451997D01*
X0121985Y0451298D02*
X0127793Y0451298D01*
X0128247Y0450600D02*
X0121287Y0450600D01*
X0120588Y0449901D02*
X0134850Y0449901D01*
X0134850Y0449203D02*
X0119890Y0449203D01*
X0119191Y0448504D02*
X0134850Y0448504D01*
X0134850Y0447806D02*
X0118650Y0447806D01*
X0118650Y0447107D02*
X0120435Y0447107D01*
X0119737Y0446409D02*
X0118650Y0446409D01*
X0118650Y0445710D02*
X0119688Y0445710D01*
X0119688Y0445012D02*
X0118650Y0445012D01*
X0118650Y0444313D02*
X0119688Y0444313D01*
X0119688Y0443615D02*
X0118650Y0443615D01*
X0118650Y0442916D02*
X0119688Y0442916D01*
X0119688Y0442218D02*
X0118650Y0442218D01*
X0118650Y0441519D02*
X0119688Y0441519D01*
X0120007Y0440821D02*
X0118650Y0440821D01*
X0118650Y0440122D02*
X0120435Y0440122D01*
X0119737Y0439424D02*
X0118650Y0439424D01*
X0118650Y0438725D02*
X0119038Y0438725D01*
X0114737Y0439424D02*
X0112100Y0439424D01*
X0112100Y0440122D02*
X0114850Y0440122D01*
X0114850Y0440821D02*
X0109600Y0440821D01*
X0109600Y0441100D02*
X0112100Y0441100D01*
X0112100Y0443928D01*
X0112008Y0444271D01*
X0111830Y0444579D01*
X0111579Y0444830D01*
X0111271Y0445008D01*
X0110928Y0445100D01*
X0109600Y0445100D01*
X0109600Y0441100D01*
X0109600Y0441519D02*
X0108900Y0441519D01*
X0108900Y0442218D02*
X0109600Y0442218D01*
X0109600Y0442916D02*
X0108900Y0442916D01*
X0108900Y0443615D02*
X0109600Y0443615D01*
X0109600Y0444313D02*
X0108900Y0444313D01*
X0108900Y0445012D02*
X0109600Y0445012D01*
X0111257Y0445012D02*
X0114850Y0445012D01*
X0114850Y0445710D02*
X0106567Y0445710D01*
X0106680Y0445012D02*
X0107243Y0445012D01*
X0106750Y0446409D02*
X0114850Y0446409D01*
X0114850Y0447107D02*
X0106750Y0447107D01*
X0106560Y0447806D02*
X0109918Y0447806D01*
X0109806Y0447881D02*
X0110305Y0447547D01*
X0110860Y0447317D01*
X0111450Y0447200D01*
X0111600Y0447200D01*
X0111600Y0450100D01*
X0111900Y0450100D01*
X0111900Y0450400D01*
X0114800Y0450400D01*
X0114800Y0450550D01*
X0114683Y0451140D01*
X0114453Y0451695D01*
X0114119Y0452194D01*
X0113694Y0452619D01*
X0113195Y0452953D01*
X0112640Y0453183D01*
X0112050Y0453300D01*
X0111900Y0453300D01*
X0111900Y0450400D01*
X0111600Y0450400D01*
X0111600Y0453300D01*
X0111450Y0453300D01*
X0110860Y0453183D01*
X0110305Y0452953D01*
X0109806Y0452619D01*
X0109381Y0452194D01*
X0109047Y0451695D01*
X0108817Y0451140D01*
X0108700Y0450550D01*
X0108700Y0450400D01*
X0111600Y0450400D01*
X0111600Y0450100D01*
X0108700Y0450100D01*
X0108700Y0449950D01*
X0108817Y0449360D01*
X0109047Y0448805D01*
X0109381Y0448306D01*
X0109806Y0447881D01*
X0109248Y0448504D02*
X0106238Y0448504D01*
X0105540Y0449203D02*
X0108882Y0449203D01*
X0108710Y0449901D02*
X0105000Y0449901D01*
X0105000Y0450600D02*
X0108710Y0450600D01*
X0108883Y0451298D02*
X0105485Y0451298D01*
X0106184Y0451997D02*
X0109249Y0451997D01*
X0109920Y0452695D02*
X0106882Y0452695D01*
X0107150Y0453394D02*
X0118707Y0453394D01*
X0118009Y0452695D02*
X0113580Y0452695D01*
X0114251Y0451997D02*
X0117310Y0451997D01*
X0116611Y0451298D02*
X0114617Y0451298D01*
X0114790Y0450600D02*
X0115913Y0450600D01*
X0115963Y0450650D02*
X0115963Y0450650D01*
X0115214Y0449901D02*
X0114790Y0449901D01*
X0114800Y0449950D02*
X0114800Y0450100D01*
X0111900Y0450100D01*
X0111900Y0447200D01*
X0112050Y0447200D01*
X0112640Y0447317D01*
X0113195Y0447547D01*
X0113694Y0447881D01*
X0114119Y0448306D01*
X0114453Y0448805D01*
X0114683Y0449360D01*
X0114800Y0449950D01*
X0114850Y0449203D02*
X0114618Y0449203D01*
X0114850Y0448504D02*
X0114252Y0448504D01*
X0114850Y0447806D02*
X0113582Y0447806D01*
X0111900Y0447806D02*
X0111600Y0447806D01*
X0111600Y0448504D02*
X0111900Y0448504D01*
X0111900Y0449203D02*
X0111600Y0449203D01*
X0111600Y0449901D02*
X0111900Y0449901D01*
X0111900Y0450600D02*
X0111600Y0450600D01*
X0111600Y0451298D02*
X0111900Y0451298D01*
X0111900Y0451997D02*
X0111600Y0451997D01*
X0111600Y0452695D02*
X0111900Y0452695D01*
X0107150Y0454093D02*
X0119406Y0454093D01*
X0120104Y0454791D02*
X0107150Y0454791D01*
X0107150Y0455490D02*
X0120803Y0455490D01*
X0121501Y0456188D02*
X0107150Y0456188D01*
X0107150Y0456887D02*
X0122200Y0456887D01*
X0129781Y0460719D02*
X0129813Y0460750D01*
X0135219Y0456781D02*
X0136750Y0455250D01*
X0136750Y0443750D01*
X0143750Y0443750D01*
X0145203Y0442297D01*
X0145203Y0438750D01*
X0145096Y0433750D02*
X0145096Y0429065D01*
X0146081Y0428081D01*
X0146081Y0423750D01*
X0146081Y0408081D01*
X0136750Y0398750D01*
X0126061Y0398750D01*
X0125392Y0399419D01*
X0133010Y0420010D02*
X0137813Y0420010D01*
X0141135Y0428248D02*
X0143227Y0428248D01*
X0143196Y0428946D02*
X0141135Y0428946D01*
X0141135Y0429645D02*
X0143196Y0429645D01*
X0142177Y0430343D02*
X0141323Y0430343D01*
X0138404Y0433750D02*
X0138297Y0433856D01*
X0138297Y0438750D01*
X0134779Y0440821D02*
X0133493Y0440821D01*
X0133812Y0441519D02*
X0135283Y0441519D01*
X0136750Y0443750D02*
X0130096Y0443750D01*
X0133812Y0445710D02*
X0134850Y0445710D01*
X0134850Y0446409D02*
X0133763Y0446409D01*
X0133065Y0447107D02*
X0134850Y0447107D01*
X0131991Y0450600D02*
X0131509Y0450600D01*
X0131509Y0451298D02*
X0131991Y0451298D01*
X0131991Y0451997D02*
X0131509Y0451997D01*
X0127128Y0447107D02*
X0126372Y0447107D01*
X0114850Y0444313D02*
X0111984Y0444313D01*
X0112100Y0443615D02*
X0114850Y0443615D01*
X0114850Y0442916D02*
X0112100Y0442916D01*
X0112100Y0442218D02*
X0114850Y0442218D01*
X0114850Y0441519D02*
X0112100Y0441519D01*
X0112100Y0440400D02*
X0109600Y0440400D01*
X0109600Y0436400D01*
X0110928Y0436400D01*
X0111271Y0436492D01*
X0111579Y0436670D01*
X0111830Y0436921D01*
X0112008Y0437229D01*
X0112100Y0437572D01*
X0112100Y0440400D01*
X0112100Y0438725D02*
X0114038Y0438725D01*
X0113340Y0438027D02*
X0112100Y0438027D01*
X0112035Y0437328D02*
X0112641Y0437328D01*
X0111943Y0436630D02*
X0111510Y0436630D01*
X0111244Y0435931D02*
X0104750Y0435931D01*
X0104750Y0435233D02*
X0110546Y0435233D01*
X0109847Y0434534D02*
X0104494Y0434534D01*
X0104078Y0433836D02*
X0109149Y0433836D01*
X0109750Y0431750D02*
X0092250Y0431750D01*
X0086750Y0437250D01*
X0086750Y0443750D01*
X0091750Y0448750D01*
X0094250Y0447750D02*
X0094250Y0440750D01*
X0099250Y0440750D02*
X0099250Y0436750D01*
X0100250Y0435750D01*
X0101750Y0435750D01*
X0101250Y0435750D01*
X0106822Y0436630D02*
X0106990Y0436630D01*
X0108900Y0436630D02*
X0109600Y0436630D01*
X0109600Y0437328D02*
X0108900Y0437328D01*
X0108900Y0438027D02*
X0109600Y0438027D01*
X0109600Y0438725D02*
X0108900Y0438725D01*
X0108900Y0439424D02*
X0109600Y0439424D01*
X0109600Y0440122D02*
X0108900Y0440122D01*
X0114964Y0429645D02*
X0088536Y0429645D01*
X0088536Y0430343D02*
X0090970Y0430343D01*
X0090271Y0431042D02*
X0088536Y0431042D01*
X0088536Y0431740D02*
X0089573Y0431740D01*
X0088874Y0432439D02*
X0088536Y0432439D01*
X0087933Y0428946D02*
X0115567Y0428946D01*
X0094492Y0424755D02*
X0088336Y0424755D01*
X0088336Y0424057D02*
X0093794Y0424057D01*
X0093650Y0423358D02*
X0088336Y0423358D01*
X0088336Y0421961D02*
X0094276Y0421961D01*
X0094893Y0421262D02*
X0088507Y0421262D01*
X0088843Y0420564D02*
X0090877Y0420564D01*
X0093650Y0422660D02*
X0084384Y0422660D01*
X0084383Y0423358D02*
X0083683Y0423358D01*
X0083683Y0424057D02*
X0084383Y0424057D01*
X0084383Y0424755D02*
X0083683Y0424755D01*
X0083683Y0425454D02*
X0084383Y0425454D01*
X0084383Y0426152D02*
X0083683Y0426152D01*
X0080134Y0428946D02*
X0070741Y0428946D01*
X0070042Y0429645D02*
X0079531Y0429645D01*
X0079531Y0430343D02*
X0069344Y0430343D01*
X0068812Y0431042D02*
X0079531Y0431042D01*
X0079531Y0431740D02*
X0068721Y0431740D01*
X0068721Y0432439D02*
X0079531Y0432439D01*
X0079531Y0433137D02*
X0068721Y0433137D01*
X0068721Y0433836D02*
X0079531Y0433836D01*
X0079531Y0434534D02*
X0068721Y0434534D01*
X0068721Y0435233D02*
X0079531Y0435233D01*
X0079531Y0435931D02*
X0068721Y0435931D01*
X0068612Y0436630D02*
X0080209Y0436630D01*
X0081850Y0437328D02*
X0068612Y0437328D01*
X0068612Y0438027D02*
X0081850Y0438027D01*
X0081850Y0438725D02*
X0065446Y0438725D01*
X0068612Y0439424D02*
X0081850Y0439424D01*
X0081850Y0440122D02*
X0068612Y0440122D01*
X0068612Y0440821D02*
X0070007Y0440821D01*
X0069688Y0441519D02*
X0068358Y0441519D01*
X0069688Y0445012D02*
X0062768Y0445012D01*
X0062768Y0445710D02*
X0069688Y0445710D01*
X0069737Y0446409D02*
X0062768Y0446409D01*
X0062768Y0447107D02*
X0070435Y0447107D01*
X0070894Y0447806D02*
X0062768Y0447806D01*
X0062768Y0448504D02*
X0070750Y0448504D01*
X0070750Y0449203D02*
X0062768Y0449203D01*
X0062768Y0449901D02*
X0070980Y0449901D01*
X0073404Y0448404D02*
X0073750Y0448750D01*
X0073404Y0448404D02*
X0073404Y0443750D01*
X0067964Y0450600D02*
X0062768Y0450600D01*
X0062201Y0451298D02*
X0067543Y0451298D01*
X0067543Y0451997D02*
X0053700Y0451997D01*
X0053700Y0452695D02*
X0067543Y0452695D01*
X0067543Y0453394D02*
X0053700Y0453394D01*
X0053700Y0454093D02*
X0067543Y0454093D01*
X0067666Y0454791D02*
X0053700Y0454791D01*
X0053700Y0455490D02*
X0067323Y0455490D01*
X0066625Y0456188D02*
X0053700Y0456188D01*
X0053700Y0456887D02*
X0065926Y0456887D01*
X0065228Y0457585D02*
X0053700Y0457585D01*
X0053700Y0458284D02*
X0064850Y0458284D01*
X0064850Y0458982D02*
X0053700Y0458982D01*
X0053700Y0459681D02*
X0064850Y0459681D01*
X0064850Y0460379D02*
X0053700Y0460379D01*
X0053700Y0461078D02*
X0064850Y0461078D01*
X0064850Y0461776D02*
X0053700Y0461776D01*
X0053700Y0462475D02*
X0064850Y0462475D01*
X0064850Y0463173D02*
X0053700Y0463173D01*
X0053700Y0463872D02*
X0064850Y0463872D01*
X0064850Y0464570D02*
X0053700Y0464570D01*
X0053700Y0465269D02*
X0064850Y0465269D01*
X0064850Y0465967D02*
X0061966Y0465967D01*
X0062665Y0466666D02*
X0064850Y0466666D01*
X0064850Y0467364D02*
X0062768Y0467364D01*
X0062768Y0468063D02*
X0064850Y0468063D01*
X0064850Y0468761D02*
X0062768Y0468761D01*
X0062768Y0469460D02*
X0064850Y0469460D01*
X0064850Y0470158D02*
X0062768Y0470158D01*
X0062768Y0470857D02*
X0064850Y0470857D01*
X0064850Y0471555D02*
X0062768Y0471555D01*
X0062768Y0472254D02*
X0064850Y0472254D01*
X0064850Y0472952D02*
X0062594Y0472952D01*
X0061896Y0473651D02*
X0064850Y0473651D01*
X0064850Y0474349D02*
X0053700Y0474349D01*
X0053700Y0475048D02*
X0058614Y0475048D01*
X0056898Y0475746D02*
X0053700Y0475746D01*
X0053700Y0476445D02*
X0056065Y0476445D01*
X0055233Y0477143D02*
X0053700Y0477143D01*
X0053700Y0477842D02*
X0054480Y0477842D01*
X0054077Y0478540D02*
X0053700Y0478540D01*
X0066750Y0474250D02*
X0070750Y0478250D01*
X0088250Y0478250D01*
X0090596Y0475904D01*
X0091750Y0475904D01*
X0095096Y0479250D02*
X0091750Y0482596D01*
X0088231Y0482731D02*
X0070963Y0482731D01*
X0070840Y0482033D02*
X0088231Y0482033D01*
X0088231Y0481334D02*
X0070717Y0481334D01*
X0070594Y0480636D02*
X0088231Y0480636D01*
X0088231Y0480150D02*
X0070352Y0480150D01*
X0070576Y0480537D01*
X0070576Y0480538D01*
X0071143Y0483750D01*
X0070576Y0486962D01*
X0070576Y0486962D01*
X0068945Y0489787D01*
X0068945Y0489787D01*
X0066547Y0491800D01*
X0082724Y0491800D01*
X0082431Y0491397D01*
X0082070Y0490689D01*
X0081824Y0489933D01*
X0081700Y0489147D01*
X0081700Y0489100D01*
X0086400Y0489100D01*
X0086400Y0488400D01*
X0087100Y0488400D01*
X0087100Y0483700D01*
X0087147Y0483700D01*
X0087933Y0483824D01*
X0088231Y0483921D01*
X0088231Y0480150D01*
X0088231Y0483430D02*
X0071086Y0483430D01*
X0071143Y0483750D02*
X0071143Y0483750D01*
X0071076Y0484129D02*
X0084697Y0484129D01*
X0084811Y0484070D02*
X0085567Y0483824D01*
X0086353Y0483700D01*
X0086400Y0483700D01*
X0086400Y0488400D01*
X0081700Y0488400D01*
X0081700Y0488353D01*
X0081824Y0487567D01*
X0082070Y0486811D01*
X0082431Y0486103D01*
X0082898Y0485460D01*
X0083460Y0484898D01*
X0084103Y0484431D01*
X0084811Y0484070D01*
X0083558Y0484827D02*
X0070953Y0484827D01*
X0070830Y0485526D02*
X0082851Y0485526D01*
X0082369Y0486224D02*
X0070706Y0486224D01*
X0070583Y0486923D02*
X0082034Y0486923D01*
X0081816Y0487621D02*
X0070196Y0487621D01*
X0069793Y0488320D02*
X0081705Y0488320D01*
X0081790Y0489717D02*
X0068986Y0489717D01*
X0069389Y0489018D02*
X0086400Y0489018D01*
X0086400Y0488320D02*
X0087100Y0488320D01*
X0087100Y0487621D02*
X0086400Y0487621D01*
X0086400Y0486923D02*
X0087100Y0486923D01*
X0087100Y0486224D02*
X0086400Y0486224D01*
X0086400Y0485526D02*
X0087100Y0485526D01*
X0087100Y0484827D02*
X0086400Y0484827D01*
X0086400Y0484129D02*
X0087100Y0484129D01*
X0081981Y0490415D02*
X0068197Y0490415D01*
X0067365Y0491114D02*
X0082287Y0491114D01*
X0096750Y0488750D02*
X0101750Y0483750D01*
X0101750Y0479250D01*
X0098550Y0479250D02*
X0095096Y0479250D01*
X0099250Y0473750D02*
X0100904Y0475404D01*
X0111250Y0475404D01*
X0111750Y0475904D01*
X0113904Y0475904D01*
X0116750Y0478750D02*
X0116750Y0488750D01*
X0111750Y0482596D02*
X0108404Y0479250D01*
X0104950Y0479250D01*
X0099250Y0473750D02*
X0099250Y0469923D01*
X0099250Y0462750D01*
X0101750Y0460250D01*
X0101250Y0459750D01*
X0097750Y0459750D01*
X0090844Y0452844D01*
X0071750Y0452844D01*
X0071750Y0456781D02*
X0068719Y0456781D01*
X0066750Y0458750D01*
X0066750Y0474250D01*
X0068650Y0473463D02*
X0071537Y0476350D01*
X0075044Y0476350D01*
X0074980Y0476240D01*
X0074888Y0475896D01*
X0074888Y0474100D01*
X0078053Y0474100D01*
X0078053Y0473400D01*
X0074888Y0473400D01*
X0074888Y0471604D01*
X0074980Y0471260D01*
X0075158Y0470953D01*
X0075409Y0470701D01*
X0075717Y0470523D01*
X0076060Y0470431D01*
X0078054Y0470431D01*
X0078054Y0473400D01*
X0078754Y0473400D01*
X0078754Y0470431D01*
X0080747Y0470431D01*
X0081090Y0470523D01*
X0081398Y0470701D01*
X0081609Y0470912D01*
X0082289Y0470231D01*
X0083196Y0470231D01*
X0083196Y0467883D01*
X0082063Y0466750D01*
X0081153Y0466750D01*
X0080051Y0466293D01*
X0079207Y0465449D01*
X0078750Y0464347D01*
X0078750Y0463437D01*
X0077931Y0462618D01*
X0075881Y0462618D01*
X0075622Y0462877D01*
X0075665Y0462953D01*
X0075757Y0463297D01*
X0075757Y0464415D01*
X0071991Y0464415D01*
X0071991Y0464896D01*
X0075757Y0464896D01*
X0075757Y0466014D01*
X0075665Y0466358D01*
X0075488Y0466666D01*
X0080950Y0466666D01*
X0079725Y0465967D02*
X0075757Y0465967D01*
X0075757Y0465269D02*
X0079132Y0465269D01*
X0078843Y0464570D02*
X0071991Y0464570D01*
X0071750Y0464656D02*
X0071750Y0465750D01*
X0073750Y0467750D01*
X0075750Y0467750D01*
X0078750Y0470750D01*
X0078750Y0473404D01*
X0078404Y0473750D01*
X0073250Y0473750D01*
X0074888Y0474349D02*
X0069536Y0474349D01*
X0068838Y0473651D02*
X0078053Y0473651D01*
X0078054Y0472952D02*
X0078754Y0472952D01*
X0078754Y0472254D02*
X0078054Y0472254D01*
X0078054Y0471555D02*
X0078754Y0471555D01*
X0078754Y0470857D02*
X0078054Y0470857D01*
X0075254Y0470857D02*
X0068650Y0470857D01*
X0068650Y0471555D02*
X0074901Y0471555D01*
X0074888Y0472254D02*
X0068650Y0472254D01*
X0068650Y0472952D02*
X0074888Y0472952D01*
X0074888Y0475048D02*
X0070235Y0475048D01*
X0070933Y0475746D02*
X0074888Y0475746D01*
X0081553Y0470857D02*
X0081664Y0470857D01*
X0083196Y0470158D02*
X0068650Y0470158D01*
X0068650Y0469460D02*
X0083196Y0469460D01*
X0083196Y0468761D02*
X0068650Y0468761D01*
X0068650Y0468063D02*
X0083196Y0468063D01*
X0082677Y0467364D02*
X0068650Y0467364D01*
X0068650Y0467116D02*
X0068650Y0473463D01*
X0068915Y0467187D02*
X0068650Y0467116D01*
X0068915Y0467187D02*
X0071509Y0467187D01*
X0071509Y0464896D01*
X0071991Y0464896D01*
X0071991Y0467187D01*
X0074585Y0467187D01*
X0074929Y0467095D01*
X0075236Y0466917D01*
X0075488Y0466666D01*
X0075757Y0463872D02*
X0078750Y0463872D01*
X0078486Y0463173D02*
X0075724Y0463173D01*
X0078719Y0460719D02*
X0081750Y0463750D01*
X0085096Y0467096D01*
X0085096Y0468750D01*
X0086750Y0468750D01*
X0093077Y0468750D01*
X0094250Y0469923D01*
X0085096Y0468750D02*
X0085096Y0473750D01*
X0078719Y0460719D02*
X0071750Y0460719D01*
X0071750Y0456781D02*
X0083219Y0456781D01*
X0083250Y0456750D01*
X0083250Y0443750D02*
X0083750Y0443250D01*
X0083750Y0433033D01*
X0084033Y0432750D01*
X0083250Y0443750D02*
X0080096Y0443750D01*
X0094250Y0447750D02*
X0096750Y0450250D01*
X0096750Y0453750D01*
X0098250Y0455250D01*
X0101750Y0455250D01*
X0105250Y0453750D02*
X0101750Y0450250D01*
X0105250Y0453750D02*
X0105250Y0461750D01*
X0107250Y0463750D01*
X0108250Y0463750D01*
X0109250Y0464750D01*
X0109250Y0469923D01*
X0104250Y0469923D02*
X0103750Y0469423D01*
X0103750Y0464750D01*
X0107150Y0460379D02*
X0108500Y0460379D01*
X0108500Y0459681D02*
X0107150Y0459681D01*
X0107150Y0458982D02*
X0108757Y0458982D01*
X0109120Y0458284D02*
X0107150Y0458284D01*
X0107150Y0457585D02*
X0109819Y0457585D01*
X0076250Y0421250D02*
X0075750Y0421250D01*
X0068250Y0428750D01*
X0065096Y0428750D01*
X0065203Y0428856D01*
X0065203Y0433750D01*
X0066278Y0423750D02*
X0066278Y0419222D01*
X0071581Y0399419D02*
X0078148Y0399419D01*
X0071991Y0465269D02*
X0071509Y0465269D01*
X0071509Y0465967D02*
X0071991Y0465967D01*
X0071991Y0466666D02*
X0071509Y0466666D01*
X0155700Y0465861D02*
X0155700Y0451639D01*
X0163861Y0451639D01*
X0164768Y0450731D01*
X0164768Y0444722D01*
X0163861Y0443814D01*
X0155700Y0443814D01*
X0155700Y0420260D01*
X0157322Y0420268D01*
X0157322Y0420584D01*
X0156432Y0421474D01*
X0156432Y0426026D01*
X0156688Y0426282D01*
X0156688Y0431361D01*
X0156796Y0431468D01*
X0156779Y0431485D01*
X0156779Y0436015D01*
X0156796Y0436032D01*
X0156688Y0436139D01*
X0156688Y0441361D01*
X0157596Y0442268D01*
X0163211Y0442268D01*
X0163891Y0441588D01*
X0164102Y0441799D01*
X0164410Y0441976D01*
X0164753Y0442068D01*
X0166746Y0442068D01*
X0166746Y0439100D01*
X0167446Y0439100D01*
X0167446Y0442068D01*
X0169440Y0442068D01*
X0169783Y0441976D01*
X0170091Y0441799D01*
X0170342Y0441547D01*
X0170520Y0441240D01*
X0170612Y0440896D01*
X0170612Y0439100D01*
X0167446Y0439100D01*
X0167446Y0438400D01*
X0170612Y0438400D01*
X0170612Y0436604D01*
X0170520Y0436260D01*
X0170504Y0436232D01*
X0170721Y0436015D01*
X0170721Y0431485D01*
X0170704Y0431468D01*
X0170812Y0431361D01*
X0170812Y0430650D01*
X0171037Y0430650D01*
X0177500Y0424187D01*
X0177653Y0424250D01*
X0178847Y0424250D01*
X0179949Y0423793D01*
X0180793Y0422949D01*
X0181250Y0421847D01*
X0181250Y0420653D01*
X0181140Y0420387D01*
X0181731Y0420390D01*
X0181731Y0422400D01*
X0185683Y0422400D01*
X0185683Y0423100D01*
X0181731Y0423100D01*
X0181731Y0425487D01*
X0181823Y0425830D01*
X0182000Y0426138D01*
X0182252Y0426389D01*
X0182560Y0426567D01*
X0182903Y0426659D01*
X0185683Y0426659D01*
X0185683Y0423100D01*
X0186383Y0423100D01*
X0186383Y0426659D01*
X0189164Y0426659D01*
X0189507Y0426567D01*
X0189815Y0426389D01*
X0190066Y0426138D01*
X0190244Y0425830D01*
X0190336Y0425487D01*
X0190336Y0423100D01*
X0186384Y0423100D01*
X0186384Y0422400D01*
X0190336Y0422400D01*
X0190336Y0421425D01*
X0190833Y0420952D01*
X0190846Y0420435D01*
X0192758Y0420445D01*
X0192963Y0420650D01*
X0196904Y0420650D01*
X0196904Y0420702D01*
X0196834Y0420792D01*
X0196904Y0421350D01*
X0196904Y0421650D01*
X0196587Y0421650D01*
X0195650Y0422587D01*
X0195650Y0423913D01*
X0196587Y0424850D01*
X0198266Y0424850D01*
X0198292Y0424870D01*
X0198453Y0424850D01*
X0199047Y0424850D01*
X0199208Y0424870D01*
X0199234Y0424850D01*
X0204413Y0424850D01*
X0204944Y0424319D01*
X0204944Y0429850D01*
X0193463Y0429850D01*
X0192350Y0430963D01*
X0190536Y0432777D01*
X0190536Y0429549D01*
X0189628Y0428641D01*
X0182439Y0428641D01*
X0181531Y0429549D01*
X0181531Y0435951D01*
X0182439Y0436859D01*
X0183850Y0436859D01*
X0183850Y0440231D01*
X0179289Y0440231D01*
X0178750Y0440771D01*
X0178211Y0440231D01*
X0172596Y0440231D01*
X0171688Y0441139D01*
X0171688Y0446361D01*
X0172596Y0447268D01*
X0173116Y0447268D01*
X0172750Y0448153D01*
X0172750Y0449347D01*
X0173068Y0450113D01*
X0170450Y0450113D01*
X0169543Y0451021D01*
X0169543Y0454668D01*
X0169688Y0454813D01*
X0169543Y0454958D01*
X0169543Y0455270D01*
X0167963Y0456850D01*
X0166850Y0457963D01*
X0166850Y0475035D01*
X0165381Y0474500D01*
X0162119Y0474500D01*
X0159054Y0475616D01*
X0159054Y0475616D01*
X0156555Y0477712D01*
X0156555Y0477712D01*
X0155700Y0479193D01*
X0155700Y0473686D01*
X0163861Y0473686D01*
X0164768Y0472778D01*
X0164768Y0466769D01*
X0163861Y0465861D01*
X0155700Y0465861D01*
X0155700Y0465269D02*
X0166850Y0465269D01*
X0166850Y0465967D02*
X0163966Y0465967D01*
X0164665Y0466666D02*
X0166850Y0466666D01*
X0166850Y0467364D02*
X0164768Y0467364D01*
X0164768Y0468063D02*
X0166850Y0468063D01*
X0166850Y0468761D02*
X0164768Y0468761D01*
X0164768Y0469460D02*
X0166850Y0469460D01*
X0166850Y0470158D02*
X0164768Y0470158D01*
X0164768Y0470857D02*
X0166850Y0470857D01*
X0166850Y0471555D02*
X0164768Y0471555D01*
X0164768Y0472254D02*
X0166850Y0472254D01*
X0166850Y0472952D02*
X0164594Y0472952D01*
X0163896Y0473651D02*
X0166850Y0473651D01*
X0166850Y0474349D02*
X0155700Y0474349D01*
X0155700Y0475048D02*
X0160614Y0475048D01*
X0158898Y0475746D02*
X0155700Y0475746D01*
X0155700Y0476445D02*
X0158065Y0476445D01*
X0157233Y0477143D02*
X0155700Y0477143D01*
X0155700Y0477842D02*
X0156480Y0477842D01*
X0156077Y0478540D02*
X0155700Y0478540D01*
X0168750Y0474250D02*
X0172750Y0478250D01*
X0190250Y0478250D01*
X0192596Y0475904D01*
X0193750Y0475904D01*
X0197096Y0479250D02*
X0193750Y0482596D01*
X0190231Y0482731D02*
X0172963Y0482731D01*
X0172840Y0482033D02*
X0190231Y0482033D01*
X0190231Y0481334D02*
X0172717Y0481334D01*
X0172594Y0480636D02*
X0190231Y0480636D01*
X0190231Y0480150D02*
X0172352Y0480150D01*
X0172576Y0480537D01*
X0172576Y0480538D01*
X0173143Y0483750D01*
X0172576Y0486962D01*
X0172576Y0486962D01*
X0170945Y0489787D01*
X0170945Y0489787D01*
X0168547Y0491800D01*
X0184724Y0491800D01*
X0184431Y0491397D01*
X0184070Y0490689D01*
X0183824Y0489933D01*
X0183700Y0489147D01*
X0183700Y0489100D01*
X0188400Y0489100D01*
X0188400Y0488400D01*
X0189100Y0488400D01*
X0189100Y0483700D01*
X0189147Y0483700D01*
X0189933Y0483824D01*
X0190231Y0483921D01*
X0190231Y0480150D01*
X0190231Y0483430D02*
X0173086Y0483430D01*
X0173143Y0483750D02*
X0173143Y0483750D01*
X0173076Y0484129D02*
X0186697Y0484129D01*
X0186811Y0484070D02*
X0187567Y0483824D01*
X0188353Y0483700D01*
X0188400Y0483700D01*
X0188400Y0488400D01*
X0183700Y0488400D01*
X0183700Y0488353D01*
X0183824Y0487567D01*
X0184070Y0486811D01*
X0184431Y0486103D01*
X0184898Y0485460D01*
X0185460Y0484898D01*
X0186103Y0484431D01*
X0186811Y0484070D01*
X0185558Y0484827D02*
X0172953Y0484827D01*
X0172830Y0485526D02*
X0184851Y0485526D01*
X0184369Y0486224D02*
X0172706Y0486224D01*
X0172583Y0486923D02*
X0184034Y0486923D01*
X0183816Y0487621D02*
X0172196Y0487621D01*
X0171793Y0488320D02*
X0183705Y0488320D01*
X0183790Y0489717D02*
X0170986Y0489717D01*
X0171389Y0489018D02*
X0188400Y0489018D01*
X0188400Y0488320D02*
X0189100Y0488320D01*
X0189100Y0487621D02*
X0188400Y0487621D01*
X0188400Y0486923D02*
X0189100Y0486923D01*
X0189100Y0486224D02*
X0188400Y0486224D01*
X0188400Y0485526D02*
X0189100Y0485526D01*
X0189100Y0484827D02*
X0188400Y0484827D01*
X0188400Y0484129D02*
X0189100Y0484129D01*
X0183981Y0490415D02*
X0170197Y0490415D01*
X0169365Y0491114D02*
X0184287Y0491114D01*
X0198750Y0488750D02*
X0203750Y0483750D01*
X0203750Y0479250D01*
X0200550Y0479250D02*
X0197096Y0479250D01*
X0201250Y0473750D02*
X0202904Y0475404D01*
X0213250Y0475404D01*
X0213750Y0475904D01*
X0215904Y0475904D01*
X0218750Y0478750D01*
X0228750Y0478750D01*
X0233750Y0473750D01*
X0233750Y0464656D01*
X0231813Y0460750D02*
X0239750Y0460750D01*
X0237219Y0456781D02*
X0233750Y0456781D01*
X0230719Y0456781D01*
X0228750Y0458750D01*
X0218750Y0448750D01*
X0218750Y0438750D01*
X0211750Y0431750D01*
X0194250Y0431750D01*
X0188750Y0437250D01*
X0188750Y0443750D01*
X0193750Y0448750D01*
X0196250Y0447750D02*
X0196250Y0440750D01*
X0201250Y0440750D02*
X0201250Y0436750D01*
X0202250Y0435750D01*
X0203750Y0435750D01*
X0203250Y0435750D01*
X0204944Y0429645D02*
X0190536Y0429645D01*
X0190536Y0430343D02*
X0192970Y0430343D01*
X0192271Y0431042D02*
X0190536Y0431042D01*
X0190536Y0431740D02*
X0191573Y0431740D01*
X0190874Y0432439D02*
X0190536Y0432439D01*
X0189933Y0428946D02*
X0204944Y0428946D01*
X0204944Y0428248D02*
X0173439Y0428248D01*
X0172741Y0428946D02*
X0182134Y0428946D01*
X0181531Y0429645D02*
X0172042Y0429645D01*
X0171344Y0430343D02*
X0181531Y0430343D01*
X0181531Y0431042D02*
X0170812Y0431042D01*
X0170721Y0431740D02*
X0181531Y0431740D01*
X0181531Y0432439D02*
X0170721Y0432439D01*
X0170721Y0433137D02*
X0181531Y0433137D01*
X0181531Y0433836D02*
X0170721Y0433836D01*
X0170721Y0434534D02*
X0181531Y0434534D01*
X0181531Y0435233D02*
X0170721Y0435233D01*
X0170721Y0435931D02*
X0181531Y0435931D01*
X0182209Y0436630D02*
X0170612Y0436630D01*
X0170612Y0437328D02*
X0183850Y0437328D01*
X0183850Y0438027D02*
X0170612Y0438027D01*
X0170612Y0439424D02*
X0183850Y0439424D01*
X0183850Y0440122D02*
X0170612Y0440122D01*
X0170612Y0440821D02*
X0172007Y0440821D01*
X0171688Y0441519D02*
X0170358Y0441519D01*
X0171688Y0442218D02*
X0163262Y0442218D01*
X0164360Y0444313D02*
X0171688Y0444313D01*
X0171688Y0443615D02*
X0155700Y0443615D01*
X0155700Y0442916D02*
X0171688Y0442916D01*
X0171688Y0445012D02*
X0164768Y0445012D01*
X0164768Y0445710D02*
X0171688Y0445710D01*
X0171737Y0446409D02*
X0164768Y0446409D01*
X0164768Y0447107D02*
X0172435Y0447107D01*
X0172894Y0447806D02*
X0164768Y0447806D01*
X0164768Y0448504D02*
X0172750Y0448504D01*
X0172750Y0449203D02*
X0164768Y0449203D01*
X0164768Y0449901D02*
X0172980Y0449901D01*
X0175404Y0448404D02*
X0175750Y0448750D01*
X0175404Y0448404D02*
X0175404Y0443750D01*
X0174750Y0438750D02*
X0167096Y0438750D01*
X0167446Y0438725D02*
X0183850Y0438725D01*
X0185750Y0443250D02*
X0185750Y0433033D01*
X0186033Y0432750D01*
X0185750Y0443250D02*
X0185250Y0443750D01*
X0182096Y0443750D01*
X0174750Y0438750D02*
X0178750Y0434750D01*
X0178750Y0427250D01*
X0183250Y0422750D01*
X0186033Y0422750D01*
X0185683Y0422660D02*
X0180913Y0422660D01*
X0181203Y0421961D02*
X0181731Y0421961D01*
X0181731Y0421262D02*
X0181250Y0421262D01*
X0181213Y0420564D02*
X0181731Y0420564D01*
X0181731Y0423358D02*
X0180385Y0423358D01*
X0179314Y0424057D02*
X0181731Y0424057D01*
X0181731Y0424755D02*
X0176932Y0424755D01*
X0176233Y0425454D02*
X0181731Y0425454D01*
X0182015Y0426152D02*
X0175535Y0426152D01*
X0174836Y0426851D02*
X0204944Y0426851D01*
X0204944Y0427549D02*
X0174138Y0427549D01*
X0170250Y0428750D02*
X0177750Y0421250D01*
X0178250Y0421250D01*
X0185683Y0423358D02*
X0186383Y0423358D01*
X0186384Y0422660D02*
X0195650Y0422660D01*
X0195650Y0423358D02*
X0190336Y0423358D01*
X0190336Y0424057D02*
X0195794Y0424057D01*
X0196492Y0424755D02*
X0190336Y0424755D01*
X0190336Y0425454D02*
X0204944Y0425454D01*
X0204944Y0426152D02*
X0190052Y0426152D01*
X0186383Y0426152D02*
X0185683Y0426152D01*
X0185683Y0425454D02*
X0186383Y0425454D01*
X0186383Y0424755D02*
X0185683Y0424755D01*
X0185683Y0424057D02*
X0186383Y0424057D01*
X0190336Y0421961D02*
X0196276Y0421961D01*
X0196893Y0421262D02*
X0190507Y0421262D01*
X0190843Y0420564D02*
X0192877Y0420564D01*
X0204508Y0424755D02*
X0204944Y0424755D01*
X0208556Y0433650D02*
X0208556Y0436364D01*
X0208891Y0436699D01*
X0208921Y0436670D01*
X0209229Y0436492D01*
X0209572Y0436400D01*
X0210900Y0436400D01*
X0210900Y0440400D01*
X0211600Y0440400D01*
X0211600Y0441100D01*
X0210900Y0441100D01*
X0210900Y0445100D01*
X0209572Y0445100D01*
X0209229Y0445008D01*
X0208921Y0444830D01*
X0208891Y0444801D01*
X0208556Y0445136D01*
X0208556Y0445685D01*
X0208750Y0446153D01*
X0208750Y0447347D01*
X0208556Y0447815D01*
X0208556Y0452369D01*
X0209150Y0452963D01*
X0209150Y0460958D01*
X0209653Y0460750D01*
X0210500Y0460750D01*
X0210500Y0459604D01*
X0210995Y0458409D01*
X0211909Y0457495D01*
X0213104Y0457000D01*
X0214396Y0457000D01*
X0215591Y0457495D01*
X0216505Y0458409D01*
X0217000Y0459604D01*
X0217000Y0460813D01*
X0222304Y0466117D01*
X0222304Y0470231D01*
X0223211Y0470231D01*
X0223750Y0470771D01*
X0224289Y0470231D01*
X0225196Y0470231D01*
X0225196Y0459617D01*
X0226063Y0458750D01*
X0217963Y0450650D01*
X0216850Y0449537D01*
X0216850Y0439537D01*
X0210963Y0433650D01*
X0208556Y0433650D01*
X0208556Y0433836D02*
X0211149Y0433836D01*
X0211847Y0434534D02*
X0208556Y0434534D01*
X0208556Y0435233D02*
X0212546Y0435233D01*
X0213244Y0435931D02*
X0208556Y0435931D01*
X0208822Y0436630D02*
X0208990Y0436630D01*
X0210900Y0436630D02*
X0211600Y0436630D01*
X0211600Y0436400D02*
X0212928Y0436400D01*
X0213271Y0436492D01*
X0213579Y0436670D01*
X0213830Y0436921D01*
X0214008Y0437229D01*
X0214100Y0437572D01*
X0214100Y0440400D01*
X0211600Y0440400D01*
X0211600Y0436400D01*
X0211600Y0437328D02*
X0210900Y0437328D01*
X0210900Y0438027D02*
X0211600Y0438027D01*
X0211600Y0438725D02*
X0210900Y0438725D01*
X0210900Y0439424D02*
X0211600Y0439424D01*
X0211600Y0440122D02*
X0210900Y0440122D01*
X0211600Y0440821D02*
X0216850Y0440821D01*
X0216850Y0441519D02*
X0214100Y0441519D01*
X0214100Y0441100D02*
X0214100Y0443928D01*
X0214008Y0444271D01*
X0213830Y0444579D01*
X0213579Y0444830D01*
X0213271Y0445008D01*
X0212928Y0445100D01*
X0211600Y0445100D01*
X0211600Y0441100D01*
X0214100Y0441100D01*
X0214100Y0440122D02*
X0216850Y0440122D01*
X0216737Y0439424D02*
X0214100Y0439424D01*
X0214100Y0438725D02*
X0216038Y0438725D01*
X0215340Y0438027D02*
X0214100Y0438027D01*
X0214035Y0437328D02*
X0214641Y0437328D01*
X0213943Y0436630D02*
X0213510Y0436630D01*
X0211600Y0441519D02*
X0210900Y0441519D01*
X0210900Y0442218D02*
X0211600Y0442218D01*
X0211600Y0442916D02*
X0210900Y0442916D01*
X0210900Y0443615D02*
X0211600Y0443615D01*
X0211600Y0444313D02*
X0210900Y0444313D01*
X0210900Y0445012D02*
X0211600Y0445012D01*
X0213257Y0445012D02*
X0216850Y0445012D01*
X0216850Y0445710D02*
X0208567Y0445710D01*
X0208680Y0445012D02*
X0209243Y0445012D01*
X0208750Y0446409D02*
X0216850Y0446409D01*
X0216850Y0447107D02*
X0208750Y0447107D01*
X0208560Y0447806D02*
X0211918Y0447806D01*
X0211806Y0447881D02*
X0212305Y0447547D01*
X0212860Y0447317D01*
X0213450Y0447200D01*
X0213600Y0447200D01*
X0213600Y0450100D01*
X0213900Y0450100D01*
X0213900Y0450400D01*
X0216800Y0450400D01*
X0216800Y0450550D01*
X0216683Y0451140D01*
X0216453Y0451695D01*
X0216119Y0452194D01*
X0215694Y0452619D01*
X0215195Y0452953D01*
X0214640Y0453183D01*
X0214050Y0453300D01*
X0213900Y0453300D01*
X0213900Y0450400D01*
X0213600Y0450400D01*
X0213600Y0453300D01*
X0213450Y0453300D01*
X0212860Y0453183D01*
X0212305Y0452953D01*
X0211806Y0452619D01*
X0211381Y0452194D01*
X0211047Y0451695D01*
X0210817Y0451140D01*
X0210700Y0450550D01*
X0210700Y0450400D01*
X0213600Y0450400D01*
X0213600Y0450100D01*
X0210700Y0450100D01*
X0210700Y0449950D01*
X0210817Y0449360D01*
X0211047Y0448805D01*
X0211381Y0448306D01*
X0211806Y0447881D01*
X0211248Y0448504D02*
X0208556Y0448504D01*
X0208556Y0449203D02*
X0210882Y0449203D01*
X0210710Y0449901D02*
X0208556Y0449901D01*
X0208556Y0450600D02*
X0210710Y0450600D01*
X0210883Y0451298D02*
X0208556Y0451298D01*
X0208556Y0451997D02*
X0211249Y0451997D01*
X0211920Y0452695D02*
X0208882Y0452695D01*
X0209150Y0453394D02*
X0220707Y0453394D01*
X0220009Y0452695D02*
X0215580Y0452695D01*
X0216251Y0451997D02*
X0219310Y0451997D01*
X0218611Y0451298D02*
X0216617Y0451298D01*
X0216790Y0450600D02*
X0217913Y0450600D01*
X0217214Y0449901D02*
X0216790Y0449901D01*
X0216800Y0449950D02*
X0216800Y0450100D01*
X0213900Y0450100D01*
X0213900Y0447200D01*
X0214050Y0447200D01*
X0214640Y0447317D01*
X0215195Y0447547D01*
X0215694Y0447881D01*
X0216119Y0448306D01*
X0216453Y0448805D01*
X0216683Y0449360D01*
X0216800Y0449950D01*
X0216850Y0449203D02*
X0216618Y0449203D01*
X0216850Y0448504D02*
X0216252Y0448504D01*
X0216850Y0447806D02*
X0215582Y0447806D01*
X0213900Y0447806D02*
X0213600Y0447806D01*
X0213600Y0448504D02*
X0213900Y0448504D01*
X0213900Y0449203D02*
X0213600Y0449203D01*
X0213600Y0449901D02*
X0213900Y0449901D01*
X0213900Y0450600D02*
X0213600Y0450600D01*
X0213600Y0451298D02*
X0213900Y0451298D01*
X0213900Y0451997D02*
X0213600Y0451997D01*
X0213600Y0452695D02*
X0213900Y0452695D01*
X0209150Y0454093D02*
X0221406Y0454093D01*
X0222104Y0454791D02*
X0209150Y0454791D01*
X0209150Y0455490D02*
X0222803Y0455490D01*
X0223501Y0456188D02*
X0209150Y0456188D01*
X0209150Y0456887D02*
X0224200Y0456887D01*
X0224898Y0457585D02*
X0215681Y0457585D01*
X0216380Y0458284D02*
X0225597Y0458284D01*
X0225831Y0458982D02*
X0216743Y0458982D01*
X0217000Y0459681D02*
X0225196Y0459681D01*
X0225196Y0460379D02*
X0217000Y0460379D01*
X0217265Y0461078D02*
X0225196Y0461078D01*
X0225196Y0461776D02*
X0217963Y0461776D01*
X0218662Y0462475D02*
X0225196Y0462475D01*
X0225196Y0463173D02*
X0219360Y0463173D01*
X0220059Y0463872D02*
X0225196Y0463872D01*
X0225196Y0464570D02*
X0220757Y0464570D01*
X0221456Y0465269D02*
X0225196Y0465269D01*
X0225196Y0465967D02*
X0222154Y0465967D01*
X0222304Y0466666D02*
X0225196Y0466666D01*
X0225196Y0467364D02*
X0222304Y0467364D01*
X0222304Y0468063D02*
X0225196Y0468063D01*
X0225196Y0468761D02*
X0222304Y0468761D01*
X0222304Y0469460D02*
X0225196Y0469460D01*
X0225196Y0470158D02*
X0222304Y0470158D01*
X0220404Y0466904D02*
X0220404Y0473750D01*
X0218750Y0478750D02*
X0218750Y0488750D01*
X0213750Y0482596D02*
X0210404Y0479250D01*
X0206950Y0479250D01*
X0201250Y0473750D02*
X0201250Y0469923D01*
X0201250Y0462750D01*
X0203750Y0460250D01*
X0203250Y0459750D01*
X0199750Y0459750D01*
X0192844Y0452844D01*
X0173750Y0452844D01*
X0173750Y0456781D02*
X0170719Y0456781D01*
X0168750Y0458750D01*
X0168750Y0474250D01*
X0170650Y0473463D02*
X0173537Y0476350D01*
X0177044Y0476350D01*
X0176980Y0476240D01*
X0176888Y0475896D01*
X0176888Y0474100D01*
X0180053Y0474100D01*
X0180053Y0473400D01*
X0176888Y0473400D01*
X0176888Y0471604D01*
X0176980Y0471260D01*
X0177158Y0470953D01*
X0177409Y0470701D01*
X0177717Y0470523D01*
X0178060Y0470431D01*
X0180054Y0470431D01*
X0180054Y0473400D01*
X0180754Y0473400D01*
X0180754Y0470431D01*
X0182747Y0470431D01*
X0183090Y0470523D01*
X0183398Y0470701D01*
X0183609Y0470912D01*
X0184289Y0470231D01*
X0185196Y0470231D01*
X0185196Y0467883D01*
X0184063Y0466750D01*
X0183153Y0466750D01*
X0182051Y0466293D01*
X0181207Y0465449D01*
X0180750Y0464347D01*
X0180750Y0463437D01*
X0179931Y0462618D01*
X0177881Y0462618D01*
X0177622Y0462877D01*
X0177665Y0462953D01*
X0177757Y0463297D01*
X0177757Y0464415D01*
X0173991Y0464415D01*
X0173991Y0464896D01*
X0177757Y0464896D01*
X0177757Y0466014D01*
X0177665Y0466358D01*
X0177488Y0466666D01*
X0182950Y0466666D01*
X0181725Y0465967D02*
X0177757Y0465967D01*
X0177757Y0465269D02*
X0181132Y0465269D01*
X0180843Y0464570D02*
X0173991Y0464570D01*
X0173750Y0464656D02*
X0173750Y0465750D01*
X0175750Y0467750D01*
X0177750Y0467750D01*
X0180750Y0470750D01*
X0180750Y0473404D01*
X0180404Y0473750D01*
X0175250Y0473750D01*
X0176888Y0474349D02*
X0171536Y0474349D01*
X0170838Y0473651D02*
X0180053Y0473651D01*
X0180054Y0472952D02*
X0180754Y0472952D01*
X0180754Y0472254D02*
X0180054Y0472254D01*
X0180054Y0471555D02*
X0180754Y0471555D01*
X0180754Y0470857D02*
X0180054Y0470857D01*
X0177254Y0470857D02*
X0170650Y0470857D01*
X0170650Y0471555D02*
X0176901Y0471555D01*
X0176888Y0472254D02*
X0170650Y0472254D01*
X0170650Y0472952D02*
X0176888Y0472952D01*
X0176888Y0475048D02*
X0172235Y0475048D01*
X0172933Y0475746D02*
X0176888Y0475746D01*
X0183553Y0470857D02*
X0183664Y0470857D01*
X0185196Y0470158D02*
X0170650Y0470158D01*
X0170650Y0469460D02*
X0185196Y0469460D01*
X0185196Y0468761D02*
X0170650Y0468761D01*
X0170650Y0468063D02*
X0185196Y0468063D01*
X0184677Y0467364D02*
X0170650Y0467364D01*
X0170650Y0467116D02*
X0170650Y0473463D01*
X0170915Y0467187D02*
X0170650Y0467116D01*
X0170915Y0467187D02*
X0173509Y0467187D01*
X0173509Y0464896D01*
X0173991Y0464896D01*
X0173991Y0467187D01*
X0176585Y0467187D01*
X0176929Y0467095D01*
X0177236Y0466917D01*
X0177488Y0466666D01*
X0177757Y0463872D02*
X0180750Y0463872D01*
X0180486Y0463173D02*
X0177724Y0463173D01*
X0180719Y0460719D02*
X0173750Y0460719D01*
X0173750Y0456781D02*
X0185219Y0456781D01*
X0185250Y0456750D01*
X0180719Y0460719D02*
X0183750Y0463750D01*
X0187096Y0467096D01*
X0187096Y0468750D01*
X0188750Y0468750D01*
X0195077Y0468750D01*
X0196250Y0469923D01*
X0187096Y0468750D02*
X0187096Y0473750D01*
X0173991Y0466666D02*
X0173509Y0466666D01*
X0173509Y0465967D02*
X0173991Y0465967D01*
X0173991Y0465269D02*
X0173509Y0465269D01*
X0166850Y0464570D02*
X0155700Y0464570D01*
X0155700Y0463872D02*
X0166850Y0463872D01*
X0166850Y0463173D02*
X0155700Y0463173D01*
X0155700Y0462475D02*
X0166850Y0462475D01*
X0166850Y0461776D02*
X0155700Y0461776D01*
X0155700Y0461078D02*
X0166850Y0461078D01*
X0166850Y0460379D02*
X0155700Y0460379D01*
X0155700Y0459681D02*
X0166850Y0459681D01*
X0166850Y0458982D02*
X0155700Y0458982D01*
X0155700Y0458284D02*
X0166850Y0458284D01*
X0167228Y0457585D02*
X0155700Y0457585D01*
X0155700Y0456887D02*
X0167926Y0456887D01*
X0168625Y0456188D02*
X0155700Y0456188D01*
X0155700Y0455490D02*
X0169323Y0455490D01*
X0169666Y0454791D02*
X0155700Y0454791D01*
X0155700Y0454093D02*
X0169543Y0454093D01*
X0169543Y0453394D02*
X0155700Y0453394D01*
X0155700Y0452695D02*
X0169543Y0452695D01*
X0169543Y0451997D02*
X0155700Y0451997D01*
X0164201Y0451298D02*
X0169543Y0451298D01*
X0169964Y0450600D02*
X0164768Y0450600D01*
X0166746Y0441519D02*
X0167446Y0441519D01*
X0167446Y0440821D02*
X0166746Y0440821D01*
X0166746Y0440122D02*
X0167446Y0440122D01*
X0167446Y0439424D02*
X0166746Y0439424D01*
X0167203Y0433750D02*
X0167203Y0428856D01*
X0167096Y0428750D01*
X0170250Y0428750D01*
X0168278Y0423750D02*
X0168278Y0419222D01*
X0159222Y0423750D02*
X0159222Y0413778D01*
X0173581Y0399419D01*
X0180148Y0399419D01*
X0159222Y0423750D02*
X0159222Y0425722D01*
X0160404Y0426904D01*
X0160404Y0428750D01*
X0159904Y0429250D01*
X0156688Y0428946D02*
X0155700Y0428946D01*
X0155700Y0428248D02*
X0156688Y0428248D01*
X0156688Y0427549D02*
X0155700Y0427549D01*
X0155700Y0426851D02*
X0156688Y0426851D01*
X0156558Y0426152D02*
X0155700Y0426152D01*
X0155700Y0425454D02*
X0156432Y0425454D01*
X0156432Y0424755D02*
X0155700Y0424755D01*
X0155700Y0424057D02*
X0156432Y0424057D01*
X0156432Y0423358D02*
X0155700Y0423358D01*
X0155700Y0422660D02*
X0156432Y0422660D01*
X0156432Y0421961D02*
X0155700Y0421961D01*
X0155700Y0421262D02*
X0156644Y0421262D01*
X0157322Y0420564D02*
X0155700Y0420564D01*
X0155700Y0429645D02*
X0156688Y0429645D01*
X0156688Y0430343D02*
X0155700Y0430343D01*
X0155700Y0431042D02*
X0156688Y0431042D01*
X0156779Y0431740D02*
X0155700Y0431740D01*
X0155700Y0432439D02*
X0156779Y0432439D01*
X0156779Y0433137D02*
X0155700Y0433137D01*
X0155700Y0433836D02*
X0156779Y0433836D01*
X0156779Y0434534D02*
X0155700Y0434534D01*
X0155700Y0435233D02*
X0156779Y0435233D01*
X0156779Y0435931D02*
X0155700Y0435931D01*
X0155700Y0436630D02*
X0156688Y0436630D01*
X0156688Y0437328D02*
X0155700Y0437328D01*
X0155700Y0438027D02*
X0156688Y0438027D01*
X0156688Y0438725D02*
X0155700Y0438725D01*
X0155700Y0439424D02*
X0156688Y0439424D01*
X0156688Y0440122D02*
X0155700Y0440122D01*
X0155700Y0440821D02*
X0156688Y0440821D01*
X0156847Y0441519D02*
X0155700Y0441519D01*
X0155700Y0442218D02*
X0157545Y0442218D01*
X0160404Y0438750D02*
X0160404Y0433856D01*
X0160297Y0433750D01*
X0196250Y0447750D02*
X0198750Y0450250D01*
X0198750Y0453750D01*
X0200250Y0455250D01*
X0203750Y0455250D01*
X0207250Y0453750D02*
X0203750Y0450250D01*
X0207250Y0453750D02*
X0207250Y0461750D01*
X0209250Y0463750D01*
X0210250Y0463750D01*
X0211250Y0464750D01*
X0211250Y0469923D01*
X0206250Y0469923D02*
X0205750Y0469423D01*
X0205750Y0464750D01*
X0209150Y0460379D02*
X0210500Y0460379D01*
X0210500Y0459681D02*
X0209150Y0459681D01*
X0209150Y0458982D02*
X0210757Y0458982D01*
X0211120Y0458284D02*
X0209150Y0458284D01*
X0209150Y0457585D02*
X0211819Y0457585D01*
X0213750Y0460250D02*
X0220404Y0466904D01*
X0227096Y0460404D02*
X0227096Y0473750D01*
X0231813Y0460750D02*
X0231781Y0460719D01*
X0228750Y0458750D02*
X0227096Y0460404D01*
X0228750Y0456063D02*
X0229543Y0455270D01*
X0229543Y0454958D01*
X0229878Y0454623D01*
X0229835Y0454547D01*
X0229743Y0454203D01*
X0229743Y0453085D01*
X0233509Y0453085D01*
X0233509Y0452604D01*
X0229743Y0452604D01*
X0229743Y0451486D01*
X0229835Y0451142D01*
X0230012Y0450834D01*
X0230264Y0450583D01*
X0230571Y0450405D01*
X0230915Y0450313D01*
X0233509Y0450313D01*
X0233509Y0452604D01*
X0233991Y0452604D01*
X0233991Y0450313D01*
X0236585Y0450313D01*
X0236850Y0450384D01*
X0236850Y0445650D01*
X0235812Y0445650D01*
X0235812Y0446361D01*
X0234904Y0447268D01*
X0229289Y0447268D01*
X0228750Y0446729D01*
X0228211Y0447268D01*
X0222596Y0447268D01*
X0221688Y0446361D01*
X0221688Y0441139D01*
X0222570Y0440257D01*
X0220650Y0438337D01*
X0220650Y0447963D01*
X0228750Y0456063D01*
X0228177Y0455490D02*
X0229323Y0455490D01*
X0229710Y0454791D02*
X0227478Y0454791D01*
X0226780Y0454093D02*
X0229743Y0454093D01*
X0229743Y0453394D02*
X0226081Y0453394D01*
X0225382Y0452695D02*
X0233509Y0452695D01*
X0233750Y0452844D02*
X0229844Y0452844D01*
X0228750Y0451750D01*
X0229743Y0451997D02*
X0224684Y0451997D01*
X0223985Y0451298D02*
X0229793Y0451298D01*
X0230247Y0450600D02*
X0223287Y0450600D01*
X0222588Y0449901D02*
X0236850Y0449901D01*
X0236850Y0449203D02*
X0221890Y0449203D01*
X0221191Y0448504D02*
X0236850Y0448504D01*
X0236850Y0447806D02*
X0220650Y0447806D01*
X0220650Y0447107D02*
X0222435Y0447107D01*
X0221737Y0446409D02*
X0220650Y0446409D01*
X0220650Y0445710D02*
X0221688Y0445710D01*
X0221688Y0445012D02*
X0220650Y0445012D01*
X0220650Y0444313D02*
X0221688Y0444313D01*
X0221688Y0443615D02*
X0220650Y0443615D01*
X0220650Y0442916D02*
X0221688Y0442916D01*
X0221688Y0442218D02*
X0220650Y0442218D01*
X0220650Y0441519D02*
X0221688Y0441519D01*
X0222007Y0440821D02*
X0220650Y0440821D01*
X0220650Y0440122D02*
X0222435Y0440122D01*
X0221737Y0439424D02*
X0220650Y0439424D01*
X0220650Y0438725D02*
X0221038Y0438725D01*
X0221467Y0436467D02*
X0225404Y0440404D01*
X0225404Y0443750D01*
X0228372Y0447107D02*
X0229128Y0447107D01*
X0232096Y0443750D02*
X0238750Y0443750D01*
X0238750Y0455250D01*
X0237219Y0456781D01*
X0233991Y0451997D02*
X0233509Y0451997D01*
X0233509Y0451298D02*
X0233991Y0451298D01*
X0233991Y0450600D02*
X0233509Y0450600D01*
X0235065Y0447107D02*
X0236850Y0447107D01*
X0236850Y0446409D02*
X0235763Y0446409D01*
X0235812Y0445710D02*
X0236850Y0445710D01*
X0238750Y0443750D02*
X0245750Y0443750D01*
X0247203Y0442297D01*
X0247203Y0438750D01*
X0247096Y0433750D02*
X0247096Y0429065D01*
X0248081Y0428081D01*
X0248081Y0423750D01*
X0248081Y0408081D01*
X0238750Y0398750D01*
X0228061Y0398750D01*
X0227392Y0399419D01*
X0225969Y0420611D02*
X0225969Y0420850D01*
X0228537Y0420850D01*
X0233277Y0425590D01*
X0236491Y0425590D01*
X0236491Y0425273D01*
X0237399Y0424365D01*
X0242227Y0424365D01*
X0243135Y0425273D01*
X0243135Y0429707D01*
X0242610Y0430231D01*
X0243211Y0430231D01*
X0243750Y0430771D01*
X0244289Y0430231D01*
X0245196Y0430231D01*
X0245196Y0428278D01*
X0246181Y0427294D01*
X0246181Y0426875D01*
X0245667Y0426875D01*
X0244759Y0425967D01*
X0244759Y0421533D01*
X0245583Y0420709D01*
X0242935Y0420696D01*
X0242935Y0421762D01*
X0242843Y0422106D01*
X0242665Y0422414D01*
X0242414Y0422665D01*
X0242106Y0422843D01*
X0241762Y0422935D01*
X0240163Y0422935D01*
X0240163Y0420682D01*
X0239463Y0420679D01*
X0239463Y0422935D01*
X0237864Y0422935D01*
X0237520Y0422843D01*
X0237212Y0422665D01*
X0236961Y0422414D01*
X0236783Y0422106D01*
X0236691Y0421762D01*
X0236691Y0420665D01*
X0225969Y0420611D01*
X0227750Y0422750D02*
X0221467Y0422750D01*
X0227750Y0422750D02*
X0232490Y0427490D01*
X0239813Y0427490D01*
X0243135Y0427549D02*
X0245925Y0427549D01*
X0245643Y0426851D02*
X0243135Y0426851D01*
X0243135Y0426152D02*
X0244944Y0426152D01*
X0244759Y0425454D02*
X0243135Y0425454D01*
X0242616Y0424755D02*
X0244759Y0424755D01*
X0244759Y0424057D02*
X0231744Y0424057D01*
X0232442Y0424755D02*
X0237010Y0424755D01*
X0236491Y0425454D02*
X0233141Y0425454D01*
X0231045Y0423358D02*
X0244759Y0423358D01*
X0244759Y0422660D02*
X0242419Y0422660D01*
X0242881Y0421961D02*
X0244759Y0421961D01*
X0245030Y0421262D02*
X0242935Y0421262D01*
X0240163Y0421262D02*
X0239463Y0421262D01*
X0239463Y0421961D02*
X0240163Y0421961D01*
X0240163Y0422660D02*
X0239463Y0422660D01*
X0237207Y0422660D02*
X0230347Y0422660D01*
X0229648Y0421961D02*
X0236745Y0421961D01*
X0236691Y0421262D02*
X0228949Y0421262D01*
X0235010Y0420010D02*
X0239813Y0420010D01*
X0243135Y0428248D02*
X0245227Y0428248D01*
X0245196Y0428946D02*
X0243135Y0428946D01*
X0243135Y0429645D02*
X0245196Y0429645D01*
X0244177Y0430343D02*
X0243323Y0430343D01*
X0240404Y0433750D02*
X0240297Y0433856D01*
X0240297Y0438750D01*
X0257700Y0438725D02*
X0258688Y0438725D01*
X0258688Y0438027D02*
X0257700Y0438027D01*
X0257700Y0437328D02*
X0258688Y0437328D01*
X0258688Y0436630D02*
X0257700Y0436630D01*
X0257700Y0435931D02*
X0258779Y0435931D01*
X0258779Y0436015D02*
X0258779Y0431485D01*
X0258796Y0431468D01*
X0258688Y0431361D01*
X0258688Y0426282D01*
X0258432Y0426026D01*
X0258432Y0421474D01*
X0259322Y0420584D01*
X0259322Y0420268D01*
X0257700Y0420260D01*
X0257700Y0443814D01*
X0265861Y0443814D01*
X0266768Y0444722D01*
X0266768Y0450731D01*
X0265861Y0451639D01*
X0257700Y0451639D01*
X0257700Y0465861D01*
X0265861Y0465861D01*
X0266768Y0466769D01*
X0266768Y0472778D01*
X0265861Y0473686D01*
X0257700Y0473686D01*
X0257700Y0479193D01*
X0258555Y0477712D01*
X0261054Y0475616D01*
X0264119Y0474500D01*
X0267381Y0474500D01*
X0268850Y0475035D01*
X0268850Y0457963D01*
X0269963Y0456850D01*
X0271543Y0455270D01*
X0271543Y0454958D01*
X0271688Y0454813D01*
X0271543Y0454668D01*
X0271543Y0451021D01*
X0272450Y0450113D01*
X0275068Y0450113D01*
X0274750Y0449347D01*
X0274750Y0448153D01*
X0275116Y0447268D01*
X0274596Y0447268D01*
X0273688Y0446361D01*
X0273688Y0441139D01*
X0274596Y0440231D01*
X0280211Y0440231D01*
X0280750Y0440771D01*
X0281289Y0440231D01*
X0285850Y0440231D01*
X0285850Y0436859D01*
X0284439Y0436859D01*
X0283531Y0435951D01*
X0283531Y0429549D01*
X0284439Y0428641D01*
X0291628Y0428641D01*
X0292536Y0429549D01*
X0292536Y0432777D01*
X0294350Y0430963D01*
X0295463Y0429850D01*
X0306944Y0429850D01*
X0306944Y0424319D01*
X0306413Y0424850D01*
X0301234Y0424850D01*
X0301208Y0424870D01*
X0301047Y0424850D01*
X0300453Y0424850D01*
X0300292Y0424870D01*
X0300266Y0424850D01*
X0298587Y0424850D01*
X0297650Y0423913D01*
X0297650Y0422587D01*
X0298587Y0421650D01*
X0298904Y0421650D01*
X0298904Y0421350D01*
X0298834Y0420792D01*
X0298904Y0420702D01*
X0298904Y0420650D01*
X0294963Y0420650D01*
X0294758Y0420445D01*
X0292846Y0420435D01*
X0292833Y0420952D01*
X0292336Y0421425D01*
X0292336Y0422400D01*
X0288384Y0422400D01*
X0288384Y0423100D01*
X0292336Y0423100D01*
X0292336Y0425487D01*
X0292244Y0425830D01*
X0292066Y0426138D01*
X0291815Y0426389D01*
X0291507Y0426567D01*
X0291164Y0426659D01*
X0288383Y0426659D01*
X0288383Y0423100D01*
X0287683Y0423100D01*
X0287683Y0422400D01*
X0283731Y0422400D01*
X0283731Y0420390D01*
X0283140Y0420387D01*
X0283250Y0420653D01*
X0283250Y0421847D01*
X0282793Y0422949D01*
X0281949Y0423793D01*
X0280847Y0424250D01*
X0279653Y0424250D01*
X0279500Y0424187D01*
X0273037Y0430650D01*
X0272812Y0430650D01*
X0272812Y0431361D01*
X0272704Y0431468D01*
X0272721Y0431485D01*
X0272721Y0436015D01*
X0272504Y0436232D01*
X0272520Y0436260D01*
X0272612Y0436604D01*
X0272612Y0438400D01*
X0269446Y0438400D01*
X0269446Y0439100D01*
X0268746Y0439100D01*
X0268746Y0442068D01*
X0266753Y0442068D01*
X0266410Y0441976D01*
X0266102Y0441799D01*
X0265891Y0441588D01*
X0265211Y0442268D01*
X0259596Y0442268D01*
X0258688Y0441361D01*
X0258688Y0436139D01*
X0258796Y0436032D01*
X0258779Y0436015D01*
X0258779Y0435233D02*
X0257700Y0435233D01*
X0257700Y0434534D02*
X0258779Y0434534D01*
X0258779Y0433836D02*
X0257700Y0433836D01*
X0257700Y0433137D02*
X0258779Y0433137D01*
X0258779Y0432439D02*
X0257700Y0432439D01*
X0257700Y0431740D02*
X0258779Y0431740D01*
X0258688Y0431042D02*
X0257700Y0431042D01*
X0257700Y0430343D02*
X0258688Y0430343D01*
X0258688Y0429645D02*
X0257700Y0429645D01*
X0257700Y0428946D02*
X0258688Y0428946D01*
X0258688Y0428248D02*
X0257700Y0428248D01*
X0257700Y0427549D02*
X0258688Y0427549D01*
X0258688Y0426851D02*
X0257700Y0426851D01*
X0257700Y0426152D02*
X0258558Y0426152D01*
X0258432Y0425454D02*
X0257700Y0425454D01*
X0257700Y0424755D02*
X0258432Y0424755D01*
X0258432Y0424057D02*
X0257700Y0424057D01*
X0257700Y0423358D02*
X0258432Y0423358D01*
X0258432Y0422660D02*
X0257700Y0422660D01*
X0257700Y0421961D02*
X0258432Y0421961D01*
X0258644Y0421262D02*
X0257700Y0421262D01*
X0257700Y0420564D02*
X0259322Y0420564D01*
X0261222Y0423750D02*
X0261222Y0413778D01*
X0275581Y0399419D01*
X0282148Y0399419D01*
X0283213Y0420564D02*
X0283731Y0420564D01*
X0283731Y0421262D02*
X0283250Y0421262D01*
X0283203Y0421961D02*
X0283731Y0421961D01*
X0282913Y0422660D02*
X0287683Y0422660D01*
X0288033Y0422750D02*
X0285250Y0422750D01*
X0280750Y0427250D01*
X0280750Y0434750D01*
X0276750Y0438750D01*
X0269096Y0438750D01*
X0269446Y0438725D02*
X0285850Y0438725D01*
X0285850Y0438027D02*
X0272612Y0438027D01*
X0272612Y0437328D02*
X0285850Y0437328D01*
X0284209Y0436630D02*
X0272612Y0436630D01*
X0272721Y0435931D02*
X0283531Y0435931D01*
X0283531Y0435233D02*
X0272721Y0435233D01*
X0272721Y0434534D02*
X0283531Y0434534D01*
X0283531Y0433836D02*
X0272721Y0433836D01*
X0272721Y0433137D02*
X0283531Y0433137D01*
X0283531Y0432439D02*
X0272721Y0432439D01*
X0272721Y0431740D02*
X0283531Y0431740D01*
X0283531Y0431042D02*
X0272812Y0431042D01*
X0273344Y0430343D02*
X0283531Y0430343D01*
X0283531Y0429645D02*
X0274042Y0429645D01*
X0274741Y0428946D02*
X0284134Y0428946D01*
X0284903Y0426659D02*
X0284560Y0426567D01*
X0284252Y0426389D01*
X0284000Y0426138D01*
X0283823Y0425830D01*
X0283731Y0425487D01*
X0283731Y0423100D01*
X0287683Y0423100D01*
X0287683Y0426659D01*
X0284903Y0426659D01*
X0284015Y0426152D02*
X0277535Y0426152D01*
X0278233Y0425454D02*
X0283731Y0425454D01*
X0283731Y0424755D02*
X0278932Y0424755D01*
X0281314Y0424057D02*
X0283731Y0424057D01*
X0283731Y0423358D02*
X0282385Y0423358D01*
X0280250Y0421250D02*
X0279750Y0421250D01*
X0272250Y0428750D01*
X0269096Y0428750D01*
X0269203Y0428856D01*
X0269203Y0433750D01*
X0269446Y0439100D02*
X0272612Y0439100D01*
X0272612Y0440896D01*
X0272520Y0441240D01*
X0272342Y0441547D01*
X0272091Y0441799D01*
X0271783Y0441976D01*
X0271440Y0442068D01*
X0269446Y0442068D01*
X0269446Y0439100D01*
X0269446Y0439424D02*
X0268746Y0439424D01*
X0268746Y0440122D02*
X0269446Y0440122D01*
X0269446Y0440821D02*
X0268746Y0440821D01*
X0268746Y0441519D02*
X0269446Y0441519D01*
X0272358Y0441519D02*
X0273688Y0441519D01*
X0273688Y0442218D02*
X0265262Y0442218D01*
X0266360Y0444313D02*
X0273688Y0444313D01*
X0273688Y0443615D02*
X0257700Y0443615D01*
X0257700Y0442916D02*
X0273688Y0442916D01*
X0273688Y0445012D02*
X0266768Y0445012D01*
X0266768Y0445710D02*
X0273688Y0445710D01*
X0273737Y0446409D02*
X0266768Y0446409D01*
X0266768Y0447107D02*
X0274435Y0447107D01*
X0274894Y0447806D02*
X0266768Y0447806D01*
X0266768Y0448504D02*
X0274750Y0448504D01*
X0274750Y0449203D02*
X0266768Y0449203D01*
X0266768Y0449901D02*
X0274980Y0449901D01*
X0277404Y0448404D02*
X0277750Y0448750D01*
X0277404Y0448404D02*
X0277404Y0443750D01*
X0274007Y0440821D02*
X0272612Y0440821D01*
X0272612Y0440122D02*
X0285850Y0440122D01*
X0285850Y0439424D02*
X0272612Y0439424D01*
X0262404Y0438750D02*
X0262404Y0433856D01*
X0262297Y0433750D01*
X0261904Y0429250D02*
X0262404Y0428750D01*
X0262404Y0426904D01*
X0261222Y0425722D01*
X0261222Y0423750D01*
X0270278Y0423750D02*
X0270278Y0419222D01*
X0276836Y0426851D02*
X0306944Y0426851D01*
X0306944Y0427549D02*
X0276138Y0427549D01*
X0275439Y0428248D02*
X0306944Y0428248D01*
X0306944Y0428946D02*
X0291933Y0428946D01*
X0292536Y0429645D02*
X0306944Y0429645D01*
X0306944Y0426152D02*
X0292052Y0426152D01*
X0292336Y0425454D02*
X0306944Y0425454D01*
X0306944Y0424755D02*
X0306508Y0424755D01*
X0313750Y0431750D02*
X0320750Y0438750D01*
X0320750Y0448750D01*
X0330750Y0458750D01*
X0329096Y0460404D01*
X0329096Y0473750D01*
X0327196Y0470231D02*
X0327196Y0459617D01*
X0328063Y0458750D01*
X0318850Y0449537D01*
X0318850Y0439537D01*
X0312963Y0433650D01*
X0310556Y0433650D01*
X0310556Y0436364D01*
X0310891Y0436699D01*
X0310921Y0436670D01*
X0311229Y0436492D01*
X0311572Y0436400D01*
X0312900Y0436400D01*
X0312900Y0440400D01*
X0313600Y0440400D01*
X0313600Y0441100D01*
X0312900Y0441100D01*
X0312900Y0445100D01*
X0311572Y0445100D01*
X0311229Y0445008D01*
X0310921Y0444830D01*
X0310891Y0444801D01*
X0310556Y0445136D01*
X0310556Y0445685D01*
X0310750Y0446153D01*
X0310750Y0447347D01*
X0310556Y0447815D01*
X0310556Y0452369D01*
X0311150Y0452963D01*
X0311150Y0460958D01*
X0311653Y0460750D01*
X0312500Y0460750D01*
X0312500Y0459604D01*
X0312995Y0458409D01*
X0313909Y0457495D01*
X0315104Y0457000D01*
X0316396Y0457000D01*
X0317591Y0457495D01*
X0318505Y0458409D01*
X0319000Y0459604D01*
X0319000Y0460813D01*
X0324304Y0466117D01*
X0324304Y0470231D01*
X0325211Y0470231D01*
X0325750Y0470771D01*
X0326289Y0470231D01*
X0327196Y0470231D01*
X0327196Y0470158D02*
X0324304Y0470158D01*
X0324304Y0469460D02*
X0327196Y0469460D01*
X0327196Y0468761D02*
X0324304Y0468761D01*
X0324304Y0468063D02*
X0327196Y0468063D01*
X0327196Y0467364D02*
X0324304Y0467364D01*
X0324304Y0466666D02*
X0327196Y0466666D01*
X0327196Y0465967D02*
X0324154Y0465967D01*
X0323456Y0465269D02*
X0327196Y0465269D01*
X0327196Y0464570D02*
X0322757Y0464570D01*
X0322059Y0463872D02*
X0327196Y0463872D01*
X0327196Y0463173D02*
X0321360Y0463173D01*
X0320662Y0462475D02*
X0327196Y0462475D01*
X0327196Y0461776D02*
X0319963Y0461776D01*
X0319265Y0461078D02*
X0327196Y0461078D01*
X0327196Y0460379D02*
X0319000Y0460379D01*
X0319000Y0459681D02*
X0327196Y0459681D01*
X0327831Y0458982D02*
X0318743Y0458982D01*
X0318380Y0458284D02*
X0327597Y0458284D01*
X0326898Y0457585D02*
X0317681Y0457585D01*
X0315750Y0460250D02*
X0322404Y0466904D01*
X0322404Y0473750D01*
X0317904Y0475904D02*
X0320750Y0478750D01*
X0330750Y0478750D01*
X0335750Y0473750D01*
X0335750Y0464656D01*
X0333813Y0460750D02*
X0341750Y0460750D01*
X0339219Y0456781D02*
X0335750Y0456781D01*
X0332719Y0456781D01*
X0330750Y0458750D01*
X0330750Y0456063D02*
X0331543Y0455270D01*
X0331543Y0454958D01*
X0331878Y0454623D01*
X0331835Y0454547D01*
X0331743Y0454203D01*
X0331743Y0453085D01*
X0335509Y0453085D01*
X0335509Y0452604D01*
X0331743Y0452604D01*
X0331743Y0451486D01*
X0331835Y0451142D01*
X0332012Y0450834D01*
X0332264Y0450583D01*
X0332571Y0450405D01*
X0332915Y0450313D01*
X0335509Y0450313D01*
X0335509Y0452604D01*
X0335991Y0452604D01*
X0335991Y0450313D01*
X0338585Y0450313D01*
X0338850Y0450384D01*
X0338850Y0445650D01*
X0337812Y0445650D01*
X0337812Y0446361D01*
X0336904Y0447268D01*
X0331289Y0447268D01*
X0330750Y0446729D01*
X0330211Y0447268D01*
X0324596Y0447268D01*
X0323688Y0446361D01*
X0323688Y0441139D01*
X0324570Y0440257D01*
X0322650Y0438337D01*
X0322650Y0447963D01*
X0330750Y0456063D01*
X0330177Y0455490D02*
X0331323Y0455490D01*
X0331710Y0454791D02*
X0329478Y0454791D01*
X0328780Y0454093D02*
X0331743Y0454093D01*
X0331743Y0453394D02*
X0328081Y0453394D01*
X0327382Y0452695D02*
X0335509Y0452695D01*
X0335750Y0452844D02*
X0331844Y0452844D01*
X0330750Y0451750D01*
X0331743Y0451997D02*
X0326684Y0451997D01*
X0325985Y0451298D02*
X0331793Y0451298D01*
X0332247Y0450600D02*
X0325287Y0450600D01*
X0324588Y0449901D02*
X0338850Y0449901D01*
X0338850Y0449203D02*
X0323890Y0449203D01*
X0323191Y0448504D02*
X0338850Y0448504D01*
X0338850Y0447806D02*
X0322650Y0447806D01*
X0322650Y0447107D02*
X0324435Y0447107D01*
X0323737Y0446409D02*
X0322650Y0446409D01*
X0322650Y0445710D02*
X0323688Y0445710D01*
X0323688Y0445012D02*
X0322650Y0445012D01*
X0322650Y0444313D02*
X0323688Y0444313D01*
X0323688Y0443615D02*
X0322650Y0443615D01*
X0322650Y0442916D02*
X0323688Y0442916D01*
X0323688Y0442218D02*
X0322650Y0442218D01*
X0322650Y0441519D02*
X0323688Y0441519D01*
X0324007Y0440821D02*
X0322650Y0440821D01*
X0322650Y0440122D02*
X0324435Y0440122D01*
X0323737Y0439424D02*
X0322650Y0439424D01*
X0322650Y0438725D02*
X0323038Y0438725D01*
X0323467Y0436467D02*
X0327404Y0440404D01*
X0327404Y0443750D01*
X0330372Y0447107D02*
X0331128Y0447107D01*
X0334096Y0443750D02*
X0340750Y0443750D01*
X0340750Y0455250D01*
X0339219Y0456781D01*
X0335991Y0451997D02*
X0335509Y0451997D01*
X0335509Y0451298D02*
X0335991Y0451298D01*
X0335991Y0450600D02*
X0335509Y0450600D01*
X0337065Y0447107D02*
X0338850Y0447107D01*
X0338850Y0446409D02*
X0337763Y0446409D01*
X0337812Y0445710D02*
X0338850Y0445710D01*
X0340750Y0443750D02*
X0347750Y0443750D01*
X0349203Y0442297D01*
X0349203Y0438750D01*
X0349096Y0433750D02*
X0349096Y0429065D01*
X0350081Y0428081D01*
X0350081Y0423750D01*
X0350081Y0408081D01*
X0340750Y0398750D01*
X0330061Y0398750D01*
X0329392Y0399419D01*
X0327969Y0420611D02*
X0327969Y0420850D01*
X0330537Y0420850D01*
X0335277Y0425590D01*
X0338491Y0425590D01*
X0338491Y0425273D01*
X0339399Y0424365D01*
X0344227Y0424365D01*
X0345135Y0425273D01*
X0345135Y0429707D01*
X0344610Y0430231D01*
X0345211Y0430231D01*
X0345750Y0430771D01*
X0346289Y0430231D01*
X0347196Y0430231D01*
X0347196Y0428278D01*
X0348181Y0427294D01*
X0348181Y0426875D01*
X0347667Y0426875D01*
X0346759Y0425967D01*
X0346759Y0421533D01*
X0347583Y0420709D01*
X0344935Y0420696D01*
X0344935Y0421762D01*
X0344843Y0422106D01*
X0344665Y0422414D01*
X0344414Y0422665D01*
X0344106Y0422843D01*
X0343762Y0422935D01*
X0342163Y0422935D01*
X0342163Y0420682D01*
X0341463Y0420679D01*
X0341463Y0422935D01*
X0339864Y0422935D01*
X0339520Y0422843D01*
X0339212Y0422665D01*
X0338961Y0422414D01*
X0338783Y0422106D01*
X0338691Y0421762D01*
X0338691Y0420665D01*
X0327969Y0420611D01*
X0329750Y0422750D02*
X0323467Y0422750D01*
X0329750Y0422750D02*
X0334490Y0427490D01*
X0341813Y0427490D01*
X0345135Y0427549D02*
X0347925Y0427549D01*
X0347643Y0426851D02*
X0345135Y0426851D01*
X0345135Y0426152D02*
X0346944Y0426152D01*
X0346759Y0425454D02*
X0345135Y0425454D01*
X0344616Y0424755D02*
X0346759Y0424755D01*
X0346759Y0424057D02*
X0333744Y0424057D01*
X0334442Y0424755D02*
X0339010Y0424755D01*
X0338491Y0425454D02*
X0335141Y0425454D01*
X0333045Y0423358D02*
X0346759Y0423358D01*
X0346759Y0422660D02*
X0344419Y0422660D01*
X0344881Y0421961D02*
X0346759Y0421961D01*
X0347030Y0421262D02*
X0344935Y0421262D01*
X0342163Y0421262D02*
X0341463Y0421262D01*
X0341463Y0421961D02*
X0342163Y0421961D01*
X0342163Y0422660D02*
X0341463Y0422660D01*
X0339207Y0422660D02*
X0332347Y0422660D01*
X0331648Y0421961D02*
X0338745Y0421961D01*
X0338691Y0421262D02*
X0330949Y0421262D01*
X0337010Y0420010D02*
X0341813Y0420010D01*
X0345135Y0428248D02*
X0347227Y0428248D01*
X0347196Y0428946D02*
X0345135Y0428946D01*
X0345135Y0429645D02*
X0347196Y0429645D01*
X0346177Y0430343D02*
X0345323Y0430343D01*
X0342404Y0433750D02*
X0342297Y0433856D01*
X0342297Y0438750D01*
X0325501Y0456188D02*
X0311150Y0456188D01*
X0311150Y0455490D02*
X0324803Y0455490D01*
X0324104Y0454791D02*
X0311150Y0454791D01*
X0311150Y0454093D02*
X0323406Y0454093D01*
X0322707Y0453394D02*
X0311150Y0453394D01*
X0310882Y0452695D02*
X0313920Y0452695D01*
X0313806Y0452619D02*
X0313381Y0452194D01*
X0313047Y0451695D01*
X0312817Y0451140D01*
X0312700Y0450550D01*
X0312700Y0450400D01*
X0315600Y0450400D01*
X0315600Y0453300D01*
X0315450Y0453300D01*
X0314860Y0453183D01*
X0314305Y0452953D01*
X0313806Y0452619D01*
X0313249Y0451997D02*
X0310556Y0451997D01*
X0310556Y0451298D02*
X0312883Y0451298D01*
X0312710Y0450600D02*
X0310556Y0450600D01*
X0310556Y0449901D02*
X0312710Y0449901D01*
X0312700Y0449950D02*
X0312817Y0449360D01*
X0313047Y0448805D01*
X0313381Y0448306D01*
X0313806Y0447881D01*
X0314305Y0447547D01*
X0314860Y0447317D01*
X0315450Y0447200D01*
X0315600Y0447200D01*
X0315600Y0450100D01*
X0315900Y0450100D01*
X0315900Y0450400D01*
X0318800Y0450400D01*
X0318800Y0450550D01*
X0318683Y0451140D01*
X0318453Y0451695D01*
X0318119Y0452194D01*
X0317694Y0452619D01*
X0317195Y0452953D01*
X0316640Y0453183D01*
X0316050Y0453300D01*
X0315900Y0453300D01*
X0315900Y0450400D01*
X0315600Y0450400D01*
X0315600Y0450100D01*
X0312700Y0450100D01*
X0312700Y0449950D01*
X0312882Y0449203D02*
X0310556Y0449203D01*
X0310556Y0448504D02*
X0313248Y0448504D01*
X0313918Y0447806D02*
X0310560Y0447806D01*
X0310750Y0447107D02*
X0318850Y0447107D01*
X0318850Y0446409D02*
X0310750Y0446409D01*
X0310567Y0445710D02*
X0318850Y0445710D01*
X0318850Y0445012D02*
X0315257Y0445012D01*
X0315271Y0445008D02*
X0314928Y0445100D01*
X0313600Y0445100D01*
X0313600Y0441100D01*
X0316100Y0441100D01*
X0316100Y0443928D01*
X0316008Y0444271D01*
X0315830Y0444579D01*
X0315579Y0444830D01*
X0315271Y0445008D01*
X0315984Y0444313D02*
X0318850Y0444313D01*
X0318850Y0443615D02*
X0316100Y0443615D01*
X0316100Y0442916D02*
X0318850Y0442916D01*
X0318850Y0442218D02*
X0316100Y0442218D01*
X0316100Y0441519D02*
X0318850Y0441519D01*
X0318850Y0440821D02*
X0313600Y0440821D01*
X0313600Y0440400D02*
X0316100Y0440400D01*
X0316100Y0437572D01*
X0316008Y0437229D01*
X0315830Y0436921D01*
X0315579Y0436670D01*
X0315271Y0436492D01*
X0314928Y0436400D01*
X0313600Y0436400D01*
X0313600Y0440400D01*
X0313600Y0440122D02*
X0312900Y0440122D01*
X0312900Y0439424D02*
X0313600Y0439424D01*
X0313600Y0438725D02*
X0312900Y0438725D01*
X0312900Y0438027D02*
X0313600Y0438027D01*
X0313600Y0437328D02*
X0312900Y0437328D01*
X0312900Y0436630D02*
X0313600Y0436630D01*
X0314546Y0435233D02*
X0310556Y0435233D01*
X0310556Y0435931D02*
X0315244Y0435931D01*
X0315510Y0436630D02*
X0315943Y0436630D01*
X0316035Y0437328D02*
X0316641Y0437328D01*
X0316100Y0438027D02*
X0317340Y0438027D01*
X0318038Y0438725D02*
X0316100Y0438725D01*
X0316100Y0439424D02*
X0318737Y0439424D01*
X0318850Y0440122D02*
X0316100Y0440122D01*
X0313600Y0441519D02*
X0312900Y0441519D01*
X0312900Y0442218D02*
X0313600Y0442218D01*
X0313600Y0442916D02*
X0312900Y0442916D01*
X0312900Y0443615D02*
X0313600Y0443615D01*
X0313600Y0444313D02*
X0312900Y0444313D01*
X0312900Y0445012D02*
X0313600Y0445012D01*
X0311243Y0445012D02*
X0310680Y0445012D01*
X0315600Y0447806D02*
X0315900Y0447806D01*
X0315900Y0447200D02*
X0316050Y0447200D01*
X0316640Y0447317D01*
X0317195Y0447547D01*
X0317694Y0447881D01*
X0318119Y0448306D01*
X0318453Y0448805D01*
X0318683Y0449360D01*
X0318800Y0449950D01*
X0318800Y0450100D01*
X0315900Y0450100D01*
X0315900Y0447200D01*
X0315900Y0448504D02*
X0315600Y0448504D01*
X0315600Y0449203D02*
X0315900Y0449203D01*
X0315900Y0449901D02*
X0315600Y0449901D01*
X0315600Y0450600D02*
X0315900Y0450600D01*
X0315900Y0451298D02*
X0315600Y0451298D01*
X0315600Y0451997D02*
X0315900Y0451997D01*
X0315900Y0452695D02*
X0315600Y0452695D01*
X0317580Y0452695D02*
X0322009Y0452695D01*
X0321310Y0451997D02*
X0318251Y0451997D01*
X0318617Y0451298D02*
X0320611Y0451298D01*
X0319913Y0450600D02*
X0318790Y0450600D01*
X0318790Y0449901D02*
X0319214Y0449901D01*
X0318850Y0449203D02*
X0318618Y0449203D01*
X0318850Y0448504D02*
X0318252Y0448504D01*
X0318850Y0447806D02*
X0317582Y0447806D01*
X0309250Y0453750D02*
X0309250Y0461750D01*
X0311250Y0463750D01*
X0312250Y0463750D01*
X0313250Y0464750D01*
X0313250Y0469923D01*
X0308250Y0469923D02*
X0307750Y0469423D01*
X0307750Y0464750D01*
X0305750Y0460250D02*
X0305250Y0459750D01*
X0301750Y0459750D01*
X0294844Y0452844D01*
X0275750Y0452844D01*
X0275750Y0456781D02*
X0272719Y0456781D01*
X0270750Y0458750D01*
X0270750Y0474250D01*
X0274750Y0478250D01*
X0292250Y0478250D01*
X0294596Y0475904D01*
X0295750Y0475904D01*
X0299096Y0479250D02*
X0295750Y0482596D01*
X0292231Y0482731D02*
X0274963Y0482731D01*
X0274840Y0482033D02*
X0292231Y0482033D01*
X0292231Y0481334D02*
X0274717Y0481334D01*
X0274594Y0480636D02*
X0292231Y0480636D01*
X0292231Y0480150D02*
X0274352Y0480150D01*
X0274576Y0480537D01*
X0275143Y0483750D01*
X0274576Y0486962D01*
X0274576Y0486962D01*
X0272945Y0489787D01*
X0272945Y0489787D01*
X0270547Y0491800D01*
X0286724Y0491800D01*
X0286431Y0491397D01*
X0286070Y0490689D01*
X0285824Y0489933D01*
X0285700Y0489147D01*
X0285700Y0489100D01*
X0290400Y0489100D01*
X0290400Y0488400D01*
X0291100Y0488400D01*
X0291100Y0483700D01*
X0291147Y0483700D01*
X0291933Y0483824D01*
X0292231Y0483921D01*
X0292231Y0480150D01*
X0292231Y0483430D02*
X0275086Y0483430D01*
X0275076Y0484129D02*
X0288697Y0484129D01*
X0288811Y0484070D02*
X0289567Y0483824D01*
X0290353Y0483700D01*
X0290400Y0483700D01*
X0290400Y0488400D01*
X0285700Y0488400D01*
X0285700Y0488353D01*
X0285824Y0487567D01*
X0286070Y0486811D01*
X0286431Y0486103D01*
X0286898Y0485460D01*
X0287460Y0484898D01*
X0288103Y0484431D01*
X0288811Y0484070D01*
X0287558Y0484827D02*
X0274953Y0484827D01*
X0274830Y0485526D02*
X0286851Y0485526D01*
X0286369Y0486224D02*
X0274706Y0486224D01*
X0274583Y0486923D02*
X0286034Y0486923D01*
X0285816Y0487621D02*
X0274196Y0487621D01*
X0273793Y0488320D02*
X0285705Y0488320D01*
X0285790Y0489717D02*
X0272986Y0489717D01*
X0273389Y0489018D02*
X0290400Y0489018D01*
X0290400Y0488320D02*
X0291100Y0488320D01*
X0291100Y0487621D02*
X0290400Y0487621D01*
X0290400Y0486923D02*
X0291100Y0486923D01*
X0291100Y0486224D02*
X0290400Y0486224D01*
X0290400Y0485526D02*
X0291100Y0485526D01*
X0291100Y0484827D02*
X0290400Y0484827D01*
X0290400Y0484129D02*
X0291100Y0484129D01*
X0285981Y0490415D02*
X0272197Y0490415D01*
X0271365Y0491114D02*
X0286287Y0491114D01*
X0300750Y0488750D02*
X0305750Y0483750D01*
X0305750Y0479250D01*
X0308950Y0479250D02*
X0312404Y0479250D01*
X0315750Y0482596D01*
X0320750Y0478750D02*
X0320750Y0488750D01*
X0317904Y0475904D02*
X0315750Y0475904D01*
X0315250Y0475404D01*
X0304904Y0475404D01*
X0303250Y0473750D01*
X0303250Y0469923D01*
X0303250Y0462750D01*
X0305750Y0460250D01*
X0305750Y0455250D02*
X0302250Y0455250D01*
X0300750Y0453750D01*
X0300750Y0450250D01*
X0298250Y0447750D01*
X0298250Y0440750D01*
X0303250Y0440750D02*
X0303250Y0436750D01*
X0304250Y0435750D01*
X0305750Y0435750D01*
X0305250Y0435750D01*
X0310556Y0434534D02*
X0313847Y0434534D01*
X0313149Y0433836D02*
X0310556Y0433836D01*
X0310822Y0436630D02*
X0310990Y0436630D01*
X0313750Y0431750D02*
X0296250Y0431750D01*
X0290750Y0437250D01*
X0290750Y0443750D01*
X0295750Y0448750D01*
X0287750Y0443250D02*
X0287750Y0433033D01*
X0288033Y0432750D01*
X0292536Y0432439D02*
X0292874Y0432439D01*
X0292536Y0431740D02*
X0293573Y0431740D01*
X0294271Y0431042D02*
X0292536Y0431042D01*
X0292536Y0430343D02*
X0294970Y0430343D01*
X0292336Y0424755D02*
X0298492Y0424755D01*
X0297794Y0424057D02*
X0292336Y0424057D01*
X0292336Y0423358D02*
X0297650Y0423358D01*
X0297650Y0422660D02*
X0288384Y0422660D01*
X0288383Y0423358D02*
X0287683Y0423358D01*
X0287683Y0424057D02*
X0288383Y0424057D01*
X0288383Y0424755D02*
X0287683Y0424755D01*
X0287683Y0425454D02*
X0288383Y0425454D01*
X0288383Y0426152D02*
X0287683Y0426152D01*
X0292336Y0421961D02*
X0298276Y0421961D01*
X0298893Y0421262D02*
X0292507Y0421262D01*
X0292843Y0420564D02*
X0294877Y0420564D01*
X0287750Y0443250D02*
X0287250Y0443750D01*
X0284096Y0443750D01*
X0287250Y0456750D02*
X0287219Y0456781D01*
X0275750Y0456781D01*
X0275750Y0460719D02*
X0282719Y0460719D01*
X0285750Y0463750D01*
X0289096Y0467096D01*
X0289096Y0468750D01*
X0290750Y0468750D01*
X0297077Y0468750D01*
X0298250Y0469923D01*
X0289096Y0468750D02*
X0289096Y0473750D01*
X0287196Y0470231D02*
X0286289Y0470231D01*
X0285609Y0470912D01*
X0285398Y0470701D01*
X0285090Y0470523D01*
X0284747Y0470431D01*
X0282754Y0470431D01*
X0282754Y0473400D01*
X0282054Y0473400D01*
X0282054Y0470431D01*
X0280060Y0470431D01*
X0279717Y0470523D01*
X0279409Y0470701D01*
X0279158Y0470953D01*
X0278980Y0471260D01*
X0278888Y0471604D01*
X0278888Y0473400D01*
X0282053Y0473400D01*
X0282053Y0474100D01*
X0278888Y0474100D01*
X0278888Y0475896D01*
X0278980Y0476240D01*
X0279044Y0476350D01*
X0275537Y0476350D01*
X0272650Y0473463D01*
X0272650Y0467116D01*
X0272915Y0467187D01*
X0275509Y0467187D01*
X0275509Y0464896D01*
X0275991Y0464896D01*
X0279757Y0464896D01*
X0279757Y0466014D01*
X0279665Y0466358D01*
X0279488Y0466666D01*
X0284950Y0466666D01*
X0285153Y0466750D02*
X0284051Y0466293D01*
X0283207Y0465449D01*
X0282750Y0464347D01*
X0282750Y0463437D01*
X0281931Y0462618D01*
X0279881Y0462618D01*
X0279622Y0462877D01*
X0279665Y0462953D01*
X0279757Y0463297D01*
X0279757Y0464415D01*
X0275991Y0464415D01*
X0275991Y0464896D01*
X0275991Y0467187D01*
X0278585Y0467187D01*
X0278929Y0467095D01*
X0279236Y0466917D01*
X0279488Y0466666D01*
X0279757Y0465967D02*
X0283725Y0465967D01*
X0283132Y0465269D02*
X0279757Y0465269D01*
X0279757Y0463872D02*
X0282750Y0463872D01*
X0282843Y0464570D02*
X0275991Y0464570D01*
X0275750Y0464656D02*
X0275750Y0465750D01*
X0277750Y0467750D01*
X0279750Y0467750D01*
X0282750Y0470750D01*
X0282750Y0473404D01*
X0282404Y0473750D01*
X0277250Y0473750D01*
X0278888Y0474349D02*
X0273536Y0474349D01*
X0272838Y0473651D02*
X0282053Y0473651D01*
X0282054Y0472952D02*
X0282754Y0472952D01*
X0282754Y0472254D02*
X0282054Y0472254D01*
X0282054Y0471555D02*
X0282754Y0471555D01*
X0282754Y0470857D02*
X0282054Y0470857D01*
X0279254Y0470857D02*
X0272650Y0470857D01*
X0272650Y0471555D02*
X0278901Y0471555D01*
X0278888Y0472254D02*
X0272650Y0472254D01*
X0272650Y0472952D02*
X0278888Y0472952D01*
X0278888Y0475048D02*
X0274235Y0475048D01*
X0274933Y0475746D02*
X0278888Y0475746D01*
X0285553Y0470857D02*
X0285664Y0470857D01*
X0287196Y0470231D02*
X0287196Y0467883D01*
X0286063Y0466750D01*
X0285153Y0466750D01*
X0286677Y0467364D02*
X0272650Y0467364D01*
X0272650Y0468063D02*
X0287196Y0468063D01*
X0287196Y0468761D02*
X0272650Y0468761D01*
X0272650Y0469460D02*
X0287196Y0469460D01*
X0287196Y0470158D02*
X0272650Y0470158D01*
X0268850Y0470158D02*
X0266768Y0470158D01*
X0266768Y0469460D02*
X0268850Y0469460D01*
X0268850Y0468761D02*
X0266768Y0468761D01*
X0266768Y0468063D02*
X0268850Y0468063D01*
X0268850Y0467364D02*
X0266768Y0467364D01*
X0266665Y0466666D02*
X0268850Y0466666D01*
X0268850Y0465967D02*
X0265966Y0465967D01*
X0268850Y0465269D02*
X0257700Y0465269D01*
X0257700Y0464570D02*
X0268850Y0464570D01*
X0268850Y0463872D02*
X0257700Y0463872D01*
X0257700Y0463173D02*
X0268850Y0463173D01*
X0268850Y0462475D02*
X0257700Y0462475D01*
X0257700Y0461776D02*
X0268850Y0461776D01*
X0268850Y0461078D02*
X0257700Y0461078D01*
X0257700Y0460379D02*
X0268850Y0460379D01*
X0268850Y0459681D02*
X0257700Y0459681D01*
X0257700Y0458982D02*
X0268850Y0458982D01*
X0268850Y0458284D02*
X0257700Y0458284D01*
X0257700Y0457585D02*
X0269228Y0457585D01*
X0269926Y0456887D02*
X0257700Y0456887D01*
X0257700Y0456188D02*
X0270625Y0456188D01*
X0271323Y0455490D02*
X0257700Y0455490D01*
X0257700Y0454791D02*
X0271666Y0454791D01*
X0271543Y0454093D02*
X0257700Y0454093D01*
X0257700Y0453394D02*
X0271543Y0453394D01*
X0271543Y0452695D02*
X0257700Y0452695D01*
X0257700Y0451997D02*
X0271543Y0451997D01*
X0271543Y0451298D02*
X0266201Y0451298D01*
X0266768Y0450600D02*
X0271964Y0450600D01*
X0279724Y0463173D02*
X0282486Y0463173D01*
X0275991Y0465269D02*
X0275509Y0465269D01*
X0275509Y0465967D02*
X0275991Y0465967D01*
X0275991Y0466666D02*
X0275509Y0466666D01*
X0268850Y0470857D02*
X0266768Y0470857D01*
X0266768Y0471555D02*
X0268850Y0471555D01*
X0268850Y0472254D02*
X0266768Y0472254D01*
X0266594Y0472952D02*
X0268850Y0472952D01*
X0268850Y0473651D02*
X0265896Y0473651D01*
X0268850Y0474349D02*
X0257700Y0474349D01*
X0257700Y0475048D02*
X0262614Y0475048D01*
X0261054Y0475616D02*
X0261054Y0475616D01*
X0260898Y0475746D02*
X0257700Y0475746D01*
X0257700Y0476445D02*
X0260065Y0476445D01*
X0259233Y0477143D02*
X0257700Y0477143D01*
X0257700Y0477842D02*
X0258480Y0477842D01*
X0258555Y0477712D02*
X0258555Y0477712D01*
X0258077Y0478540D02*
X0257700Y0478540D01*
X0257700Y0442218D02*
X0259545Y0442218D01*
X0258847Y0441519D02*
X0257700Y0441519D01*
X0257700Y0440821D02*
X0258688Y0440821D01*
X0258688Y0440122D02*
X0257700Y0440122D01*
X0257700Y0439424D02*
X0258688Y0439424D01*
X0221467Y0436467D02*
X0221467Y0432750D01*
X0216850Y0442218D02*
X0214100Y0442218D01*
X0214100Y0442916D02*
X0216850Y0442916D01*
X0216850Y0443615D02*
X0214100Y0443615D01*
X0213984Y0444313D02*
X0216850Y0444313D01*
X0299096Y0479250D02*
X0302550Y0479250D01*
X0311150Y0460379D02*
X0312500Y0460379D01*
X0312500Y0459681D02*
X0311150Y0459681D01*
X0311150Y0458982D02*
X0312757Y0458982D01*
X0313120Y0458284D02*
X0311150Y0458284D01*
X0311150Y0457585D02*
X0313819Y0457585D01*
X0311150Y0456887D02*
X0326200Y0456887D01*
X0333781Y0460719D02*
X0333813Y0460750D01*
X0323467Y0436467D02*
X0323467Y0432750D01*
X0305750Y0450250D02*
X0309250Y0453750D01*
X0286724Y0269800D02*
X0270547Y0269800D01*
X0272945Y0267788D01*
X0272945Y0267787D01*
X0274576Y0264962D01*
X0274576Y0264962D01*
X0275143Y0261750D01*
X0275143Y0261750D01*
X0274576Y0258538D01*
X0274576Y0258537D01*
X0274352Y0258150D01*
X0292231Y0258150D01*
X0292231Y0261921D01*
X0291933Y0261824D01*
X0291147Y0261700D01*
X0291100Y0261700D01*
X0291100Y0266400D01*
X0290400Y0266400D01*
X0290400Y0261700D01*
X0290353Y0261700D01*
X0289567Y0261824D01*
X0288811Y0262070D01*
X0288103Y0262431D01*
X0287460Y0262898D01*
X0286898Y0263460D01*
X0286431Y0264103D01*
X0286070Y0264811D01*
X0285824Y0265567D01*
X0285700Y0266353D01*
X0285700Y0266400D01*
X0290400Y0266400D01*
X0290400Y0267100D01*
X0285700Y0267100D01*
X0285700Y0267147D01*
X0285824Y0267933D01*
X0286070Y0268689D01*
X0286431Y0269397D01*
X0286724Y0269800D01*
X0286641Y0269686D02*
X0270683Y0269686D01*
X0271516Y0268987D02*
X0286222Y0268987D01*
X0285940Y0268289D02*
X0272348Y0268289D01*
X0273059Y0267590D02*
X0285770Y0267590D01*
X0285725Y0266193D02*
X0273866Y0266193D01*
X0274269Y0265494D02*
X0285848Y0265494D01*
X0286078Y0264796D02*
X0274606Y0264796D01*
X0274729Y0264097D02*
X0286435Y0264097D01*
X0286959Y0263399D02*
X0274852Y0263399D01*
X0274975Y0262700D02*
X0287732Y0262700D01*
X0289021Y0262002D02*
X0275098Y0262002D01*
X0275064Y0261303D02*
X0292231Y0261303D01*
X0292231Y0260605D02*
X0274941Y0260605D01*
X0274818Y0259906D02*
X0292231Y0259906D01*
X0292231Y0259208D02*
X0274694Y0259208D01*
X0274560Y0258509D02*
X0292231Y0258509D01*
X0291100Y0262002D02*
X0290400Y0262002D01*
X0290400Y0262700D02*
X0291100Y0262700D01*
X0291100Y0263399D02*
X0290400Y0263399D01*
X0290400Y0264097D02*
X0291100Y0264097D01*
X0291100Y0264796D02*
X0290400Y0264796D01*
X0290400Y0265494D02*
X0291100Y0265494D01*
X0291100Y0266193D02*
X0290400Y0266193D01*
X0290400Y0266891D02*
X0273463Y0266891D01*
X0285427Y0248730D02*
X0285790Y0248730D01*
X0289096Y0246750D02*
X0289096Y0251750D01*
X0333781Y0238719D02*
X0333813Y0238750D01*
D29*
X0341750Y0238750D03*
X0330750Y0229750D03*
X0312250Y0241750D03*
X0307750Y0242750D03*
X0305750Y0233250D03*
X0307750Y0224750D03*
X0305750Y0213750D03*
X0287250Y0234750D03*
X0285750Y0241750D03*
X0290750Y0246750D03*
X0277250Y0251750D03*
X0277750Y0226750D03*
X0280250Y0199250D03*
X0270278Y0197222D03*
X0236250Y0201750D03*
X0228750Y0229750D03*
X0239750Y0238750D03*
X0210250Y0241750D03*
X0205750Y0242750D03*
X0203750Y0233250D03*
X0205750Y0224750D03*
X0203750Y0213750D03*
X0185250Y0234750D03*
X0183750Y0241750D03*
X0188750Y0246750D03*
X0175250Y0251750D03*
X0175750Y0226750D03*
X0178250Y0199250D03*
X0168278Y0197222D03*
X0137750Y0238750D03*
X0126750Y0229750D03*
X0108250Y0241750D03*
X0103750Y0242750D03*
X0101750Y0233250D03*
X0103750Y0224750D03*
X0101750Y0213750D03*
X0083250Y0234750D03*
X0081750Y0241750D03*
X0086750Y0246750D03*
X0073250Y0251750D03*
X0073750Y0226750D03*
X0076250Y0199250D03*
X0066278Y0197222D03*
X0134250Y0201750D03*
X0168278Y0419222D03*
X0178250Y0421250D03*
X0175750Y0448750D03*
X0185250Y0456750D03*
X0183750Y0463750D03*
X0188750Y0468750D03*
X0175250Y0473750D03*
X0203750Y0455250D03*
X0205750Y0464750D03*
X0210250Y0463750D03*
X0205750Y0446750D03*
X0203750Y0435750D03*
X0228750Y0451750D03*
X0239750Y0460750D03*
X0236250Y0423750D03*
X0270278Y0419222D03*
X0280250Y0421250D03*
X0277750Y0448750D03*
X0287250Y0456750D03*
X0285750Y0463750D03*
X0290750Y0468750D03*
X0277250Y0473750D03*
X0307750Y0464750D03*
X0312250Y0463750D03*
X0305750Y0455250D03*
X0307750Y0446750D03*
X0305750Y0435750D03*
X0330750Y0451750D03*
X0341750Y0460750D03*
X0338250Y0423750D03*
X0338250Y0201750D03*
X0134250Y0423750D03*
X0126750Y0451750D03*
X0137750Y0460750D03*
X0108250Y0463750D03*
X0103750Y0464750D03*
X0101750Y0455250D03*
X0103750Y0446750D03*
X0101750Y0435750D03*
X0083250Y0456750D03*
X0081750Y0463750D03*
X0086750Y0468750D03*
X0073250Y0473750D03*
X0073750Y0448750D03*
X0076250Y0421250D03*
X0066278Y0419222D03*
D30*
X0101935Y0407498D02*
X0101935Y0314250D01*
X0121608Y0313608D02*
X0125250Y0317250D01*
X0125608Y0317392D02*
X0125608Y0351388D01*
X0082380Y0313750D02*
X0077852Y0318278D01*
X0077852Y0351388D01*
X0179852Y0351388D02*
X0179852Y0318278D01*
X0184380Y0313750D01*
X0203935Y0314250D02*
X0203935Y0407498D01*
X0227608Y0351388D02*
X0227608Y0317392D01*
X0227250Y0317250D02*
X0223608Y0313608D01*
X0281852Y0318278D02*
X0286380Y0313750D01*
X0281852Y0318278D02*
X0281852Y0351388D01*
X0305935Y0314250D02*
X0305935Y0407498D01*
X0329608Y0351388D02*
X0329608Y0317392D01*
X0329250Y0317250D02*
X0325608Y0313608D01*
X0305935Y0185498D02*
X0305935Y0092250D01*
X0325608Y0091608D02*
X0329250Y0095250D01*
X0329608Y0095392D02*
X0329608Y0129388D01*
X0286380Y0091750D02*
X0281852Y0096278D01*
X0281852Y0129388D01*
X0227608Y0129388D02*
X0227608Y0095392D01*
X0227250Y0095250D02*
X0223608Y0091608D01*
X0203935Y0092250D02*
X0203935Y0185498D01*
X0179852Y0129388D02*
X0179852Y0096278D01*
X0184380Y0091750D01*
X0125608Y0095392D02*
X0125608Y0129388D01*
X0125250Y0095250D02*
X0121608Y0091608D01*
X0101935Y0092250D02*
X0101935Y0185498D01*
X0077852Y0129388D02*
X0077852Y0096278D01*
X0082380Y0091750D01*
D31*
X0104250Y0218750D02*
X0104250Y0224250D01*
X0103750Y0224750D01*
X0091750Y0226750D02*
X0091750Y0228250D01*
X0129781Y0238719D02*
X0131750Y0238719D01*
X0193750Y0228250D02*
X0193750Y0226750D01*
X0205750Y0224750D02*
X0206250Y0224250D01*
X0206250Y0218750D01*
X0231781Y0238719D02*
X0233750Y0238719D01*
X0295750Y0228250D02*
X0295750Y0226750D01*
X0307750Y0224750D02*
X0308250Y0224250D01*
X0308250Y0218750D01*
X0333781Y0238719D02*
X0335750Y0238719D01*
X0308250Y0440750D02*
X0308250Y0446250D01*
X0307750Y0446750D01*
X0295750Y0448750D02*
X0295750Y0450250D01*
X0333781Y0460719D02*
X0335750Y0460719D01*
X0233750Y0460719D02*
X0231781Y0460719D01*
X0206250Y0446250D02*
X0206250Y0440750D01*
X0206250Y0446250D02*
X0205750Y0446750D01*
X0193750Y0448750D02*
X0193750Y0450250D01*
X0131750Y0460719D02*
X0129781Y0460719D01*
X0104250Y0446250D02*
X0104250Y0440750D01*
X0104250Y0446250D02*
X0103750Y0446750D01*
X0091750Y0448750D02*
X0091750Y0450250D01*
M02*
