G75*
%MOIN*%
%OFA0B0*%
%FSLAX25Y25*%
%IPPOS*%
%LPD*%
%AMOC8*
5,1,8,0,0,1.08239X$1,22.5*
%
%ADD10C,0.10800*%
%ADD11C,0.13800*%
%ADD12C,0.03300*%
%ADD13C,0.04808*%
%ADD14C,0.08200*%
%ADD15R,0.05800X0.03300*%
%ADD16R,0.10300X0.10300*%
%ADD17C,0.10300*%
D10*
X0078148Y0129388D03*
X0078148Y0177419D03*
X0101770Y0185293D03*
X0125392Y0177419D03*
X0125392Y0129388D03*
X0180148Y0129388D03*
X0180148Y0177419D03*
X0203770Y0185293D03*
X0227392Y0177419D03*
X0227392Y0129388D03*
X0282148Y0129388D03*
X0282148Y0177419D03*
X0305770Y0185293D03*
X0329392Y0177419D03*
X0329392Y0129388D03*
X0329392Y0351388D03*
X0329392Y0399419D03*
X0305770Y0407293D03*
X0282148Y0399419D03*
X0282148Y0351388D03*
X0227392Y0351388D03*
X0227392Y0399419D03*
X0203770Y0407293D03*
X0180148Y0399419D03*
X0180148Y0351388D03*
X0125392Y0351388D03*
X0125392Y0399419D03*
X0101770Y0407293D03*
X0078148Y0399419D03*
X0078148Y0351388D03*
D11*
X0061750Y0061750D03*
X0141750Y0061750D03*
X0163750Y0061750D03*
X0243750Y0061750D03*
X0265750Y0061750D03*
X0345750Y0061750D03*
X0345750Y0261750D03*
X0345750Y0283750D03*
X0265750Y0283750D03*
X0265750Y0261750D03*
X0243750Y0261750D03*
X0243750Y0283750D03*
X0163750Y0283750D03*
X0163750Y0261750D03*
X0141750Y0261750D03*
X0141750Y0283750D03*
X0061750Y0283750D03*
X0061750Y0261750D03*
X0061750Y0483750D03*
X0141750Y0483750D03*
X0163750Y0483750D03*
X0243750Y0483750D03*
X0265750Y0483750D03*
X0345750Y0483750D03*
D12*
X0353250Y0491250D03*
X0251250Y0491250D03*
X0149250Y0491250D03*
X0156250Y0296250D03*
X0149250Y0269250D03*
X0054250Y0296250D03*
X0054250Y0074250D03*
X0156250Y0074250D03*
X0258250Y0074250D03*
X0251250Y0269250D03*
X0258250Y0296250D03*
X0353250Y0269250D03*
D13*
X0315750Y0238250D03*
X0315750Y0228250D03*
X0305750Y0228250D03*
X0305750Y0238250D03*
X0295750Y0238250D03*
X0295750Y0228250D03*
X0213750Y0228250D03*
X0213750Y0238250D03*
X0203750Y0238250D03*
X0203750Y0228250D03*
X0193750Y0228250D03*
X0193750Y0238250D03*
X0111750Y0238250D03*
X0111750Y0228250D03*
X0101750Y0228250D03*
X0101750Y0238250D03*
X0091750Y0238250D03*
X0091750Y0228250D03*
X0091750Y0450250D03*
X0091750Y0460250D03*
X0101750Y0460250D03*
X0101750Y0450250D03*
X0111750Y0450250D03*
X0111750Y0460250D03*
X0193750Y0460250D03*
X0193750Y0450250D03*
X0203750Y0450250D03*
X0203750Y0460250D03*
X0213750Y0460250D03*
X0213750Y0450250D03*
X0295750Y0450250D03*
X0295750Y0460250D03*
X0305750Y0460250D03*
X0305750Y0450250D03*
X0315750Y0450250D03*
X0315750Y0460250D03*
D14*
X0310750Y0488750D03*
X0320750Y0488750D03*
X0300750Y0488750D03*
X0290750Y0488750D03*
X0218750Y0488750D03*
X0208750Y0488750D03*
X0198750Y0488750D03*
X0188750Y0488750D03*
X0116750Y0488750D03*
X0106750Y0488750D03*
X0096750Y0488750D03*
X0086750Y0488750D03*
X0086750Y0266750D03*
X0096750Y0266750D03*
X0106750Y0266750D03*
X0116750Y0266750D03*
X0188750Y0266750D03*
X0198750Y0266750D03*
X0208750Y0266750D03*
X0218750Y0266750D03*
X0290750Y0266750D03*
X0300750Y0266750D03*
X0310750Y0266750D03*
X0320750Y0266750D03*
D15*
X0350750Y0238350D03*
X0350750Y0235150D03*
X0248750Y0235150D03*
X0248750Y0238350D03*
X0146750Y0238350D03*
X0146750Y0235150D03*
X0146750Y0457150D03*
X0146750Y0460350D03*
X0248750Y0460350D03*
X0248750Y0457150D03*
X0350750Y0457150D03*
X0350750Y0460350D03*
D16*
X0325750Y0313750D03*
X0223750Y0313750D03*
X0121750Y0313750D03*
X0121750Y0091750D03*
X0223750Y0091750D03*
X0325750Y0091750D03*
D17*
X0306065Y0091750D03*
X0286380Y0091750D03*
X0204065Y0091750D03*
X0184380Y0091750D03*
X0102065Y0091750D03*
X0082380Y0091750D03*
X0082380Y0313750D03*
X0102065Y0313750D03*
X0184380Y0313750D03*
X0204065Y0313750D03*
X0286380Y0313750D03*
X0306065Y0313750D03*
M02*
