G75*
%MOIN*%
%OFA0B0*%
%FSLAX25Y25*%
%IPPOS*%
%LPD*%
%AMOC8*
5,1,8,0,0,1.08239X$1,22.5*
%
%ADD10R,0.05131X0.04737*%
%ADD11R,0.03280X0.04068*%
%ADD12C,0.01421*%
%ADD13R,0.08674X0.05524*%
%ADD14R,0.06115X0.03162*%
%ADD15C,0.10800*%
%ADD16C,0.13800*%
%ADD17R,0.04737X0.05131*%
%ADD18R,0.03300X0.05800*%
%ADD19R,0.04343X0.03950*%
%ADD20R,0.03800X0.06800*%
%ADD21R,0.06706X0.05918*%
%ADD22C,0.03300*%
%ADD23C,0.08200*%
%ADD24R,0.10300X0.10300*%
%ADD25C,0.10300*%
%ADD26C,0.04737*%
%ADD27C,0.05000*%
%ADD28C,0.06706*%
D10*
X0035404Y0183750D03*
X0042096Y0183750D03*
X0042096Y0193750D03*
X0035404Y0193750D03*
X0050404Y0198750D03*
X0057096Y0198750D03*
X0055404Y0228750D03*
X0062096Y0228750D03*
X0095404Y0228750D03*
X0102096Y0228750D03*
X0100404Y0198750D03*
X0107096Y0198750D03*
X0115404Y0188750D03*
X0122096Y0188750D03*
X0137404Y0183750D03*
X0144096Y0183750D03*
X0144096Y0193750D03*
X0137404Y0193750D03*
X0152404Y0198750D03*
X0159096Y0198750D03*
X0157404Y0228750D03*
X0164096Y0228750D03*
X0197404Y0228750D03*
X0204096Y0228750D03*
X0202404Y0198750D03*
X0209096Y0198750D03*
X0217404Y0188750D03*
X0224096Y0188750D03*
X0239404Y0183750D03*
X0246096Y0183750D03*
X0246096Y0193750D03*
X0239404Y0193750D03*
X0254404Y0198750D03*
X0261096Y0198750D03*
X0259404Y0228750D03*
X0266096Y0228750D03*
X0299404Y0228750D03*
X0306096Y0228750D03*
X0304404Y0198750D03*
X0311096Y0198750D03*
X0319404Y0188750D03*
X0326096Y0188750D03*
X0341404Y0183750D03*
X0348096Y0183750D03*
X0348096Y0193750D03*
X0341404Y0193750D03*
X0356404Y0198750D03*
X0363096Y0198750D03*
X0361404Y0228750D03*
X0368096Y0228750D03*
X0401404Y0228750D03*
X0408096Y0228750D03*
X0406404Y0198750D03*
X0413096Y0198750D03*
X0421404Y0188750D03*
X0428096Y0188750D03*
X0443404Y0183750D03*
X0450096Y0183750D03*
X0450096Y0193750D03*
X0443404Y0193750D03*
X0458404Y0198750D03*
X0465096Y0198750D03*
X0463404Y0228750D03*
X0470096Y0228750D03*
X0503404Y0228750D03*
X0510096Y0228750D03*
X0508404Y0198750D03*
X0515096Y0198750D03*
X0523404Y0188750D03*
X0530096Y0188750D03*
X0545404Y0183750D03*
X0552096Y0183750D03*
X0552096Y0193750D03*
X0545404Y0193750D03*
X0560404Y0198750D03*
X0567096Y0198750D03*
X0565404Y0228750D03*
X0572096Y0228750D03*
X0605404Y0228750D03*
X0612096Y0228750D03*
X0610404Y0198750D03*
X0617096Y0198750D03*
X0625404Y0188750D03*
X0632096Y0188750D03*
X0552096Y0405750D03*
X0545404Y0405750D03*
X0545404Y0415750D03*
X0552096Y0415750D03*
X0560404Y0420750D03*
X0567096Y0420750D03*
X0565404Y0450750D03*
X0572096Y0450750D03*
X0605404Y0450750D03*
X0612096Y0450750D03*
X0610404Y0420750D03*
X0617096Y0420750D03*
X0625404Y0410750D03*
X0632096Y0410750D03*
X0530096Y0410750D03*
X0523404Y0410750D03*
X0515096Y0420750D03*
X0508404Y0420750D03*
X0510096Y0450750D03*
X0503404Y0450750D03*
X0470096Y0450750D03*
X0463404Y0450750D03*
X0465096Y0420750D03*
X0458404Y0420750D03*
X0450096Y0415750D03*
X0443404Y0415750D03*
X0443404Y0405750D03*
X0450096Y0405750D03*
X0428096Y0410750D03*
X0421404Y0410750D03*
X0413096Y0420750D03*
X0406404Y0420750D03*
X0408096Y0450750D03*
X0401404Y0450750D03*
X0368096Y0450750D03*
X0361404Y0450750D03*
X0363096Y0420750D03*
X0356404Y0420750D03*
X0348096Y0415750D03*
X0341404Y0415750D03*
X0341404Y0405750D03*
X0348096Y0405750D03*
X0326096Y0410750D03*
X0319404Y0410750D03*
X0311096Y0420750D03*
X0304404Y0420750D03*
X0306096Y0450750D03*
X0299404Y0450750D03*
X0266096Y0450750D03*
X0259404Y0450750D03*
X0261096Y0420750D03*
X0254404Y0420750D03*
X0246096Y0415750D03*
X0239404Y0415750D03*
X0239404Y0405750D03*
X0246096Y0405750D03*
X0224096Y0410750D03*
X0217404Y0410750D03*
X0209096Y0420750D03*
X0202404Y0420750D03*
X0204096Y0450750D03*
X0197404Y0450750D03*
X0164096Y0450750D03*
X0157404Y0450750D03*
X0159096Y0420750D03*
X0152404Y0420750D03*
X0144096Y0415750D03*
X0137404Y0415750D03*
X0137404Y0405750D03*
X0144096Y0405750D03*
X0122096Y0410750D03*
X0115404Y0410750D03*
X0107096Y0420750D03*
X0100404Y0420750D03*
X0102096Y0450750D03*
X0095404Y0450750D03*
X0062096Y0450750D03*
X0055404Y0450750D03*
X0057096Y0420750D03*
X0050404Y0420750D03*
X0042096Y0415750D03*
X0035404Y0415750D03*
X0035404Y0405750D03*
X0042096Y0405750D03*
D11*
X0043278Y0400750D03*
X0034222Y0400750D03*
X0136222Y0400750D03*
X0145278Y0400750D03*
X0238222Y0400750D03*
X0247278Y0400750D03*
X0340222Y0400750D03*
X0349278Y0400750D03*
X0442222Y0400750D03*
X0451278Y0400750D03*
X0544222Y0400750D03*
X0553278Y0400750D03*
X0553278Y0178750D03*
X0544222Y0178750D03*
X0451278Y0178750D03*
X0442222Y0178750D03*
X0349278Y0178750D03*
X0340222Y0178750D03*
X0247278Y0178750D03*
X0238222Y0178750D03*
X0145278Y0178750D03*
X0136222Y0178750D03*
X0043278Y0178750D03*
X0034222Y0178750D03*
D12*
X0036955Y0187092D02*
X0036955Y0190408D01*
X0036955Y0187092D02*
X0033639Y0187092D01*
X0033639Y0190408D01*
X0036955Y0190408D01*
X0036955Y0188512D02*
X0033639Y0188512D01*
X0033639Y0189932D02*
X0036955Y0189932D01*
X0043861Y0190408D02*
X0043861Y0187092D01*
X0040545Y0187092D01*
X0040545Y0190408D01*
X0043861Y0190408D01*
X0043861Y0188512D02*
X0040545Y0188512D01*
X0040545Y0189932D02*
X0043861Y0189932D01*
X0116955Y0192092D02*
X0116955Y0195408D01*
X0116955Y0192092D02*
X0113639Y0192092D01*
X0113639Y0195408D01*
X0116955Y0195408D01*
X0116955Y0193512D02*
X0113639Y0193512D01*
X0113639Y0194932D02*
X0116955Y0194932D01*
X0123861Y0195408D02*
X0123861Y0192092D01*
X0120545Y0192092D01*
X0120545Y0195408D01*
X0123861Y0195408D01*
X0123861Y0193512D02*
X0120545Y0193512D01*
X0120545Y0194932D02*
X0123861Y0194932D01*
X0138955Y0190408D02*
X0138955Y0187092D01*
X0135639Y0187092D01*
X0135639Y0190408D01*
X0138955Y0190408D01*
X0138955Y0188512D02*
X0135639Y0188512D01*
X0135639Y0189932D02*
X0138955Y0189932D01*
X0145861Y0190408D02*
X0145861Y0187092D01*
X0142545Y0187092D01*
X0142545Y0190408D01*
X0145861Y0190408D01*
X0145861Y0188512D02*
X0142545Y0188512D01*
X0142545Y0189932D02*
X0145861Y0189932D01*
X0218955Y0192092D02*
X0218955Y0195408D01*
X0218955Y0192092D02*
X0215639Y0192092D01*
X0215639Y0195408D01*
X0218955Y0195408D01*
X0218955Y0193512D02*
X0215639Y0193512D01*
X0215639Y0194932D02*
X0218955Y0194932D01*
X0225861Y0195408D02*
X0225861Y0192092D01*
X0222545Y0192092D01*
X0222545Y0195408D01*
X0225861Y0195408D01*
X0225861Y0193512D02*
X0222545Y0193512D01*
X0222545Y0194932D02*
X0225861Y0194932D01*
X0240955Y0190408D02*
X0240955Y0187092D01*
X0237639Y0187092D01*
X0237639Y0190408D01*
X0240955Y0190408D01*
X0240955Y0188512D02*
X0237639Y0188512D01*
X0237639Y0189932D02*
X0240955Y0189932D01*
X0247861Y0190408D02*
X0247861Y0187092D01*
X0244545Y0187092D01*
X0244545Y0190408D01*
X0247861Y0190408D01*
X0247861Y0188512D02*
X0244545Y0188512D01*
X0244545Y0189932D02*
X0247861Y0189932D01*
X0320955Y0192092D02*
X0320955Y0195408D01*
X0320955Y0192092D02*
X0317639Y0192092D01*
X0317639Y0195408D01*
X0320955Y0195408D01*
X0320955Y0193512D02*
X0317639Y0193512D01*
X0317639Y0194932D02*
X0320955Y0194932D01*
X0327861Y0195408D02*
X0327861Y0192092D01*
X0324545Y0192092D01*
X0324545Y0195408D01*
X0327861Y0195408D01*
X0327861Y0193512D02*
X0324545Y0193512D01*
X0324545Y0194932D02*
X0327861Y0194932D01*
X0342955Y0190408D02*
X0342955Y0187092D01*
X0339639Y0187092D01*
X0339639Y0190408D01*
X0342955Y0190408D01*
X0342955Y0188512D02*
X0339639Y0188512D01*
X0339639Y0189932D02*
X0342955Y0189932D01*
X0349861Y0190408D02*
X0349861Y0187092D01*
X0346545Y0187092D01*
X0346545Y0190408D01*
X0349861Y0190408D01*
X0349861Y0188512D02*
X0346545Y0188512D01*
X0346545Y0189932D02*
X0349861Y0189932D01*
X0422955Y0192092D02*
X0422955Y0195408D01*
X0422955Y0192092D02*
X0419639Y0192092D01*
X0419639Y0195408D01*
X0422955Y0195408D01*
X0422955Y0193512D02*
X0419639Y0193512D01*
X0419639Y0194932D02*
X0422955Y0194932D01*
X0429861Y0195408D02*
X0429861Y0192092D01*
X0426545Y0192092D01*
X0426545Y0195408D01*
X0429861Y0195408D01*
X0429861Y0193512D02*
X0426545Y0193512D01*
X0426545Y0194932D02*
X0429861Y0194932D01*
X0444955Y0190408D02*
X0444955Y0187092D01*
X0441639Y0187092D01*
X0441639Y0190408D01*
X0444955Y0190408D01*
X0444955Y0188512D02*
X0441639Y0188512D01*
X0441639Y0189932D02*
X0444955Y0189932D01*
X0451861Y0190408D02*
X0451861Y0187092D01*
X0448545Y0187092D01*
X0448545Y0190408D01*
X0451861Y0190408D01*
X0451861Y0188512D02*
X0448545Y0188512D01*
X0448545Y0189932D02*
X0451861Y0189932D01*
X0524955Y0192092D02*
X0524955Y0195408D01*
X0524955Y0192092D02*
X0521639Y0192092D01*
X0521639Y0195408D01*
X0524955Y0195408D01*
X0524955Y0193512D02*
X0521639Y0193512D01*
X0521639Y0194932D02*
X0524955Y0194932D01*
X0531861Y0195408D02*
X0531861Y0192092D01*
X0528545Y0192092D01*
X0528545Y0195408D01*
X0531861Y0195408D01*
X0531861Y0193512D02*
X0528545Y0193512D01*
X0528545Y0194932D02*
X0531861Y0194932D01*
X0546955Y0190408D02*
X0546955Y0187092D01*
X0543639Y0187092D01*
X0543639Y0190408D01*
X0546955Y0190408D01*
X0546955Y0188512D02*
X0543639Y0188512D01*
X0543639Y0189932D02*
X0546955Y0189932D01*
X0553861Y0190408D02*
X0553861Y0187092D01*
X0550545Y0187092D01*
X0550545Y0190408D01*
X0553861Y0190408D01*
X0553861Y0188512D02*
X0550545Y0188512D01*
X0550545Y0189932D02*
X0553861Y0189932D01*
X0626955Y0192092D02*
X0626955Y0195408D01*
X0626955Y0192092D02*
X0623639Y0192092D01*
X0623639Y0195408D01*
X0626955Y0195408D01*
X0626955Y0193512D02*
X0623639Y0193512D01*
X0623639Y0194932D02*
X0626955Y0194932D01*
X0633861Y0195408D02*
X0633861Y0192092D01*
X0630545Y0192092D01*
X0630545Y0195408D01*
X0633861Y0195408D01*
X0633861Y0193512D02*
X0630545Y0193512D01*
X0630545Y0194932D02*
X0633861Y0194932D01*
X0553861Y0409092D02*
X0553861Y0412408D01*
X0553861Y0409092D02*
X0550545Y0409092D01*
X0550545Y0412408D01*
X0553861Y0412408D01*
X0553861Y0410512D02*
X0550545Y0410512D01*
X0550545Y0411932D02*
X0553861Y0411932D01*
X0546955Y0412408D02*
X0546955Y0409092D01*
X0543639Y0409092D01*
X0543639Y0412408D01*
X0546955Y0412408D01*
X0546955Y0410512D02*
X0543639Y0410512D01*
X0543639Y0411932D02*
X0546955Y0411932D01*
X0531861Y0414092D02*
X0531861Y0417408D01*
X0531861Y0414092D02*
X0528545Y0414092D01*
X0528545Y0417408D01*
X0531861Y0417408D01*
X0531861Y0415512D02*
X0528545Y0415512D01*
X0528545Y0416932D02*
X0531861Y0416932D01*
X0524955Y0417408D02*
X0524955Y0414092D01*
X0521639Y0414092D01*
X0521639Y0417408D01*
X0524955Y0417408D01*
X0524955Y0415512D02*
X0521639Y0415512D01*
X0521639Y0416932D02*
X0524955Y0416932D01*
X0451861Y0412408D02*
X0451861Y0409092D01*
X0448545Y0409092D01*
X0448545Y0412408D01*
X0451861Y0412408D01*
X0451861Y0410512D02*
X0448545Y0410512D01*
X0448545Y0411932D02*
X0451861Y0411932D01*
X0444955Y0412408D02*
X0444955Y0409092D01*
X0441639Y0409092D01*
X0441639Y0412408D01*
X0444955Y0412408D01*
X0444955Y0410512D02*
X0441639Y0410512D01*
X0441639Y0411932D02*
X0444955Y0411932D01*
X0429861Y0414092D02*
X0429861Y0417408D01*
X0429861Y0414092D02*
X0426545Y0414092D01*
X0426545Y0417408D01*
X0429861Y0417408D01*
X0429861Y0415512D02*
X0426545Y0415512D01*
X0426545Y0416932D02*
X0429861Y0416932D01*
X0422955Y0417408D02*
X0422955Y0414092D01*
X0419639Y0414092D01*
X0419639Y0417408D01*
X0422955Y0417408D01*
X0422955Y0415512D02*
X0419639Y0415512D01*
X0419639Y0416932D02*
X0422955Y0416932D01*
X0349861Y0412408D02*
X0349861Y0409092D01*
X0346545Y0409092D01*
X0346545Y0412408D01*
X0349861Y0412408D01*
X0349861Y0410512D02*
X0346545Y0410512D01*
X0346545Y0411932D02*
X0349861Y0411932D01*
X0342955Y0412408D02*
X0342955Y0409092D01*
X0339639Y0409092D01*
X0339639Y0412408D01*
X0342955Y0412408D01*
X0342955Y0410512D02*
X0339639Y0410512D01*
X0339639Y0411932D02*
X0342955Y0411932D01*
X0327861Y0414092D02*
X0327861Y0417408D01*
X0327861Y0414092D02*
X0324545Y0414092D01*
X0324545Y0417408D01*
X0327861Y0417408D01*
X0327861Y0415512D02*
X0324545Y0415512D01*
X0324545Y0416932D02*
X0327861Y0416932D01*
X0320955Y0417408D02*
X0320955Y0414092D01*
X0317639Y0414092D01*
X0317639Y0417408D01*
X0320955Y0417408D01*
X0320955Y0415512D02*
X0317639Y0415512D01*
X0317639Y0416932D02*
X0320955Y0416932D01*
X0247861Y0412408D02*
X0247861Y0409092D01*
X0244545Y0409092D01*
X0244545Y0412408D01*
X0247861Y0412408D01*
X0247861Y0410512D02*
X0244545Y0410512D01*
X0244545Y0411932D02*
X0247861Y0411932D01*
X0240955Y0412408D02*
X0240955Y0409092D01*
X0237639Y0409092D01*
X0237639Y0412408D01*
X0240955Y0412408D01*
X0240955Y0410512D02*
X0237639Y0410512D01*
X0237639Y0411932D02*
X0240955Y0411932D01*
X0225861Y0414092D02*
X0225861Y0417408D01*
X0225861Y0414092D02*
X0222545Y0414092D01*
X0222545Y0417408D01*
X0225861Y0417408D01*
X0225861Y0415512D02*
X0222545Y0415512D01*
X0222545Y0416932D02*
X0225861Y0416932D01*
X0218955Y0417408D02*
X0218955Y0414092D01*
X0215639Y0414092D01*
X0215639Y0417408D01*
X0218955Y0417408D01*
X0218955Y0415512D02*
X0215639Y0415512D01*
X0215639Y0416932D02*
X0218955Y0416932D01*
X0145861Y0412408D02*
X0145861Y0409092D01*
X0142545Y0409092D01*
X0142545Y0412408D01*
X0145861Y0412408D01*
X0145861Y0410512D02*
X0142545Y0410512D01*
X0142545Y0411932D02*
X0145861Y0411932D01*
X0138955Y0412408D02*
X0138955Y0409092D01*
X0135639Y0409092D01*
X0135639Y0412408D01*
X0138955Y0412408D01*
X0138955Y0410512D02*
X0135639Y0410512D01*
X0135639Y0411932D02*
X0138955Y0411932D01*
X0123861Y0414092D02*
X0123861Y0417408D01*
X0123861Y0414092D02*
X0120545Y0414092D01*
X0120545Y0417408D01*
X0123861Y0417408D01*
X0123861Y0415512D02*
X0120545Y0415512D01*
X0120545Y0416932D02*
X0123861Y0416932D01*
X0116955Y0417408D02*
X0116955Y0414092D01*
X0113639Y0414092D01*
X0113639Y0417408D01*
X0116955Y0417408D01*
X0116955Y0415512D02*
X0113639Y0415512D01*
X0113639Y0416932D02*
X0116955Y0416932D01*
X0043861Y0412408D02*
X0043861Y0409092D01*
X0040545Y0409092D01*
X0040545Y0412408D01*
X0043861Y0412408D01*
X0043861Y0410512D02*
X0040545Y0410512D01*
X0040545Y0411932D02*
X0043861Y0411932D01*
X0036955Y0412408D02*
X0036955Y0409092D01*
X0033639Y0409092D01*
X0033639Y0412408D01*
X0036955Y0412408D01*
X0036955Y0410512D02*
X0033639Y0410512D01*
X0033639Y0411932D02*
X0036955Y0411932D01*
X0626955Y0414092D02*
X0626955Y0417408D01*
X0626955Y0414092D02*
X0623639Y0414092D01*
X0623639Y0417408D01*
X0626955Y0417408D01*
X0626955Y0415512D02*
X0623639Y0415512D01*
X0623639Y0416932D02*
X0626955Y0416932D01*
X0633861Y0417408D02*
X0633861Y0414092D01*
X0630545Y0414092D01*
X0630545Y0417408D01*
X0633861Y0417408D01*
X0633861Y0415512D02*
X0630545Y0415512D01*
X0630545Y0416932D02*
X0633861Y0416932D01*
D13*
X0633219Y0424726D03*
X0633219Y0446774D03*
X0544281Y0446774D03*
X0531219Y0446774D03*
X0531219Y0424726D03*
X0544281Y0424726D03*
X0442281Y0424726D03*
X0429219Y0424726D03*
X0429219Y0446774D03*
X0442281Y0446774D03*
X0340281Y0446774D03*
X0327219Y0446774D03*
X0327219Y0424726D03*
X0340281Y0424726D03*
X0238281Y0424726D03*
X0225219Y0424726D03*
X0225219Y0446774D03*
X0238281Y0446774D03*
X0136281Y0446774D03*
X0123219Y0446774D03*
X0123219Y0424726D03*
X0136281Y0424726D03*
X0034281Y0424726D03*
X0034281Y0446774D03*
X0034281Y0224774D03*
X0034281Y0202726D03*
X0123219Y0202726D03*
X0136281Y0202726D03*
X0136281Y0224774D03*
X0123219Y0224774D03*
X0225219Y0224774D03*
X0238281Y0224774D03*
X0238281Y0202726D03*
X0225219Y0202726D03*
X0327219Y0202726D03*
X0340281Y0202726D03*
X0340281Y0224774D03*
X0327219Y0224774D03*
X0429219Y0224774D03*
X0442281Y0224774D03*
X0442281Y0202726D03*
X0429219Y0202726D03*
X0531219Y0202726D03*
X0544281Y0202726D03*
X0544281Y0224774D03*
X0531219Y0224774D03*
X0633219Y0224774D03*
X0633219Y0202726D03*
D14*
X0618750Y0207844D03*
X0618750Y0211781D03*
X0618750Y0215719D03*
X0618750Y0219656D03*
X0558750Y0219656D03*
X0558750Y0215719D03*
X0558750Y0211781D03*
X0558750Y0207844D03*
X0516750Y0207844D03*
X0516750Y0211781D03*
X0516750Y0215719D03*
X0516750Y0219656D03*
X0456750Y0219656D03*
X0456750Y0215719D03*
X0456750Y0211781D03*
X0456750Y0207844D03*
X0414750Y0207844D03*
X0414750Y0211781D03*
X0414750Y0215719D03*
X0414750Y0219656D03*
X0354750Y0219656D03*
X0354750Y0215719D03*
X0354750Y0211781D03*
X0354750Y0207844D03*
X0312750Y0207844D03*
X0312750Y0211781D03*
X0312750Y0215719D03*
X0312750Y0219656D03*
X0252750Y0219656D03*
X0252750Y0215719D03*
X0252750Y0211781D03*
X0252750Y0207844D03*
X0210750Y0207844D03*
X0210750Y0211781D03*
X0210750Y0215719D03*
X0210750Y0219656D03*
X0150750Y0219656D03*
X0150750Y0215719D03*
X0150750Y0211781D03*
X0150750Y0207844D03*
X0108750Y0207844D03*
X0108750Y0211781D03*
X0108750Y0215719D03*
X0108750Y0219656D03*
X0048750Y0219656D03*
X0048750Y0215719D03*
X0048750Y0211781D03*
X0048750Y0207844D03*
X0048750Y0429844D03*
X0048750Y0433781D03*
X0048750Y0437719D03*
X0048750Y0441656D03*
X0108750Y0441656D03*
X0108750Y0437719D03*
X0108750Y0433781D03*
X0108750Y0429844D03*
X0150750Y0429844D03*
X0150750Y0433781D03*
X0150750Y0437719D03*
X0150750Y0441656D03*
X0210750Y0441656D03*
X0210750Y0437719D03*
X0210750Y0433781D03*
X0210750Y0429844D03*
X0252750Y0429844D03*
X0252750Y0433781D03*
X0252750Y0437719D03*
X0252750Y0441656D03*
X0312750Y0441656D03*
X0312750Y0437719D03*
X0312750Y0433781D03*
X0312750Y0429844D03*
X0354750Y0429844D03*
X0354750Y0433781D03*
X0354750Y0437719D03*
X0354750Y0441656D03*
X0414750Y0441656D03*
X0414750Y0437719D03*
X0414750Y0433781D03*
X0414750Y0429844D03*
X0456750Y0429844D03*
X0456750Y0433781D03*
X0456750Y0437719D03*
X0456750Y0441656D03*
X0516750Y0441656D03*
X0516750Y0437719D03*
X0516750Y0433781D03*
X0516750Y0429844D03*
X0558750Y0429844D03*
X0558750Y0433781D03*
X0558750Y0437719D03*
X0558750Y0441656D03*
X0618750Y0441656D03*
X0618750Y0437719D03*
X0618750Y0433781D03*
X0618750Y0429844D03*
D15*
X0588770Y0384293D03*
X0612392Y0376419D03*
X0565148Y0376419D03*
X0510392Y0376419D03*
X0486770Y0384293D03*
X0463148Y0376419D03*
X0408392Y0376419D03*
X0384770Y0384293D03*
X0361148Y0376419D03*
X0306392Y0376419D03*
X0282770Y0384293D03*
X0259148Y0376419D03*
X0204392Y0376419D03*
X0180770Y0384293D03*
X0157148Y0376419D03*
X0102392Y0376419D03*
X0078770Y0384293D03*
X0055148Y0376419D03*
X0055148Y0328388D03*
X0102392Y0328388D03*
X0157148Y0328388D03*
X0204392Y0328388D03*
X0259148Y0328388D03*
X0306392Y0328388D03*
X0361148Y0328388D03*
X0408392Y0328388D03*
X0463148Y0328388D03*
X0510392Y0328388D03*
X0565148Y0328388D03*
X0612392Y0328388D03*
X0588770Y0162293D03*
X0612392Y0154419D03*
X0565148Y0154419D03*
X0510392Y0154419D03*
X0486770Y0162293D03*
X0463148Y0154419D03*
X0408392Y0154419D03*
X0384770Y0162293D03*
X0361148Y0154419D03*
X0306392Y0154419D03*
X0282770Y0162293D03*
X0259148Y0154419D03*
X0204392Y0154419D03*
X0180770Y0162293D03*
X0157148Y0154419D03*
X0102392Y0154419D03*
X0078770Y0162293D03*
X0055148Y0154419D03*
X0055148Y0106388D03*
X0102392Y0106388D03*
X0157148Y0106388D03*
X0204392Y0106388D03*
X0259148Y0106388D03*
X0306392Y0106388D03*
X0361148Y0106388D03*
X0408392Y0106388D03*
X0463148Y0106388D03*
X0510392Y0106388D03*
X0565148Y0106388D03*
X0612392Y0106388D03*
D16*
X0038750Y0038750D03*
X0118750Y0038750D03*
X0140750Y0038750D03*
X0220750Y0038750D03*
X0242750Y0038750D03*
X0322750Y0038750D03*
X0344750Y0038750D03*
X0424750Y0038750D03*
X0446750Y0038750D03*
X0526750Y0038750D03*
X0548750Y0038750D03*
X0628750Y0038750D03*
X0628750Y0238750D03*
X0628750Y0260750D03*
X0548750Y0260750D03*
X0526750Y0260750D03*
X0526750Y0238750D03*
X0548750Y0238750D03*
X0446750Y0238750D03*
X0424750Y0238750D03*
X0424750Y0260750D03*
X0446750Y0260750D03*
X0344750Y0260750D03*
X0322750Y0260750D03*
X0322750Y0238750D03*
X0344750Y0238750D03*
X0242750Y0238750D03*
X0220750Y0238750D03*
X0220750Y0260750D03*
X0242750Y0260750D03*
X0140750Y0260750D03*
X0118750Y0260750D03*
X0118750Y0238750D03*
X0140750Y0238750D03*
X0038750Y0238750D03*
X0038750Y0260750D03*
X0038750Y0460750D03*
X0118750Y0460750D03*
X0140750Y0460750D03*
X0220750Y0460750D03*
X0242750Y0460750D03*
X0322750Y0460750D03*
X0344750Y0460750D03*
X0424750Y0460750D03*
X0446750Y0460750D03*
X0526750Y0460750D03*
X0548750Y0460750D03*
X0628750Y0460750D03*
D17*
X0598750Y0459596D03*
X0598750Y0452904D03*
X0578750Y0452904D03*
X0578750Y0459596D03*
X0496750Y0459596D03*
X0496750Y0452904D03*
X0476750Y0452904D03*
X0476750Y0459596D03*
X0394750Y0459596D03*
X0394750Y0452904D03*
X0374750Y0452904D03*
X0374750Y0459596D03*
X0292750Y0459596D03*
X0292750Y0452904D03*
X0272750Y0452904D03*
X0272750Y0459596D03*
X0190750Y0459596D03*
X0190750Y0452904D03*
X0170750Y0452904D03*
X0170750Y0459596D03*
X0088750Y0459596D03*
X0088750Y0452904D03*
X0068750Y0452904D03*
X0068750Y0459596D03*
X0068750Y0237596D03*
X0068750Y0230904D03*
X0088750Y0230904D03*
X0088750Y0237596D03*
X0170750Y0237596D03*
X0170750Y0230904D03*
X0190750Y0230904D03*
X0190750Y0237596D03*
X0272750Y0237596D03*
X0272750Y0230904D03*
X0292750Y0230904D03*
X0292750Y0237596D03*
X0374750Y0237596D03*
X0374750Y0230904D03*
X0394750Y0230904D03*
X0394750Y0237596D03*
X0476750Y0237596D03*
X0476750Y0230904D03*
X0496750Y0230904D03*
X0496750Y0237596D03*
X0578750Y0237596D03*
X0578750Y0230904D03*
X0598750Y0230904D03*
X0598750Y0237596D03*
D18*
X0591950Y0234250D03*
X0588750Y0234250D03*
X0585550Y0234250D03*
X0489950Y0234250D03*
X0486750Y0234250D03*
X0483550Y0234250D03*
X0387950Y0234250D03*
X0384750Y0234250D03*
X0381550Y0234250D03*
X0285950Y0234250D03*
X0282750Y0234250D03*
X0279550Y0234250D03*
X0183950Y0234250D03*
X0180750Y0234250D03*
X0177550Y0234250D03*
X0081950Y0234250D03*
X0078750Y0234250D03*
X0075550Y0234250D03*
X0075550Y0456250D03*
X0078750Y0456250D03*
X0081950Y0456250D03*
X0177550Y0456250D03*
X0180750Y0456250D03*
X0183950Y0456250D03*
X0279550Y0456250D03*
X0282750Y0456250D03*
X0285950Y0456250D03*
X0381550Y0456250D03*
X0384750Y0456250D03*
X0387950Y0456250D03*
X0483550Y0456250D03*
X0486750Y0456250D03*
X0489950Y0456250D03*
X0585550Y0456250D03*
X0588750Y0456250D03*
X0591950Y0456250D03*
D19*
X0624813Y0404490D03*
X0624813Y0397010D03*
X0633081Y0400750D03*
X0531081Y0400750D03*
X0522813Y0397010D03*
X0522813Y0404490D03*
X0429081Y0400750D03*
X0420813Y0397010D03*
X0420813Y0404490D03*
X0327081Y0400750D03*
X0318813Y0397010D03*
X0318813Y0404490D03*
X0225081Y0400750D03*
X0216813Y0397010D03*
X0216813Y0404490D03*
X0123081Y0400750D03*
X0114813Y0397010D03*
X0114813Y0404490D03*
X0114813Y0182490D03*
X0114813Y0175010D03*
X0123081Y0178750D03*
X0216813Y0175010D03*
X0216813Y0182490D03*
X0225081Y0178750D03*
X0318813Y0175010D03*
X0318813Y0182490D03*
X0327081Y0178750D03*
X0420813Y0175010D03*
X0420813Y0182490D03*
X0429081Y0178750D03*
X0522813Y0175010D03*
X0522813Y0182490D03*
X0531081Y0178750D03*
X0624813Y0175010D03*
X0624813Y0182490D03*
X0633081Y0178750D03*
D20*
X0596250Y0195750D03*
X0591250Y0195750D03*
X0586250Y0195750D03*
X0581250Y0195750D03*
X0581250Y0224923D03*
X0586250Y0224923D03*
X0591250Y0224923D03*
X0596250Y0224923D03*
X0494250Y0224923D03*
X0489250Y0224923D03*
X0484250Y0224923D03*
X0479250Y0224923D03*
X0479250Y0195750D03*
X0484250Y0195750D03*
X0489250Y0195750D03*
X0494250Y0195750D03*
X0392250Y0195750D03*
X0387250Y0195750D03*
X0382250Y0195750D03*
X0377250Y0195750D03*
X0377250Y0224923D03*
X0382250Y0224923D03*
X0387250Y0224923D03*
X0392250Y0224923D03*
X0290250Y0224923D03*
X0285250Y0224923D03*
X0280250Y0224923D03*
X0275250Y0224923D03*
X0275250Y0195750D03*
X0280250Y0195750D03*
X0285250Y0195750D03*
X0290250Y0195750D03*
X0188250Y0195750D03*
X0183250Y0195750D03*
X0178250Y0195750D03*
X0173250Y0195750D03*
X0173250Y0224923D03*
X0178250Y0224923D03*
X0183250Y0224923D03*
X0188250Y0224923D03*
X0086250Y0224923D03*
X0081250Y0224923D03*
X0076250Y0224923D03*
X0071250Y0224923D03*
X0071250Y0195750D03*
X0076250Y0195750D03*
X0081250Y0195750D03*
X0086250Y0195750D03*
X0086250Y0417750D03*
X0081250Y0417750D03*
X0076250Y0417750D03*
X0071250Y0417750D03*
X0071250Y0446923D03*
X0076250Y0446923D03*
X0081250Y0446923D03*
X0086250Y0446923D03*
X0173250Y0446923D03*
X0178250Y0446923D03*
X0183250Y0446923D03*
X0188250Y0446923D03*
X0188250Y0417750D03*
X0183250Y0417750D03*
X0178250Y0417750D03*
X0173250Y0417750D03*
X0275250Y0417750D03*
X0280250Y0417750D03*
X0285250Y0417750D03*
X0290250Y0417750D03*
X0290250Y0446923D03*
X0285250Y0446923D03*
X0280250Y0446923D03*
X0275250Y0446923D03*
X0377250Y0446923D03*
X0382250Y0446923D03*
X0387250Y0446923D03*
X0392250Y0446923D03*
X0392250Y0417750D03*
X0387250Y0417750D03*
X0382250Y0417750D03*
X0377250Y0417750D03*
X0479250Y0417750D03*
X0484250Y0417750D03*
X0489250Y0417750D03*
X0494250Y0417750D03*
X0494250Y0446923D03*
X0489250Y0446923D03*
X0484250Y0446923D03*
X0479250Y0446923D03*
X0581250Y0446923D03*
X0586250Y0446923D03*
X0591250Y0446923D03*
X0596250Y0446923D03*
X0596250Y0417750D03*
X0591250Y0417750D03*
X0586250Y0417750D03*
X0581250Y0417750D03*
D21*
X0571033Y0409750D03*
X0571033Y0399750D03*
X0606467Y0399750D03*
X0606467Y0409750D03*
X0504467Y0409750D03*
X0504467Y0399750D03*
X0469033Y0399750D03*
X0469033Y0409750D03*
X0402467Y0409750D03*
X0402467Y0399750D03*
X0367033Y0399750D03*
X0367033Y0409750D03*
X0300467Y0409750D03*
X0300467Y0399750D03*
X0265033Y0399750D03*
X0265033Y0409750D03*
X0198467Y0409750D03*
X0198467Y0399750D03*
X0163033Y0399750D03*
X0163033Y0409750D03*
X0096467Y0409750D03*
X0096467Y0399750D03*
X0061033Y0399750D03*
X0061033Y0409750D03*
X0061033Y0187750D03*
X0061033Y0177750D03*
X0096467Y0177750D03*
X0096467Y0187750D03*
X0163033Y0187750D03*
X0163033Y0177750D03*
X0198467Y0177750D03*
X0198467Y0187750D03*
X0265033Y0187750D03*
X0265033Y0177750D03*
X0300467Y0177750D03*
X0300467Y0187750D03*
X0367033Y0187750D03*
X0367033Y0177750D03*
X0402467Y0177750D03*
X0402467Y0187750D03*
X0469033Y0187750D03*
X0469033Y0177750D03*
X0504467Y0177750D03*
X0504467Y0187750D03*
X0571033Y0187750D03*
X0571033Y0177750D03*
X0606467Y0177750D03*
X0606467Y0187750D03*
D22*
X0541750Y0246250D03*
X0534250Y0273250D03*
X0439750Y0246250D03*
X0432250Y0273250D03*
X0337750Y0246250D03*
X0330250Y0273250D03*
X0235750Y0246250D03*
X0228250Y0273250D03*
X0133750Y0246250D03*
X0126250Y0273250D03*
X0031750Y0246250D03*
X0126250Y0051250D03*
X0228250Y0051250D03*
X0330250Y0051250D03*
X0432250Y0051250D03*
X0534250Y0051250D03*
X0636250Y0051250D03*
X0636250Y0273250D03*
X0541750Y0468250D03*
X0439750Y0468250D03*
X0337750Y0468250D03*
X0235750Y0468250D03*
X0133750Y0468250D03*
X0031750Y0468250D03*
D23*
X0063750Y0465750D03*
X0073750Y0465750D03*
X0083750Y0465750D03*
X0093750Y0465750D03*
X0165750Y0465750D03*
X0175750Y0465750D03*
X0185750Y0465750D03*
X0195750Y0465750D03*
X0267750Y0465750D03*
X0277750Y0465750D03*
X0287750Y0465750D03*
X0297750Y0465750D03*
X0369750Y0465750D03*
X0379750Y0465750D03*
X0389750Y0465750D03*
X0399750Y0465750D03*
X0471750Y0465750D03*
X0481750Y0465750D03*
X0491750Y0465750D03*
X0501750Y0465750D03*
X0573750Y0465750D03*
X0583750Y0465750D03*
X0593750Y0465750D03*
X0603750Y0465750D03*
X0603750Y0243750D03*
X0593750Y0243750D03*
X0583750Y0243750D03*
X0573750Y0243750D03*
X0501750Y0243750D03*
X0491750Y0243750D03*
X0481750Y0243750D03*
X0471750Y0243750D03*
X0399750Y0243750D03*
X0389750Y0243750D03*
X0379750Y0243750D03*
X0369750Y0243750D03*
X0297750Y0243750D03*
X0287750Y0243750D03*
X0277750Y0243750D03*
X0267750Y0243750D03*
X0195750Y0243750D03*
X0185750Y0243750D03*
X0175750Y0243750D03*
X0165750Y0243750D03*
X0093750Y0243750D03*
X0083750Y0243750D03*
X0073750Y0243750D03*
X0063750Y0243750D03*
D24*
X0098750Y0290750D03*
X0200750Y0290750D03*
X0302750Y0290750D03*
X0404750Y0290750D03*
X0506750Y0290750D03*
X0608750Y0290750D03*
X0608750Y0068750D03*
X0506750Y0068750D03*
X0404750Y0068750D03*
X0302750Y0068750D03*
X0200750Y0068750D03*
X0098750Y0068750D03*
D25*
X0079065Y0068750D03*
X0059380Y0068750D03*
X0161380Y0068750D03*
X0181065Y0068750D03*
X0263380Y0068750D03*
X0283065Y0068750D03*
X0365380Y0068750D03*
X0385065Y0068750D03*
X0467380Y0068750D03*
X0487065Y0068750D03*
X0569380Y0068750D03*
X0589065Y0068750D03*
X0589065Y0290750D03*
X0569380Y0290750D03*
X0487065Y0290750D03*
X0467380Y0290750D03*
X0385065Y0290750D03*
X0365380Y0290750D03*
X0283065Y0290750D03*
X0263380Y0290750D03*
X0181065Y0290750D03*
X0161380Y0290750D03*
X0079065Y0290750D03*
X0059380Y0290750D03*
D26*
X0055750Y0479000D03*
X0611750Y0479000D03*
D27*
X0052185Y0020500D02*
X0052187Y0020619D01*
X0052193Y0020738D01*
X0052203Y0020857D01*
X0052217Y0020975D01*
X0052235Y0021093D01*
X0052256Y0021210D01*
X0052282Y0021326D01*
X0052312Y0021442D01*
X0052345Y0021556D01*
X0052382Y0021669D01*
X0052423Y0021781D01*
X0052468Y0021892D01*
X0052516Y0022001D01*
X0052568Y0022108D01*
X0052624Y0022213D01*
X0052683Y0022317D01*
X0052745Y0022418D01*
X0052811Y0022518D01*
X0052880Y0022615D01*
X0052952Y0022709D01*
X0053028Y0022802D01*
X0053106Y0022891D01*
X0053187Y0022978D01*
X0053272Y0023063D01*
X0053359Y0023144D01*
X0053448Y0023222D01*
X0053541Y0023298D01*
X0053635Y0023370D01*
X0053732Y0023439D01*
X0053832Y0023505D01*
X0053933Y0023567D01*
X0054037Y0023626D01*
X0054142Y0023682D01*
X0054249Y0023734D01*
X0054358Y0023782D01*
X0054469Y0023827D01*
X0054581Y0023868D01*
X0054694Y0023905D01*
X0054808Y0023938D01*
X0054924Y0023968D01*
X0055040Y0023994D01*
X0055157Y0024015D01*
X0055275Y0024033D01*
X0055393Y0024047D01*
X0055512Y0024057D01*
X0055631Y0024063D01*
X0055750Y0024065D01*
X0055869Y0024063D01*
X0055988Y0024057D01*
X0056107Y0024047D01*
X0056225Y0024033D01*
X0056343Y0024015D01*
X0056460Y0023994D01*
X0056576Y0023968D01*
X0056692Y0023938D01*
X0056806Y0023905D01*
X0056919Y0023868D01*
X0057031Y0023827D01*
X0057142Y0023782D01*
X0057251Y0023734D01*
X0057358Y0023682D01*
X0057463Y0023626D01*
X0057567Y0023567D01*
X0057668Y0023505D01*
X0057768Y0023439D01*
X0057865Y0023370D01*
X0057959Y0023298D01*
X0058052Y0023222D01*
X0058141Y0023144D01*
X0058228Y0023063D01*
X0058313Y0022978D01*
X0058394Y0022891D01*
X0058472Y0022802D01*
X0058548Y0022709D01*
X0058620Y0022615D01*
X0058689Y0022518D01*
X0058755Y0022418D01*
X0058817Y0022317D01*
X0058876Y0022213D01*
X0058932Y0022108D01*
X0058984Y0022001D01*
X0059032Y0021892D01*
X0059077Y0021781D01*
X0059118Y0021669D01*
X0059155Y0021556D01*
X0059188Y0021442D01*
X0059218Y0021326D01*
X0059244Y0021210D01*
X0059265Y0021093D01*
X0059283Y0020975D01*
X0059297Y0020857D01*
X0059307Y0020738D01*
X0059313Y0020619D01*
X0059315Y0020500D01*
X0059313Y0020381D01*
X0059307Y0020262D01*
X0059297Y0020143D01*
X0059283Y0020025D01*
X0059265Y0019907D01*
X0059244Y0019790D01*
X0059218Y0019674D01*
X0059188Y0019558D01*
X0059155Y0019444D01*
X0059118Y0019331D01*
X0059077Y0019219D01*
X0059032Y0019108D01*
X0058984Y0018999D01*
X0058932Y0018892D01*
X0058876Y0018787D01*
X0058817Y0018683D01*
X0058755Y0018582D01*
X0058689Y0018482D01*
X0058620Y0018385D01*
X0058548Y0018291D01*
X0058472Y0018198D01*
X0058394Y0018109D01*
X0058313Y0018022D01*
X0058228Y0017937D01*
X0058141Y0017856D01*
X0058052Y0017778D01*
X0057959Y0017702D01*
X0057865Y0017630D01*
X0057768Y0017561D01*
X0057668Y0017495D01*
X0057567Y0017433D01*
X0057463Y0017374D01*
X0057358Y0017318D01*
X0057251Y0017266D01*
X0057142Y0017218D01*
X0057031Y0017173D01*
X0056919Y0017132D01*
X0056806Y0017095D01*
X0056692Y0017062D01*
X0056576Y0017032D01*
X0056460Y0017006D01*
X0056343Y0016985D01*
X0056225Y0016967D01*
X0056107Y0016953D01*
X0055988Y0016943D01*
X0055869Y0016937D01*
X0055750Y0016935D01*
X0055631Y0016937D01*
X0055512Y0016943D01*
X0055393Y0016953D01*
X0055275Y0016967D01*
X0055157Y0016985D01*
X0055040Y0017006D01*
X0054924Y0017032D01*
X0054808Y0017062D01*
X0054694Y0017095D01*
X0054581Y0017132D01*
X0054469Y0017173D01*
X0054358Y0017218D01*
X0054249Y0017266D01*
X0054142Y0017318D01*
X0054037Y0017374D01*
X0053933Y0017433D01*
X0053832Y0017495D01*
X0053732Y0017561D01*
X0053635Y0017630D01*
X0053541Y0017702D01*
X0053448Y0017778D01*
X0053359Y0017856D01*
X0053272Y0017937D01*
X0053187Y0018022D01*
X0053106Y0018109D01*
X0053028Y0018198D01*
X0052952Y0018291D01*
X0052880Y0018385D01*
X0052811Y0018482D01*
X0052745Y0018582D01*
X0052683Y0018683D01*
X0052624Y0018787D01*
X0052568Y0018892D01*
X0052516Y0018999D01*
X0052468Y0019108D01*
X0052423Y0019219D01*
X0052382Y0019331D01*
X0052345Y0019444D01*
X0052312Y0019558D01*
X0052282Y0019674D01*
X0052256Y0019790D01*
X0052235Y0019907D01*
X0052217Y0020025D01*
X0052203Y0020143D01*
X0052193Y0020262D01*
X0052187Y0020381D01*
X0052185Y0020500D01*
D28*
X0055750Y0020500D03*
M02*
