%
M48
M72
T01C0.0150
T02C0.0200
T03C0.0400
T04C0.0512
T05C0.1300
%
T01
X4328Y17422
X5325Y17625
X7875Y19075
X8075Y20175
X7875Y21025
X8075Y21975
X8525Y21875
X10375Y20675
X11475Y21575
X15225Y22875
X16075Y21875
X16575Y22375
X16225Y21175
X15275Y20375
X18075Y21025
X18275Y20175
X18075Y19075
X20575Y20675
X21675Y21575
X18725Y21875
X18275Y21975
X21325Y17875
X24728Y17422
X25725Y17625
X28275Y19075
X28475Y20175
X28275Y21025
X28475Y21975
X28925Y21875
X26775Y22375
X26275Y21875
X26425Y21175
X25475Y20375
X25425Y22875
X30775Y20675
X31875Y21575
X35625Y22875
X36975Y22375
X36475Y21875
X36625Y21175
X35675Y20375
X38475Y21025
X38675Y20175
X38475Y19075
X35925Y17625
X34928Y17422
X31525Y17875
X38675Y21975
X39125Y21875
X40975Y20675
X42075Y21575
X45825Y22875
X46675Y21875
X47175Y22375
X46825Y21175
X45875Y20375
X48675Y21025
X48875Y20175
X48675Y19075
X46125Y17625
X45128Y17422
X41725Y17875
X48875Y21975
X49325Y21875
X51175Y20675
X52275Y21575
X56025Y22875
X56875Y21875
X57375Y22375
X57025Y21175
X56075Y20375
X58875Y21025
X59075Y20175
X58875Y19075
X61375Y20675
X62475Y21575
X59525Y21875
X59075Y21975
X62125Y17875
X56325Y17625
X55328Y17422
X51925Y17875
X55328Y39622
X56325Y39825
X58875Y41275
X59075Y42375
X58875Y43225
X59075Y44175
X59525Y44075
X61375Y42875
X62475Y43775
X62125Y40075
X57025Y43375
X56875Y44075
X57375Y44575
X56025Y45075
X56075Y42575
X52275Y43775
X51175Y42875
X49325Y44075
X48875Y44175
X48675Y43225
X48875Y42375
X48675Y41275
X46125Y39825
X45128Y39622
X41725Y40075
X38675Y42375
X38475Y43225
X38675Y44175
X39125Y44075
X40975Y42875
X42075Y43775
X45825Y45075
X46675Y44075
X47175Y44575
X46825Y43375
X45875Y42575
X51925Y40075
X38475Y41275
X35925Y39825
X34928Y39622
X35675Y42575
X36625Y43375
X36475Y44075
X36975Y44575
X35625Y45075
X31875Y43775
X30775Y42875
X28925Y44075
X28475Y44175
X28275Y43225
X28475Y42375
X28275Y41275
X26425Y43375
X26275Y44075
X26775Y44575
X25425Y45075
X25475Y42575
X25725Y39825
X24728Y39622
X21325Y40075
X18075Y41275
X18275Y42375
X18075Y43225
X18275Y44175
X18725Y44075
X20575Y42875
X21675Y43775
X16575Y44575
X16075Y44075
X16225Y43375
X15275Y42575
X15225Y45075
X11475Y43775
X10375Y42875
X8525Y44075
X8075Y44175
X7875Y43225
X8075Y42375
X7875Y41275
X5325Y39825
X4328Y39622
X5075Y42575
X6025Y43375
X5875Y44075
X6375Y44575
X5025Y45075
X11125Y40075
X14528Y39622
X15525Y39825
X31525Y40075
X6375Y22375
X5875Y21875
X6025Y21175
X5075Y20375
X5025Y22875
X11125Y17875
X14528Y17422
X15525Y17625
T02
X15975Y19375
X17075Y20525
X17075Y21525
X18075Y21525
X18075Y20525
X19075Y20525
X19075Y21525
X20075Y21875
X24275Y21375
X26175Y19375
X27275Y20525
X27275Y21525
X28275Y21525
X28275Y20525
X29275Y20525
X29275Y21525
X30275Y21875
X34475Y21375
X36375Y19375
X37475Y20525
X37475Y21525
X38475Y21525
X38475Y20525
X39475Y20525
X39475Y21525
X40475Y21875
X44675Y21375
X46575Y19375
X47675Y20525
X47675Y21525
X48675Y21525
X48675Y20525
X49675Y20525
X49675Y21525
X50675Y21875
X54875Y21375
X56775Y19375
X57875Y20525
X57875Y21525
X58875Y21525
X58875Y20525
X59875Y20525
X59875Y21525
X60875Y21875
X56775Y41575
X57875Y42725
X58875Y42725
X59875Y42725
X59875Y43725
X58875Y43725
X57875Y43725
X60875Y44075
X54875Y43575
X50675Y44075
X49675Y43725
X48675Y43725
X47675Y43725
X47675Y42725
X48675Y42725
X49675Y42725
X46575Y41575
X44675Y43575
X40475Y44075
X39475Y43725
X39475Y42725
X38475Y42725
X37475Y42725
X37475Y43725
X38475Y43725
X36375Y41575
X34475Y43575
X30275Y44075
X29275Y43725
X28275Y43725
X28275Y42725
X29275Y42725
X27275Y42725
X27275Y43725
X26175Y41575
X24275Y43575
X20075Y44075
X19075Y43725
X18075Y43725
X17075Y43725
X17075Y42725
X18075Y42725
X19075Y42725
X15975Y41575
X14075Y43575
X9875Y44075
X8875Y43725
X7875Y43725
X6875Y43725
X6875Y42725
X7875Y42725
X8875Y42725
X5775Y41575
X3875Y43575
X9875Y21875
X8875Y21525
X8875Y20525
X7875Y20525
X7875Y21525
X6875Y21525
X6875Y20525
X5775Y19375
X3875Y21375
X14075Y21375
T03
X16575Y24375
X17575Y24375
X18575Y24375
X19575Y24375
X26775Y24375
X27775Y24375
X28775Y24375
X29775Y24375
X36975Y24375
X37975Y24375
X38975Y24375
X39975Y24375
X47175Y24375
X48175Y24375
X49175Y24375
X50175Y24375
X57375Y24375
X58375Y24375
X59375Y24375
X60375Y24375
X60375Y46575
X59375Y46575
X58375Y46575
X57375Y46575
X50175Y46575
X49175Y46575
X48175Y46575
X47175Y46575
X39975Y46575
X38975Y46575
X37975Y46575
X36975Y46575
X29775Y46575
X28775Y46575
X27775Y46575
X26775Y46575
X19575Y46575
X18575Y46575
X17575Y46575
X16575Y46575
X9375Y46575
X8375Y46575
X7375Y46575
X6375Y46575
X6375Y24375
X7375Y24375
X8375Y24375
X9375Y24375
T04
X9875Y29075
X7906Y29075
X5938Y29075
X5515Y32839
X10239Y32839
X15715Y32839
X20439Y32839
X20075Y29075
X18106Y29075
X16138Y29075
X25915Y32839
X26338Y29075
X28306Y29075
X30275Y29075
X30639Y32839
X36115Y32839
X36538Y29075
X38506Y29075
X40475Y29075
X40839Y32839
X46315Y32839
X51039Y32839
X50675Y29075
X48706Y29075
X46738Y29075
X56938Y29075
X58906Y29075
X60875Y29075
X61239Y32839
X56515Y32839
X56515Y37642
X58877Y38429
X61239Y37642
X51039Y37642
X48677Y38429
X46315Y37642
X40839Y37642
X38477Y38429
X36115Y37642
X30639Y37642
X28277Y38429
X25915Y37642
X20439Y37642
X18077Y38429
X15715Y37642
X10239Y37642
X7877Y38429
X5515Y37642
X7877Y16229
X10239Y15442
X5515Y15442
X5515Y10639
X10239Y10639
X9875Y6875
X7906Y6875
X5938Y6875
X16138Y6875
X18106Y6875
X20075Y6875
X20439Y10639
X15715Y10639
X15715Y15442
X18077Y16229
X20439Y15442
X25915Y15442
X28277Y16229
X30639Y15442
X36115Y15442
X38477Y16229
X40839Y15442
X46315Y15442
X48677Y16229
X51039Y15442
X56515Y15442
X58877Y16229
X61239Y15442
X61239Y10639
X56515Y10639
X56938Y6875
X58906Y6875
X60875Y6875
X50675Y6875
X48706Y6875
X46738Y6875
X46315Y10639
X51039Y10639
X40839Y10639
X40475Y6875
X38506Y6875
X36538Y6875
X36115Y10639
X30639Y10639
X30275Y6875
X28306Y6875
X26338Y6875
X25915Y10639
T05
X3875Y3875
X11875Y3875
X14075Y3875
X22075Y3875
X24275Y3875
X32275Y3875
X34475Y3875
X42475Y3875
X44675Y3875
X52675Y3875
X54875Y3875
X62875Y3875
X62875Y23875
X62875Y26075
X54875Y26075
X52675Y26075
X52675Y23875
X54875Y23875
X44675Y23875
X42475Y23875
X42475Y26075
X44675Y26075
X34475Y26075
X32275Y26075
X32275Y23875
X34475Y23875
X24275Y23875
X22075Y23875
X22075Y26075
X24275Y26075
X14075Y26075
X11875Y26075
X11875Y23875
X14075Y23875
X3875Y23875
X3875Y26075
X3875Y46075
X11875Y46075
X14075Y46075
X22075Y46075
X24275Y46075
X32275Y46075
X34475Y46075
X42475Y46075
X44675Y46075
X52675Y46075
X54875Y46075
X62875Y46075
M30
