G75*
%MOIN*%
%OFA0B0*%
%FSLAX25Y25*%
%IPPOS*%
%LPD*%
%AMOC8*
5,1,8,0,0,1.08239X$1,22.5*
%
%ADD10R,0.04331X0.03937*%
%ADD11R,0.02480X0.03268*%
%ADD12C,0.01181*%
%ADD13R,0.07874X0.04724*%
%ADD14R,0.05315X0.02362*%
%ADD15R,0.03937X0.04331*%
%ADD16R,0.13000X0.08800*%
%ADD17R,0.03543X0.03150*%
%ADD18R,0.03000X0.06000*%
%ADD19R,0.05906X0.05118*%
D10*
X0035404Y0183750D03*
X0042096Y0183750D03*
X0042096Y0193750D03*
X0035404Y0193750D03*
X0050404Y0198750D03*
X0057096Y0198750D03*
X0055404Y0228750D03*
X0062096Y0228750D03*
X0095404Y0228750D03*
X0102096Y0228750D03*
X0100404Y0198750D03*
X0107096Y0198750D03*
X0115404Y0188750D03*
X0122096Y0188750D03*
X0137404Y0183750D03*
X0144096Y0183750D03*
X0144096Y0193750D03*
X0137404Y0193750D03*
X0152404Y0198750D03*
X0159096Y0198750D03*
X0157404Y0228750D03*
X0164096Y0228750D03*
X0197404Y0228750D03*
X0204096Y0228750D03*
X0202404Y0198750D03*
X0209096Y0198750D03*
X0217404Y0188750D03*
X0224096Y0188750D03*
X0239404Y0183750D03*
X0246096Y0183750D03*
X0246096Y0193750D03*
X0239404Y0193750D03*
X0254404Y0198750D03*
X0261096Y0198750D03*
X0259404Y0228750D03*
X0266096Y0228750D03*
X0299404Y0228750D03*
X0306096Y0228750D03*
X0304404Y0198750D03*
X0311096Y0198750D03*
X0319404Y0188750D03*
X0326096Y0188750D03*
X0341404Y0183750D03*
X0348096Y0183750D03*
X0348096Y0193750D03*
X0341404Y0193750D03*
X0356404Y0198750D03*
X0363096Y0198750D03*
X0361404Y0228750D03*
X0368096Y0228750D03*
X0401404Y0228750D03*
X0408096Y0228750D03*
X0406404Y0198750D03*
X0413096Y0198750D03*
X0421404Y0188750D03*
X0428096Y0188750D03*
X0443404Y0183750D03*
X0450096Y0183750D03*
X0450096Y0193750D03*
X0443404Y0193750D03*
X0458404Y0198750D03*
X0465096Y0198750D03*
X0463404Y0228750D03*
X0470096Y0228750D03*
X0503404Y0228750D03*
X0510096Y0228750D03*
X0508404Y0198750D03*
X0515096Y0198750D03*
X0523404Y0188750D03*
X0530096Y0188750D03*
X0545404Y0183750D03*
X0552096Y0183750D03*
X0552096Y0193750D03*
X0545404Y0193750D03*
X0560404Y0198750D03*
X0567096Y0198750D03*
X0565404Y0228750D03*
X0572096Y0228750D03*
X0605404Y0228750D03*
X0612096Y0228750D03*
X0610404Y0198750D03*
X0617096Y0198750D03*
X0625404Y0188750D03*
X0632096Y0188750D03*
X0552096Y0405750D03*
X0545404Y0405750D03*
X0545404Y0415750D03*
X0552096Y0415750D03*
X0560404Y0420750D03*
X0567096Y0420750D03*
X0565404Y0450750D03*
X0572096Y0450750D03*
X0605404Y0450750D03*
X0612096Y0450750D03*
X0610404Y0420750D03*
X0617096Y0420750D03*
X0625404Y0410750D03*
X0632096Y0410750D03*
X0530096Y0410750D03*
X0523404Y0410750D03*
X0515096Y0420750D03*
X0508404Y0420750D03*
X0510096Y0450750D03*
X0503404Y0450750D03*
X0470096Y0450750D03*
X0463404Y0450750D03*
X0465096Y0420750D03*
X0458404Y0420750D03*
X0450096Y0415750D03*
X0443404Y0415750D03*
X0443404Y0405750D03*
X0450096Y0405750D03*
X0428096Y0410750D03*
X0421404Y0410750D03*
X0413096Y0420750D03*
X0406404Y0420750D03*
X0408096Y0450750D03*
X0401404Y0450750D03*
X0368096Y0450750D03*
X0361404Y0450750D03*
X0363096Y0420750D03*
X0356404Y0420750D03*
X0348096Y0415750D03*
X0341404Y0415750D03*
X0341404Y0405750D03*
X0348096Y0405750D03*
X0326096Y0410750D03*
X0319404Y0410750D03*
X0311096Y0420750D03*
X0304404Y0420750D03*
X0306096Y0450750D03*
X0299404Y0450750D03*
X0266096Y0450750D03*
X0259404Y0450750D03*
X0261096Y0420750D03*
X0254404Y0420750D03*
X0246096Y0415750D03*
X0239404Y0415750D03*
X0239404Y0405750D03*
X0246096Y0405750D03*
X0224096Y0410750D03*
X0217404Y0410750D03*
X0209096Y0420750D03*
X0202404Y0420750D03*
X0204096Y0450750D03*
X0197404Y0450750D03*
X0164096Y0450750D03*
X0157404Y0450750D03*
X0159096Y0420750D03*
X0152404Y0420750D03*
X0144096Y0415750D03*
X0137404Y0415750D03*
X0137404Y0405750D03*
X0144096Y0405750D03*
X0122096Y0410750D03*
X0115404Y0410750D03*
X0107096Y0420750D03*
X0100404Y0420750D03*
X0102096Y0450750D03*
X0095404Y0450750D03*
X0062096Y0450750D03*
X0055404Y0450750D03*
X0057096Y0420750D03*
X0050404Y0420750D03*
X0042096Y0415750D03*
X0035404Y0415750D03*
X0035404Y0405750D03*
X0042096Y0405750D03*
D11*
X0043278Y0400750D03*
X0034222Y0400750D03*
X0136222Y0400750D03*
X0145278Y0400750D03*
X0238222Y0400750D03*
X0247278Y0400750D03*
X0340222Y0400750D03*
X0349278Y0400750D03*
X0442222Y0400750D03*
X0451278Y0400750D03*
X0544222Y0400750D03*
X0553278Y0400750D03*
X0553278Y0178750D03*
X0544222Y0178750D03*
X0451278Y0178750D03*
X0442222Y0178750D03*
X0349278Y0178750D03*
X0340222Y0178750D03*
X0247278Y0178750D03*
X0238222Y0178750D03*
X0145278Y0178750D03*
X0136222Y0178750D03*
X0043278Y0178750D03*
X0034222Y0178750D03*
D12*
X0036675Y0187372D02*
X0036675Y0190128D01*
X0036675Y0187372D02*
X0033919Y0187372D01*
X0033919Y0190128D01*
X0036675Y0190128D01*
X0036675Y0188552D02*
X0033919Y0188552D01*
X0033919Y0189732D02*
X0036675Y0189732D01*
X0043581Y0190128D02*
X0043581Y0187372D01*
X0040825Y0187372D01*
X0040825Y0190128D01*
X0043581Y0190128D01*
X0043581Y0188552D02*
X0040825Y0188552D01*
X0040825Y0189732D02*
X0043581Y0189732D01*
X0116675Y0192372D02*
X0116675Y0195128D01*
X0116675Y0192372D02*
X0113919Y0192372D01*
X0113919Y0195128D01*
X0116675Y0195128D01*
X0116675Y0193552D02*
X0113919Y0193552D01*
X0113919Y0194732D02*
X0116675Y0194732D01*
X0123581Y0195128D02*
X0123581Y0192372D01*
X0120825Y0192372D01*
X0120825Y0195128D01*
X0123581Y0195128D01*
X0123581Y0193552D02*
X0120825Y0193552D01*
X0120825Y0194732D02*
X0123581Y0194732D01*
X0138675Y0190128D02*
X0138675Y0187372D01*
X0135919Y0187372D01*
X0135919Y0190128D01*
X0138675Y0190128D01*
X0138675Y0188552D02*
X0135919Y0188552D01*
X0135919Y0189732D02*
X0138675Y0189732D01*
X0145581Y0190128D02*
X0145581Y0187372D01*
X0142825Y0187372D01*
X0142825Y0190128D01*
X0145581Y0190128D01*
X0145581Y0188552D02*
X0142825Y0188552D01*
X0142825Y0189732D02*
X0145581Y0189732D01*
X0218675Y0192372D02*
X0218675Y0195128D01*
X0218675Y0192372D02*
X0215919Y0192372D01*
X0215919Y0195128D01*
X0218675Y0195128D01*
X0218675Y0193552D02*
X0215919Y0193552D01*
X0215919Y0194732D02*
X0218675Y0194732D01*
X0225581Y0195128D02*
X0225581Y0192372D01*
X0222825Y0192372D01*
X0222825Y0195128D01*
X0225581Y0195128D01*
X0225581Y0193552D02*
X0222825Y0193552D01*
X0222825Y0194732D02*
X0225581Y0194732D01*
X0240675Y0190128D02*
X0240675Y0187372D01*
X0237919Y0187372D01*
X0237919Y0190128D01*
X0240675Y0190128D01*
X0240675Y0188552D02*
X0237919Y0188552D01*
X0237919Y0189732D02*
X0240675Y0189732D01*
X0247581Y0190128D02*
X0247581Y0187372D01*
X0244825Y0187372D01*
X0244825Y0190128D01*
X0247581Y0190128D01*
X0247581Y0188552D02*
X0244825Y0188552D01*
X0244825Y0189732D02*
X0247581Y0189732D01*
X0320675Y0192372D02*
X0320675Y0195128D01*
X0320675Y0192372D02*
X0317919Y0192372D01*
X0317919Y0195128D01*
X0320675Y0195128D01*
X0320675Y0193552D02*
X0317919Y0193552D01*
X0317919Y0194732D02*
X0320675Y0194732D01*
X0327581Y0195128D02*
X0327581Y0192372D01*
X0324825Y0192372D01*
X0324825Y0195128D01*
X0327581Y0195128D01*
X0327581Y0193552D02*
X0324825Y0193552D01*
X0324825Y0194732D02*
X0327581Y0194732D01*
X0342675Y0190128D02*
X0342675Y0187372D01*
X0339919Y0187372D01*
X0339919Y0190128D01*
X0342675Y0190128D01*
X0342675Y0188552D02*
X0339919Y0188552D01*
X0339919Y0189732D02*
X0342675Y0189732D01*
X0349581Y0190128D02*
X0349581Y0187372D01*
X0346825Y0187372D01*
X0346825Y0190128D01*
X0349581Y0190128D01*
X0349581Y0188552D02*
X0346825Y0188552D01*
X0346825Y0189732D02*
X0349581Y0189732D01*
X0422675Y0192372D02*
X0422675Y0195128D01*
X0422675Y0192372D02*
X0419919Y0192372D01*
X0419919Y0195128D01*
X0422675Y0195128D01*
X0422675Y0193552D02*
X0419919Y0193552D01*
X0419919Y0194732D02*
X0422675Y0194732D01*
X0429581Y0195128D02*
X0429581Y0192372D01*
X0426825Y0192372D01*
X0426825Y0195128D01*
X0429581Y0195128D01*
X0429581Y0193552D02*
X0426825Y0193552D01*
X0426825Y0194732D02*
X0429581Y0194732D01*
X0444675Y0190128D02*
X0444675Y0187372D01*
X0441919Y0187372D01*
X0441919Y0190128D01*
X0444675Y0190128D01*
X0444675Y0188552D02*
X0441919Y0188552D01*
X0441919Y0189732D02*
X0444675Y0189732D01*
X0451581Y0190128D02*
X0451581Y0187372D01*
X0448825Y0187372D01*
X0448825Y0190128D01*
X0451581Y0190128D01*
X0451581Y0188552D02*
X0448825Y0188552D01*
X0448825Y0189732D02*
X0451581Y0189732D01*
X0524675Y0192372D02*
X0524675Y0195128D01*
X0524675Y0192372D02*
X0521919Y0192372D01*
X0521919Y0195128D01*
X0524675Y0195128D01*
X0524675Y0193552D02*
X0521919Y0193552D01*
X0521919Y0194732D02*
X0524675Y0194732D01*
X0531581Y0195128D02*
X0531581Y0192372D01*
X0528825Y0192372D01*
X0528825Y0195128D01*
X0531581Y0195128D01*
X0531581Y0193552D02*
X0528825Y0193552D01*
X0528825Y0194732D02*
X0531581Y0194732D01*
X0546675Y0190128D02*
X0546675Y0187372D01*
X0543919Y0187372D01*
X0543919Y0190128D01*
X0546675Y0190128D01*
X0546675Y0188552D02*
X0543919Y0188552D01*
X0543919Y0189732D02*
X0546675Y0189732D01*
X0553581Y0190128D02*
X0553581Y0187372D01*
X0550825Y0187372D01*
X0550825Y0190128D01*
X0553581Y0190128D01*
X0553581Y0188552D02*
X0550825Y0188552D01*
X0550825Y0189732D02*
X0553581Y0189732D01*
X0626675Y0192372D02*
X0626675Y0195128D01*
X0626675Y0192372D02*
X0623919Y0192372D01*
X0623919Y0195128D01*
X0626675Y0195128D01*
X0626675Y0193552D02*
X0623919Y0193552D01*
X0623919Y0194732D02*
X0626675Y0194732D01*
X0633581Y0195128D02*
X0633581Y0192372D01*
X0630825Y0192372D01*
X0630825Y0195128D01*
X0633581Y0195128D01*
X0633581Y0193552D02*
X0630825Y0193552D01*
X0630825Y0194732D02*
X0633581Y0194732D01*
X0553581Y0409372D02*
X0553581Y0412128D01*
X0553581Y0409372D02*
X0550825Y0409372D01*
X0550825Y0412128D01*
X0553581Y0412128D01*
X0553581Y0410552D02*
X0550825Y0410552D01*
X0550825Y0411732D02*
X0553581Y0411732D01*
X0546675Y0412128D02*
X0546675Y0409372D01*
X0543919Y0409372D01*
X0543919Y0412128D01*
X0546675Y0412128D01*
X0546675Y0410552D02*
X0543919Y0410552D01*
X0543919Y0411732D02*
X0546675Y0411732D01*
X0531581Y0414372D02*
X0531581Y0417128D01*
X0531581Y0414372D02*
X0528825Y0414372D01*
X0528825Y0417128D01*
X0531581Y0417128D01*
X0531581Y0415552D02*
X0528825Y0415552D01*
X0528825Y0416732D02*
X0531581Y0416732D01*
X0524675Y0417128D02*
X0524675Y0414372D01*
X0521919Y0414372D01*
X0521919Y0417128D01*
X0524675Y0417128D01*
X0524675Y0415552D02*
X0521919Y0415552D01*
X0521919Y0416732D02*
X0524675Y0416732D01*
X0451581Y0412128D02*
X0451581Y0409372D01*
X0448825Y0409372D01*
X0448825Y0412128D01*
X0451581Y0412128D01*
X0451581Y0410552D02*
X0448825Y0410552D01*
X0448825Y0411732D02*
X0451581Y0411732D01*
X0444675Y0412128D02*
X0444675Y0409372D01*
X0441919Y0409372D01*
X0441919Y0412128D01*
X0444675Y0412128D01*
X0444675Y0410552D02*
X0441919Y0410552D01*
X0441919Y0411732D02*
X0444675Y0411732D01*
X0429581Y0414372D02*
X0429581Y0417128D01*
X0429581Y0414372D02*
X0426825Y0414372D01*
X0426825Y0417128D01*
X0429581Y0417128D01*
X0429581Y0415552D02*
X0426825Y0415552D01*
X0426825Y0416732D02*
X0429581Y0416732D01*
X0422675Y0417128D02*
X0422675Y0414372D01*
X0419919Y0414372D01*
X0419919Y0417128D01*
X0422675Y0417128D01*
X0422675Y0415552D02*
X0419919Y0415552D01*
X0419919Y0416732D02*
X0422675Y0416732D01*
X0349581Y0412128D02*
X0349581Y0409372D01*
X0346825Y0409372D01*
X0346825Y0412128D01*
X0349581Y0412128D01*
X0349581Y0410552D02*
X0346825Y0410552D01*
X0346825Y0411732D02*
X0349581Y0411732D01*
X0342675Y0412128D02*
X0342675Y0409372D01*
X0339919Y0409372D01*
X0339919Y0412128D01*
X0342675Y0412128D01*
X0342675Y0410552D02*
X0339919Y0410552D01*
X0339919Y0411732D02*
X0342675Y0411732D01*
X0327581Y0414372D02*
X0327581Y0417128D01*
X0327581Y0414372D02*
X0324825Y0414372D01*
X0324825Y0417128D01*
X0327581Y0417128D01*
X0327581Y0415552D02*
X0324825Y0415552D01*
X0324825Y0416732D02*
X0327581Y0416732D01*
X0320675Y0417128D02*
X0320675Y0414372D01*
X0317919Y0414372D01*
X0317919Y0417128D01*
X0320675Y0417128D01*
X0320675Y0415552D02*
X0317919Y0415552D01*
X0317919Y0416732D02*
X0320675Y0416732D01*
X0247581Y0412128D02*
X0247581Y0409372D01*
X0244825Y0409372D01*
X0244825Y0412128D01*
X0247581Y0412128D01*
X0247581Y0410552D02*
X0244825Y0410552D01*
X0244825Y0411732D02*
X0247581Y0411732D01*
X0240675Y0412128D02*
X0240675Y0409372D01*
X0237919Y0409372D01*
X0237919Y0412128D01*
X0240675Y0412128D01*
X0240675Y0410552D02*
X0237919Y0410552D01*
X0237919Y0411732D02*
X0240675Y0411732D01*
X0225581Y0414372D02*
X0225581Y0417128D01*
X0225581Y0414372D02*
X0222825Y0414372D01*
X0222825Y0417128D01*
X0225581Y0417128D01*
X0225581Y0415552D02*
X0222825Y0415552D01*
X0222825Y0416732D02*
X0225581Y0416732D01*
X0218675Y0417128D02*
X0218675Y0414372D01*
X0215919Y0414372D01*
X0215919Y0417128D01*
X0218675Y0417128D01*
X0218675Y0415552D02*
X0215919Y0415552D01*
X0215919Y0416732D02*
X0218675Y0416732D01*
X0145581Y0412128D02*
X0145581Y0409372D01*
X0142825Y0409372D01*
X0142825Y0412128D01*
X0145581Y0412128D01*
X0145581Y0410552D02*
X0142825Y0410552D01*
X0142825Y0411732D02*
X0145581Y0411732D01*
X0138675Y0412128D02*
X0138675Y0409372D01*
X0135919Y0409372D01*
X0135919Y0412128D01*
X0138675Y0412128D01*
X0138675Y0410552D02*
X0135919Y0410552D01*
X0135919Y0411732D02*
X0138675Y0411732D01*
X0123581Y0414372D02*
X0123581Y0417128D01*
X0123581Y0414372D02*
X0120825Y0414372D01*
X0120825Y0417128D01*
X0123581Y0417128D01*
X0123581Y0415552D02*
X0120825Y0415552D01*
X0120825Y0416732D02*
X0123581Y0416732D01*
X0116675Y0417128D02*
X0116675Y0414372D01*
X0113919Y0414372D01*
X0113919Y0417128D01*
X0116675Y0417128D01*
X0116675Y0415552D02*
X0113919Y0415552D01*
X0113919Y0416732D02*
X0116675Y0416732D01*
X0043581Y0412128D02*
X0043581Y0409372D01*
X0040825Y0409372D01*
X0040825Y0412128D01*
X0043581Y0412128D01*
X0043581Y0410552D02*
X0040825Y0410552D01*
X0040825Y0411732D02*
X0043581Y0411732D01*
X0036675Y0412128D02*
X0036675Y0409372D01*
X0033919Y0409372D01*
X0033919Y0412128D01*
X0036675Y0412128D01*
X0036675Y0410552D02*
X0033919Y0410552D01*
X0033919Y0411732D02*
X0036675Y0411732D01*
X0626675Y0414372D02*
X0626675Y0417128D01*
X0626675Y0414372D02*
X0623919Y0414372D01*
X0623919Y0417128D01*
X0626675Y0417128D01*
X0626675Y0415552D02*
X0623919Y0415552D01*
X0623919Y0416732D02*
X0626675Y0416732D01*
X0633581Y0417128D02*
X0633581Y0414372D01*
X0630825Y0414372D01*
X0630825Y0417128D01*
X0633581Y0417128D01*
X0633581Y0415552D02*
X0630825Y0415552D01*
X0630825Y0416732D02*
X0633581Y0416732D01*
D13*
X0633219Y0424726D03*
X0633219Y0446774D03*
X0544281Y0446774D03*
X0531219Y0446774D03*
X0531219Y0424726D03*
X0544281Y0424726D03*
X0442281Y0424726D03*
X0429219Y0424726D03*
X0429219Y0446774D03*
X0442281Y0446774D03*
X0340281Y0446774D03*
X0327219Y0446774D03*
X0327219Y0424726D03*
X0340281Y0424726D03*
X0238281Y0424726D03*
X0225219Y0424726D03*
X0225219Y0446774D03*
X0238281Y0446774D03*
X0136281Y0446774D03*
X0123219Y0446774D03*
X0123219Y0424726D03*
X0136281Y0424726D03*
X0034281Y0424726D03*
X0034281Y0446774D03*
X0034281Y0224774D03*
X0034281Y0202726D03*
X0123219Y0202726D03*
X0136281Y0202726D03*
X0136281Y0224774D03*
X0123219Y0224774D03*
X0225219Y0224774D03*
X0238281Y0224774D03*
X0238281Y0202726D03*
X0225219Y0202726D03*
X0327219Y0202726D03*
X0340281Y0202726D03*
X0340281Y0224774D03*
X0327219Y0224774D03*
X0429219Y0224774D03*
X0442281Y0224774D03*
X0442281Y0202726D03*
X0429219Y0202726D03*
X0531219Y0202726D03*
X0544281Y0202726D03*
X0544281Y0224774D03*
X0531219Y0224774D03*
X0633219Y0224774D03*
X0633219Y0202726D03*
D14*
X0618750Y0207844D03*
X0618750Y0211781D03*
X0618750Y0215719D03*
X0618750Y0219656D03*
X0558750Y0219656D03*
X0558750Y0215719D03*
X0558750Y0211781D03*
X0558750Y0207844D03*
X0516750Y0207844D03*
X0516750Y0211781D03*
X0516750Y0215719D03*
X0516750Y0219656D03*
X0456750Y0219656D03*
X0456750Y0215719D03*
X0456750Y0211781D03*
X0456750Y0207844D03*
X0414750Y0207844D03*
X0414750Y0211781D03*
X0414750Y0215719D03*
X0414750Y0219656D03*
X0354750Y0219656D03*
X0354750Y0215719D03*
X0354750Y0211781D03*
X0354750Y0207844D03*
X0312750Y0207844D03*
X0312750Y0211781D03*
X0312750Y0215719D03*
X0312750Y0219656D03*
X0252750Y0219656D03*
X0252750Y0215719D03*
X0252750Y0211781D03*
X0252750Y0207844D03*
X0210750Y0207844D03*
X0210750Y0211781D03*
X0210750Y0215719D03*
X0210750Y0219656D03*
X0150750Y0219656D03*
X0150750Y0215719D03*
X0150750Y0211781D03*
X0150750Y0207844D03*
X0108750Y0207844D03*
X0108750Y0211781D03*
X0108750Y0215719D03*
X0108750Y0219656D03*
X0048750Y0219656D03*
X0048750Y0215719D03*
X0048750Y0211781D03*
X0048750Y0207844D03*
X0048750Y0429844D03*
X0048750Y0433781D03*
X0048750Y0437719D03*
X0048750Y0441656D03*
X0108750Y0441656D03*
X0108750Y0437719D03*
X0108750Y0433781D03*
X0108750Y0429844D03*
X0150750Y0429844D03*
X0150750Y0433781D03*
X0150750Y0437719D03*
X0150750Y0441656D03*
X0210750Y0441656D03*
X0210750Y0437719D03*
X0210750Y0433781D03*
X0210750Y0429844D03*
X0252750Y0429844D03*
X0252750Y0433781D03*
X0252750Y0437719D03*
X0252750Y0441656D03*
X0312750Y0441656D03*
X0312750Y0437719D03*
X0312750Y0433781D03*
X0312750Y0429844D03*
X0354750Y0429844D03*
X0354750Y0433781D03*
X0354750Y0437719D03*
X0354750Y0441656D03*
X0414750Y0441656D03*
X0414750Y0437719D03*
X0414750Y0433781D03*
X0414750Y0429844D03*
X0456750Y0429844D03*
X0456750Y0433781D03*
X0456750Y0437719D03*
X0456750Y0441656D03*
X0516750Y0441656D03*
X0516750Y0437719D03*
X0516750Y0433781D03*
X0516750Y0429844D03*
X0558750Y0429844D03*
X0558750Y0433781D03*
X0558750Y0437719D03*
X0558750Y0441656D03*
X0618750Y0441656D03*
X0618750Y0437719D03*
X0618750Y0433781D03*
X0618750Y0429844D03*
D15*
X0598750Y0452904D03*
X0598750Y0459596D03*
X0578750Y0459596D03*
X0578750Y0452904D03*
X0496750Y0452904D03*
X0496750Y0459596D03*
X0476750Y0459596D03*
X0476750Y0452904D03*
X0394750Y0452904D03*
X0394750Y0459596D03*
X0374750Y0459596D03*
X0374750Y0452904D03*
X0292750Y0452904D03*
X0292750Y0459596D03*
X0272750Y0459596D03*
X0272750Y0452904D03*
X0190750Y0452904D03*
X0190750Y0459596D03*
X0170750Y0459596D03*
X0170750Y0452904D03*
X0088750Y0452904D03*
X0088750Y0459596D03*
X0068750Y0459596D03*
X0068750Y0452904D03*
X0068750Y0237596D03*
X0068750Y0230904D03*
X0088750Y0230904D03*
X0088750Y0237596D03*
X0170750Y0237596D03*
X0170750Y0230904D03*
X0190750Y0230904D03*
X0190750Y0237596D03*
X0272750Y0237596D03*
X0272750Y0230904D03*
X0292750Y0230904D03*
X0292750Y0237596D03*
X0374750Y0237596D03*
X0374750Y0230904D03*
X0394750Y0230904D03*
X0394750Y0237596D03*
X0476750Y0237596D03*
X0476750Y0230904D03*
X0496750Y0230904D03*
X0496750Y0237596D03*
X0578750Y0237596D03*
X0578750Y0230904D03*
X0598750Y0230904D03*
X0598750Y0237596D03*
D16*
X0588750Y0234250D03*
X0486750Y0234250D03*
X0384750Y0234250D03*
X0282750Y0234250D03*
X0180750Y0234250D03*
X0078750Y0234250D03*
X0078750Y0456250D03*
X0180750Y0456250D03*
X0282750Y0456250D03*
X0384750Y0456250D03*
X0486750Y0456250D03*
X0588750Y0456250D03*
D17*
X0624813Y0404490D03*
X0624813Y0397010D03*
X0633081Y0400750D03*
X0531081Y0400750D03*
X0522813Y0397010D03*
X0522813Y0404490D03*
X0429081Y0400750D03*
X0420813Y0397010D03*
X0420813Y0404490D03*
X0327081Y0400750D03*
X0318813Y0397010D03*
X0318813Y0404490D03*
X0225081Y0400750D03*
X0216813Y0397010D03*
X0216813Y0404490D03*
X0123081Y0400750D03*
X0114813Y0397010D03*
X0114813Y0404490D03*
X0114813Y0182490D03*
X0114813Y0175010D03*
X0123081Y0178750D03*
X0216813Y0175010D03*
X0216813Y0182490D03*
X0225081Y0178750D03*
X0318813Y0175010D03*
X0318813Y0182490D03*
X0327081Y0178750D03*
X0420813Y0175010D03*
X0420813Y0182490D03*
X0429081Y0178750D03*
X0522813Y0175010D03*
X0522813Y0182490D03*
X0531081Y0178750D03*
X0624813Y0175010D03*
X0624813Y0182490D03*
X0633081Y0178750D03*
D18*
X0596250Y0195750D03*
X0591250Y0195750D03*
X0586250Y0195750D03*
X0581250Y0195750D03*
X0581250Y0224923D03*
X0586250Y0224923D03*
X0591250Y0224923D03*
X0596250Y0224923D03*
X0494250Y0224923D03*
X0489250Y0224923D03*
X0484250Y0224923D03*
X0479250Y0224923D03*
X0479250Y0195750D03*
X0484250Y0195750D03*
X0489250Y0195750D03*
X0494250Y0195750D03*
X0392250Y0195750D03*
X0387250Y0195750D03*
X0382250Y0195750D03*
X0377250Y0195750D03*
X0377250Y0224923D03*
X0382250Y0224923D03*
X0387250Y0224923D03*
X0392250Y0224923D03*
X0290250Y0224923D03*
X0285250Y0224923D03*
X0280250Y0224923D03*
X0275250Y0224923D03*
X0275250Y0195750D03*
X0280250Y0195750D03*
X0285250Y0195750D03*
X0290250Y0195750D03*
X0188250Y0195750D03*
X0183250Y0195750D03*
X0178250Y0195750D03*
X0173250Y0195750D03*
X0173250Y0224923D03*
X0178250Y0224923D03*
X0183250Y0224923D03*
X0188250Y0224923D03*
X0086250Y0224923D03*
X0081250Y0224923D03*
X0076250Y0224923D03*
X0071250Y0224923D03*
X0071250Y0195750D03*
X0076250Y0195750D03*
X0081250Y0195750D03*
X0086250Y0195750D03*
X0086250Y0417750D03*
X0081250Y0417750D03*
X0076250Y0417750D03*
X0071250Y0417750D03*
X0071250Y0446923D03*
X0076250Y0446923D03*
X0081250Y0446923D03*
X0086250Y0446923D03*
X0173250Y0446923D03*
X0178250Y0446923D03*
X0183250Y0446923D03*
X0188250Y0446923D03*
X0188250Y0417750D03*
X0183250Y0417750D03*
X0178250Y0417750D03*
X0173250Y0417750D03*
X0275250Y0417750D03*
X0280250Y0417750D03*
X0285250Y0417750D03*
X0290250Y0417750D03*
X0290250Y0446923D03*
X0285250Y0446923D03*
X0280250Y0446923D03*
X0275250Y0446923D03*
X0377250Y0446923D03*
X0382250Y0446923D03*
X0387250Y0446923D03*
X0392250Y0446923D03*
X0392250Y0417750D03*
X0387250Y0417750D03*
X0382250Y0417750D03*
X0377250Y0417750D03*
X0479250Y0417750D03*
X0484250Y0417750D03*
X0489250Y0417750D03*
X0494250Y0417750D03*
X0494250Y0446923D03*
X0489250Y0446923D03*
X0484250Y0446923D03*
X0479250Y0446923D03*
X0581250Y0446923D03*
X0586250Y0446923D03*
X0591250Y0446923D03*
X0596250Y0446923D03*
X0596250Y0417750D03*
X0591250Y0417750D03*
X0586250Y0417750D03*
X0581250Y0417750D03*
D19*
X0061033Y0177750D03*
X0061033Y0187750D03*
X0096467Y0187750D03*
X0096467Y0177750D03*
X0163033Y0177750D03*
X0163033Y0187750D03*
X0198467Y0187750D03*
X0198467Y0177750D03*
X0265033Y0177750D03*
X0265033Y0187750D03*
X0300467Y0187750D03*
X0300467Y0177750D03*
X0367033Y0177750D03*
X0367033Y0187750D03*
X0402467Y0187750D03*
X0402467Y0177750D03*
X0469033Y0177750D03*
X0469033Y0187750D03*
X0504467Y0187750D03*
X0504467Y0177750D03*
X0571033Y0177750D03*
X0571033Y0187750D03*
X0606467Y0187750D03*
X0606467Y0177750D03*
X0606467Y0399750D03*
X0606467Y0409750D03*
X0571033Y0409750D03*
X0571033Y0399750D03*
X0504467Y0399750D03*
X0504467Y0409750D03*
X0469033Y0409750D03*
X0469033Y0399750D03*
X0402467Y0399750D03*
X0402467Y0409750D03*
X0367033Y0409750D03*
X0367033Y0399750D03*
X0300467Y0399750D03*
X0300467Y0409750D03*
X0265033Y0409750D03*
X0265033Y0399750D03*
X0198467Y0399750D03*
X0198467Y0409750D03*
X0163033Y0409750D03*
X0163033Y0399750D03*
X0096467Y0399750D03*
X0096467Y0409750D03*
X0061033Y0409750D03*
X0061033Y0399750D03*
M02*
