%
M48
M72
T01C0.0150
T02C0.0200
T03C0.0400
T04C0.0512
T05C0.1300
%
T01
X6628Y19722
X7625Y19925
X7375Y22675
X8325Y23475
X8175Y24175
X8675Y24675
X7325Y25175
X10175Y23325
X10375Y22475
X10175Y21375
X10825Y24175
X10375Y24275
X12675Y22975
X13775Y23875
X13425Y20175
X16828Y19722
X17825Y19925
X17575Y22675
X18525Y23475
X18375Y24175
X18875Y24675
X17525Y25175
X20375Y23325
X20575Y22475
X20375Y21375
X21025Y24175
X20575Y24275
X22875Y22975
X23975Y23875
X23625Y20175
X27028Y19722
X28025Y19925
X27775Y22675
X28725Y23475
X28575Y24175
X29075Y24675
X27725Y25175
X30775Y24275
X31225Y24175
X30575Y23325
X30775Y22475
X30575Y21375
X33075Y22975
X34175Y23875
X33825Y20175
X27028Y41922
X28025Y42125
X27775Y44875
X28725Y45675
X28575Y46375
X29075Y46875
X27725Y47375
X30775Y46475
X31225Y46375
X30575Y45525
X30775Y44675
X30575Y43575
X33075Y45175
X34175Y46075
X33825Y42375
X23625Y42375
X22875Y45175
X23975Y46075
X21025Y46375
X20575Y46475
X20375Y45525
X20575Y44675
X20375Y43575
X18525Y45675
X18375Y46375
X18875Y46875
X17525Y47375
X17575Y44875
X17825Y42125
X16828Y41922
X13425Y42375
X12675Y45175
X13775Y46075
X10825Y46375
X10375Y46475
X10175Y45525
X10375Y44675
X10175Y43575
X8325Y45675
X8175Y46375
X8675Y46875
X7325Y47375
X7375Y44875
X7625Y42125
X6628Y41922
T02
X8075Y43875
X9175Y45025
X9175Y46025
X10175Y46025
X10175Y45025
X11175Y45025
X11175Y46025
X12175Y46375
X16375Y45875
X18275Y43875
X19375Y45025
X19375Y46025
X20375Y46025
X20375Y45025
X21375Y45025
X21375Y46025
X22375Y46375
X26575Y45875
X28475Y43875
X29575Y45025
X29575Y46025
X30575Y46025
X30575Y45025
X31575Y45025
X31575Y46025
X32575Y46375
X32575Y24175
X31575Y23825
X31575Y22825
X30575Y22825
X30575Y23825
X29575Y23825
X29575Y22825
X28475Y21675
X26575Y23675
X22375Y24175
X21375Y23825
X21375Y22825
X20375Y22825
X20375Y23825
X19375Y23825
X19375Y22825
X18275Y21675
X16375Y23675
X12175Y24175
X11175Y23825
X11175Y22825
X10175Y22825
X10175Y23825
X9175Y23825
X9175Y22825
X8075Y21675
X6175Y23675
X6175Y45875
T03
X8675Y48875
X9675Y48875
X10675Y48875
X11675Y48875
X18875Y48875
X19875Y48875
X20875Y48875
X21875Y48875
X29075Y48875
X30075Y48875
X31075Y48875
X32075Y48875
X32075Y26675
X31075Y26675
X30075Y26675
X29075Y26675
X21875Y26675
X20875Y26675
X19875Y26675
X18875Y26675
X11675Y26675
X10675Y26675
X9675Y26675
X8675Y26675
T04
X8238Y31375
X10206Y31375
X12175Y31375
X12539Y35139
X12539Y39942
X10177Y40729
X7815Y39942
X7815Y35139
X18015Y35139
X18438Y31375
X20406Y31375
X22375Y31375
X22739Y35139
X22739Y39942
X20377Y40729
X18015Y39942
X28215Y39942
X30577Y40729
X32939Y39942
X32939Y35139
X32575Y31375
X30606Y31375
X28638Y31375
X28215Y35139
X30577Y18529
X32939Y17742
X32939Y12939
X32575Y9175
X30606Y9175
X28638Y9175
X28215Y12939
X28215Y17742
X22739Y17742
X20377Y18529
X18015Y17742
X18015Y12939
X18438Y9175
X20406Y9175
X22375Y9175
X22739Y12939
X12539Y12939
X12175Y9175
X10206Y9175
X8238Y9175
X7815Y12939
X7815Y17742
X10177Y18529
X12539Y17742
T05
X6175Y6175
X14175Y6175
X16375Y6175
X24375Y6175
X26575Y6175
X34575Y6175
X34575Y26175
X34575Y28375
X26575Y28375
X26575Y26175
X24375Y26175
X24375Y28375
X16375Y28375
X16375Y26175
X14175Y26175
X14175Y28375
X6175Y28375
X6175Y26175
X6175Y48375
X14175Y48375
X16375Y48375
X24375Y48375
X26575Y48375
X34575Y48375
M30
