G75*
%MOIN*%
%OFA0B0*%
%FSLAX25Y25*%
%IPPOS*%
%LPD*%
%AMOC8*
5,1,8,0,0,1.08239X$1,22.5*
%
%ADD10C,0.01100*%
%ADD11C,0.10000*%
%ADD12C,0.02500*%
%ADD13C,0.03400*%
%ADD14C,0.07400*%
%ADD15R,0.05000X0.02500*%
%ADD16R,0.09500X0.09500*%
%ADD17C,0.09500*%
%ADD18C,0.02900*%
%ADD19C,0.00700*%
%ADD20C,0.10000*%
D10*
X0144300Y0102632D02*
X0148237Y0106568D01*
X0148237Y0109077D02*
X0150205Y0111046D01*
X0144300Y0111046D01*
X0144300Y0113014D02*
X0144300Y0109077D01*
X0144300Y0106568D02*
X0148237Y0102632D01*
X0149221Y0115523D02*
X0150205Y0116507D01*
X0150205Y0118475D01*
X0149221Y0119459D01*
X0148237Y0119459D01*
X0144300Y0115523D01*
X0144300Y0119459D01*
X0246300Y0119459D02*
X0246300Y0115523D01*
X0250237Y0119459D01*
X0251221Y0119459D01*
X0252205Y0118475D01*
X0252205Y0116507D01*
X0251221Y0115523D01*
X0252205Y0111046D02*
X0246300Y0111046D01*
X0246300Y0113014D02*
X0246300Y0109077D01*
X0246300Y0106568D02*
X0250237Y0102632D01*
X0250237Y0106568D02*
X0246300Y0102632D01*
X0250237Y0109077D02*
X0252205Y0111046D01*
X0348300Y0111046D02*
X0354205Y0111046D01*
X0352237Y0109077D01*
X0352237Y0106568D02*
X0348300Y0102632D01*
X0348300Y0106568D02*
X0352237Y0102632D01*
X0348300Y0109077D02*
X0348300Y0113014D01*
X0348300Y0115523D02*
X0352237Y0119459D01*
X0353221Y0119459D01*
X0354205Y0118475D01*
X0354205Y0116507D01*
X0353221Y0115523D01*
X0348300Y0115523D02*
X0348300Y0119459D01*
X0348300Y0324632D02*
X0352237Y0328568D01*
X0352237Y0331077D02*
X0354205Y0333046D01*
X0348300Y0333046D01*
X0348300Y0335014D02*
X0348300Y0331077D01*
X0348300Y0328568D02*
X0352237Y0324632D01*
X0353221Y0337523D02*
X0354205Y0338507D01*
X0354205Y0340475D01*
X0353221Y0341459D01*
X0352237Y0341459D01*
X0348300Y0337523D01*
X0348300Y0341459D01*
X0252205Y0340475D02*
X0252205Y0338507D01*
X0251221Y0337523D01*
X0252205Y0340475D02*
X0251221Y0341459D01*
X0250237Y0341459D01*
X0246300Y0337523D01*
X0246300Y0341459D01*
X0246300Y0335014D02*
X0246300Y0331077D01*
X0246300Y0333046D02*
X0252205Y0333046D01*
X0250237Y0331077D01*
X0250237Y0328568D02*
X0246300Y0324632D01*
X0246300Y0328568D02*
X0250237Y0324632D01*
X0150205Y0333046D02*
X0148237Y0331077D01*
X0148237Y0328568D02*
X0144300Y0324632D01*
X0144300Y0328568D02*
X0148237Y0324632D01*
X0144300Y0331077D02*
X0144300Y0335014D01*
X0144300Y0333046D02*
X0150205Y0333046D01*
X0149221Y0337523D02*
X0150205Y0338507D01*
X0150205Y0340475D01*
X0149221Y0341459D01*
X0148237Y0341459D01*
X0144300Y0337523D01*
X0144300Y0341459D01*
D11*
X0125392Y0351388D03*
X0125392Y0399419D03*
X0101770Y0407293D03*
X0078148Y0399419D03*
X0078148Y0351388D03*
X0180148Y0351388D03*
X0180148Y0399419D03*
X0203770Y0407293D03*
X0227392Y0399419D03*
X0227392Y0351388D03*
X0282148Y0351388D03*
X0282148Y0399419D03*
X0305770Y0407293D03*
X0329392Y0399419D03*
X0329392Y0351388D03*
X0305770Y0185293D03*
X0329392Y0177419D03*
X0329392Y0129388D03*
X0282148Y0129388D03*
X0282148Y0177419D03*
X0227392Y0177419D03*
X0203770Y0185293D03*
X0180148Y0177419D03*
X0180148Y0129388D03*
X0227392Y0129388D03*
X0125392Y0129388D03*
X0125392Y0177419D03*
X0101770Y0185293D03*
X0078148Y0177419D03*
X0078148Y0129388D03*
D12*
X0054250Y0074250D03*
X0156250Y0074250D03*
X0258250Y0074250D03*
X0251250Y0269250D03*
X0258250Y0296250D03*
X0353250Y0269250D03*
X0353250Y0491250D03*
X0251250Y0491250D03*
X0149250Y0491250D03*
X0156250Y0296250D03*
X0149250Y0269250D03*
X0054250Y0296250D03*
D13*
X0061750Y0236750D03*
X0080750Y0216750D03*
X0091750Y0228250D03*
X0091750Y0238250D03*
X0101750Y0238250D03*
X0101750Y0228250D03*
X0111750Y0228250D03*
X0111750Y0238250D03*
X0121750Y0241750D03*
X0163750Y0236750D03*
X0182750Y0216750D03*
X0193750Y0228250D03*
X0193750Y0238250D03*
X0203750Y0238250D03*
X0203750Y0228250D03*
X0213750Y0228250D03*
X0213750Y0238250D03*
X0223750Y0241750D03*
X0265750Y0236750D03*
X0284750Y0216750D03*
X0295750Y0228250D03*
X0295750Y0238250D03*
X0305750Y0238250D03*
X0305750Y0228250D03*
X0315750Y0228250D03*
X0315750Y0238250D03*
X0325750Y0241750D03*
X0284750Y0438750D03*
X0295750Y0450250D03*
X0295750Y0460250D03*
X0305750Y0460250D03*
X0305750Y0450250D03*
X0315750Y0450250D03*
X0315750Y0460250D03*
X0325750Y0463750D03*
X0265750Y0458750D03*
X0223750Y0463750D03*
X0213750Y0460250D03*
X0213750Y0450250D03*
X0203750Y0450250D03*
X0203750Y0460250D03*
X0193750Y0460250D03*
X0193750Y0450250D03*
X0182750Y0438750D03*
X0163750Y0458750D03*
X0121750Y0463750D03*
X0111750Y0460250D03*
X0111750Y0450250D03*
X0101750Y0450250D03*
X0101750Y0460250D03*
X0091750Y0460250D03*
X0091750Y0450250D03*
X0080750Y0438750D03*
X0061750Y0458750D03*
D14*
X0086750Y0488750D03*
X0096750Y0488750D03*
X0106750Y0488750D03*
X0116750Y0488750D03*
X0188750Y0488750D03*
X0198750Y0488750D03*
X0208750Y0488750D03*
X0218750Y0488750D03*
X0290750Y0488750D03*
X0300750Y0488750D03*
X0310750Y0488750D03*
X0320750Y0488750D03*
X0320750Y0266750D03*
X0310750Y0266750D03*
X0300750Y0266750D03*
X0290750Y0266750D03*
X0218750Y0266750D03*
X0208750Y0266750D03*
X0198750Y0266750D03*
X0188750Y0266750D03*
X0116750Y0266750D03*
X0106750Y0266750D03*
X0096750Y0266750D03*
X0086750Y0266750D03*
D15*
X0146750Y0238350D03*
X0146750Y0235150D03*
X0248750Y0235150D03*
X0248750Y0238350D03*
X0350750Y0238350D03*
X0350750Y0235150D03*
X0350750Y0457150D03*
X0350750Y0460350D03*
X0248750Y0460350D03*
X0248750Y0457150D03*
X0146750Y0457150D03*
X0146750Y0460350D03*
D16*
X0121750Y0313750D03*
X0223750Y0313750D03*
X0325750Y0313750D03*
X0325750Y0091750D03*
X0223750Y0091750D03*
X0121750Y0091750D03*
D17*
X0102065Y0091750D03*
X0082380Y0091750D03*
X0184380Y0091750D03*
X0204065Y0091750D03*
X0286380Y0091750D03*
X0306065Y0091750D03*
X0306065Y0313750D03*
X0286380Y0313750D03*
X0204065Y0313750D03*
X0184380Y0313750D03*
X0102065Y0313750D03*
X0082380Y0313750D03*
D18*
X0073250Y0251750D03*
X0081750Y0241750D03*
X0086750Y0246750D03*
X0083250Y0234750D03*
X0073750Y0226750D03*
X0076250Y0199250D03*
X0066278Y0197222D03*
X0101750Y0213750D03*
X0103750Y0224750D03*
X0101750Y0233250D03*
X0103750Y0242750D03*
X0108250Y0241750D03*
X0126750Y0229750D03*
X0137750Y0238750D03*
X0134250Y0201750D03*
X0168278Y0197222D03*
X0178250Y0199250D03*
X0175750Y0226750D03*
X0185250Y0234750D03*
X0183750Y0241750D03*
X0188750Y0246750D03*
X0175250Y0251750D03*
X0203750Y0233250D03*
X0205750Y0224750D03*
X0203750Y0213750D03*
X0210250Y0241750D03*
X0205750Y0242750D03*
X0228750Y0229750D03*
X0239750Y0238750D03*
X0236250Y0201750D03*
X0270278Y0197222D03*
X0280250Y0199250D03*
X0277750Y0226750D03*
X0287250Y0234750D03*
X0285750Y0241750D03*
X0290750Y0246750D03*
X0277250Y0251750D03*
X0307750Y0242750D03*
X0312250Y0241750D03*
X0305750Y0233250D03*
X0307750Y0224750D03*
X0305750Y0213750D03*
X0330750Y0229750D03*
X0341750Y0238750D03*
X0338250Y0201750D03*
X0270278Y0419222D03*
X0280250Y0421250D03*
X0277750Y0448750D03*
X0287250Y0456750D03*
X0285750Y0463750D03*
X0290750Y0468750D03*
X0277250Y0473750D03*
X0307750Y0464750D03*
X0312250Y0463750D03*
X0305750Y0455250D03*
X0307750Y0446750D03*
X0305750Y0435750D03*
X0330750Y0451750D03*
X0341750Y0460750D03*
X0338250Y0423750D03*
X0236250Y0423750D03*
X0228750Y0451750D03*
X0239750Y0460750D03*
X0210250Y0463750D03*
X0205750Y0464750D03*
X0203750Y0455250D03*
X0205750Y0446750D03*
X0203750Y0435750D03*
X0185250Y0456750D03*
X0183750Y0463750D03*
X0188750Y0468750D03*
X0175250Y0473750D03*
X0175750Y0448750D03*
X0178250Y0421250D03*
X0168278Y0419222D03*
X0134250Y0423750D03*
X0126750Y0451750D03*
X0137750Y0460750D03*
X0108250Y0463750D03*
X0103750Y0464750D03*
X0101750Y0455250D03*
X0103750Y0446750D03*
X0101750Y0435750D03*
X0083250Y0456750D03*
X0081750Y0463750D03*
X0086750Y0468750D03*
X0073250Y0473750D03*
X0073750Y0448750D03*
X0076250Y0421250D03*
X0066278Y0419222D03*
D19*
X0066750Y0418750D01*
X0086750Y0418750D01*
X0091750Y0423750D01*
X0111750Y0423750D01*
X0125392Y0410108D01*
X0125392Y0399419D01*
X0119812Y0418750D02*
X0118759Y0419915D01*
X0118756Y0419948D01*
X0118633Y0420054D01*
X0118235Y0420494D01*
X0118142Y0420627D01*
X0118109Y0420632D01*
X0117492Y0421315D01*
X0116839Y0421348D01*
X0113650Y0424537D01*
X0112537Y0425650D01*
X0090963Y0425650D01*
X0087161Y0421848D01*
X0086548Y0421833D01*
X0085438Y0420667D01*
X0085405Y0420663D01*
X0085396Y0420650D01*
X0079249Y0420650D01*
X0079250Y0420653D01*
X0079250Y0421847D01*
X0078793Y0422949D01*
X0078150Y0423593D01*
X0078150Y0440037D01*
X0077037Y0441150D01*
X0068650Y0449537D01*
X0068650Y0450963D01*
X0069537Y0451850D01*
X0077537Y0451850D01*
X0079250Y0453563D01*
X0083350Y0449463D01*
X0083350Y0449463D01*
X0084463Y0448350D01*
X0089054Y0448350D01*
X0089254Y0448150D01*
X0081537Y0448150D01*
X0079037Y0450650D01*
X0076093Y0450650D01*
X0075449Y0451293D01*
X0074347Y0451750D01*
X0073153Y0451750D01*
X0072051Y0451293D01*
X0071207Y0450449D01*
X0070750Y0449347D01*
X0070750Y0448153D01*
X0071207Y0447051D01*
X0072051Y0446207D01*
X0073153Y0445750D01*
X0074347Y0445750D01*
X0075449Y0446207D01*
X0076093Y0446850D01*
X0077463Y0446850D01*
X0078850Y0445463D01*
X0079963Y0444350D01*
X0101907Y0444350D01*
X0102051Y0444207D01*
X0103153Y0443750D01*
X0104347Y0443750D01*
X0105449Y0444207D01*
X0106293Y0445051D01*
X0106750Y0446153D01*
X0106750Y0447347D01*
X0106293Y0448449D01*
X0105449Y0449293D01*
X0105118Y0449431D01*
X0105150Y0449463D01*
X0107537Y0451850D01*
X0109151Y0451850D01*
X0109047Y0451695D01*
X0108817Y0451140D01*
X0108700Y0450550D01*
X0108700Y0450400D01*
X0111600Y0450400D01*
X0111600Y0450100D01*
X0111900Y0450100D01*
X0111900Y0450400D01*
X0114800Y0450400D01*
X0114800Y0450550D01*
X0114683Y0451140D01*
X0114453Y0451695D01*
X0114349Y0451850D01*
X0117537Y0451850D01*
X0118650Y0452963D01*
X0122537Y0456850D01*
X0136537Y0456850D01*
X0137437Y0457750D01*
X0138063Y0457750D01*
X0118463Y0438150D01*
X0103593Y0438150D01*
X0103449Y0438293D01*
X0102347Y0438750D01*
X0101153Y0438750D01*
X0100051Y0438293D01*
X0099207Y0437449D01*
X0098750Y0436347D01*
X0098750Y0435153D01*
X0099207Y0434051D01*
X0100051Y0433207D01*
X0101153Y0432750D01*
X0102347Y0432750D01*
X0103449Y0433207D01*
X0104293Y0434051D01*
X0104417Y0434350D01*
X0120037Y0434350D01*
X0140937Y0455250D01*
X0142708Y0455250D01*
X0143608Y0454350D01*
X0149800Y0454350D01*
X0149800Y0418750D01*
X0119812Y0418750D01*
X0119435Y0419167D02*
X0149800Y0419167D01*
X0149800Y0419865D02*
X0118803Y0419865D01*
X0118186Y0420564D02*
X0149800Y0420564D01*
X0149800Y0421262D02*
X0117539Y0421262D01*
X0116226Y0421961D02*
X0149800Y0421961D01*
X0149800Y0422660D02*
X0115527Y0422660D01*
X0114829Y0423358D02*
X0149800Y0423358D01*
X0149800Y0424057D02*
X0114130Y0424057D01*
X0113432Y0424755D02*
X0149800Y0424755D01*
X0149800Y0425454D02*
X0112733Y0425454D01*
X0120221Y0434534D02*
X0149800Y0434534D01*
X0149800Y0433836D02*
X0104078Y0433836D01*
X0103281Y0433137D02*
X0149800Y0433137D01*
X0149800Y0432439D02*
X0078150Y0432439D01*
X0078150Y0433137D02*
X0100219Y0433137D01*
X0099422Y0433836D02*
X0078150Y0433836D01*
X0078150Y0434534D02*
X0099006Y0434534D01*
X0098750Y0435233D02*
X0078150Y0435233D01*
X0078150Y0435931D02*
X0098750Y0435931D01*
X0098867Y0436630D02*
X0078150Y0436630D01*
X0078150Y0437328D02*
X0099157Y0437328D01*
X0099784Y0438027D02*
X0078150Y0438027D01*
X0078150Y0438725D02*
X0101094Y0438725D01*
X0102406Y0438725D02*
X0119038Y0438725D01*
X0119737Y0439424D02*
X0078150Y0439424D01*
X0078065Y0440122D02*
X0120435Y0440122D01*
X0121134Y0440821D02*
X0077366Y0440821D01*
X0076668Y0441519D02*
X0121832Y0441519D01*
X0122531Y0442218D02*
X0075969Y0442218D01*
X0075271Y0442916D02*
X0123229Y0442916D01*
X0123928Y0443615D02*
X0074572Y0443615D01*
X0073874Y0444313D02*
X0101944Y0444313D01*
X0103250Y0446250D02*
X0103750Y0446750D01*
X0103250Y0446250D02*
X0080750Y0446250D01*
X0078250Y0448750D01*
X0073750Y0448750D01*
X0070980Y0449901D02*
X0068650Y0449901D01*
X0068650Y0450600D02*
X0071357Y0450600D01*
X0072063Y0451298D02*
X0068985Y0451298D01*
X0068984Y0449203D02*
X0070750Y0449203D01*
X0070750Y0448504D02*
X0069683Y0448504D01*
X0070381Y0447806D02*
X0070894Y0447806D01*
X0071080Y0447107D02*
X0071183Y0447107D01*
X0071778Y0446409D02*
X0071848Y0446409D01*
X0072477Y0445710D02*
X0078603Y0445710D01*
X0079301Y0445012D02*
X0073175Y0445012D01*
X0075652Y0446409D02*
X0077904Y0446409D01*
X0080484Y0449203D02*
X0083610Y0449203D01*
X0082912Y0449901D02*
X0079786Y0449901D01*
X0079087Y0450600D02*
X0082213Y0450600D01*
X0081515Y0451298D02*
X0075437Y0451298D01*
X0077684Y0451997D02*
X0080816Y0451997D01*
X0080118Y0452695D02*
X0078382Y0452695D01*
X0079081Y0453394D02*
X0079419Y0453394D01*
X0076750Y0453750D02*
X0079250Y0456250D01*
X0085250Y0450250D01*
X0091750Y0450250D01*
X0095250Y0456750D02*
X0083250Y0456750D01*
X0081750Y0458750D02*
X0079250Y0456250D01*
X0077898Y0457585D02*
X0053700Y0457585D01*
X0053700Y0456887D02*
X0077200Y0456887D01*
X0076501Y0456188D02*
X0053700Y0456188D01*
X0053700Y0455490D02*
X0067803Y0455490D01*
X0067963Y0455650D02*
X0064850Y0452537D01*
X0064850Y0447963D01*
X0065963Y0446850D01*
X0074350Y0438463D01*
X0074350Y0423593D01*
X0073707Y0422949D01*
X0073250Y0421847D01*
X0073250Y0420653D01*
X0073251Y0420650D01*
X0068933Y0420650D01*
X0068821Y0420922D01*
X0067977Y0421766D01*
X0066874Y0422222D01*
X0065681Y0422222D01*
X0064578Y0421766D01*
X0063734Y0420922D01*
X0063278Y0419819D01*
X0063278Y0418750D01*
X0053700Y0418750D01*
X0053700Y0479193D01*
X0054555Y0477712D01*
X0057054Y0475616D01*
X0060119Y0474500D01*
X0063381Y0474500D01*
X0066446Y0475616D01*
X0066446Y0475616D01*
X0068945Y0477712D01*
X0068945Y0477712D01*
X0068945Y0477712D01*
X0070576Y0480537D01*
X0070576Y0480538D01*
X0071143Y0483750D01*
X0070576Y0486962D01*
X0070576Y0486962D01*
X0068945Y0489787D01*
X0068945Y0489787D01*
X0066547Y0491800D01*
X0082724Y0491800D01*
X0082431Y0491397D01*
X0082070Y0490689D01*
X0081824Y0489933D01*
X0081700Y0489147D01*
X0081700Y0489100D01*
X0086400Y0489100D01*
X0086400Y0488400D01*
X0087100Y0488400D01*
X0087100Y0483700D01*
X0087147Y0483700D01*
X0087933Y0483824D01*
X0088689Y0484070D01*
X0089397Y0484431D01*
X0090040Y0484898D01*
X0090602Y0485460D01*
X0091069Y0486103D01*
X0091430Y0486811D01*
X0091624Y0487407D01*
X0091945Y0486632D01*
X0084850Y0479537D01*
X0084850Y0471093D01*
X0084207Y0470449D01*
X0083750Y0469347D01*
X0083750Y0468153D01*
X0084207Y0467051D01*
X0085051Y0466207D01*
X0086153Y0465750D01*
X0087347Y0465750D01*
X0088449Y0466207D01*
X0089293Y0467051D01*
X0089750Y0468153D01*
X0089750Y0469347D01*
X0089293Y0470449D01*
X0088650Y0471093D01*
X0088650Y0477963D01*
X0094632Y0483945D01*
X0095706Y0483500D01*
X0097794Y0483500D01*
X0099724Y0484299D01*
X0101201Y0485776D01*
X0101750Y0487102D01*
X0102299Y0485776D01*
X0103776Y0484299D01*
X0104850Y0483854D01*
X0104850Y0467542D01*
X0104347Y0467750D01*
X0103153Y0467750D01*
X0102051Y0467293D01*
X0101207Y0466449D01*
X0100876Y0465650D01*
X0095963Y0465650D01*
X0093398Y0463085D01*
X0092396Y0463500D01*
X0091104Y0463500D01*
X0089909Y0463005D01*
X0088995Y0462091D01*
X0088500Y0460896D01*
X0088500Y0459604D01*
X0088895Y0458650D01*
X0085593Y0458650D01*
X0084949Y0459293D01*
X0083847Y0459750D01*
X0083650Y0459750D01*
X0083650Y0461407D01*
X0084293Y0462051D01*
X0084750Y0463153D01*
X0084750Y0464347D01*
X0084293Y0465449D01*
X0083449Y0466293D01*
X0082347Y0466750D01*
X0081153Y0466750D01*
X0080051Y0466293D01*
X0079207Y0465449D01*
X0078750Y0464347D01*
X0078750Y0463153D01*
X0079207Y0462051D01*
X0079850Y0461407D01*
X0079850Y0459537D01*
X0078463Y0458150D01*
X0075963Y0455650D01*
X0067963Y0455650D01*
X0067104Y0454791D02*
X0053700Y0454791D01*
X0053700Y0454093D02*
X0066406Y0454093D01*
X0065707Y0453394D02*
X0053700Y0453394D01*
X0053700Y0452695D02*
X0065009Y0452695D01*
X0064850Y0451997D02*
X0053700Y0451997D01*
X0053700Y0451298D02*
X0064850Y0451298D01*
X0064850Y0450600D02*
X0053700Y0450600D01*
X0053700Y0449901D02*
X0064850Y0449901D01*
X0064850Y0449203D02*
X0053700Y0449203D01*
X0053700Y0448504D02*
X0064850Y0448504D01*
X0065007Y0447806D02*
X0053700Y0447806D01*
X0053700Y0447107D02*
X0065706Y0447107D01*
X0066404Y0446409D02*
X0053700Y0446409D01*
X0053700Y0445710D02*
X0067103Y0445710D01*
X0067801Y0445012D02*
X0053700Y0445012D01*
X0053700Y0444313D02*
X0068500Y0444313D01*
X0069198Y0443615D02*
X0053700Y0443615D01*
X0053700Y0442916D02*
X0069897Y0442916D01*
X0070595Y0442218D02*
X0053700Y0442218D01*
X0053700Y0441519D02*
X0071294Y0441519D01*
X0071992Y0440821D02*
X0053700Y0440821D01*
X0053700Y0440122D02*
X0072691Y0440122D01*
X0073389Y0439424D02*
X0053700Y0439424D01*
X0053700Y0438725D02*
X0074088Y0438725D01*
X0074350Y0438027D02*
X0053700Y0438027D01*
X0053700Y0437328D02*
X0074350Y0437328D01*
X0074350Y0436630D02*
X0053700Y0436630D01*
X0053700Y0435931D02*
X0074350Y0435931D01*
X0074350Y0435233D02*
X0053700Y0435233D01*
X0053700Y0434534D02*
X0074350Y0434534D01*
X0074350Y0433836D02*
X0053700Y0433836D01*
X0053700Y0433137D02*
X0074350Y0433137D01*
X0074350Y0432439D02*
X0053700Y0432439D01*
X0053700Y0431740D02*
X0074350Y0431740D01*
X0074350Y0431042D02*
X0053700Y0431042D01*
X0053700Y0430343D02*
X0074350Y0430343D01*
X0074350Y0429645D02*
X0053700Y0429645D01*
X0053700Y0428946D02*
X0074350Y0428946D01*
X0074350Y0428248D02*
X0053700Y0428248D01*
X0053700Y0427549D02*
X0074350Y0427549D01*
X0074350Y0426851D02*
X0053700Y0426851D01*
X0053700Y0426152D02*
X0074350Y0426152D01*
X0074350Y0425454D02*
X0053700Y0425454D01*
X0053700Y0424755D02*
X0074350Y0424755D01*
X0074350Y0424057D02*
X0053700Y0424057D01*
X0053700Y0423358D02*
X0074115Y0423358D01*
X0073587Y0422660D02*
X0053700Y0422660D01*
X0053700Y0421961D02*
X0065050Y0421961D01*
X0064075Y0421262D02*
X0053700Y0421262D01*
X0053700Y0420564D02*
X0063586Y0420564D01*
X0063297Y0419865D02*
X0053700Y0419865D01*
X0053700Y0419167D02*
X0063278Y0419167D01*
X0067505Y0421961D02*
X0073297Y0421961D01*
X0073250Y0421262D02*
X0068480Y0421262D01*
X0076250Y0421250D02*
X0076250Y0439250D01*
X0066750Y0448750D01*
X0066750Y0451750D01*
X0068750Y0453750D01*
X0076750Y0453750D01*
X0078597Y0458284D02*
X0053700Y0458284D01*
X0053700Y0458982D02*
X0079295Y0458982D01*
X0079850Y0459681D02*
X0053700Y0459681D01*
X0053700Y0460379D02*
X0079850Y0460379D01*
X0079850Y0461078D02*
X0053700Y0461078D01*
X0053700Y0461776D02*
X0079481Y0461776D01*
X0079031Y0462475D02*
X0053700Y0462475D01*
X0053700Y0463173D02*
X0078750Y0463173D01*
X0078750Y0463872D02*
X0053700Y0463872D01*
X0053700Y0464570D02*
X0078843Y0464570D01*
X0079132Y0465269D02*
X0053700Y0465269D01*
X0053700Y0465967D02*
X0079725Y0465967D01*
X0080950Y0466666D02*
X0053700Y0466666D01*
X0053700Y0467364D02*
X0084077Y0467364D01*
X0083787Y0468063D02*
X0053700Y0468063D01*
X0053700Y0468761D02*
X0083750Y0468761D01*
X0083797Y0469460D02*
X0053700Y0469460D01*
X0053700Y0470158D02*
X0084086Y0470158D01*
X0084614Y0470857D02*
X0053700Y0470857D01*
X0053700Y0471555D02*
X0084850Y0471555D01*
X0084850Y0472254D02*
X0053700Y0472254D01*
X0053700Y0472952D02*
X0084850Y0472952D01*
X0084850Y0473651D02*
X0053700Y0473651D01*
X0053700Y0474349D02*
X0084850Y0474349D01*
X0084850Y0475048D02*
X0064886Y0475048D01*
X0066602Y0475746D02*
X0084850Y0475746D01*
X0084850Y0476445D02*
X0067435Y0476445D01*
X0068267Y0477143D02*
X0084850Y0477143D01*
X0084850Y0477842D02*
X0069020Y0477842D01*
X0069423Y0478540D02*
X0084850Y0478540D01*
X0084850Y0479239D02*
X0069826Y0479239D01*
X0070230Y0479937D02*
X0085250Y0479937D01*
X0085949Y0480636D02*
X0070594Y0480636D01*
X0070717Y0481334D02*
X0086647Y0481334D01*
X0087346Y0482033D02*
X0070840Y0482033D01*
X0070963Y0482731D02*
X0088045Y0482731D01*
X0088743Y0483430D02*
X0071086Y0483430D01*
X0071143Y0483750D02*
X0071143Y0483750D01*
X0071076Y0484129D02*
X0084697Y0484129D01*
X0084811Y0484070D02*
X0085567Y0483824D01*
X0086353Y0483700D01*
X0086400Y0483700D01*
X0086400Y0488400D01*
X0081700Y0488400D01*
X0081700Y0488353D01*
X0081824Y0487567D01*
X0082070Y0486811D01*
X0082431Y0486103D01*
X0082898Y0485460D01*
X0083460Y0484898D01*
X0084103Y0484431D01*
X0084811Y0484070D01*
X0083558Y0484827D02*
X0070953Y0484827D01*
X0070830Y0485526D02*
X0082851Y0485526D01*
X0082369Y0486224D02*
X0070706Y0486224D01*
X0070583Y0486923D02*
X0082034Y0486923D01*
X0081816Y0487621D02*
X0070196Y0487621D01*
X0069793Y0488320D02*
X0081705Y0488320D01*
X0081790Y0489717D02*
X0068986Y0489717D01*
X0069389Y0489018D02*
X0086400Y0489018D01*
X0086400Y0488320D02*
X0087100Y0488320D01*
X0087100Y0487621D02*
X0086400Y0487621D01*
X0086400Y0486923D02*
X0087100Y0486923D01*
X0087100Y0486224D02*
X0086400Y0486224D01*
X0086400Y0485526D02*
X0087100Y0485526D01*
X0087100Y0484827D02*
X0086400Y0484827D01*
X0086400Y0484129D02*
X0087100Y0484129D01*
X0088803Y0484129D02*
X0089442Y0484129D01*
X0089942Y0484827D02*
X0090140Y0484827D01*
X0090649Y0485526D02*
X0090839Y0485526D01*
X0091131Y0486224D02*
X0091537Y0486224D01*
X0091466Y0486923D02*
X0091824Y0486923D01*
X0094117Y0483430D02*
X0104850Y0483430D01*
X0104850Y0482731D02*
X0093418Y0482731D01*
X0092720Y0482033D02*
X0104850Y0482033D01*
X0104850Y0481334D02*
X0092021Y0481334D01*
X0091323Y0480636D02*
X0104850Y0480636D01*
X0104850Y0479937D02*
X0090624Y0479937D01*
X0089926Y0479239D02*
X0104850Y0479239D01*
X0104850Y0478540D02*
X0089227Y0478540D01*
X0088650Y0477842D02*
X0104850Y0477842D01*
X0104850Y0477143D02*
X0088650Y0477143D01*
X0088650Y0476445D02*
X0104850Y0476445D01*
X0104850Y0475746D02*
X0088650Y0475746D01*
X0088650Y0475048D02*
X0104850Y0475048D01*
X0104850Y0474349D02*
X0088650Y0474349D01*
X0088650Y0473651D02*
X0104850Y0473651D01*
X0104850Y0472952D02*
X0088650Y0472952D01*
X0088650Y0472254D02*
X0104850Y0472254D01*
X0104850Y0471555D02*
X0088650Y0471555D01*
X0088886Y0470857D02*
X0104850Y0470857D01*
X0104850Y0470158D02*
X0089414Y0470158D01*
X0089703Y0469460D02*
X0104850Y0469460D01*
X0104850Y0468761D02*
X0089750Y0468761D01*
X0089712Y0468063D02*
X0104850Y0468063D01*
X0102222Y0467364D02*
X0089423Y0467364D01*
X0088908Y0466666D02*
X0101423Y0466666D01*
X0101007Y0465967D02*
X0087871Y0465967D01*
X0085629Y0465967D02*
X0083775Y0465967D01*
X0084368Y0465269D02*
X0095582Y0465269D01*
X0094883Y0464570D02*
X0084657Y0464570D01*
X0084750Y0463872D02*
X0094185Y0463872D01*
X0093486Y0463173D02*
X0093185Y0463173D01*
X0090315Y0463173D02*
X0084750Y0463173D01*
X0084469Y0462475D02*
X0089378Y0462475D01*
X0088864Y0461776D02*
X0084019Y0461776D01*
X0083650Y0461078D02*
X0088575Y0461078D01*
X0088500Y0460379D02*
X0083650Y0460379D01*
X0084014Y0459681D02*
X0088500Y0459681D01*
X0088757Y0458982D02*
X0085261Y0458982D01*
X0081750Y0458750D02*
X0081750Y0463750D01*
X0082550Y0466666D02*
X0084592Y0466666D01*
X0086750Y0468750D02*
X0086750Y0478750D01*
X0096750Y0488750D01*
X0101676Y0486923D02*
X0101824Y0486923D01*
X0102114Y0486224D02*
X0101386Y0486224D01*
X0100950Y0485526D02*
X0102550Y0485526D01*
X0103248Y0484827D02*
X0100252Y0484827D01*
X0099312Y0484129D02*
X0104188Y0484129D01*
X0108650Y0483854D02*
X0109724Y0484299D01*
X0111201Y0485776D01*
X0111750Y0487102D01*
X0112299Y0485776D01*
X0113776Y0484299D01*
X0115706Y0483500D01*
X0117794Y0483500D01*
X0119724Y0484299D01*
X0121201Y0485776D01*
X0122000Y0487706D01*
X0122000Y0489794D01*
X0121201Y0491724D01*
X0121125Y0491800D01*
X0136953Y0491800D01*
X0134555Y0489787D01*
X0132924Y0486962D01*
X0132357Y0483750D01*
X0132924Y0480538D01*
X0132924Y0480537D01*
X0134555Y0477712D01*
X0137054Y0475616D01*
X0140119Y0474500D01*
X0143381Y0474500D01*
X0146446Y0475616D01*
X0146446Y0475616D01*
X0148945Y0477712D01*
X0148945Y0477712D01*
X0148945Y0477712D01*
X0149800Y0479193D01*
X0149800Y0462841D01*
X0149771Y0462858D01*
X0149428Y0462950D01*
X0147025Y0462950D01*
X0147025Y0460625D01*
X0146475Y0460625D01*
X0146475Y0462950D01*
X0144072Y0462950D01*
X0143729Y0462858D01*
X0143421Y0462680D01*
X0143170Y0462429D01*
X0142992Y0462121D01*
X0142900Y0461778D01*
X0142900Y0460625D01*
X0146475Y0460625D01*
X0146475Y0460075D01*
X0142900Y0460075D01*
X0142900Y0459242D01*
X0142708Y0459050D01*
X0140293Y0459050D01*
X0140293Y0459051D01*
X0140750Y0460153D01*
X0140750Y0461347D01*
X0140293Y0462449D01*
X0139449Y0463293D01*
X0138347Y0463750D01*
X0137153Y0463750D01*
X0136051Y0463293D01*
X0135207Y0462449D01*
X0134750Y0461347D01*
X0134750Y0460650D01*
X0120963Y0460650D01*
X0115963Y0455650D01*
X0106337Y0455650D01*
X0109037Y0458350D01*
X0109054Y0458350D01*
X0109909Y0457495D01*
X0111104Y0457000D01*
X0112396Y0457000D01*
X0113591Y0457495D01*
X0114505Y0458409D01*
X0115000Y0459604D01*
X0115000Y0460896D01*
X0114505Y0462091D01*
X0113591Y0463005D01*
X0112396Y0463500D01*
X0111250Y0463500D01*
X0111250Y0464347D01*
X0110793Y0465449D01*
X0109949Y0466293D01*
X0108847Y0466750D01*
X0108650Y0466750D01*
X0108650Y0483854D01*
X0108650Y0483430D02*
X0132414Y0483430D01*
X0132357Y0483750D02*
X0132357Y0483750D01*
X0132424Y0484129D02*
X0119312Y0484129D01*
X0120252Y0484827D02*
X0132547Y0484827D01*
X0132670Y0485526D02*
X0120950Y0485526D01*
X0121386Y0486224D02*
X0132794Y0486224D01*
X0132917Y0486923D02*
X0121676Y0486923D01*
X0121965Y0487621D02*
X0133304Y0487621D01*
X0132924Y0486962D02*
X0132924Y0486962D01*
X0133707Y0488320D02*
X0122000Y0488320D01*
X0122000Y0489018D02*
X0134111Y0489018D01*
X0134514Y0489717D02*
X0122000Y0489717D01*
X0121743Y0490415D02*
X0135303Y0490415D01*
X0134555Y0489787D02*
X0134555Y0489787D01*
X0134555Y0489787D01*
X0136135Y0491114D02*
X0121454Y0491114D01*
X0114188Y0484129D02*
X0109312Y0484129D01*
X0110252Y0484827D02*
X0113248Y0484827D01*
X0112550Y0485526D02*
X0110950Y0485526D01*
X0111386Y0486224D02*
X0112114Y0486224D01*
X0111824Y0486923D02*
X0111676Y0486923D01*
X0108650Y0482731D02*
X0132537Y0482731D01*
X0132660Y0482033D02*
X0108650Y0482033D01*
X0108650Y0481334D02*
X0132783Y0481334D01*
X0132906Y0480636D02*
X0108650Y0480636D01*
X0108650Y0479937D02*
X0133270Y0479937D01*
X0133673Y0479239D02*
X0108650Y0479239D01*
X0108650Y0478540D02*
X0134077Y0478540D01*
X0134480Y0477842D02*
X0108650Y0477842D01*
X0108650Y0477143D02*
X0135233Y0477143D01*
X0134555Y0477712D02*
X0134555Y0477712D01*
X0136065Y0476445D02*
X0108650Y0476445D01*
X0108650Y0475746D02*
X0136898Y0475746D01*
X0137054Y0475616D02*
X0137054Y0475616D01*
X0138614Y0475048D02*
X0108650Y0475048D01*
X0108650Y0474349D02*
X0149800Y0474349D01*
X0149800Y0473651D02*
X0108650Y0473651D01*
X0108650Y0472952D02*
X0149800Y0472952D01*
X0149800Y0472254D02*
X0108650Y0472254D01*
X0108650Y0471555D02*
X0149800Y0471555D01*
X0149800Y0470857D02*
X0108650Y0470857D01*
X0108650Y0470158D02*
X0149800Y0470158D01*
X0149800Y0469460D02*
X0108650Y0469460D01*
X0108650Y0468761D02*
X0149800Y0468761D01*
X0149800Y0468063D02*
X0108650Y0468063D01*
X0108650Y0467364D02*
X0149800Y0467364D01*
X0149800Y0466666D02*
X0109050Y0466666D01*
X0110275Y0465967D02*
X0149800Y0465967D01*
X0149800Y0465269D02*
X0110868Y0465269D01*
X0111157Y0464570D02*
X0149800Y0464570D01*
X0149800Y0463872D02*
X0111250Y0463872D01*
X0113185Y0463173D02*
X0135931Y0463173D01*
X0135232Y0462475D02*
X0114122Y0462475D01*
X0114636Y0461776D02*
X0134928Y0461776D01*
X0134750Y0461078D02*
X0114925Y0461078D01*
X0115000Y0460379D02*
X0120692Y0460379D01*
X0119994Y0459681D02*
X0115000Y0459681D01*
X0114743Y0458982D02*
X0119295Y0458982D01*
X0118597Y0458284D02*
X0114380Y0458284D01*
X0113681Y0457585D02*
X0117898Y0457585D01*
X0117200Y0456887D02*
X0107574Y0456887D01*
X0108272Y0457585D02*
X0109819Y0457585D01*
X0109120Y0458284D02*
X0108971Y0458284D01*
X0108250Y0460250D02*
X0103250Y0455250D01*
X0101750Y0455250D01*
X0101750Y0450250D02*
X0095250Y0456750D01*
X0093250Y0460250D02*
X0091750Y0460250D01*
X0093250Y0460250D02*
X0096750Y0463750D01*
X0102750Y0463750D01*
X0103750Y0464750D01*
X0106750Y0465250D02*
X0108250Y0463750D01*
X0106750Y0465250D02*
X0106750Y0488750D01*
X0082287Y0491114D02*
X0067365Y0491114D01*
X0068197Y0490415D02*
X0081981Y0490415D01*
X0058614Y0475048D02*
X0053700Y0475048D01*
X0053700Y0475746D02*
X0056898Y0475746D01*
X0057054Y0475616D02*
X0057054Y0475616D01*
X0056065Y0476445D02*
X0053700Y0476445D01*
X0053700Y0477143D02*
X0055233Y0477143D01*
X0054555Y0477712D02*
X0054555Y0477712D01*
X0054480Y0477842D02*
X0053700Y0477842D01*
X0053700Y0478540D02*
X0054077Y0478540D01*
X0081183Y0448504D02*
X0084309Y0448504D01*
X0101750Y0450250D02*
X0103250Y0450250D01*
X0106750Y0453750D01*
X0116750Y0453750D01*
X0121750Y0458750D01*
X0135750Y0458750D01*
X0137750Y0460750D01*
X0140554Y0459681D02*
X0142900Y0459681D01*
X0142900Y0461078D02*
X0140750Y0461078D01*
X0140750Y0460379D02*
X0146475Y0460379D01*
X0146475Y0461078D02*
X0147025Y0461078D01*
X0147025Y0461776D02*
X0146475Y0461776D01*
X0146475Y0462475D02*
X0147025Y0462475D01*
X0149800Y0463173D02*
X0139569Y0463173D01*
X0140268Y0462475D02*
X0143215Y0462475D01*
X0142900Y0461776D02*
X0140572Y0461776D01*
X0140150Y0457150D02*
X0119250Y0436250D01*
X0102250Y0436250D01*
X0101750Y0435750D01*
X0105556Y0444313D02*
X0124626Y0444313D01*
X0125325Y0445012D02*
X0106255Y0445012D01*
X0106567Y0445710D02*
X0126023Y0445710D01*
X0126722Y0446409D02*
X0106750Y0446409D01*
X0106750Y0447107D02*
X0127420Y0447107D01*
X0128119Y0447806D02*
X0113582Y0447806D01*
X0113694Y0447881D02*
X0114119Y0448306D01*
X0114453Y0448805D01*
X0114683Y0449360D01*
X0114800Y0449950D01*
X0114800Y0450100D01*
X0111900Y0450100D01*
X0111900Y0447200D01*
X0112050Y0447200D01*
X0112640Y0447317D01*
X0113195Y0447547D01*
X0113694Y0447881D01*
X0114252Y0448504D02*
X0128817Y0448504D01*
X0129516Y0449203D02*
X0114618Y0449203D01*
X0114790Y0449901D02*
X0130214Y0449901D01*
X0130913Y0450600D02*
X0114790Y0450600D01*
X0114617Y0451298D02*
X0131611Y0451298D01*
X0132310Y0451997D02*
X0117684Y0451997D01*
X0118382Y0452695D02*
X0133009Y0452695D01*
X0133707Y0453394D02*
X0119081Y0453394D01*
X0119780Y0454093D02*
X0134406Y0454093D01*
X0135104Y0454791D02*
X0120478Y0454791D01*
X0121177Y0455490D02*
X0135803Y0455490D01*
X0136501Y0456188D02*
X0121875Y0456188D01*
X0124750Y0451750D02*
X0126750Y0451750D01*
X0124750Y0451750D02*
X0121750Y0448750D01*
X0127905Y0442218D02*
X0149800Y0442218D01*
X0149800Y0442916D02*
X0128603Y0442916D01*
X0129302Y0443615D02*
X0149800Y0443615D01*
X0149800Y0444313D02*
X0130000Y0444313D01*
X0130699Y0445012D02*
X0149800Y0445012D01*
X0149800Y0445710D02*
X0131397Y0445710D01*
X0132096Y0446409D02*
X0149800Y0446409D01*
X0149800Y0447107D02*
X0132794Y0447107D01*
X0133493Y0447806D02*
X0149800Y0447806D01*
X0149800Y0448504D02*
X0134191Y0448504D01*
X0134890Y0449203D02*
X0149800Y0449203D01*
X0149800Y0449901D02*
X0135588Y0449901D01*
X0136287Y0450600D02*
X0149800Y0450600D01*
X0149800Y0451298D02*
X0136985Y0451298D01*
X0137684Y0451997D02*
X0149800Y0451997D01*
X0149800Y0452695D02*
X0138382Y0452695D01*
X0139081Y0453394D02*
X0149800Y0453394D01*
X0149800Y0454093D02*
X0139780Y0454093D01*
X0140478Y0454791D02*
X0143167Y0454791D01*
X0140150Y0457150D02*
X0146750Y0457150D01*
X0137898Y0457585D02*
X0137272Y0457585D01*
X0137200Y0456887D02*
X0136574Y0456887D01*
X0127206Y0441519D02*
X0149800Y0441519D01*
X0149800Y0440821D02*
X0126508Y0440821D01*
X0125809Y0440122D02*
X0149800Y0440122D01*
X0149800Y0439424D02*
X0125111Y0439424D01*
X0124412Y0438725D02*
X0149800Y0438725D01*
X0149800Y0438027D02*
X0123714Y0438027D01*
X0123015Y0437328D02*
X0149800Y0437328D01*
X0149800Y0436630D02*
X0122317Y0436630D01*
X0121618Y0435931D02*
X0149800Y0435931D01*
X0149800Y0435233D02*
X0120920Y0435233D01*
X0111600Y0447200D02*
X0111600Y0450100D01*
X0108700Y0450100D01*
X0108700Y0449950D01*
X0108817Y0449360D01*
X0109047Y0448805D01*
X0109381Y0448306D01*
X0109806Y0447881D01*
X0110305Y0447547D01*
X0110860Y0447317D01*
X0111450Y0447200D01*
X0111600Y0447200D01*
X0111600Y0447806D02*
X0111900Y0447806D01*
X0111900Y0448504D02*
X0111600Y0448504D01*
X0111600Y0449203D02*
X0111900Y0449203D01*
X0111900Y0449901D02*
X0111600Y0449901D01*
X0109918Y0447806D02*
X0106560Y0447806D01*
X0106238Y0448504D02*
X0109248Y0448504D01*
X0108882Y0449203D02*
X0105540Y0449203D01*
X0105588Y0449901D02*
X0108710Y0449901D01*
X0108710Y0450600D02*
X0106287Y0450600D01*
X0106985Y0451298D02*
X0108883Y0451298D01*
X0106875Y0456188D02*
X0116501Y0456188D01*
X0111750Y0460250D02*
X0108250Y0460250D01*
X0090767Y0425454D02*
X0078150Y0425454D01*
X0078150Y0426152D02*
X0149800Y0426152D01*
X0149800Y0426851D02*
X0078150Y0426851D01*
X0078150Y0427549D02*
X0149800Y0427549D01*
X0149800Y0428248D02*
X0078150Y0428248D01*
X0078150Y0428946D02*
X0149800Y0428946D01*
X0149800Y0429645D02*
X0078150Y0429645D01*
X0078150Y0430343D02*
X0149800Y0430343D01*
X0149800Y0431042D02*
X0078150Y0431042D01*
X0078150Y0431740D02*
X0149800Y0431740D01*
X0155700Y0431740D02*
X0176350Y0431740D01*
X0176350Y0431042D02*
X0155700Y0431042D01*
X0155700Y0430343D02*
X0176350Y0430343D01*
X0176350Y0429645D02*
X0155700Y0429645D01*
X0155700Y0428946D02*
X0176350Y0428946D01*
X0176350Y0428248D02*
X0155700Y0428248D01*
X0155700Y0427549D02*
X0176350Y0427549D01*
X0176350Y0426851D02*
X0155700Y0426851D01*
X0155700Y0426152D02*
X0176350Y0426152D01*
X0176350Y0425454D02*
X0155700Y0425454D01*
X0155700Y0424755D02*
X0176350Y0424755D01*
X0176350Y0424057D02*
X0155700Y0424057D01*
X0155700Y0423358D02*
X0176115Y0423358D01*
X0176350Y0423593D02*
X0175707Y0422949D01*
X0175250Y0421847D01*
X0175250Y0420653D01*
X0175251Y0420650D01*
X0170933Y0420650D01*
X0170821Y0420922D01*
X0169977Y0421766D01*
X0168874Y0422222D01*
X0167681Y0422222D01*
X0166578Y0421766D01*
X0165734Y0420922D01*
X0165278Y0419819D01*
X0165278Y0418750D01*
X0155700Y0418750D01*
X0155700Y0479193D01*
X0156555Y0477712D01*
X0159054Y0475616D01*
X0162119Y0474500D01*
X0165381Y0474500D01*
X0168446Y0475616D01*
X0168446Y0475616D01*
X0170945Y0477712D01*
X0170945Y0477712D01*
X0170945Y0477712D01*
X0172576Y0480537D01*
X0172576Y0480538D01*
X0173143Y0483750D01*
X0172576Y0486962D01*
X0172576Y0486962D01*
X0170945Y0489787D01*
X0170945Y0489787D01*
X0168547Y0491800D01*
X0184724Y0491800D01*
X0184431Y0491397D01*
X0184070Y0490689D01*
X0183824Y0489933D01*
X0183700Y0489147D01*
X0183700Y0489100D01*
X0188400Y0489100D01*
X0188400Y0488400D01*
X0189100Y0488400D01*
X0189100Y0483700D01*
X0189147Y0483700D01*
X0189933Y0483824D01*
X0190689Y0484070D01*
X0191397Y0484431D01*
X0192040Y0484898D01*
X0192602Y0485460D01*
X0193069Y0486103D01*
X0193430Y0486811D01*
X0193624Y0487407D01*
X0193945Y0486632D01*
X0187963Y0480650D01*
X0186850Y0479537D01*
X0186850Y0471093D01*
X0186207Y0470449D01*
X0185750Y0469347D01*
X0185750Y0468153D01*
X0186207Y0467051D01*
X0187051Y0466207D01*
X0188153Y0465750D01*
X0189347Y0465750D01*
X0190449Y0466207D01*
X0191293Y0467051D01*
X0191750Y0468153D01*
X0191750Y0469347D01*
X0191293Y0470449D01*
X0190650Y0471093D01*
X0190650Y0477963D01*
X0196632Y0483945D01*
X0197706Y0483500D01*
X0199794Y0483500D01*
X0201724Y0484299D01*
X0203201Y0485776D01*
X0203750Y0487102D01*
X0204037Y0486408D01*
X0203779Y0484353D01*
X0203687Y0484262D01*
X0203687Y0483627D01*
X0203608Y0482997D01*
X0203687Y0482895D01*
X0203687Y0482766D01*
X0204136Y0482317D01*
X0204525Y0481815D01*
X0204654Y0481799D01*
X0204745Y0481708D01*
X0204944Y0481708D01*
X0204944Y0467663D01*
X0204051Y0467293D01*
X0203207Y0466449D01*
X0202876Y0465650D01*
X0197963Y0465650D01*
X0195398Y0463085D01*
X0194396Y0463500D01*
X0193104Y0463500D01*
X0191909Y0463005D01*
X0190995Y0462091D01*
X0190500Y0460896D01*
X0190500Y0459604D01*
X0190895Y0458650D01*
X0187593Y0458650D01*
X0186949Y0459293D01*
X0185847Y0459750D01*
X0185650Y0459750D01*
X0185650Y0461407D01*
X0186293Y0462051D01*
X0186750Y0463153D01*
X0186750Y0464347D01*
X0186293Y0465449D01*
X0185449Y0466293D01*
X0184347Y0466750D01*
X0183153Y0466750D01*
X0182051Y0466293D01*
X0181207Y0465449D01*
X0180750Y0464347D01*
X0180750Y0463153D01*
X0181207Y0462051D01*
X0181850Y0461407D01*
X0181850Y0459537D01*
X0180463Y0458150D01*
X0179350Y0457037D01*
X0177963Y0455650D01*
X0169963Y0455650D01*
X0166850Y0452537D01*
X0166850Y0447963D01*
X0167963Y0446850D01*
X0176350Y0438463D01*
X0176350Y0423593D01*
X0175587Y0422660D02*
X0155700Y0422660D01*
X0155700Y0421961D02*
X0167050Y0421961D01*
X0166075Y0421262D02*
X0155700Y0421262D01*
X0155700Y0420564D02*
X0165586Y0420564D01*
X0165297Y0419865D02*
X0155700Y0419865D01*
X0155700Y0419167D02*
X0165278Y0419167D01*
X0168278Y0419222D02*
X0168750Y0418750D01*
X0188750Y0418750D01*
X0193750Y0423750D01*
X0213750Y0423750D01*
X0227392Y0410108D01*
X0227392Y0399419D01*
X0221812Y0418750D02*
X0220759Y0419915D01*
X0220756Y0419948D01*
X0220633Y0420054D01*
X0220235Y0420494D01*
X0220142Y0420627D01*
X0220109Y0420632D01*
X0219492Y0421315D01*
X0218839Y0421348D01*
X0215650Y0424537D01*
X0214537Y0425650D01*
X0208556Y0425650D01*
X0208556Y0434350D01*
X0222037Y0434350D01*
X0242937Y0455250D01*
X0244708Y0455250D01*
X0245608Y0454350D01*
X0251800Y0454350D01*
X0251800Y0418750D01*
X0221812Y0418750D01*
X0221435Y0419167D02*
X0251800Y0419167D01*
X0251800Y0419865D02*
X0220803Y0419865D01*
X0220186Y0420564D02*
X0251800Y0420564D01*
X0251800Y0421262D02*
X0219539Y0421262D01*
X0218226Y0421961D02*
X0251800Y0421961D01*
X0251800Y0422660D02*
X0217527Y0422660D01*
X0216829Y0423358D02*
X0251800Y0423358D01*
X0251800Y0424057D02*
X0216130Y0424057D01*
X0215432Y0424755D02*
X0251800Y0424755D01*
X0251800Y0425454D02*
X0214733Y0425454D01*
X0208556Y0426152D02*
X0251800Y0426152D01*
X0251800Y0426851D02*
X0208556Y0426851D01*
X0208556Y0427549D02*
X0251800Y0427549D01*
X0251800Y0428248D02*
X0208556Y0428248D01*
X0208556Y0428946D02*
X0251800Y0428946D01*
X0251800Y0429645D02*
X0208556Y0429645D01*
X0208556Y0430343D02*
X0251800Y0430343D01*
X0251800Y0431042D02*
X0208556Y0431042D01*
X0208556Y0431740D02*
X0251800Y0431740D01*
X0251800Y0432439D02*
X0208556Y0432439D01*
X0208556Y0433137D02*
X0251800Y0433137D01*
X0251800Y0433836D02*
X0208556Y0433836D01*
X0204944Y0432997D02*
X0204944Y0425650D01*
X0192963Y0425650D01*
X0189161Y0421848D01*
X0188548Y0421833D01*
X0187438Y0420667D01*
X0187405Y0420663D01*
X0187396Y0420650D01*
X0181249Y0420650D01*
X0181250Y0420653D01*
X0181250Y0421847D01*
X0180793Y0422949D01*
X0180150Y0423593D01*
X0180150Y0440037D01*
X0179037Y0441150D01*
X0170650Y0449537D01*
X0170650Y0450963D01*
X0171537Y0451850D01*
X0179537Y0451850D01*
X0181250Y0453563D01*
X0186463Y0448350D01*
X0188037Y0448350D01*
X0191054Y0448350D01*
X0191254Y0448150D01*
X0183537Y0448150D01*
X0181037Y0450650D01*
X0178093Y0450650D01*
X0177449Y0451293D01*
X0176347Y0451750D01*
X0175153Y0451750D01*
X0174051Y0451293D01*
X0173207Y0450449D01*
X0172750Y0449347D01*
X0172750Y0448153D01*
X0173207Y0447051D01*
X0174051Y0446207D01*
X0175153Y0445750D01*
X0176347Y0445750D01*
X0177449Y0446207D01*
X0178093Y0446850D01*
X0179463Y0446850D01*
X0180850Y0445463D01*
X0181963Y0444350D01*
X0203907Y0444350D01*
X0204051Y0444207D01*
X0204944Y0443837D01*
X0204944Y0438503D01*
X0204347Y0438750D01*
X0203153Y0438750D01*
X0202051Y0438293D01*
X0201207Y0437449D01*
X0200750Y0436347D01*
X0200750Y0435153D01*
X0201207Y0434051D01*
X0202051Y0433207D01*
X0203153Y0432750D01*
X0204347Y0432750D01*
X0204944Y0432997D01*
X0204944Y0432439D02*
X0180150Y0432439D01*
X0180150Y0433137D02*
X0202219Y0433137D01*
X0201422Y0433836D02*
X0180150Y0433836D01*
X0180150Y0434534D02*
X0201006Y0434534D01*
X0200750Y0435233D02*
X0180150Y0435233D01*
X0180150Y0435931D02*
X0200750Y0435931D01*
X0200867Y0436630D02*
X0180150Y0436630D01*
X0180150Y0437328D02*
X0201157Y0437328D01*
X0201784Y0438027D02*
X0180150Y0438027D01*
X0180150Y0438725D02*
X0203094Y0438725D01*
X0204406Y0438725D02*
X0204944Y0438725D01*
X0204944Y0439424D02*
X0180150Y0439424D01*
X0180065Y0440122D02*
X0204944Y0440122D01*
X0204944Y0440821D02*
X0179366Y0440821D01*
X0178668Y0441519D02*
X0204944Y0441519D01*
X0204944Y0442218D02*
X0177969Y0442218D01*
X0177271Y0442916D02*
X0204944Y0442916D01*
X0204944Y0443615D02*
X0176572Y0443615D01*
X0175874Y0444313D02*
X0203944Y0444313D01*
X0205250Y0446250D02*
X0205750Y0446750D01*
X0205250Y0446250D02*
X0182750Y0446250D01*
X0180250Y0448750D01*
X0175750Y0448750D01*
X0172980Y0449901D02*
X0170650Y0449901D01*
X0170650Y0450600D02*
X0173357Y0450600D01*
X0174063Y0451298D02*
X0170985Y0451298D01*
X0170984Y0449203D02*
X0172750Y0449203D01*
X0172750Y0448504D02*
X0171683Y0448504D01*
X0172381Y0447806D02*
X0172894Y0447806D01*
X0173080Y0447107D02*
X0173183Y0447107D01*
X0173778Y0446409D02*
X0173848Y0446409D01*
X0174477Y0445710D02*
X0180603Y0445710D01*
X0181301Y0445012D02*
X0175175Y0445012D01*
X0177652Y0446409D02*
X0179904Y0446409D01*
X0182484Y0449203D02*
X0185610Y0449203D01*
X0184912Y0449901D02*
X0181786Y0449901D01*
X0181087Y0450600D02*
X0184213Y0450600D01*
X0183515Y0451298D02*
X0177437Y0451298D01*
X0179684Y0451997D02*
X0182816Y0451997D01*
X0182117Y0452695D02*
X0180382Y0452695D01*
X0181081Y0453394D02*
X0181419Y0453394D01*
X0178750Y0453750D02*
X0181250Y0456250D01*
X0187250Y0450250D01*
X0193750Y0450250D01*
X0197250Y0456750D02*
X0185250Y0456750D01*
X0183750Y0458750D02*
X0183750Y0463750D01*
X0186750Y0463872D02*
X0196185Y0463872D01*
X0196883Y0464570D02*
X0186657Y0464570D01*
X0186368Y0465269D02*
X0197582Y0465269D01*
X0198750Y0463750D02*
X0195250Y0460250D01*
X0193750Y0460250D01*
X0190757Y0458982D02*
X0187261Y0458982D01*
X0186014Y0459681D02*
X0190500Y0459681D01*
X0190500Y0460379D02*
X0185650Y0460379D01*
X0185650Y0461078D02*
X0190575Y0461078D01*
X0190864Y0461776D02*
X0186019Y0461776D01*
X0186469Y0462475D02*
X0191378Y0462475D01*
X0192315Y0463173D02*
X0186750Y0463173D01*
X0187629Y0465967D02*
X0185775Y0465967D01*
X0186592Y0466666D02*
X0184550Y0466666D01*
X0182950Y0466666D02*
X0155700Y0466666D01*
X0155700Y0467364D02*
X0186077Y0467364D01*
X0185787Y0468063D02*
X0155700Y0468063D01*
X0155700Y0468761D02*
X0185750Y0468761D01*
X0185797Y0469460D02*
X0155700Y0469460D01*
X0155700Y0470158D02*
X0186086Y0470158D01*
X0186614Y0470857D02*
X0155700Y0470857D01*
X0155700Y0471555D02*
X0186850Y0471555D01*
X0186850Y0472254D02*
X0155700Y0472254D01*
X0155700Y0472952D02*
X0186850Y0472952D01*
X0186850Y0473651D02*
X0155700Y0473651D01*
X0155700Y0474349D02*
X0186850Y0474349D01*
X0186850Y0475048D02*
X0166886Y0475048D01*
X0168602Y0475746D02*
X0186850Y0475746D01*
X0186850Y0476445D02*
X0169435Y0476445D01*
X0170267Y0477143D02*
X0186850Y0477143D01*
X0186850Y0477842D02*
X0171020Y0477842D01*
X0171423Y0478540D02*
X0186850Y0478540D01*
X0186850Y0479239D02*
X0171826Y0479239D01*
X0172230Y0479937D02*
X0187250Y0479937D01*
X0187949Y0480636D02*
X0172594Y0480636D01*
X0172717Y0481334D02*
X0188647Y0481334D01*
X0187963Y0480650D02*
X0187963Y0480650D01*
X0189346Y0482033D02*
X0172840Y0482033D01*
X0172963Y0482731D02*
X0190045Y0482731D01*
X0190743Y0483430D02*
X0173086Y0483430D01*
X0173143Y0483750D02*
X0173143Y0483750D01*
X0173076Y0484129D02*
X0186697Y0484129D01*
X0186811Y0484070D02*
X0187567Y0483824D01*
X0188353Y0483700D01*
X0188400Y0483700D01*
X0188400Y0488400D01*
X0183700Y0488400D01*
X0183700Y0488353D01*
X0183824Y0487567D01*
X0184070Y0486811D01*
X0184431Y0486103D01*
X0184898Y0485460D01*
X0185460Y0484898D01*
X0186103Y0484431D01*
X0186811Y0484070D01*
X0185558Y0484827D02*
X0172953Y0484827D01*
X0172830Y0485526D02*
X0184851Y0485526D01*
X0184369Y0486224D02*
X0172706Y0486224D01*
X0172583Y0486923D02*
X0184034Y0486923D01*
X0183816Y0487621D02*
X0172196Y0487621D01*
X0171793Y0488320D02*
X0183705Y0488320D01*
X0183790Y0489717D02*
X0170986Y0489717D01*
X0171389Y0489018D02*
X0188400Y0489018D01*
X0188400Y0488320D02*
X0189100Y0488320D01*
X0189100Y0487621D02*
X0188400Y0487621D01*
X0188400Y0486923D02*
X0189100Y0486923D01*
X0189100Y0486224D02*
X0188400Y0486224D01*
X0188400Y0485526D02*
X0189100Y0485526D01*
X0189100Y0484827D02*
X0188400Y0484827D01*
X0188400Y0484129D02*
X0189100Y0484129D01*
X0190803Y0484129D02*
X0191442Y0484129D01*
X0191942Y0484827D02*
X0192140Y0484827D01*
X0192649Y0485526D02*
X0192839Y0485526D01*
X0193131Y0486224D02*
X0193537Y0486224D01*
X0193466Y0486923D02*
X0193824Y0486923D01*
X0196117Y0483430D02*
X0203662Y0483430D01*
X0203687Y0484129D02*
X0201312Y0484129D01*
X0202252Y0484827D02*
X0203838Y0484827D01*
X0203926Y0485526D02*
X0202950Y0485526D01*
X0203386Y0486224D02*
X0204014Y0486224D01*
X0203824Y0486923D02*
X0203676Y0486923D01*
X0203721Y0482731D02*
X0195418Y0482731D01*
X0194720Y0482033D02*
X0204356Y0482033D01*
X0204944Y0481334D02*
X0194021Y0481334D01*
X0193323Y0480636D02*
X0204944Y0480636D01*
X0204944Y0479937D02*
X0192624Y0479937D01*
X0191926Y0479239D02*
X0204944Y0479239D01*
X0204944Y0478540D02*
X0191227Y0478540D01*
X0190650Y0477842D02*
X0204944Y0477842D01*
X0204944Y0477143D02*
X0190650Y0477143D01*
X0190650Y0476445D02*
X0204944Y0476445D01*
X0204944Y0475746D02*
X0190650Y0475746D01*
X0190650Y0475048D02*
X0204944Y0475048D01*
X0204944Y0474349D02*
X0190650Y0474349D01*
X0190650Y0473651D02*
X0204944Y0473651D01*
X0204944Y0472952D02*
X0190650Y0472952D01*
X0190650Y0472254D02*
X0204944Y0472254D01*
X0204944Y0471555D02*
X0190650Y0471555D01*
X0190886Y0470857D02*
X0204944Y0470857D01*
X0204944Y0470158D02*
X0191414Y0470158D01*
X0191703Y0469460D02*
X0204944Y0469460D01*
X0204944Y0468761D02*
X0191750Y0468761D01*
X0191712Y0468063D02*
X0204944Y0468063D01*
X0204222Y0467364D02*
X0191423Y0467364D01*
X0190908Y0466666D02*
X0203423Y0466666D01*
X0203007Y0465967D02*
X0189871Y0465967D01*
X0188750Y0468750D02*
X0188750Y0478750D01*
X0198750Y0488750D01*
X0208750Y0488750D02*
X0208750Y0465250D01*
X0210250Y0463750D01*
X0213250Y0463872D02*
X0251800Y0463872D01*
X0251800Y0464570D02*
X0213157Y0464570D01*
X0213250Y0464347D02*
X0212793Y0465449D01*
X0211949Y0466293D01*
X0210847Y0466750D01*
X0210650Y0466750D01*
X0210650Y0483854D01*
X0211724Y0484299D01*
X0213201Y0485776D01*
X0213750Y0487102D01*
X0214299Y0485776D01*
X0215776Y0484299D01*
X0217706Y0483500D01*
X0219794Y0483500D01*
X0221724Y0484299D01*
X0223201Y0485776D01*
X0224000Y0487706D01*
X0224000Y0489794D01*
X0223201Y0491724D01*
X0223125Y0491800D01*
X0238953Y0491800D01*
X0236555Y0489787D01*
X0234924Y0486962D01*
X0234357Y0483750D01*
X0234924Y0480538D01*
X0234924Y0480537D01*
X0236555Y0477712D01*
X0239054Y0475616D01*
X0242119Y0474500D01*
X0245381Y0474500D01*
X0248446Y0475616D01*
X0248446Y0475616D01*
X0250945Y0477712D01*
X0250945Y0477712D01*
X0250945Y0477712D01*
X0251800Y0479193D01*
X0251800Y0462841D01*
X0251771Y0462858D01*
X0251428Y0462950D01*
X0249025Y0462950D01*
X0249025Y0460625D01*
X0248475Y0460625D01*
X0248475Y0462950D01*
X0246072Y0462950D01*
X0245729Y0462858D01*
X0245421Y0462680D01*
X0245170Y0462429D01*
X0244992Y0462121D01*
X0244900Y0461778D01*
X0244900Y0460625D01*
X0248475Y0460625D01*
X0248475Y0460075D01*
X0244900Y0460075D01*
X0244900Y0459242D01*
X0244708Y0459050D01*
X0242293Y0459050D01*
X0242293Y0459051D01*
X0242750Y0460153D01*
X0242750Y0461347D01*
X0242293Y0462449D01*
X0241449Y0463293D01*
X0240347Y0463750D01*
X0239153Y0463750D01*
X0238051Y0463293D01*
X0237207Y0462449D01*
X0236750Y0461347D01*
X0236750Y0460650D01*
X0222963Y0460650D01*
X0217963Y0455650D01*
X0208556Y0455650D01*
X0208556Y0455869D01*
X0211037Y0458350D01*
X0211054Y0458350D01*
X0211909Y0457495D01*
X0213104Y0457000D01*
X0214396Y0457000D01*
X0215591Y0457495D01*
X0216505Y0458409D01*
X0217000Y0459604D01*
X0217000Y0460896D01*
X0216505Y0462091D01*
X0215591Y0463005D01*
X0214396Y0463500D01*
X0213250Y0463500D01*
X0213250Y0464347D01*
X0212868Y0465269D02*
X0251800Y0465269D01*
X0251800Y0465967D02*
X0212275Y0465967D01*
X0211050Y0466666D02*
X0251800Y0466666D01*
X0251800Y0467364D02*
X0210650Y0467364D01*
X0210650Y0468063D02*
X0251800Y0468063D01*
X0251800Y0468761D02*
X0210650Y0468761D01*
X0210650Y0469460D02*
X0251800Y0469460D01*
X0251800Y0470158D02*
X0210650Y0470158D01*
X0210650Y0470857D02*
X0251800Y0470857D01*
X0251800Y0471555D02*
X0210650Y0471555D01*
X0210650Y0472254D02*
X0251800Y0472254D01*
X0251800Y0472952D02*
X0210650Y0472952D01*
X0210650Y0473651D02*
X0251800Y0473651D01*
X0251800Y0474349D02*
X0210650Y0474349D01*
X0210650Y0475048D02*
X0240614Y0475048D01*
X0239054Y0475616D02*
X0239054Y0475616D01*
X0238898Y0475746D02*
X0210650Y0475746D01*
X0210650Y0476445D02*
X0238065Y0476445D01*
X0237233Y0477143D02*
X0210650Y0477143D01*
X0210650Y0477842D02*
X0236480Y0477842D01*
X0236555Y0477712D02*
X0236555Y0477712D01*
X0236077Y0478540D02*
X0210650Y0478540D01*
X0210650Y0479239D02*
X0235673Y0479239D01*
X0235270Y0479937D02*
X0210650Y0479937D01*
X0210650Y0480636D02*
X0234906Y0480636D01*
X0234783Y0481334D02*
X0210650Y0481334D01*
X0210650Y0482033D02*
X0234660Y0482033D01*
X0234537Y0482731D02*
X0210650Y0482731D01*
X0210650Y0483430D02*
X0234414Y0483430D01*
X0234357Y0483750D02*
X0234357Y0483750D01*
X0234424Y0484129D02*
X0221312Y0484129D01*
X0222252Y0484827D02*
X0234547Y0484827D01*
X0234670Y0485526D02*
X0222950Y0485526D01*
X0223386Y0486224D02*
X0234794Y0486224D01*
X0234917Y0486923D02*
X0223676Y0486923D01*
X0223965Y0487621D02*
X0235304Y0487621D01*
X0234924Y0486962D02*
X0234924Y0486962D01*
X0235707Y0488320D02*
X0224000Y0488320D01*
X0224000Y0489018D02*
X0236111Y0489018D01*
X0236514Y0489717D02*
X0224000Y0489717D01*
X0223743Y0490415D02*
X0237303Y0490415D01*
X0236555Y0489787D02*
X0236555Y0489787D01*
X0236555Y0489787D01*
X0238135Y0491114D02*
X0223454Y0491114D01*
X0216188Y0484129D02*
X0211312Y0484129D01*
X0212252Y0484827D02*
X0215248Y0484827D01*
X0214550Y0485526D02*
X0212950Y0485526D01*
X0213386Y0486224D02*
X0214114Y0486224D01*
X0213824Y0486923D02*
X0213676Y0486923D01*
X0205750Y0464750D02*
X0204750Y0463750D01*
X0198750Y0463750D01*
X0195486Y0463173D02*
X0195185Y0463173D01*
X0197250Y0456750D02*
X0203750Y0450250D01*
X0205250Y0450250D01*
X0208750Y0453750D01*
X0218750Y0453750D01*
X0223750Y0458750D01*
X0237750Y0458750D01*
X0239750Y0460750D01*
X0242554Y0459681D02*
X0244900Y0459681D01*
X0244900Y0461078D02*
X0242750Y0461078D01*
X0242750Y0460379D02*
X0248475Y0460379D01*
X0248475Y0461078D02*
X0249025Y0461078D01*
X0249025Y0461776D02*
X0248475Y0461776D01*
X0248475Y0462475D02*
X0249025Y0462475D01*
X0251800Y0463173D02*
X0241569Y0463173D01*
X0242268Y0462475D02*
X0245215Y0462475D01*
X0244900Y0461776D02*
X0242572Y0461776D01*
X0242150Y0457150D02*
X0221250Y0436250D01*
X0204250Y0436250D01*
X0203750Y0435750D01*
X0204944Y0431740D02*
X0180150Y0431740D01*
X0180150Y0431042D02*
X0204944Y0431042D01*
X0204944Y0430343D02*
X0180150Y0430343D01*
X0180150Y0429645D02*
X0204944Y0429645D01*
X0204944Y0428946D02*
X0180150Y0428946D01*
X0180150Y0428248D02*
X0204944Y0428248D01*
X0204944Y0427549D02*
X0180150Y0427549D01*
X0180150Y0426851D02*
X0204944Y0426851D01*
X0204944Y0426152D02*
X0180150Y0426152D01*
X0180150Y0425454D02*
X0192767Y0425454D01*
X0192068Y0424755D02*
X0180150Y0424755D01*
X0180150Y0424057D02*
X0191370Y0424057D01*
X0190671Y0423358D02*
X0180385Y0423358D01*
X0180913Y0422660D02*
X0189973Y0422660D01*
X0189274Y0421961D02*
X0181203Y0421961D01*
X0181250Y0421262D02*
X0188005Y0421262D01*
X0178250Y0421250D02*
X0178250Y0439250D01*
X0168750Y0448750D01*
X0168750Y0451750D01*
X0170750Y0453750D01*
X0178750Y0453750D01*
X0178501Y0456188D02*
X0155700Y0456188D01*
X0155700Y0455490D02*
X0169803Y0455490D01*
X0169104Y0454791D02*
X0155700Y0454791D01*
X0155700Y0454093D02*
X0168406Y0454093D01*
X0167707Y0453394D02*
X0155700Y0453394D01*
X0155700Y0452695D02*
X0167009Y0452695D01*
X0166850Y0451997D02*
X0155700Y0451997D01*
X0155700Y0451298D02*
X0166850Y0451298D01*
X0166850Y0450600D02*
X0155700Y0450600D01*
X0155700Y0449901D02*
X0166850Y0449901D01*
X0166850Y0449203D02*
X0155700Y0449203D01*
X0155700Y0448504D02*
X0166850Y0448504D01*
X0167007Y0447806D02*
X0155700Y0447806D01*
X0155700Y0447107D02*
X0167706Y0447107D01*
X0168404Y0446409D02*
X0155700Y0446409D01*
X0155700Y0445710D02*
X0169103Y0445710D01*
X0169801Y0445012D02*
X0155700Y0445012D01*
X0155700Y0444313D02*
X0170500Y0444313D01*
X0171198Y0443615D02*
X0155700Y0443615D01*
X0155700Y0442916D02*
X0171897Y0442916D01*
X0172595Y0442218D02*
X0155700Y0442218D01*
X0155700Y0441519D02*
X0173294Y0441519D01*
X0173992Y0440821D02*
X0155700Y0440821D01*
X0155700Y0440122D02*
X0174691Y0440122D01*
X0175389Y0439424D02*
X0155700Y0439424D01*
X0155700Y0438725D02*
X0176088Y0438725D01*
X0176350Y0438027D02*
X0155700Y0438027D01*
X0155700Y0437328D02*
X0176350Y0437328D01*
X0176350Y0436630D02*
X0155700Y0436630D01*
X0155700Y0435931D02*
X0176350Y0435931D01*
X0176350Y0435233D02*
X0155700Y0435233D01*
X0155700Y0434534D02*
X0176350Y0434534D01*
X0176350Y0433836D02*
X0155700Y0433836D01*
X0155700Y0433137D02*
X0176350Y0433137D01*
X0176350Y0432439D02*
X0155700Y0432439D01*
X0169505Y0421961D02*
X0175297Y0421961D01*
X0175250Y0421262D02*
X0170480Y0421262D01*
X0183183Y0448504D02*
X0186309Y0448504D01*
X0181250Y0456250D02*
X0183750Y0458750D01*
X0181850Y0459681D02*
X0155700Y0459681D01*
X0155700Y0460379D02*
X0181850Y0460379D01*
X0181850Y0461078D02*
X0155700Y0461078D01*
X0155700Y0461776D02*
X0181481Y0461776D01*
X0181031Y0462475D02*
X0155700Y0462475D01*
X0155700Y0463173D02*
X0180750Y0463173D01*
X0180750Y0463872D02*
X0155700Y0463872D01*
X0155700Y0464570D02*
X0180843Y0464570D01*
X0181132Y0465269D02*
X0155700Y0465269D01*
X0155700Y0465967D02*
X0181725Y0465967D01*
X0181295Y0458982D02*
X0155700Y0458982D01*
X0155700Y0458284D02*
X0180597Y0458284D01*
X0179898Y0457585D02*
X0155700Y0457585D01*
X0155700Y0456887D02*
X0179200Y0456887D01*
X0160614Y0475048D02*
X0155700Y0475048D01*
X0155700Y0475746D02*
X0158898Y0475746D01*
X0159054Y0475616D02*
X0159054Y0475616D01*
X0158065Y0476445D02*
X0155700Y0476445D01*
X0155700Y0477143D02*
X0157233Y0477143D01*
X0156555Y0477712D02*
X0156555Y0477712D01*
X0156480Y0477842D02*
X0155700Y0477842D01*
X0155700Y0478540D02*
X0156077Y0478540D01*
X0149800Y0478540D02*
X0149423Y0478540D01*
X0149800Y0477842D02*
X0149020Y0477842D01*
X0148267Y0477143D02*
X0149800Y0477143D01*
X0149800Y0476445D02*
X0147435Y0476445D01*
X0146602Y0475746D02*
X0149800Y0475746D01*
X0149800Y0475048D02*
X0144886Y0475048D01*
X0169365Y0491114D02*
X0184287Y0491114D01*
X0183981Y0490415D02*
X0170197Y0490415D01*
X0203750Y0455250D02*
X0205250Y0455250D01*
X0210250Y0460250D01*
X0213750Y0460250D01*
X0216743Y0458982D02*
X0221295Y0458982D01*
X0220597Y0458284D02*
X0216380Y0458284D01*
X0215681Y0457585D02*
X0219898Y0457585D01*
X0219200Y0456887D02*
X0209574Y0456887D01*
X0210272Y0457585D02*
X0211819Y0457585D01*
X0211120Y0458284D02*
X0210971Y0458284D01*
X0208875Y0456188D02*
X0218501Y0456188D01*
X0217000Y0459681D02*
X0221994Y0459681D01*
X0222692Y0460379D02*
X0217000Y0460379D01*
X0216925Y0461078D02*
X0236750Y0461078D01*
X0236928Y0461776D02*
X0216636Y0461776D01*
X0216122Y0462475D02*
X0237232Y0462475D01*
X0237931Y0463173D02*
X0215185Y0463173D01*
X0223177Y0455490D02*
X0237803Y0455490D01*
X0238501Y0456188D02*
X0223875Y0456188D01*
X0224537Y0456850D02*
X0238537Y0456850D01*
X0239437Y0457750D01*
X0240063Y0457750D01*
X0220463Y0438150D01*
X0208556Y0438150D01*
X0208556Y0445685D01*
X0208750Y0446153D01*
X0208750Y0447347D01*
X0208556Y0447815D01*
X0208556Y0450869D01*
X0209537Y0451850D01*
X0211151Y0451850D01*
X0211047Y0451695D01*
X0210817Y0451140D01*
X0210700Y0450550D01*
X0210700Y0450400D01*
X0213600Y0450400D01*
X0213600Y0450100D01*
X0213900Y0450100D01*
X0213900Y0450400D01*
X0216800Y0450400D01*
X0216800Y0450550D01*
X0216683Y0451140D01*
X0216453Y0451695D01*
X0216349Y0451850D01*
X0219537Y0451850D01*
X0220650Y0452963D01*
X0224537Y0456850D01*
X0222478Y0454791D02*
X0237104Y0454791D01*
X0236406Y0454093D02*
X0221780Y0454093D01*
X0221081Y0453394D02*
X0235707Y0453394D01*
X0235009Y0452695D02*
X0220382Y0452695D01*
X0219684Y0451997D02*
X0234310Y0451997D01*
X0233611Y0451298D02*
X0216617Y0451298D01*
X0216790Y0450600D02*
X0232913Y0450600D01*
X0232214Y0449901D02*
X0216790Y0449901D01*
X0216800Y0449950D02*
X0216800Y0450100D01*
X0213900Y0450100D01*
X0213900Y0447200D01*
X0214050Y0447200D01*
X0214640Y0447317D01*
X0215195Y0447547D01*
X0215694Y0447881D01*
X0216119Y0448306D01*
X0216453Y0448805D01*
X0216683Y0449360D01*
X0216800Y0449950D01*
X0216618Y0449203D02*
X0231516Y0449203D01*
X0230817Y0448504D02*
X0216252Y0448504D01*
X0215582Y0447806D02*
X0230119Y0447806D01*
X0229420Y0447107D02*
X0208750Y0447107D01*
X0208750Y0446409D02*
X0228722Y0446409D01*
X0228023Y0445710D02*
X0208567Y0445710D01*
X0208556Y0445012D02*
X0227325Y0445012D01*
X0226626Y0444313D02*
X0208556Y0444313D01*
X0208556Y0443615D02*
X0225928Y0443615D01*
X0225229Y0442916D02*
X0208556Y0442916D01*
X0208556Y0442218D02*
X0224531Y0442218D01*
X0223832Y0441519D02*
X0208556Y0441519D01*
X0208556Y0440821D02*
X0223134Y0440821D01*
X0222435Y0440122D02*
X0208556Y0440122D01*
X0208556Y0439424D02*
X0221737Y0439424D01*
X0221038Y0438725D02*
X0208556Y0438725D01*
X0208560Y0447806D02*
X0211918Y0447806D01*
X0211806Y0447881D02*
X0212305Y0447547D01*
X0212860Y0447317D01*
X0213450Y0447200D01*
X0213600Y0447200D01*
X0213600Y0450100D01*
X0210700Y0450100D01*
X0210700Y0449950D01*
X0210817Y0449360D01*
X0211047Y0448805D01*
X0211381Y0448306D01*
X0211806Y0447881D01*
X0211248Y0448504D02*
X0208556Y0448504D01*
X0208556Y0449203D02*
X0210882Y0449203D01*
X0210710Y0449901D02*
X0208556Y0449901D01*
X0208556Y0450600D02*
X0210710Y0450600D01*
X0210883Y0451298D02*
X0208985Y0451298D01*
X0213600Y0449901D02*
X0213900Y0449901D01*
X0213900Y0449203D02*
X0213600Y0449203D01*
X0213600Y0448504D02*
X0213900Y0448504D01*
X0213900Y0447806D02*
X0213600Y0447806D01*
X0223750Y0448750D02*
X0226750Y0451750D01*
X0228750Y0451750D01*
X0234096Y0446409D02*
X0251800Y0446409D01*
X0251800Y0447107D02*
X0234794Y0447107D01*
X0235493Y0447806D02*
X0251800Y0447806D01*
X0251800Y0448504D02*
X0236191Y0448504D01*
X0236890Y0449203D02*
X0251800Y0449203D01*
X0251800Y0449901D02*
X0237588Y0449901D01*
X0238287Y0450600D02*
X0251800Y0450600D01*
X0251800Y0451298D02*
X0238985Y0451298D01*
X0239684Y0451997D02*
X0251800Y0451997D01*
X0251800Y0452695D02*
X0240382Y0452695D01*
X0241081Y0453394D02*
X0251800Y0453394D01*
X0251800Y0454093D02*
X0241780Y0454093D01*
X0242478Y0454791D02*
X0245167Y0454791D01*
X0242150Y0457150D02*
X0248750Y0457150D01*
X0239898Y0457585D02*
X0239272Y0457585D01*
X0239200Y0456887D02*
X0238574Y0456887D01*
X0233397Y0445710D02*
X0251800Y0445710D01*
X0251800Y0445012D02*
X0232699Y0445012D01*
X0232000Y0444313D02*
X0251800Y0444313D01*
X0251800Y0443615D02*
X0231302Y0443615D01*
X0230603Y0442916D02*
X0251800Y0442916D01*
X0251800Y0442218D02*
X0229905Y0442218D01*
X0229206Y0441519D02*
X0251800Y0441519D01*
X0251800Y0440821D02*
X0228508Y0440821D01*
X0227809Y0440122D02*
X0251800Y0440122D01*
X0251800Y0439424D02*
X0227111Y0439424D01*
X0226412Y0438725D02*
X0251800Y0438725D01*
X0251800Y0438027D02*
X0225714Y0438027D01*
X0225015Y0437328D02*
X0251800Y0437328D01*
X0251800Y0436630D02*
X0224317Y0436630D01*
X0223618Y0435931D02*
X0251800Y0435931D01*
X0251800Y0435233D02*
X0222920Y0435233D01*
X0222221Y0434534D02*
X0251800Y0434534D01*
X0257700Y0434534D02*
X0278350Y0434534D01*
X0278350Y0433836D02*
X0257700Y0433836D01*
X0257700Y0433137D02*
X0278350Y0433137D01*
X0278350Y0432439D02*
X0257700Y0432439D01*
X0257700Y0431740D02*
X0278350Y0431740D01*
X0278350Y0431042D02*
X0257700Y0431042D01*
X0257700Y0430343D02*
X0278350Y0430343D01*
X0278350Y0429645D02*
X0257700Y0429645D01*
X0257700Y0428946D02*
X0278350Y0428946D01*
X0278350Y0428248D02*
X0257700Y0428248D01*
X0257700Y0427549D02*
X0278350Y0427549D01*
X0278350Y0426851D02*
X0257700Y0426851D01*
X0257700Y0426152D02*
X0278350Y0426152D01*
X0278350Y0425454D02*
X0257700Y0425454D01*
X0257700Y0424755D02*
X0278350Y0424755D01*
X0278350Y0424057D02*
X0257700Y0424057D01*
X0257700Y0423358D02*
X0278115Y0423358D01*
X0278350Y0423593D02*
X0277707Y0422949D01*
X0277250Y0421847D01*
X0277250Y0420653D01*
X0277251Y0420650D01*
X0272933Y0420650D01*
X0272821Y0420922D01*
X0271977Y0421766D01*
X0270874Y0422222D01*
X0269681Y0422222D01*
X0268578Y0421766D01*
X0267734Y0420922D01*
X0267278Y0419819D01*
X0267278Y0418750D01*
X0257700Y0418750D01*
X0257700Y0479193D01*
X0258555Y0477712D01*
X0261054Y0475616D01*
X0261054Y0475616D01*
X0264119Y0474500D01*
X0267381Y0474500D01*
X0270446Y0475616D01*
X0270446Y0475616D01*
X0272945Y0477712D01*
X0272945Y0477712D01*
X0272945Y0477712D01*
X0274576Y0480537D01*
X0274576Y0480538D01*
X0275143Y0483750D01*
X0274576Y0486962D01*
X0274576Y0486962D01*
X0272945Y0489787D01*
X0272945Y0489787D01*
X0270547Y0491800D01*
X0286724Y0491800D01*
X0286431Y0491397D01*
X0286070Y0490689D01*
X0285824Y0489933D01*
X0285700Y0489147D01*
X0285700Y0489100D01*
X0290400Y0489100D01*
X0290400Y0488400D01*
X0291100Y0488400D01*
X0291100Y0483700D01*
X0291147Y0483700D01*
X0291933Y0483824D01*
X0292689Y0484070D01*
X0293397Y0484431D01*
X0294040Y0484898D01*
X0294602Y0485460D01*
X0295069Y0486103D01*
X0295430Y0486811D01*
X0295624Y0487407D01*
X0295945Y0486632D01*
X0288850Y0479537D01*
X0288850Y0471093D01*
X0288207Y0470449D01*
X0287750Y0469347D01*
X0287750Y0468153D01*
X0288207Y0467051D01*
X0289051Y0466207D01*
X0290153Y0465750D01*
X0291347Y0465750D01*
X0292449Y0466207D01*
X0293293Y0467051D01*
X0293750Y0468153D01*
X0293750Y0469347D01*
X0293293Y0470449D01*
X0292650Y0471093D01*
X0292650Y0477963D01*
X0298632Y0483945D01*
X0299706Y0483500D01*
X0301794Y0483500D01*
X0303724Y0484299D01*
X0305201Y0485776D01*
X0305750Y0487102D01*
X0306037Y0486408D01*
X0305779Y0484353D01*
X0305687Y0484262D01*
X0305687Y0483627D01*
X0305608Y0482997D01*
X0305687Y0482895D01*
X0305687Y0482766D01*
X0306136Y0482317D01*
X0306525Y0481815D01*
X0306654Y0481799D01*
X0306745Y0481708D01*
X0306944Y0481708D01*
X0306944Y0467663D01*
X0306051Y0467293D01*
X0305207Y0466449D01*
X0304876Y0465650D01*
X0299963Y0465650D01*
X0297398Y0463085D01*
X0296396Y0463500D01*
X0295104Y0463500D01*
X0293909Y0463005D01*
X0292995Y0462091D01*
X0292500Y0460896D01*
X0292500Y0459604D01*
X0292895Y0458650D01*
X0289593Y0458650D01*
X0288949Y0459293D01*
X0287847Y0459750D01*
X0287650Y0459750D01*
X0287650Y0461407D01*
X0288293Y0462051D01*
X0288750Y0463153D01*
X0288750Y0464347D01*
X0288293Y0465449D01*
X0287449Y0466293D01*
X0286347Y0466750D01*
X0285153Y0466750D01*
X0284051Y0466293D01*
X0283207Y0465449D01*
X0282750Y0464347D01*
X0282750Y0463153D01*
X0283207Y0462051D01*
X0283850Y0461407D01*
X0283850Y0459537D01*
X0282463Y0458150D01*
X0281350Y0457037D01*
X0279963Y0455650D01*
X0271963Y0455650D01*
X0268850Y0452537D01*
X0268850Y0447963D01*
X0269963Y0446850D01*
X0278350Y0438463D01*
X0278350Y0423593D01*
X0277587Y0422660D02*
X0257700Y0422660D01*
X0257700Y0421961D02*
X0269050Y0421961D01*
X0268075Y0421262D02*
X0257700Y0421262D01*
X0257700Y0420564D02*
X0267586Y0420564D01*
X0267297Y0419865D02*
X0257700Y0419865D01*
X0257700Y0419167D02*
X0267278Y0419167D01*
X0270278Y0419222D02*
X0270750Y0418750D01*
X0290750Y0418750D01*
X0295750Y0423750D01*
X0315750Y0423750D01*
X0329392Y0410108D01*
X0329392Y0399419D01*
X0323812Y0418750D02*
X0322759Y0419915D01*
X0322756Y0419948D01*
X0322633Y0420054D01*
X0322235Y0420494D01*
X0322142Y0420627D01*
X0322109Y0420632D01*
X0321492Y0421315D01*
X0320839Y0421348D01*
X0317650Y0424537D01*
X0316537Y0425650D01*
X0310556Y0425650D01*
X0310556Y0434350D01*
X0324037Y0434350D01*
X0344937Y0455250D01*
X0346708Y0455250D01*
X0347608Y0454350D01*
X0353800Y0454350D01*
X0353800Y0418750D01*
X0323812Y0418750D01*
X0323435Y0419167D02*
X0353800Y0419167D01*
X0353800Y0419865D02*
X0322803Y0419865D01*
X0322186Y0420564D02*
X0353800Y0420564D01*
X0353800Y0421262D02*
X0321539Y0421262D01*
X0320226Y0421961D02*
X0353800Y0421961D01*
X0353800Y0422660D02*
X0319527Y0422660D01*
X0318829Y0423358D02*
X0353800Y0423358D01*
X0353800Y0424057D02*
X0318130Y0424057D01*
X0317432Y0424755D02*
X0353800Y0424755D01*
X0353800Y0425454D02*
X0316733Y0425454D01*
X0310556Y0426152D02*
X0353800Y0426152D01*
X0353800Y0426851D02*
X0310556Y0426851D01*
X0310556Y0427549D02*
X0353800Y0427549D01*
X0353800Y0428248D02*
X0310556Y0428248D01*
X0310556Y0428946D02*
X0353800Y0428946D01*
X0353800Y0429645D02*
X0310556Y0429645D01*
X0310556Y0430343D02*
X0353800Y0430343D01*
X0353800Y0431042D02*
X0310556Y0431042D01*
X0310556Y0431740D02*
X0353800Y0431740D01*
X0353800Y0432439D02*
X0310556Y0432439D01*
X0310556Y0433137D02*
X0353800Y0433137D01*
X0353800Y0433836D02*
X0310556Y0433836D01*
X0306944Y0432997D02*
X0306944Y0425650D01*
X0294963Y0425650D01*
X0291161Y0421848D01*
X0290548Y0421833D01*
X0289438Y0420667D01*
X0289405Y0420663D01*
X0289396Y0420650D01*
X0283249Y0420650D01*
X0283250Y0420653D01*
X0283250Y0421847D01*
X0282793Y0422949D01*
X0282150Y0423593D01*
X0282150Y0440037D01*
X0281037Y0441150D01*
X0272650Y0449537D01*
X0272650Y0450963D01*
X0273537Y0451850D01*
X0281537Y0451850D01*
X0283250Y0453563D01*
X0288463Y0448350D01*
X0290037Y0448350D01*
X0293054Y0448350D01*
X0293254Y0448150D01*
X0285537Y0448150D01*
X0283037Y0450650D01*
X0280093Y0450650D01*
X0279449Y0451293D01*
X0278347Y0451750D01*
X0277153Y0451750D01*
X0276051Y0451293D01*
X0275207Y0450449D01*
X0274750Y0449347D01*
X0274750Y0448153D01*
X0275207Y0447051D01*
X0276051Y0446207D01*
X0277153Y0445750D01*
X0278347Y0445750D01*
X0279449Y0446207D01*
X0280093Y0446850D01*
X0281463Y0446850D01*
X0282850Y0445463D01*
X0283963Y0444350D01*
X0305907Y0444350D01*
X0306051Y0444207D01*
X0306944Y0443837D01*
X0306944Y0438503D01*
X0306347Y0438750D01*
X0305153Y0438750D01*
X0304051Y0438293D01*
X0303207Y0437449D01*
X0302750Y0436347D01*
X0302750Y0435153D01*
X0303207Y0434051D01*
X0304051Y0433207D01*
X0305153Y0432750D01*
X0306347Y0432750D01*
X0306944Y0432997D01*
X0306944Y0432439D02*
X0282150Y0432439D01*
X0282150Y0433137D02*
X0304219Y0433137D01*
X0303422Y0433836D02*
X0282150Y0433836D01*
X0282150Y0434534D02*
X0303006Y0434534D01*
X0302750Y0435233D02*
X0282150Y0435233D01*
X0282150Y0435931D02*
X0302750Y0435931D01*
X0302867Y0436630D02*
X0282150Y0436630D01*
X0282150Y0437328D02*
X0303157Y0437328D01*
X0303784Y0438027D02*
X0282150Y0438027D01*
X0282150Y0438725D02*
X0305094Y0438725D01*
X0306406Y0438725D02*
X0306944Y0438725D01*
X0306944Y0439424D02*
X0282150Y0439424D01*
X0282065Y0440122D02*
X0306944Y0440122D01*
X0306944Y0440821D02*
X0281366Y0440821D01*
X0280668Y0441519D02*
X0306944Y0441519D01*
X0306944Y0442218D02*
X0279969Y0442218D01*
X0279271Y0442916D02*
X0306944Y0442916D01*
X0306944Y0443615D02*
X0278572Y0443615D01*
X0277874Y0444313D02*
X0305944Y0444313D01*
X0307250Y0446250D02*
X0307750Y0446750D01*
X0307250Y0446250D02*
X0284750Y0446250D01*
X0282250Y0448750D01*
X0277750Y0448750D01*
X0274980Y0449901D02*
X0272650Y0449901D01*
X0272650Y0450600D02*
X0275357Y0450600D01*
X0276063Y0451298D02*
X0272985Y0451298D01*
X0272984Y0449203D02*
X0274750Y0449203D01*
X0274750Y0448504D02*
X0273683Y0448504D01*
X0274381Y0447806D02*
X0274894Y0447806D01*
X0275080Y0447107D02*
X0275183Y0447107D01*
X0275778Y0446409D02*
X0275848Y0446409D01*
X0276477Y0445710D02*
X0282603Y0445710D01*
X0283301Y0445012D02*
X0277175Y0445012D01*
X0279652Y0446409D02*
X0281904Y0446409D01*
X0284484Y0449203D02*
X0287610Y0449203D01*
X0286912Y0449901D02*
X0283786Y0449901D01*
X0283087Y0450600D02*
X0286213Y0450600D01*
X0285515Y0451298D02*
X0279437Y0451298D01*
X0281684Y0451997D02*
X0284816Y0451997D01*
X0284117Y0452695D02*
X0282382Y0452695D01*
X0283081Y0453394D02*
X0283419Y0453394D01*
X0280750Y0453750D02*
X0283250Y0456250D01*
X0289250Y0450250D01*
X0295750Y0450250D01*
X0299250Y0456750D02*
X0287250Y0456750D01*
X0285750Y0458750D02*
X0285750Y0463750D01*
X0288750Y0463872D02*
X0298185Y0463872D01*
X0298883Y0464570D02*
X0288657Y0464570D01*
X0288368Y0465269D02*
X0299582Y0465269D01*
X0300750Y0463750D02*
X0297250Y0460250D01*
X0295750Y0460250D01*
X0292757Y0458982D02*
X0289261Y0458982D01*
X0288014Y0459681D02*
X0292500Y0459681D01*
X0292500Y0460379D02*
X0287650Y0460379D01*
X0287650Y0461078D02*
X0292575Y0461078D01*
X0292864Y0461776D02*
X0288019Y0461776D01*
X0288469Y0462475D02*
X0293378Y0462475D01*
X0294315Y0463173D02*
X0288750Y0463173D01*
X0289629Y0465967D02*
X0287775Y0465967D01*
X0288592Y0466666D02*
X0286550Y0466666D01*
X0284950Y0466666D02*
X0257700Y0466666D01*
X0257700Y0467364D02*
X0288077Y0467364D01*
X0287787Y0468063D02*
X0257700Y0468063D01*
X0257700Y0468761D02*
X0287750Y0468761D01*
X0287797Y0469460D02*
X0257700Y0469460D01*
X0257700Y0470158D02*
X0288086Y0470158D01*
X0288614Y0470857D02*
X0257700Y0470857D01*
X0257700Y0471555D02*
X0288850Y0471555D01*
X0288850Y0472254D02*
X0257700Y0472254D01*
X0257700Y0472952D02*
X0288850Y0472952D01*
X0288850Y0473651D02*
X0257700Y0473651D01*
X0257700Y0474349D02*
X0288850Y0474349D01*
X0288850Y0475048D02*
X0268886Y0475048D01*
X0270602Y0475746D02*
X0288850Y0475746D01*
X0288850Y0476445D02*
X0271435Y0476445D01*
X0272267Y0477143D02*
X0288850Y0477143D01*
X0288850Y0477842D02*
X0273020Y0477842D01*
X0273423Y0478540D02*
X0288850Y0478540D01*
X0288850Y0479239D02*
X0273826Y0479239D01*
X0274230Y0479937D02*
X0289250Y0479937D01*
X0289949Y0480636D02*
X0274594Y0480636D01*
X0274717Y0481334D02*
X0290647Y0481334D01*
X0291346Y0482033D02*
X0274840Y0482033D01*
X0274963Y0482731D02*
X0292044Y0482731D01*
X0292743Y0483430D02*
X0275086Y0483430D01*
X0275143Y0483750D02*
X0275143Y0483750D01*
X0275076Y0484129D02*
X0288697Y0484129D01*
X0288811Y0484070D02*
X0289567Y0483824D01*
X0290353Y0483700D01*
X0290400Y0483700D01*
X0290400Y0488400D01*
X0285700Y0488400D01*
X0285700Y0488353D01*
X0285824Y0487567D01*
X0286070Y0486811D01*
X0286431Y0486103D01*
X0286898Y0485460D01*
X0287460Y0484898D01*
X0288103Y0484431D01*
X0288811Y0484070D01*
X0287558Y0484827D02*
X0274953Y0484827D01*
X0274830Y0485526D02*
X0286851Y0485526D01*
X0286369Y0486224D02*
X0274706Y0486224D01*
X0274583Y0486923D02*
X0286034Y0486923D01*
X0285816Y0487621D02*
X0274196Y0487621D01*
X0273793Y0488320D02*
X0285705Y0488320D01*
X0285790Y0489717D02*
X0272986Y0489717D01*
X0273389Y0489018D02*
X0290400Y0489018D01*
X0290400Y0488320D02*
X0291100Y0488320D01*
X0291100Y0487621D02*
X0290400Y0487621D01*
X0290400Y0486923D02*
X0291100Y0486923D01*
X0291100Y0486224D02*
X0290400Y0486224D01*
X0290400Y0485526D02*
X0291100Y0485526D01*
X0291100Y0484827D02*
X0290400Y0484827D01*
X0290400Y0484129D02*
X0291100Y0484129D01*
X0292803Y0484129D02*
X0293442Y0484129D01*
X0293942Y0484827D02*
X0294140Y0484827D01*
X0294649Y0485526D02*
X0294839Y0485526D01*
X0295131Y0486224D02*
X0295537Y0486224D01*
X0295466Y0486923D02*
X0295824Y0486923D01*
X0298117Y0483430D02*
X0305662Y0483430D01*
X0305687Y0484129D02*
X0303312Y0484129D01*
X0304252Y0484827D02*
X0305838Y0484827D01*
X0305926Y0485526D02*
X0304950Y0485526D01*
X0305386Y0486224D02*
X0306014Y0486224D01*
X0305824Y0486923D02*
X0305676Y0486923D01*
X0305721Y0482731D02*
X0297418Y0482731D01*
X0296720Y0482033D02*
X0306356Y0482033D01*
X0306944Y0481334D02*
X0296021Y0481334D01*
X0295323Y0480636D02*
X0306944Y0480636D01*
X0306944Y0479937D02*
X0294624Y0479937D01*
X0293926Y0479239D02*
X0306944Y0479239D01*
X0306944Y0478540D02*
X0293227Y0478540D01*
X0292650Y0477842D02*
X0306944Y0477842D01*
X0306944Y0477143D02*
X0292650Y0477143D01*
X0292650Y0476445D02*
X0306944Y0476445D01*
X0306944Y0475746D02*
X0292650Y0475746D01*
X0292650Y0475048D02*
X0306944Y0475048D01*
X0306944Y0474349D02*
X0292650Y0474349D01*
X0292650Y0473651D02*
X0306944Y0473651D01*
X0306944Y0472952D02*
X0292650Y0472952D01*
X0292650Y0472254D02*
X0306944Y0472254D01*
X0306944Y0471555D02*
X0292650Y0471555D01*
X0292886Y0470857D02*
X0306944Y0470857D01*
X0306944Y0470158D02*
X0293414Y0470158D01*
X0293703Y0469460D02*
X0306944Y0469460D01*
X0306944Y0468761D02*
X0293750Y0468761D01*
X0293713Y0468063D02*
X0306944Y0468063D01*
X0306222Y0467364D02*
X0293423Y0467364D01*
X0292908Y0466666D02*
X0305423Y0466666D01*
X0305007Y0465967D02*
X0291871Y0465967D01*
X0290750Y0468750D02*
X0290750Y0478750D01*
X0300750Y0488750D01*
X0310750Y0488750D02*
X0310750Y0465250D01*
X0312250Y0463750D01*
X0315250Y0463872D02*
X0353800Y0463872D01*
X0353800Y0464570D02*
X0315157Y0464570D01*
X0315250Y0464347D02*
X0314793Y0465449D01*
X0313949Y0466293D01*
X0312847Y0466750D01*
X0312650Y0466750D01*
X0312650Y0483854D01*
X0313724Y0484299D01*
X0315201Y0485776D01*
X0315750Y0487102D01*
X0316299Y0485776D01*
X0317776Y0484299D01*
X0319706Y0483500D01*
X0321794Y0483500D01*
X0323724Y0484299D01*
X0325201Y0485776D01*
X0326000Y0487706D01*
X0326000Y0489794D01*
X0325201Y0491724D01*
X0325125Y0491800D01*
X0340953Y0491800D01*
X0338555Y0489787D01*
X0336924Y0486962D01*
X0336357Y0483750D01*
X0336924Y0480538D01*
X0336924Y0480537D01*
X0338555Y0477712D01*
X0341054Y0475616D01*
X0344119Y0474500D01*
X0347381Y0474500D01*
X0350446Y0475616D01*
X0350446Y0475616D01*
X0352945Y0477712D01*
X0352945Y0477712D01*
X0352945Y0477712D01*
X0353800Y0479193D01*
X0353800Y0462841D01*
X0353771Y0462858D01*
X0353428Y0462950D01*
X0351025Y0462950D01*
X0351025Y0460625D01*
X0350475Y0460625D01*
X0350475Y0462950D01*
X0348072Y0462950D01*
X0347729Y0462858D01*
X0347421Y0462680D01*
X0347170Y0462429D01*
X0346992Y0462121D01*
X0346900Y0461778D01*
X0346900Y0460625D01*
X0350475Y0460625D01*
X0350475Y0460075D01*
X0346900Y0460075D01*
X0346900Y0459242D01*
X0346708Y0459050D01*
X0344293Y0459050D01*
X0344293Y0459051D01*
X0344750Y0460153D01*
X0344750Y0461347D01*
X0344293Y0462449D01*
X0343449Y0463293D01*
X0342347Y0463750D01*
X0341153Y0463750D01*
X0340051Y0463293D01*
X0339207Y0462449D01*
X0338750Y0461347D01*
X0338750Y0460650D01*
X0324963Y0460650D01*
X0319963Y0455650D01*
X0310556Y0455650D01*
X0310556Y0455869D01*
X0313037Y0458350D01*
X0313054Y0458350D01*
X0313909Y0457495D01*
X0315104Y0457000D01*
X0316396Y0457000D01*
X0317591Y0457495D01*
X0318505Y0458409D01*
X0319000Y0459604D01*
X0319000Y0460896D01*
X0318505Y0462091D01*
X0317591Y0463005D01*
X0316396Y0463500D01*
X0315250Y0463500D01*
X0315250Y0464347D01*
X0314868Y0465269D02*
X0353800Y0465269D01*
X0353800Y0465967D02*
X0314275Y0465967D01*
X0313050Y0466666D02*
X0353800Y0466666D01*
X0353800Y0467364D02*
X0312650Y0467364D01*
X0312650Y0468063D02*
X0353800Y0468063D01*
X0353800Y0468761D02*
X0312650Y0468761D01*
X0312650Y0469460D02*
X0353800Y0469460D01*
X0353800Y0470158D02*
X0312650Y0470158D01*
X0312650Y0470857D02*
X0353800Y0470857D01*
X0353800Y0471555D02*
X0312650Y0471555D01*
X0312650Y0472254D02*
X0353800Y0472254D01*
X0353800Y0472952D02*
X0312650Y0472952D01*
X0312650Y0473651D02*
X0353800Y0473651D01*
X0353800Y0474349D02*
X0312650Y0474349D01*
X0312650Y0475048D02*
X0342614Y0475048D01*
X0341054Y0475616D02*
X0341054Y0475616D01*
X0340898Y0475746D02*
X0312650Y0475746D01*
X0312650Y0476445D02*
X0340065Y0476445D01*
X0339233Y0477143D02*
X0312650Y0477143D01*
X0312650Y0477842D02*
X0338480Y0477842D01*
X0338555Y0477712D02*
X0338555Y0477712D01*
X0338077Y0478540D02*
X0312650Y0478540D01*
X0312650Y0479239D02*
X0337673Y0479239D01*
X0337270Y0479937D02*
X0312650Y0479937D01*
X0312650Y0480636D02*
X0336906Y0480636D01*
X0336783Y0481334D02*
X0312650Y0481334D01*
X0312650Y0482033D02*
X0336660Y0482033D01*
X0336537Y0482731D02*
X0312650Y0482731D01*
X0312650Y0483430D02*
X0336414Y0483430D01*
X0336357Y0483750D02*
X0336357Y0483750D01*
X0336424Y0484129D02*
X0323312Y0484129D01*
X0324252Y0484827D02*
X0336547Y0484827D01*
X0336670Y0485526D02*
X0324950Y0485526D01*
X0325386Y0486224D02*
X0336794Y0486224D01*
X0336917Y0486923D02*
X0325676Y0486923D01*
X0325965Y0487621D02*
X0337304Y0487621D01*
X0336924Y0486962D02*
X0336924Y0486962D01*
X0337707Y0488320D02*
X0326000Y0488320D01*
X0326000Y0489018D02*
X0338111Y0489018D01*
X0338514Y0489717D02*
X0326000Y0489717D01*
X0325743Y0490415D02*
X0339303Y0490415D01*
X0338555Y0489787D02*
X0338555Y0489787D01*
X0338555Y0489787D01*
X0340135Y0491114D02*
X0325454Y0491114D01*
X0318188Y0484129D02*
X0313312Y0484129D01*
X0314252Y0484827D02*
X0317248Y0484827D01*
X0316550Y0485526D02*
X0314950Y0485526D01*
X0315386Y0486224D02*
X0316114Y0486224D01*
X0315824Y0486923D02*
X0315676Y0486923D01*
X0307750Y0464750D02*
X0306750Y0463750D01*
X0300750Y0463750D01*
X0297486Y0463173D02*
X0297185Y0463173D01*
X0299250Y0456750D02*
X0305750Y0450250D01*
X0307250Y0450250D01*
X0310750Y0453750D01*
X0320750Y0453750D01*
X0325750Y0458750D01*
X0339750Y0458750D01*
X0341750Y0460750D01*
X0344554Y0459681D02*
X0346900Y0459681D01*
X0346900Y0461078D02*
X0344750Y0461078D01*
X0344750Y0460379D02*
X0350475Y0460379D01*
X0350475Y0461078D02*
X0351025Y0461078D01*
X0351025Y0461776D02*
X0350475Y0461776D01*
X0350475Y0462475D02*
X0351025Y0462475D01*
X0353800Y0463173D02*
X0343569Y0463173D01*
X0344268Y0462475D02*
X0347215Y0462475D01*
X0346900Y0461776D02*
X0344572Y0461776D01*
X0344150Y0457150D02*
X0323250Y0436250D01*
X0306250Y0436250D01*
X0305750Y0435750D01*
X0306944Y0431740D02*
X0282150Y0431740D01*
X0282150Y0431042D02*
X0306944Y0431042D01*
X0306944Y0430343D02*
X0282150Y0430343D01*
X0282150Y0429645D02*
X0306944Y0429645D01*
X0306944Y0428946D02*
X0282150Y0428946D01*
X0282150Y0428248D02*
X0306944Y0428248D01*
X0306944Y0427549D02*
X0282150Y0427549D01*
X0282150Y0426851D02*
X0306944Y0426851D01*
X0306944Y0426152D02*
X0282150Y0426152D01*
X0282150Y0425454D02*
X0294767Y0425454D01*
X0294068Y0424755D02*
X0282150Y0424755D01*
X0282150Y0424057D02*
X0293370Y0424057D01*
X0292671Y0423358D02*
X0282385Y0423358D01*
X0282913Y0422660D02*
X0291973Y0422660D01*
X0291274Y0421961D02*
X0283203Y0421961D01*
X0283250Y0421262D02*
X0290005Y0421262D01*
X0280250Y0421250D02*
X0280250Y0439250D01*
X0270750Y0448750D01*
X0270750Y0451750D01*
X0272750Y0453750D01*
X0280750Y0453750D01*
X0280501Y0456188D02*
X0257700Y0456188D01*
X0257700Y0455490D02*
X0271803Y0455490D01*
X0271104Y0454791D02*
X0257700Y0454791D01*
X0257700Y0454093D02*
X0270406Y0454093D01*
X0269707Y0453394D02*
X0257700Y0453394D01*
X0257700Y0452695D02*
X0269009Y0452695D01*
X0268850Y0451997D02*
X0257700Y0451997D01*
X0257700Y0451298D02*
X0268850Y0451298D01*
X0268850Y0450600D02*
X0257700Y0450600D01*
X0257700Y0449901D02*
X0268850Y0449901D01*
X0268850Y0449203D02*
X0257700Y0449203D01*
X0257700Y0448504D02*
X0268850Y0448504D01*
X0269007Y0447806D02*
X0257700Y0447806D01*
X0257700Y0447107D02*
X0269706Y0447107D01*
X0270404Y0446409D02*
X0257700Y0446409D01*
X0257700Y0445710D02*
X0271103Y0445710D01*
X0271801Y0445012D02*
X0257700Y0445012D01*
X0257700Y0444313D02*
X0272500Y0444313D01*
X0273198Y0443615D02*
X0257700Y0443615D01*
X0257700Y0442916D02*
X0273897Y0442916D01*
X0274595Y0442218D02*
X0257700Y0442218D01*
X0257700Y0441519D02*
X0275294Y0441519D01*
X0275992Y0440821D02*
X0257700Y0440821D01*
X0257700Y0440122D02*
X0276691Y0440122D01*
X0277389Y0439424D02*
X0257700Y0439424D01*
X0257700Y0438725D02*
X0278088Y0438725D01*
X0278350Y0438027D02*
X0257700Y0438027D01*
X0257700Y0437328D02*
X0278350Y0437328D01*
X0278350Y0436630D02*
X0257700Y0436630D01*
X0257700Y0435931D02*
X0278350Y0435931D01*
X0278350Y0435233D02*
X0257700Y0435233D01*
X0271505Y0421961D02*
X0277297Y0421961D01*
X0277250Y0421262D02*
X0272480Y0421262D01*
X0285183Y0448504D02*
X0288309Y0448504D01*
X0283250Y0456250D02*
X0285750Y0458750D01*
X0283850Y0459681D02*
X0257700Y0459681D01*
X0257700Y0460379D02*
X0283850Y0460379D01*
X0283850Y0461078D02*
X0257700Y0461078D01*
X0257700Y0461776D02*
X0283481Y0461776D01*
X0283031Y0462475D02*
X0257700Y0462475D01*
X0257700Y0463173D02*
X0282750Y0463173D01*
X0282750Y0463872D02*
X0257700Y0463872D01*
X0257700Y0464570D02*
X0282843Y0464570D01*
X0283132Y0465269D02*
X0257700Y0465269D01*
X0257700Y0465967D02*
X0283725Y0465967D01*
X0283295Y0458982D02*
X0257700Y0458982D01*
X0257700Y0458284D02*
X0282597Y0458284D01*
X0281898Y0457585D02*
X0257700Y0457585D01*
X0257700Y0456887D02*
X0281200Y0456887D01*
X0262614Y0475048D02*
X0257700Y0475048D01*
X0257700Y0475746D02*
X0260898Y0475746D01*
X0260065Y0476445D02*
X0257700Y0476445D01*
X0257700Y0477143D02*
X0259233Y0477143D01*
X0258480Y0477842D02*
X0257700Y0477842D01*
X0257700Y0478540D02*
X0258077Y0478540D01*
X0251800Y0478540D02*
X0251423Y0478540D01*
X0251800Y0477842D02*
X0251020Y0477842D01*
X0250267Y0477143D02*
X0251800Y0477143D01*
X0251800Y0476445D02*
X0249435Y0476445D01*
X0248602Y0475746D02*
X0251800Y0475746D01*
X0251800Y0475048D02*
X0246886Y0475048D01*
X0271365Y0491114D02*
X0286287Y0491114D01*
X0285981Y0490415D02*
X0272197Y0490415D01*
X0305750Y0455250D02*
X0307250Y0455250D01*
X0312250Y0460250D01*
X0315750Y0460250D01*
X0318743Y0458982D02*
X0323295Y0458982D01*
X0322597Y0458284D02*
X0318380Y0458284D01*
X0317681Y0457585D02*
X0321898Y0457585D01*
X0321200Y0456887D02*
X0311574Y0456887D01*
X0312272Y0457585D02*
X0313819Y0457585D01*
X0313120Y0458284D02*
X0312971Y0458284D01*
X0310875Y0456188D02*
X0320501Y0456188D01*
X0319000Y0459681D02*
X0323994Y0459681D01*
X0324692Y0460379D02*
X0319000Y0460379D01*
X0318925Y0461078D02*
X0338750Y0461078D01*
X0338928Y0461776D02*
X0318636Y0461776D01*
X0318122Y0462475D02*
X0339232Y0462475D01*
X0339931Y0463173D02*
X0317185Y0463173D01*
X0325177Y0455490D02*
X0339803Y0455490D01*
X0340501Y0456188D02*
X0325875Y0456188D01*
X0326537Y0456850D02*
X0340537Y0456850D01*
X0341437Y0457750D01*
X0342063Y0457750D01*
X0322463Y0438150D01*
X0310556Y0438150D01*
X0310556Y0445685D01*
X0310750Y0446153D01*
X0310750Y0447347D01*
X0310556Y0447815D01*
X0310556Y0450869D01*
X0311537Y0451850D01*
X0313151Y0451850D01*
X0313047Y0451695D01*
X0312817Y0451140D01*
X0312700Y0450550D01*
X0312700Y0450400D01*
X0315600Y0450400D01*
X0315600Y0450100D01*
X0315900Y0450100D01*
X0315900Y0450400D01*
X0318800Y0450400D01*
X0318800Y0450550D01*
X0318683Y0451140D01*
X0318453Y0451695D01*
X0318349Y0451850D01*
X0321537Y0451850D01*
X0322650Y0452963D01*
X0326537Y0456850D01*
X0324478Y0454791D02*
X0339104Y0454791D01*
X0338406Y0454093D02*
X0323780Y0454093D01*
X0323081Y0453394D02*
X0337707Y0453394D01*
X0337009Y0452695D02*
X0322382Y0452695D01*
X0321684Y0451997D02*
X0336310Y0451997D01*
X0335611Y0451298D02*
X0318617Y0451298D01*
X0318790Y0450600D02*
X0334913Y0450600D01*
X0334214Y0449901D02*
X0318790Y0449901D01*
X0318800Y0449950D02*
X0318800Y0450100D01*
X0315900Y0450100D01*
X0315900Y0447200D01*
X0316050Y0447200D01*
X0316640Y0447317D01*
X0317195Y0447547D01*
X0317694Y0447881D01*
X0318119Y0448306D01*
X0318453Y0448805D01*
X0318683Y0449360D01*
X0318800Y0449950D01*
X0318618Y0449203D02*
X0333516Y0449203D01*
X0332817Y0448504D02*
X0318252Y0448504D01*
X0317582Y0447806D02*
X0332119Y0447806D01*
X0331420Y0447107D02*
X0310750Y0447107D01*
X0310750Y0446409D02*
X0330722Y0446409D01*
X0330023Y0445710D02*
X0310567Y0445710D01*
X0310556Y0445012D02*
X0329325Y0445012D01*
X0328626Y0444313D02*
X0310556Y0444313D01*
X0310556Y0443615D02*
X0327928Y0443615D01*
X0327229Y0442916D02*
X0310556Y0442916D01*
X0310556Y0442218D02*
X0326531Y0442218D01*
X0325832Y0441519D02*
X0310556Y0441519D01*
X0310556Y0440821D02*
X0325134Y0440821D01*
X0324435Y0440122D02*
X0310556Y0440122D01*
X0310556Y0439424D02*
X0323737Y0439424D01*
X0323038Y0438725D02*
X0310556Y0438725D01*
X0310560Y0447806D02*
X0313918Y0447806D01*
X0313806Y0447881D02*
X0314305Y0447547D01*
X0314860Y0447317D01*
X0315450Y0447200D01*
X0315600Y0447200D01*
X0315600Y0450100D01*
X0312700Y0450100D01*
X0312700Y0449950D01*
X0312817Y0449360D01*
X0313047Y0448805D01*
X0313381Y0448306D01*
X0313806Y0447881D01*
X0313248Y0448504D02*
X0310556Y0448504D01*
X0310556Y0449203D02*
X0312882Y0449203D01*
X0312710Y0449901D02*
X0310556Y0449901D01*
X0310556Y0450600D02*
X0312710Y0450600D01*
X0312883Y0451298D02*
X0310985Y0451298D01*
X0315600Y0449901D02*
X0315900Y0449901D01*
X0315900Y0449203D02*
X0315600Y0449203D01*
X0315600Y0448504D02*
X0315900Y0448504D01*
X0315900Y0447806D02*
X0315600Y0447806D01*
X0325750Y0448750D02*
X0328750Y0451750D01*
X0330750Y0451750D01*
X0336096Y0446409D02*
X0353800Y0446409D01*
X0353800Y0447107D02*
X0336794Y0447107D01*
X0337493Y0447806D02*
X0353800Y0447806D01*
X0353800Y0448504D02*
X0338191Y0448504D01*
X0338890Y0449203D02*
X0353800Y0449203D01*
X0353800Y0449901D02*
X0339588Y0449901D01*
X0340287Y0450600D02*
X0353800Y0450600D01*
X0353800Y0451298D02*
X0340985Y0451298D01*
X0341684Y0451997D02*
X0353800Y0451997D01*
X0353800Y0452695D02*
X0342382Y0452695D01*
X0343081Y0453394D02*
X0353800Y0453394D01*
X0353800Y0454093D02*
X0343780Y0454093D01*
X0344478Y0454791D02*
X0347167Y0454791D01*
X0344150Y0457150D02*
X0350750Y0457150D01*
X0341898Y0457585D02*
X0341272Y0457585D01*
X0341200Y0456887D02*
X0340574Y0456887D01*
X0335397Y0445710D02*
X0353800Y0445710D01*
X0353800Y0445012D02*
X0334699Y0445012D01*
X0334000Y0444313D02*
X0353800Y0444313D01*
X0353800Y0443615D02*
X0333302Y0443615D01*
X0332603Y0442916D02*
X0353800Y0442916D01*
X0353800Y0442218D02*
X0331905Y0442218D01*
X0331206Y0441519D02*
X0353800Y0441519D01*
X0353800Y0440821D02*
X0330508Y0440821D01*
X0329809Y0440122D02*
X0353800Y0440122D01*
X0353800Y0439424D02*
X0329111Y0439424D01*
X0328412Y0438725D02*
X0353800Y0438725D01*
X0353800Y0438027D02*
X0327714Y0438027D01*
X0327015Y0437328D02*
X0353800Y0437328D01*
X0353800Y0436630D02*
X0326317Y0436630D01*
X0325618Y0435931D02*
X0353800Y0435931D01*
X0353800Y0435233D02*
X0324920Y0435233D01*
X0324221Y0434534D02*
X0353800Y0434534D01*
X0353800Y0475048D02*
X0348886Y0475048D01*
X0350602Y0475746D02*
X0353800Y0475746D01*
X0353800Y0476445D02*
X0351435Y0476445D01*
X0352267Y0477143D02*
X0353800Y0477143D01*
X0353800Y0477842D02*
X0353020Y0477842D01*
X0353423Y0478540D02*
X0353800Y0478540D01*
X0340953Y0269800D02*
X0325125Y0269800D01*
X0325201Y0269724D01*
X0326000Y0267794D01*
X0326000Y0265706D01*
X0325201Y0263776D01*
X0323724Y0262299D01*
X0321794Y0261500D01*
X0319706Y0261500D01*
X0317776Y0262299D01*
X0316299Y0263776D01*
X0315750Y0265102D01*
X0315201Y0263776D01*
X0313724Y0262299D01*
X0312650Y0261854D01*
X0312650Y0244750D01*
X0312847Y0244750D01*
X0313949Y0244293D01*
X0314793Y0243449D01*
X0315250Y0242347D01*
X0315250Y0241500D01*
X0316396Y0241500D01*
X0317591Y0241005D01*
X0318505Y0240091D01*
X0319000Y0238896D01*
X0319000Y0237604D01*
X0318505Y0236409D01*
X0317591Y0235495D01*
X0316396Y0235000D01*
X0315104Y0235000D01*
X0313909Y0235495D01*
X0313054Y0236350D01*
X0313037Y0236350D01*
X0310556Y0233869D01*
X0310556Y0233650D01*
X0319963Y0233650D01*
X0324963Y0238650D01*
X0338750Y0238650D01*
X0338750Y0239347D01*
X0339207Y0240449D01*
X0340051Y0241293D01*
X0341153Y0241750D01*
X0342347Y0241750D01*
X0343449Y0241293D01*
X0344293Y0240449D01*
X0344750Y0239347D01*
X0344750Y0238153D01*
X0344293Y0237051D01*
X0344293Y0237050D01*
X0346708Y0237050D01*
X0346900Y0237242D01*
X0346900Y0238075D01*
X0350475Y0238075D01*
X0350475Y0238625D01*
X0350475Y0240950D01*
X0348072Y0240950D01*
X0347729Y0240858D01*
X0347421Y0240680D01*
X0347170Y0240429D01*
X0346992Y0240121D01*
X0346900Y0239778D01*
X0346900Y0238625D01*
X0350475Y0238625D01*
X0351025Y0238625D01*
X0351025Y0240950D01*
X0353428Y0240950D01*
X0353771Y0240858D01*
X0353800Y0240841D01*
X0353800Y0257193D01*
X0352945Y0255712D01*
X0352945Y0255712D01*
X0352945Y0255712D01*
X0350446Y0253616D01*
X0347381Y0252500D01*
X0344119Y0252500D01*
X0341054Y0253616D01*
X0341054Y0253616D01*
X0338555Y0255712D01*
X0338555Y0255712D01*
X0336924Y0258537D01*
X0336924Y0258538D01*
X0336357Y0261750D01*
X0336357Y0261750D01*
X0336924Y0264962D01*
X0336924Y0264962D01*
X0338555Y0267787D01*
X0338555Y0267788D01*
X0338555Y0267788D01*
X0340953Y0269800D01*
X0340817Y0269686D02*
X0325217Y0269686D01*
X0325506Y0268987D02*
X0339984Y0268987D01*
X0339152Y0268289D02*
X0325795Y0268289D01*
X0326000Y0267590D02*
X0338441Y0267590D01*
X0338037Y0266891D02*
X0326000Y0266891D01*
X0326000Y0266193D02*
X0337634Y0266193D01*
X0337231Y0265494D02*
X0325912Y0265494D01*
X0325623Y0264796D02*
X0336894Y0264796D01*
X0336771Y0264097D02*
X0325334Y0264097D01*
X0324824Y0263399D02*
X0336648Y0263399D01*
X0336525Y0262700D02*
X0324125Y0262700D01*
X0323006Y0262002D02*
X0336402Y0262002D01*
X0336436Y0261303D02*
X0312650Y0261303D01*
X0312650Y0260605D02*
X0336559Y0260605D01*
X0336682Y0259906D02*
X0312650Y0259906D01*
X0312650Y0259208D02*
X0336806Y0259208D01*
X0336940Y0258509D02*
X0312650Y0258509D01*
X0312650Y0257811D02*
X0337343Y0257811D01*
X0337747Y0257112D02*
X0312650Y0257112D01*
X0312650Y0256414D02*
X0338150Y0256414D01*
X0338553Y0255715D02*
X0312650Y0255715D01*
X0312650Y0255017D02*
X0339384Y0255017D01*
X0340216Y0254318D02*
X0312650Y0254318D01*
X0312650Y0253620D02*
X0341049Y0253620D01*
X0342962Y0252921D02*
X0312650Y0252921D01*
X0312650Y0252223D02*
X0353800Y0252223D01*
X0353800Y0252921D02*
X0348538Y0252921D01*
X0350451Y0253620D02*
X0353800Y0253620D01*
X0353800Y0254318D02*
X0351284Y0254318D01*
X0352116Y0255017D02*
X0353800Y0255017D01*
X0353800Y0255715D02*
X0352947Y0255715D01*
X0353350Y0256414D02*
X0353800Y0256414D01*
X0353800Y0257112D02*
X0353753Y0257112D01*
X0353800Y0251524D02*
X0312650Y0251524D01*
X0312650Y0250826D02*
X0353800Y0250826D01*
X0353800Y0250127D02*
X0312650Y0250127D01*
X0312650Y0249429D02*
X0353800Y0249429D01*
X0353800Y0248730D02*
X0312650Y0248730D01*
X0312650Y0248032D02*
X0353800Y0248032D01*
X0353800Y0247333D02*
X0312650Y0247333D01*
X0312650Y0246635D02*
X0353800Y0246635D01*
X0353800Y0245936D02*
X0312650Y0245936D01*
X0312650Y0245238D02*
X0353800Y0245238D01*
X0353800Y0244539D02*
X0313356Y0244539D01*
X0314402Y0243841D02*
X0353800Y0243841D01*
X0353800Y0243142D02*
X0314921Y0243142D01*
X0315210Y0242444D02*
X0353800Y0242444D01*
X0353800Y0241745D02*
X0342359Y0241745D01*
X0341141Y0241745D02*
X0315250Y0241745D01*
X0317491Y0241047D02*
X0339804Y0241047D01*
X0339165Y0240348D02*
X0318248Y0240348D01*
X0318688Y0239650D02*
X0338875Y0239650D01*
X0338750Y0238951D02*
X0318977Y0238951D01*
X0319000Y0238253D02*
X0324566Y0238253D01*
X0323867Y0237554D02*
X0318979Y0237554D01*
X0318690Y0236855D02*
X0323169Y0236855D01*
X0322470Y0236157D02*
X0318253Y0236157D01*
X0317503Y0235458D02*
X0321771Y0235458D01*
X0321073Y0234760D02*
X0311447Y0234760D01*
X0312145Y0235458D02*
X0313997Y0235458D01*
X0313247Y0236157D02*
X0312844Y0236157D01*
X0312250Y0238250D02*
X0307250Y0233250D01*
X0305750Y0233250D01*
X0305750Y0228250D02*
X0299250Y0234750D01*
X0287250Y0234750D01*
X0285750Y0236750D02*
X0283250Y0234250D01*
X0289250Y0228250D01*
X0295750Y0228250D01*
X0293254Y0226150D02*
X0285537Y0226150D01*
X0283037Y0228650D01*
X0280093Y0228650D01*
X0279449Y0229293D01*
X0278347Y0229750D01*
X0277153Y0229750D01*
X0276051Y0229293D01*
X0275207Y0228449D01*
X0274750Y0227347D01*
X0274750Y0226153D01*
X0275207Y0225051D01*
X0276051Y0224207D01*
X0277153Y0223750D01*
X0278347Y0223750D01*
X0279449Y0224207D01*
X0280093Y0224850D01*
X0281463Y0224850D01*
X0282850Y0223463D01*
X0283963Y0222350D01*
X0305907Y0222350D01*
X0306051Y0222207D01*
X0306944Y0221837D01*
X0306944Y0216503D01*
X0306347Y0216750D01*
X0305153Y0216750D01*
X0304051Y0216293D01*
X0303207Y0215449D01*
X0302750Y0214347D01*
X0302750Y0213153D01*
X0303207Y0212051D01*
X0304051Y0211207D01*
X0305153Y0210750D01*
X0306347Y0210750D01*
X0306944Y0210997D01*
X0306944Y0203650D01*
X0294963Y0203650D01*
X0293850Y0202537D01*
X0293850Y0202537D01*
X0291161Y0199848D01*
X0290548Y0199833D01*
X0289438Y0198667D01*
X0289405Y0198663D01*
X0289396Y0198650D01*
X0283249Y0198650D01*
X0283250Y0198653D01*
X0283250Y0199847D01*
X0282793Y0200949D01*
X0282150Y0201593D01*
X0282150Y0218037D01*
X0281037Y0219150D01*
X0272650Y0227537D01*
X0272650Y0228963D01*
X0273537Y0229850D01*
X0281537Y0229850D01*
X0282650Y0230963D01*
X0283250Y0231563D01*
X0288463Y0226350D01*
X0290037Y0226350D01*
X0293054Y0226350D01*
X0293254Y0226150D01*
X0288435Y0226378D02*
X0285309Y0226378D01*
X0284611Y0227076D02*
X0287737Y0227076D01*
X0287038Y0227775D02*
X0283912Y0227775D01*
X0283214Y0228473D02*
X0286340Y0228473D01*
X0285641Y0229172D02*
X0279571Y0229172D01*
X0281557Y0229870D02*
X0284943Y0229870D01*
X0284244Y0230569D02*
X0282256Y0230569D01*
X0282650Y0230963D02*
X0282650Y0230963D01*
X0282954Y0231267D02*
X0283546Y0231267D01*
X0280750Y0231750D02*
X0283250Y0234250D01*
X0281771Y0235458D02*
X0257700Y0235458D01*
X0257700Y0234760D02*
X0281073Y0234760D01*
X0281350Y0235037D02*
X0279963Y0233650D01*
X0271963Y0233650D01*
X0268850Y0230537D01*
X0268850Y0225963D01*
X0269963Y0224850D01*
X0278350Y0216463D01*
X0278350Y0201593D01*
X0277707Y0200949D01*
X0277250Y0199847D01*
X0277250Y0198653D01*
X0277251Y0198650D01*
X0272933Y0198650D01*
X0272821Y0198922D01*
X0271977Y0199766D01*
X0270874Y0200222D01*
X0269681Y0200222D01*
X0268578Y0199766D01*
X0267734Y0198922D01*
X0267278Y0197819D01*
X0267278Y0196750D01*
X0257700Y0196750D01*
X0257700Y0257193D01*
X0258555Y0255712D01*
X0261054Y0253616D01*
X0264119Y0252500D01*
X0267381Y0252500D01*
X0270446Y0253616D01*
X0270446Y0253616D01*
X0272945Y0255712D01*
X0272945Y0255712D01*
X0272945Y0255712D01*
X0274576Y0258537D01*
X0274576Y0258538D01*
X0275143Y0261750D01*
X0274576Y0264962D01*
X0274576Y0264962D01*
X0272945Y0267787D01*
X0272945Y0267788D01*
X0270547Y0269800D01*
X0286724Y0269800D01*
X0286431Y0269397D01*
X0286070Y0268689D01*
X0285824Y0267933D01*
X0285700Y0267147D01*
X0285700Y0267100D01*
X0290400Y0267100D01*
X0290400Y0266400D01*
X0291100Y0266400D01*
X0291100Y0261700D01*
X0291147Y0261700D01*
X0291933Y0261824D01*
X0292689Y0262070D01*
X0293397Y0262431D01*
X0294040Y0262898D01*
X0294602Y0263460D01*
X0295069Y0264103D01*
X0295430Y0264811D01*
X0295624Y0265407D01*
X0295945Y0264632D01*
X0288850Y0257537D01*
X0288850Y0249093D01*
X0288207Y0248449D01*
X0287750Y0247347D01*
X0287750Y0246153D01*
X0288207Y0245051D01*
X0289051Y0244207D01*
X0290153Y0243750D01*
X0291347Y0243750D01*
X0292449Y0244207D01*
X0293293Y0245051D01*
X0293750Y0246153D01*
X0293750Y0247347D01*
X0293293Y0248449D01*
X0292650Y0249093D01*
X0292650Y0255963D01*
X0298632Y0261945D01*
X0299706Y0261500D01*
X0301794Y0261500D01*
X0303724Y0262299D01*
X0305201Y0263776D01*
X0305750Y0265102D01*
X0306037Y0264408D01*
X0305779Y0262353D01*
X0305687Y0262262D01*
X0305687Y0261627D01*
X0305608Y0260997D01*
X0305687Y0260895D01*
X0305687Y0260766D01*
X0306136Y0260317D01*
X0306525Y0259815D01*
X0306654Y0259799D01*
X0306745Y0259708D01*
X0306944Y0259708D01*
X0306944Y0245663D01*
X0306051Y0245293D01*
X0305207Y0244449D01*
X0304876Y0243650D01*
X0299963Y0243650D01*
X0297398Y0241085D01*
X0296396Y0241500D01*
X0295104Y0241500D01*
X0293909Y0241005D01*
X0292995Y0240091D01*
X0292500Y0238896D01*
X0292500Y0237604D01*
X0292895Y0236650D01*
X0289593Y0236650D01*
X0288949Y0237293D01*
X0287847Y0237750D01*
X0287650Y0237750D01*
X0287650Y0239407D01*
X0288293Y0240051D01*
X0288750Y0241153D01*
X0288750Y0242347D01*
X0288293Y0243449D01*
X0287449Y0244293D01*
X0286347Y0244750D01*
X0285153Y0244750D01*
X0284051Y0244293D01*
X0283207Y0243449D01*
X0282750Y0242347D01*
X0282750Y0241153D01*
X0283207Y0240051D01*
X0283850Y0239407D01*
X0283850Y0237537D01*
X0282463Y0236150D01*
X0281350Y0235037D01*
X0281350Y0235037D01*
X0280374Y0234061D02*
X0257700Y0234061D01*
X0257700Y0233363D02*
X0271676Y0233363D01*
X0270977Y0232664D02*
X0257700Y0232664D01*
X0257700Y0231966D02*
X0270279Y0231966D01*
X0269580Y0231267D02*
X0257700Y0231267D01*
X0257700Y0230569D02*
X0268882Y0230569D01*
X0268850Y0229870D02*
X0257700Y0229870D01*
X0257700Y0229172D02*
X0268850Y0229172D01*
X0268850Y0228473D02*
X0257700Y0228473D01*
X0257700Y0227775D02*
X0268850Y0227775D01*
X0268850Y0227076D02*
X0257700Y0227076D01*
X0257700Y0226378D02*
X0268850Y0226378D01*
X0269134Y0225679D02*
X0257700Y0225679D01*
X0257700Y0224981D02*
X0269832Y0224981D01*
X0270531Y0224282D02*
X0257700Y0224282D01*
X0257700Y0223584D02*
X0271229Y0223584D01*
X0271928Y0222885D02*
X0257700Y0222885D01*
X0257700Y0222187D02*
X0272626Y0222187D01*
X0273325Y0221488D02*
X0257700Y0221488D01*
X0257700Y0220790D02*
X0274023Y0220790D01*
X0274722Y0220091D02*
X0257700Y0220091D01*
X0257700Y0219393D02*
X0275420Y0219393D01*
X0276119Y0218694D02*
X0257700Y0218694D01*
X0257700Y0217996D02*
X0276817Y0217996D01*
X0277516Y0217297D02*
X0257700Y0217297D01*
X0257700Y0216599D02*
X0278214Y0216599D01*
X0278350Y0215900D02*
X0257700Y0215900D01*
X0257700Y0215202D02*
X0278350Y0215202D01*
X0278350Y0214503D02*
X0257700Y0214503D01*
X0257700Y0213805D02*
X0278350Y0213805D01*
X0278350Y0213106D02*
X0257700Y0213106D01*
X0257700Y0212408D02*
X0278350Y0212408D01*
X0278350Y0211709D02*
X0257700Y0211709D01*
X0257700Y0211011D02*
X0278350Y0211011D01*
X0278350Y0210312D02*
X0257700Y0210312D01*
X0257700Y0209614D02*
X0278350Y0209614D01*
X0278350Y0208915D02*
X0257700Y0208915D01*
X0257700Y0208217D02*
X0278350Y0208217D01*
X0278350Y0207518D02*
X0257700Y0207518D01*
X0257700Y0206820D02*
X0278350Y0206820D01*
X0278350Y0206121D02*
X0257700Y0206121D01*
X0257700Y0205422D02*
X0278350Y0205422D01*
X0278350Y0204724D02*
X0257700Y0204724D01*
X0257700Y0204025D02*
X0278350Y0204025D01*
X0278350Y0203327D02*
X0257700Y0203327D01*
X0257700Y0202628D02*
X0278350Y0202628D01*
X0278350Y0201930D02*
X0257700Y0201930D01*
X0257700Y0201231D02*
X0277989Y0201231D01*
X0277534Y0200533D02*
X0257700Y0200533D01*
X0257700Y0199834D02*
X0268744Y0199834D01*
X0267948Y0199136D02*
X0257700Y0199136D01*
X0257700Y0198437D02*
X0267534Y0198437D01*
X0267278Y0197739D02*
X0257700Y0197739D01*
X0257700Y0197040D02*
X0267278Y0197040D01*
X0270278Y0197222D02*
X0270750Y0196750D01*
X0290750Y0196750D01*
X0295750Y0201750D01*
X0315750Y0201750D01*
X0329392Y0188108D01*
X0329392Y0177419D01*
X0323812Y0196750D02*
X0322758Y0197915D01*
X0322756Y0197948D01*
X0322633Y0198054D01*
X0322235Y0198494D01*
X0322142Y0198627D01*
X0322109Y0198632D01*
X0321492Y0199315D01*
X0320839Y0199348D01*
X0317650Y0202537D01*
X0316537Y0203650D01*
X0310556Y0203650D01*
X0310556Y0212350D01*
X0324037Y0212350D01*
X0344937Y0233250D01*
X0346708Y0233250D01*
X0347608Y0232350D01*
X0353800Y0232350D01*
X0353800Y0196750D01*
X0323812Y0196750D01*
X0323550Y0197040D02*
X0353800Y0197040D01*
X0353800Y0197739D02*
X0322918Y0197739D01*
X0322286Y0198437D02*
X0353800Y0198437D01*
X0353800Y0199136D02*
X0321654Y0199136D01*
X0320353Y0199834D02*
X0353800Y0199834D01*
X0353800Y0200533D02*
X0319654Y0200533D01*
X0318956Y0201231D02*
X0353800Y0201231D01*
X0353800Y0201930D02*
X0318257Y0201930D01*
X0317559Y0202628D02*
X0353800Y0202628D01*
X0353800Y0203327D02*
X0316860Y0203327D01*
X0310556Y0204025D02*
X0353800Y0204025D01*
X0353800Y0204724D02*
X0310556Y0204724D01*
X0310556Y0205422D02*
X0353800Y0205422D01*
X0353800Y0206121D02*
X0310556Y0206121D01*
X0310556Y0206820D02*
X0353800Y0206820D01*
X0353800Y0207518D02*
X0310556Y0207518D01*
X0310556Y0208217D02*
X0353800Y0208217D01*
X0353800Y0208915D02*
X0310556Y0208915D01*
X0310556Y0209614D02*
X0353800Y0209614D01*
X0353800Y0210312D02*
X0310556Y0210312D01*
X0310556Y0211011D02*
X0353800Y0211011D01*
X0353800Y0211709D02*
X0310556Y0211709D01*
X0306944Y0210312D02*
X0282150Y0210312D01*
X0282150Y0209614D02*
X0306944Y0209614D01*
X0306944Y0208915D02*
X0282150Y0208915D01*
X0282150Y0208217D02*
X0306944Y0208217D01*
X0306944Y0207518D02*
X0282150Y0207518D01*
X0282150Y0206820D02*
X0306944Y0206820D01*
X0306944Y0206121D02*
X0282150Y0206121D01*
X0282150Y0205422D02*
X0306944Y0205422D01*
X0306944Y0204724D02*
X0282150Y0204724D01*
X0282150Y0204025D02*
X0306944Y0204025D01*
X0304524Y0211011D02*
X0282150Y0211011D01*
X0282150Y0211709D02*
X0303548Y0211709D01*
X0303059Y0212408D02*
X0282150Y0212408D01*
X0282150Y0213106D02*
X0302770Y0213106D01*
X0302750Y0213805D02*
X0282150Y0213805D01*
X0282150Y0214503D02*
X0302815Y0214503D01*
X0303104Y0215202D02*
X0282150Y0215202D01*
X0282150Y0215900D02*
X0303658Y0215900D01*
X0304788Y0216599D02*
X0282150Y0216599D01*
X0282150Y0217297D02*
X0306944Y0217297D01*
X0306944Y0216599D02*
X0306712Y0216599D01*
X0306944Y0217996D02*
X0282150Y0217996D01*
X0281493Y0218694D02*
X0306944Y0218694D01*
X0306944Y0219393D02*
X0280794Y0219393D01*
X0280096Y0220091D02*
X0306944Y0220091D01*
X0306944Y0220790D02*
X0279397Y0220790D01*
X0278699Y0221488D02*
X0306944Y0221488D01*
X0306099Y0222187D02*
X0278000Y0222187D01*
X0277302Y0222885D02*
X0283428Y0222885D01*
X0282729Y0223584D02*
X0276603Y0223584D01*
X0275975Y0224282D02*
X0275905Y0224282D01*
X0275277Y0224981D02*
X0275206Y0224981D01*
X0274946Y0225679D02*
X0274508Y0225679D01*
X0274750Y0226378D02*
X0273809Y0226378D01*
X0273111Y0227076D02*
X0274750Y0227076D01*
X0274927Y0227775D02*
X0272650Y0227775D01*
X0272650Y0228473D02*
X0275231Y0228473D01*
X0275929Y0229172D02*
X0272859Y0229172D01*
X0270750Y0229750D02*
X0272750Y0231750D01*
X0280750Y0231750D01*
X0282463Y0236150D02*
X0282463Y0236150D01*
X0282470Y0236157D02*
X0257700Y0236157D01*
X0257700Y0236855D02*
X0283169Y0236855D01*
X0283850Y0237554D02*
X0257700Y0237554D01*
X0257700Y0238253D02*
X0283850Y0238253D01*
X0283850Y0238951D02*
X0257700Y0238951D01*
X0257700Y0239650D02*
X0283608Y0239650D01*
X0283084Y0240348D02*
X0257700Y0240348D01*
X0257700Y0241047D02*
X0282794Y0241047D01*
X0282750Y0241745D02*
X0257700Y0241745D01*
X0257700Y0242444D02*
X0282790Y0242444D01*
X0283079Y0243142D02*
X0257700Y0243142D01*
X0257700Y0243841D02*
X0283598Y0243841D01*
X0284644Y0244539D02*
X0257700Y0244539D01*
X0257700Y0245238D02*
X0288129Y0245238D01*
X0287840Y0245936D02*
X0257700Y0245936D01*
X0257700Y0246635D02*
X0287750Y0246635D01*
X0287750Y0247333D02*
X0257700Y0247333D01*
X0257700Y0248032D02*
X0288034Y0248032D01*
X0288488Y0248730D02*
X0257700Y0248730D01*
X0257700Y0249429D02*
X0288850Y0249429D01*
X0288850Y0250127D02*
X0257700Y0250127D01*
X0257700Y0250826D02*
X0288850Y0250826D01*
X0288850Y0251524D02*
X0257700Y0251524D01*
X0257700Y0252223D02*
X0288850Y0252223D01*
X0288850Y0252921D02*
X0268538Y0252921D01*
X0270451Y0253620D02*
X0288850Y0253620D01*
X0288850Y0254318D02*
X0271284Y0254318D01*
X0272116Y0255017D02*
X0288850Y0255017D01*
X0288850Y0255715D02*
X0272947Y0255715D01*
X0273350Y0256414D02*
X0288850Y0256414D01*
X0288850Y0257112D02*
X0273753Y0257112D01*
X0274157Y0257811D02*
X0289124Y0257811D01*
X0289822Y0258509D02*
X0274560Y0258509D01*
X0274694Y0259208D02*
X0290521Y0259208D01*
X0291219Y0259906D02*
X0274818Y0259906D01*
X0274941Y0260605D02*
X0291918Y0260605D01*
X0292616Y0261303D02*
X0275064Y0261303D01*
X0275143Y0261750D02*
X0275143Y0261750D01*
X0275098Y0262002D02*
X0289021Y0262002D01*
X0288811Y0262070D02*
X0289567Y0261824D01*
X0290353Y0261700D01*
X0290400Y0261700D01*
X0290400Y0266400D01*
X0285700Y0266400D01*
X0285700Y0266353D01*
X0285824Y0265567D01*
X0286070Y0264811D01*
X0286431Y0264103D01*
X0286898Y0263460D01*
X0287460Y0262898D01*
X0288103Y0262431D01*
X0288811Y0262070D01*
X0287732Y0262700D02*
X0274975Y0262700D01*
X0274852Y0263399D02*
X0286959Y0263399D01*
X0286435Y0264097D02*
X0274729Y0264097D01*
X0274606Y0264796D02*
X0286078Y0264796D01*
X0285848Y0265494D02*
X0274269Y0265494D01*
X0273866Y0266193D02*
X0285725Y0266193D01*
X0285770Y0267590D02*
X0273059Y0267590D01*
X0273463Y0266891D02*
X0290400Y0266891D01*
X0290400Y0266193D02*
X0291100Y0266193D01*
X0291100Y0265494D02*
X0290400Y0265494D01*
X0290400Y0264796D02*
X0291100Y0264796D01*
X0291100Y0264097D02*
X0290400Y0264097D01*
X0290400Y0263399D02*
X0291100Y0263399D01*
X0291100Y0262700D02*
X0290400Y0262700D01*
X0290400Y0262002D02*
X0291100Y0262002D01*
X0292479Y0262002D02*
X0293315Y0262002D01*
X0293768Y0262700D02*
X0294013Y0262700D01*
X0294541Y0263399D02*
X0294712Y0263399D01*
X0295065Y0264097D02*
X0295410Y0264097D01*
X0295422Y0264796D02*
X0295877Y0264796D01*
X0297990Y0261303D02*
X0305646Y0261303D01*
X0305687Y0262002D02*
X0303006Y0262002D01*
X0304125Y0262700D02*
X0305822Y0262700D01*
X0305910Y0263399D02*
X0304824Y0263399D01*
X0305334Y0264097D02*
X0305998Y0264097D01*
X0305877Y0264796D02*
X0305623Y0264796D01*
X0305848Y0260605D02*
X0297292Y0260605D01*
X0296593Y0259906D02*
X0306455Y0259906D01*
X0306944Y0259208D02*
X0295895Y0259208D01*
X0295196Y0258509D02*
X0306944Y0258509D01*
X0306944Y0257811D02*
X0294498Y0257811D01*
X0293799Y0257112D02*
X0306944Y0257112D01*
X0306944Y0256414D02*
X0293101Y0256414D01*
X0292650Y0255715D02*
X0306944Y0255715D01*
X0306944Y0255017D02*
X0292650Y0255017D01*
X0292650Y0254318D02*
X0306944Y0254318D01*
X0306944Y0253620D02*
X0292650Y0253620D01*
X0292650Y0252921D02*
X0306944Y0252921D01*
X0306944Y0252223D02*
X0292650Y0252223D01*
X0292650Y0251524D02*
X0306944Y0251524D01*
X0306944Y0250826D02*
X0292650Y0250826D01*
X0292650Y0250127D02*
X0306944Y0250127D01*
X0306944Y0249429D02*
X0292650Y0249429D01*
X0293012Y0248730D02*
X0306944Y0248730D01*
X0306944Y0248032D02*
X0293466Y0248032D01*
X0293750Y0247333D02*
X0306944Y0247333D01*
X0306944Y0246635D02*
X0293750Y0246635D01*
X0293660Y0245936D02*
X0306944Y0245936D01*
X0305995Y0245238D02*
X0293371Y0245238D01*
X0292782Y0244539D02*
X0305296Y0244539D01*
X0304955Y0243841D02*
X0291565Y0243841D01*
X0289934Y0243841D02*
X0287902Y0243841D01*
X0288421Y0243142D02*
X0299455Y0243142D01*
X0298757Y0242444D02*
X0288710Y0242444D01*
X0288750Y0241745D02*
X0298058Y0241745D01*
X0300750Y0241750D02*
X0297250Y0238250D01*
X0295750Y0238250D01*
X0292500Y0238253D02*
X0287650Y0238253D01*
X0287650Y0238951D02*
X0292523Y0238951D01*
X0292812Y0239650D02*
X0287892Y0239650D01*
X0288416Y0240348D02*
X0293252Y0240348D01*
X0294009Y0241047D02*
X0288706Y0241047D01*
X0285750Y0241750D02*
X0285750Y0236750D01*
X0288320Y0237554D02*
X0292521Y0237554D01*
X0292810Y0236855D02*
X0289387Y0236855D01*
X0288718Y0244539D02*
X0286856Y0244539D01*
X0290750Y0246750D02*
X0290750Y0256750D01*
X0300750Y0266750D01*
X0310750Y0266750D02*
X0310750Y0243250D01*
X0312250Y0241750D01*
X0312250Y0238250D02*
X0315750Y0238250D01*
X0320374Y0234061D02*
X0310748Y0234061D01*
X0310750Y0231750D02*
X0307250Y0228250D01*
X0305750Y0228250D01*
X0307750Y0224750D02*
X0307250Y0224250D01*
X0284750Y0224250D01*
X0282250Y0226750D01*
X0277750Y0226750D01*
X0279525Y0224282D02*
X0282031Y0224282D01*
X0280250Y0217250D02*
X0280250Y0199250D01*
X0283250Y0199136D02*
X0289884Y0199136D01*
X0290591Y0199834D02*
X0283250Y0199834D01*
X0282966Y0200533D02*
X0291846Y0200533D01*
X0292544Y0201231D02*
X0282511Y0201231D01*
X0282150Y0201930D02*
X0293243Y0201930D01*
X0293941Y0202628D02*
X0282150Y0202628D01*
X0282150Y0203327D02*
X0294640Y0203327D01*
X0305750Y0213750D02*
X0306250Y0214250D01*
X0323250Y0214250D01*
X0344150Y0235150D01*
X0350750Y0235150D01*
X0350475Y0238253D02*
X0344750Y0238253D01*
X0344750Y0238951D02*
X0346900Y0238951D01*
X0346900Y0239650D02*
X0344625Y0239650D01*
X0344335Y0240348D02*
X0347123Y0240348D01*
X0346900Y0237554D02*
X0344502Y0237554D01*
X0341750Y0238750D02*
X0339750Y0236750D01*
X0325750Y0236750D01*
X0320750Y0231750D01*
X0310750Y0231750D01*
X0311537Y0229850D02*
X0313151Y0229850D01*
X0313047Y0229695D01*
X0312817Y0229140D01*
X0312700Y0228550D01*
X0312700Y0228400D01*
X0315600Y0228400D01*
X0315600Y0228100D01*
X0315900Y0228100D01*
X0315900Y0228400D01*
X0318800Y0228400D01*
X0318800Y0228550D01*
X0318683Y0229140D01*
X0318453Y0229695D01*
X0318349Y0229850D01*
X0321537Y0229850D01*
X0322650Y0230963D01*
X0326537Y0234850D01*
X0340537Y0234850D01*
X0341437Y0235750D01*
X0342063Y0235750D01*
X0322463Y0216150D01*
X0310556Y0216150D01*
X0310556Y0223685D01*
X0310750Y0224153D01*
X0310750Y0225347D01*
X0310556Y0225815D01*
X0310556Y0228869D01*
X0311537Y0229850D01*
X0310859Y0229172D02*
X0312831Y0229172D01*
X0312700Y0228473D02*
X0310556Y0228473D01*
X0310556Y0227775D02*
X0312735Y0227775D01*
X0312700Y0227950D02*
X0312817Y0227360D01*
X0313047Y0226805D01*
X0313381Y0226306D01*
X0313806Y0225881D01*
X0314305Y0225547D01*
X0314860Y0225317D01*
X0315450Y0225200D01*
X0315600Y0225200D01*
X0315600Y0228100D01*
X0312700Y0228100D01*
X0312700Y0227950D01*
X0312935Y0227076D02*
X0310556Y0227076D01*
X0310556Y0226378D02*
X0313333Y0226378D01*
X0314107Y0225679D02*
X0310612Y0225679D01*
X0310750Y0224981D02*
X0331294Y0224981D01*
X0331992Y0225679D02*
X0317393Y0225679D01*
X0317195Y0225547D02*
X0317694Y0225881D01*
X0318119Y0226306D01*
X0318453Y0226805D01*
X0318683Y0227360D01*
X0318800Y0227950D01*
X0318800Y0228100D01*
X0315900Y0228100D01*
X0315900Y0225200D01*
X0316050Y0225200D01*
X0316640Y0225317D01*
X0317195Y0225547D01*
X0318167Y0226378D02*
X0332691Y0226378D01*
X0333389Y0227076D02*
X0318565Y0227076D01*
X0318765Y0227775D02*
X0334088Y0227775D01*
X0334786Y0228473D02*
X0318800Y0228473D01*
X0318669Y0229172D02*
X0335485Y0229172D01*
X0336183Y0229870D02*
X0321557Y0229870D01*
X0322256Y0230569D02*
X0336882Y0230569D01*
X0337580Y0231267D02*
X0322954Y0231267D01*
X0323653Y0231966D02*
X0338279Y0231966D01*
X0338977Y0232664D02*
X0324351Y0232664D01*
X0325050Y0233363D02*
X0339676Y0233363D01*
X0340374Y0234061D02*
X0325748Y0234061D01*
X0326447Y0234760D02*
X0341073Y0234760D01*
X0341145Y0235458D02*
X0341771Y0235458D01*
X0344351Y0232664D02*
X0347294Y0232664D01*
X0343653Y0231966D02*
X0353800Y0231966D01*
X0353800Y0231267D02*
X0342954Y0231267D01*
X0342256Y0230569D02*
X0353800Y0230569D01*
X0353800Y0229870D02*
X0341557Y0229870D01*
X0340859Y0229172D02*
X0353800Y0229172D01*
X0353800Y0228473D02*
X0340160Y0228473D01*
X0339462Y0227775D02*
X0353800Y0227775D01*
X0353800Y0227076D02*
X0338763Y0227076D01*
X0338065Y0226378D02*
X0353800Y0226378D01*
X0353800Y0225679D02*
X0337366Y0225679D01*
X0336668Y0224981D02*
X0353800Y0224981D01*
X0353800Y0224282D02*
X0335969Y0224282D01*
X0335271Y0223584D02*
X0353800Y0223584D01*
X0353800Y0222885D02*
X0334572Y0222885D01*
X0333874Y0222187D02*
X0353800Y0222187D01*
X0353800Y0221488D02*
X0333175Y0221488D01*
X0332477Y0220790D02*
X0353800Y0220790D01*
X0353800Y0220091D02*
X0331778Y0220091D01*
X0331080Y0219393D02*
X0353800Y0219393D01*
X0353800Y0218694D02*
X0330381Y0218694D01*
X0329683Y0217996D02*
X0353800Y0217996D01*
X0353800Y0217297D02*
X0328984Y0217297D01*
X0328286Y0216599D02*
X0353800Y0216599D01*
X0353800Y0215900D02*
X0327587Y0215900D01*
X0326889Y0215202D02*
X0353800Y0215202D01*
X0353800Y0214503D02*
X0326190Y0214503D01*
X0325492Y0213805D02*
X0353800Y0213805D01*
X0353800Y0213106D02*
X0324793Y0213106D01*
X0324095Y0212408D02*
X0353800Y0212408D01*
X0330595Y0224282D02*
X0310750Y0224282D01*
X0310556Y0223584D02*
X0329897Y0223584D01*
X0329198Y0222885D02*
X0310556Y0222885D01*
X0310556Y0222187D02*
X0328500Y0222187D01*
X0327801Y0221488D02*
X0310556Y0221488D01*
X0310556Y0220790D02*
X0327103Y0220790D01*
X0326404Y0220091D02*
X0310556Y0220091D01*
X0310556Y0219393D02*
X0325706Y0219393D01*
X0325007Y0218694D02*
X0310556Y0218694D01*
X0310556Y0217996D02*
X0324309Y0217996D01*
X0323610Y0217297D02*
X0310556Y0217297D01*
X0310556Y0216599D02*
X0322912Y0216599D01*
X0325750Y0226750D02*
X0328750Y0229750D01*
X0330750Y0229750D01*
X0315900Y0227775D02*
X0315600Y0227775D01*
X0315600Y0227076D02*
X0315900Y0227076D01*
X0315900Y0226378D02*
X0315600Y0226378D01*
X0315600Y0225679D02*
X0315900Y0225679D01*
X0306750Y0241750D02*
X0307750Y0242750D01*
X0306750Y0241750D02*
X0300750Y0241750D01*
X0313006Y0262002D02*
X0318494Y0262002D01*
X0317375Y0262700D02*
X0314125Y0262700D01*
X0314824Y0263399D02*
X0316676Y0263399D01*
X0316166Y0264097D02*
X0315334Y0264097D01*
X0315623Y0264796D02*
X0315877Y0264796D01*
X0343696Y0241047D02*
X0353800Y0241047D01*
X0351025Y0240348D02*
X0350475Y0240348D01*
X0350475Y0239650D02*
X0351025Y0239650D01*
X0351025Y0238951D02*
X0350475Y0238951D01*
X0286641Y0269686D02*
X0270683Y0269686D01*
X0271516Y0268987D02*
X0286222Y0268987D01*
X0285940Y0268289D02*
X0272348Y0268289D01*
X0262962Y0252921D02*
X0257700Y0252921D01*
X0257700Y0253620D02*
X0261049Y0253620D01*
X0261054Y0253616D02*
X0261054Y0253616D01*
X0260216Y0254318D02*
X0257700Y0254318D01*
X0257700Y0255017D02*
X0259384Y0255017D01*
X0258555Y0255712D02*
X0258555Y0255712D01*
X0258553Y0255715D02*
X0257700Y0255715D01*
X0257700Y0256414D02*
X0258150Y0256414D01*
X0257747Y0257112D02*
X0257700Y0257112D01*
X0251800Y0257112D02*
X0251753Y0257112D01*
X0251800Y0257193D02*
X0251800Y0240841D01*
X0251771Y0240858D01*
X0251428Y0240950D01*
X0249025Y0240950D01*
X0249025Y0238625D01*
X0248475Y0238625D01*
X0248475Y0240950D01*
X0246072Y0240950D01*
X0245729Y0240858D01*
X0245421Y0240680D01*
X0245170Y0240429D01*
X0244992Y0240121D01*
X0244900Y0239778D01*
X0244900Y0238625D01*
X0248475Y0238625D01*
X0248475Y0238075D01*
X0244900Y0238075D01*
X0244900Y0237242D01*
X0244708Y0237050D01*
X0242293Y0237050D01*
X0242293Y0237051D01*
X0242750Y0238153D01*
X0242750Y0239347D01*
X0242293Y0240449D01*
X0241449Y0241293D01*
X0240347Y0241750D01*
X0239153Y0241750D01*
X0238051Y0241293D01*
X0237207Y0240449D01*
X0236750Y0239347D01*
X0236750Y0238650D01*
X0222963Y0238650D01*
X0217963Y0233650D01*
X0208556Y0233650D01*
X0208556Y0233869D01*
X0211037Y0236350D01*
X0211054Y0236350D01*
X0211909Y0235495D01*
X0213104Y0235000D01*
X0214396Y0235000D01*
X0215591Y0235495D01*
X0216505Y0236409D01*
X0217000Y0237604D01*
X0217000Y0238896D01*
X0216505Y0240091D01*
X0215591Y0241005D01*
X0214396Y0241500D01*
X0213250Y0241500D01*
X0213250Y0242347D01*
X0212793Y0243449D01*
X0211949Y0244293D01*
X0210847Y0244750D01*
X0210650Y0244750D01*
X0210650Y0261854D01*
X0211724Y0262299D01*
X0213201Y0263776D01*
X0213750Y0265102D01*
X0214299Y0263776D01*
X0215776Y0262299D01*
X0217706Y0261500D01*
X0219794Y0261500D01*
X0221724Y0262299D01*
X0223201Y0263776D01*
X0224000Y0265706D01*
X0224000Y0267794D01*
X0223201Y0269724D01*
X0223125Y0269800D01*
X0238953Y0269800D01*
X0236555Y0267788D01*
X0234924Y0264962D01*
X0234357Y0261750D01*
X0234924Y0258538D01*
X0234924Y0258537D01*
X0236555Y0255712D01*
X0239054Y0253616D01*
X0242119Y0252500D01*
X0245381Y0252500D01*
X0248446Y0253616D01*
X0248446Y0253616D01*
X0250945Y0255712D01*
X0250945Y0255712D01*
X0250945Y0255712D01*
X0251800Y0257193D01*
X0251800Y0256414D02*
X0251350Y0256414D01*
X0250947Y0255715D02*
X0251800Y0255715D01*
X0251800Y0255017D02*
X0250116Y0255017D01*
X0249284Y0254318D02*
X0251800Y0254318D01*
X0251800Y0253620D02*
X0248451Y0253620D01*
X0246538Y0252921D02*
X0251800Y0252921D01*
X0251800Y0252223D02*
X0210650Y0252223D01*
X0210650Y0252921D02*
X0240962Y0252921D01*
X0239054Y0253616D02*
X0239054Y0253616D01*
X0239049Y0253620D02*
X0210650Y0253620D01*
X0210650Y0254318D02*
X0238216Y0254318D01*
X0237384Y0255017D02*
X0210650Y0255017D01*
X0210650Y0255715D02*
X0236553Y0255715D01*
X0236555Y0255712D02*
X0236555Y0255712D01*
X0236150Y0256414D02*
X0210650Y0256414D01*
X0210650Y0257112D02*
X0235747Y0257112D01*
X0235343Y0257811D02*
X0210650Y0257811D01*
X0210650Y0258509D02*
X0234940Y0258509D01*
X0234806Y0259208D02*
X0210650Y0259208D01*
X0210650Y0259906D02*
X0234682Y0259906D01*
X0234559Y0260605D02*
X0210650Y0260605D01*
X0210650Y0261303D02*
X0234436Y0261303D01*
X0234357Y0261750D02*
X0234357Y0261750D01*
X0234402Y0262002D02*
X0221006Y0262002D01*
X0222125Y0262700D02*
X0234525Y0262700D01*
X0234648Y0263399D02*
X0222824Y0263399D01*
X0223334Y0264097D02*
X0234771Y0264097D01*
X0234894Y0264796D02*
X0223623Y0264796D01*
X0223912Y0265494D02*
X0235231Y0265494D01*
X0235634Y0266193D02*
X0224000Y0266193D01*
X0224000Y0266891D02*
X0236037Y0266891D01*
X0236441Y0267590D02*
X0224000Y0267590D01*
X0223795Y0268289D02*
X0237152Y0268289D01*
X0236555Y0267788D02*
X0236555Y0267788D01*
X0237984Y0268987D02*
X0223506Y0268987D01*
X0223217Y0269686D02*
X0238817Y0269686D01*
X0251800Y0251524D02*
X0210650Y0251524D01*
X0210650Y0250826D02*
X0251800Y0250826D01*
X0251800Y0250127D02*
X0210650Y0250127D01*
X0210650Y0249429D02*
X0251800Y0249429D01*
X0251800Y0248730D02*
X0210650Y0248730D01*
X0210650Y0248032D02*
X0251800Y0248032D01*
X0251800Y0247333D02*
X0210650Y0247333D01*
X0210650Y0246635D02*
X0251800Y0246635D01*
X0251800Y0245936D02*
X0210650Y0245936D01*
X0210650Y0245238D02*
X0251800Y0245238D01*
X0251800Y0244539D02*
X0211356Y0244539D01*
X0212402Y0243841D02*
X0251800Y0243841D01*
X0251800Y0243142D02*
X0212921Y0243142D01*
X0213210Y0242444D02*
X0251800Y0242444D01*
X0251800Y0241745D02*
X0240359Y0241745D01*
X0239141Y0241745D02*
X0213250Y0241745D01*
X0215491Y0241047D02*
X0237804Y0241047D01*
X0237165Y0240348D02*
X0216248Y0240348D01*
X0216688Y0239650D02*
X0236875Y0239650D01*
X0236750Y0238951D02*
X0216977Y0238951D01*
X0217000Y0238253D02*
X0222566Y0238253D01*
X0221867Y0237554D02*
X0216979Y0237554D01*
X0216690Y0236855D02*
X0221169Y0236855D01*
X0220470Y0236157D02*
X0216253Y0236157D01*
X0215503Y0235458D02*
X0219771Y0235458D01*
X0219073Y0234760D02*
X0209447Y0234760D01*
X0210145Y0235458D02*
X0211997Y0235458D01*
X0211247Y0236157D02*
X0210844Y0236157D01*
X0210250Y0238250D02*
X0205250Y0233250D01*
X0203750Y0233250D01*
X0203750Y0228250D02*
X0197250Y0234750D01*
X0185250Y0234750D01*
X0183750Y0236750D02*
X0181250Y0234250D01*
X0187250Y0228250D01*
X0193750Y0228250D01*
X0191254Y0226150D02*
X0183537Y0226150D01*
X0181037Y0228650D01*
X0178093Y0228650D01*
X0177449Y0229293D01*
X0176347Y0229750D01*
X0175153Y0229750D01*
X0174051Y0229293D01*
X0173207Y0228449D01*
X0172750Y0227347D01*
X0172750Y0226153D01*
X0173207Y0225051D01*
X0174051Y0224207D01*
X0175153Y0223750D01*
X0176347Y0223750D01*
X0177449Y0224207D01*
X0178093Y0224850D01*
X0179463Y0224850D01*
X0180850Y0223463D01*
X0181963Y0222350D01*
X0203907Y0222350D01*
X0204051Y0222207D01*
X0204944Y0221837D01*
X0204944Y0216503D01*
X0204347Y0216750D01*
X0203153Y0216750D01*
X0202051Y0216293D01*
X0201207Y0215449D01*
X0200750Y0214347D01*
X0200750Y0213153D01*
X0201207Y0212051D01*
X0202051Y0211207D01*
X0203153Y0210750D01*
X0204347Y0210750D01*
X0204944Y0210997D01*
X0204944Y0203650D01*
X0192963Y0203650D01*
X0189161Y0199848D01*
X0188548Y0199833D01*
X0187438Y0198667D01*
X0187405Y0198663D01*
X0187396Y0198650D01*
X0181249Y0198650D01*
X0181250Y0198653D01*
X0181250Y0199847D01*
X0180793Y0200949D01*
X0180150Y0201593D01*
X0180150Y0218037D01*
X0170650Y0227537D01*
X0170650Y0228963D01*
X0171537Y0229850D01*
X0179537Y0229850D01*
X0180650Y0230963D01*
X0181250Y0231563D01*
X0186463Y0226350D01*
X0188037Y0226350D01*
X0191054Y0226350D01*
X0191254Y0226150D01*
X0186435Y0226378D02*
X0183309Y0226378D01*
X0182611Y0227076D02*
X0185737Y0227076D01*
X0185038Y0227775D02*
X0181912Y0227775D01*
X0181214Y0228473D02*
X0184340Y0228473D01*
X0183641Y0229172D02*
X0177571Y0229172D01*
X0179557Y0229870D02*
X0182943Y0229870D01*
X0182244Y0230569D02*
X0180256Y0230569D01*
X0180650Y0230963D02*
X0180650Y0230963D01*
X0180954Y0231267D02*
X0181546Y0231267D01*
X0178750Y0231750D02*
X0181250Y0234250D01*
X0179771Y0235458D02*
X0155700Y0235458D01*
X0155700Y0234760D02*
X0179073Y0234760D01*
X0179350Y0235037D02*
X0177963Y0233650D01*
X0169963Y0233650D01*
X0168850Y0232537D01*
X0168850Y0232537D01*
X0167963Y0231650D01*
X0166850Y0230537D01*
X0166850Y0225963D01*
X0167963Y0224850D01*
X0176350Y0216463D01*
X0176350Y0201593D01*
X0175707Y0200949D01*
X0175250Y0199847D01*
X0175250Y0198653D01*
X0175251Y0198650D01*
X0170933Y0198650D01*
X0170821Y0198922D01*
X0169977Y0199766D01*
X0168874Y0200222D01*
X0167681Y0200222D01*
X0166578Y0199766D01*
X0165734Y0198922D01*
X0165278Y0197819D01*
X0165278Y0196750D01*
X0155700Y0196750D01*
X0155700Y0257193D01*
X0156555Y0255712D01*
X0159054Y0253616D01*
X0162119Y0252500D01*
X0165381Y0252500D01*
X0168446Y0253616D01*
X0170945Y0255712D01*
X0172576Y0258537D01*
X0173143Y0261750D01*
X0172576Y0264962D01*
X0172576Y0264962D01*
X0170945Y0267787D01*
X0170945Y0267788D01*
X0168547Y0269800D01*
X0184724Y0269800D01*
X0184431Y0269397D01*
X0184070Y0268689D01*
X0183824Y0267933D01*
X0183700Y0267147D01*
X0183700Y0267100D01*
X0188400Y0267100D01*
X0188400Y0266400D01*
X0189100Y0266400D01*
X0189100Y0261700D01*
X0189147Y0261700D01*
X0189933Y0261824D01*
X0190689Y0262070D01*
X0191397Y0262431D01*
X0192040Y0262898D01*
X0192602Y0263460D01*
X0193069Y0264103D01*
X0193430Y0264811D01*
X0193624Y0265407D01*
X0193945Y0264632D01*
X0186850Y0257537D01*
X0186850Y0249093D01*
X0186207Y0248449D01*
X0185750Y0247347D01*
X0185750Y0246153D01*
X0186207Y0245051D01*
X0187051Y0244207D01*
X0188153Y0243750D01*
X0189347Y0243750D01*
X0190449Y0244207D01*
X0191293Y0245051D01*
X0191750Y0246153D01*
X0191750Y0247347D01*
X0191293Y0248449D01*
X0190650Y0249093D01*
X0190650Y0255963D01*
X0196632Y0261945D01*
X0197706Y0261500D01*
X0199794Y0261500D01*
X0201724Y0262299D01*
X0203201Y0263776D01*
X0203750Y0265102D01*
X0204037Y0264408D01*
X0203779Y0262353D01*
X0203687Y0262262D01*
X0203687Y0261627D01*
X0203608Y0260997D01*
X0203687Y0260895D01*
X0203687Y0260766D01*
X0204136Y0260317D01*
X0204525Y0259815D01*
X0204654Y0259799D01*
X0204745Y0259708D01*
X0204944Y0259708D01*
X0204944Y0245663D01*
X0204051Y0245293D01*
X0203207Y0244449D01*
X0202876Y0243650D01*
X0197963Y0243650D01*
X0195398Y0241085D01*
X0194396Y0241500D01*
X0193104Y0241500D01*
X0191909Y0241005D01*
X0190995Y0240091D01*
X0190500Y0238896D01*
X0190500Y0237604D01*
X0190895Y0236650D01*
X0187593Y0236650D01*
X0186949Y0237293D01*
X0185847Y0237750D01*
X0185650Y0237750D01*
X0185650Y0239407D01*
X0186293Y0240051D01*
X0186750Y0241153D01*
X0186750Y0242347D01*
X0186293Y0243449D01*
X0185449Y0244293D01*
X0184347Y0244750D01*
X0183153Y0244750D01*
X0182051Y0244293D01*
X0181207Y0243449D01*
X0180750Y0242347D01*
X0180750Y0241153D01*
X0181207Y0240051D01*
X0181850Y0239407D01*
X0181850Y0237537D01*
X0180463Y0236150D01*
X0179350Y0235037D01*
X0179350Y0235037D01*
X0178374Y0234061D02*
X0155700Y0234061D01*
X0155700Y0233363D02*
X0169676Y0233363D01*
X0168977Y0232664D02*
X0155700Y0232664D01*
X0155700Y0231966D02*
X0168279Y0231966D01*
X0167963Y0231650D02*
X0167963Y0231650D01*
X0167580Y0231267D02*
X0155700Y0231267D01*
X0155700Y0230569D02*
X0166882Y0230569D01*
X0166850Y0229870D02*
X0155700Y0229870D01*
X0155700Y0229172D02*
X0166850Y0229172D01*
X0166850Y0228473D02*
X0155700Y0228473D01*
X0155700Y0227775D02*
X0166850Y0227775D01*
X0166850Y0227076D02*
X0155700Y0227076D01*
X0155700Y0226378D02*
X0166850Y0226378D01*
X0167134Y0225679D02*
X0155700Y0225679D01*
X0155700Y0224981D02*
X0167832Y0224981D01*
X0168531Y0224282D02*
X0155700Y0224282D01*
X0155700Y0223584D02*
X0169229Y0223584D01*
X0169928Y0222885D02*
X0155700Y0222885D01*
X0155700Y0222187D02*
X0170626Y0222187D01*
X0171325Y0221488D02*
X0155700Y0221488D01*
X0155700Y0220790D02*
X0172023Y0220790D01*
X0172722Y0220091D02*
X0155700Y0220091D01*
X0155700Y0219393D02*
X0173420Y0219393D01*
X0174119Y0218694D02*
X0155700Y0218694D01*
X0155700Y0217996D02*
X0174817Y0217996D01*
X0175516Y0217297D02*
X0155700Y0217297D01*
X0155700Y0216599D02*
X0176214Y0216599D01*
X0176350Y0215900D02*
X0155700Y0215900D01*
X0155700Y0215202D02*
X0176350Y0215202D01*
X0176350Y0214503D02*
X0155700Y0214503D01*
X0155700Y0213805D02*
X0176350Y0213805D01*
X0176350Y0213106D02*
X0155700Y0213106D01*
X0155700Y0212408D02*
X0176350Y0212408D01*
X0176350Y0211709D02*
X0155700Y0211709D01*
X0155700Y0211011D02*
X0176350Y0211011D01*
X0176350Y0210312D02*
X0155700Y0210312D01*
X0155700Y0209614D02*
X0176350Y0209614D01*
X0176350Y0208915D02*
X0155700Y0208915D01*
X0155700Y0208217D02*
X0176350Y0208217D01*
X0176350Y0207518D02*
X0155700Y0207518D01*
X0155700Y0206820D02*
X0176350Y0206820D01*
X0176350Y0206121D02*
X0155700Y0206121D01*
X0155700Y0205422D02*
X0176350Y0205422D01*
X0176350Y0204724D02*
X0155700Y0204724D01*
X0155700Y0204025D02*
X0176350Y0204025D01*
X0176350Y0203327D02*
X0155700Y0203327D01*
X0155700Y0202628D02*
X0176350Y0202628D01*
X0176350Y0201930D02*
X0155700Y0201930D01*
X0155700Y0201231D02*
X0175989Y0201231D01*
X0175534Y0200533D02*
X0155700Y0200533D01*
X0155700Y0199834D02*
X0166744Y0199834D01*
X0165948Y0199136D02*
X0155700Y0199136D01*
X0155700Y0198437D02*
X0165534Y0198437D01*
X0165278Y0197739D02*
X0155700Y0197739D01*
X0155700Y0197040D02*
X0165278Y0197040D01*
X0168278Y0197222D02*
X0168750Y0196750D01*
X0188750Y0196750D01*
X0193750Y0201750D01*
X0213750Y0201750D01*
X0227392Y0188108D01*
X0227392Y0177419D01*
X0221812Y0196750D02*
X0220759Y0197915D01*
X0220756Y0197948D01*
X0220633Y0198054D01*
X0220235Y0198494D01*
X0220142Y0198627D01*
X0220109Y0198632D01*
X0219492Y0199315D01*
X0218839Y0199348D01*
X0215650Y0202537D01*
X0214537Y0203650D01*
X0208556Y0203650D01*
X0208556Y0212350D01*
X0222037Y0212350D01*
X0242937Y0233250D01*
X0244708Y0233250D01*
X0245608Y0232350D01*
X0251800Y0232350D01*
X0251800Y0196750D01*
X0221812Y0196750D01*
X0221550Y0197040D02*
X0251800Y0197040D01*
X0251800Y0197739D02*
X0220918Y0197739D01*
X0220286Y0198437D02*
X0251800Y0198437D01*
X0251800Y0199136D02*
X0219654Y0199136D01*
X0218353Y0199834D02*
X0251800Y0199834D01*
X0251800Y0200533D02*
X0217654Y0200533D01*
X0216956Y0201231D02*
X0251800Y0201231D01*
X0251800Y0201930D02*
X0216257Y0201930D01*
X0215650Y0202537D02*
X0215650Y0202537D01*
X0215559Y0202628D02*
X0251800Y0202628D01*
X0251800Y0203327D02*
X0214860Y0203327D01*
X0208556Y0204025D02*
X0251800Y0204025D01*
X0251800Y0204724D02*
X0208556Y0204724D01*
X0208556Y0205422D02*
X0251800Y0205422D01*
X0251800Y0206121D02*
X0208556Y0206121D01*
X0208556Y0206820D02*
X0251800Y0206820D01*
X0251800Y0207518D02*
X0208556Y0207518D01*
X0208556Y0208217D02*
X0251800Y0208217D01*
X0251800Y0208915D02*
X0208556Y0208915D01*
X0208556Y0209614D02*
X0251800Y0209614D01*
X0251800Y0210312D02*
X0208556Y0210312D01*
X0208556Y0211011D02*
X0251800Y0211011D01*
X0251800Y0211709D02*
X0208556Y0211709D01*
X0204944Y0210312D02*
X0180150Y0210312D01*
X0180150Y0209614D02*
X0204944Y0209614D01*
X0204944Y0208915D02*
X0180150Y0208915D01*
X0180150Y0208217D02*
X0204944Y0208217D01*
X0204944Y0207518D02*
X0180150Y0207518D01*
X0180150Y0206820D02*
X0204944Y0206820D01*
X0204944Y0206121D02*
X0180150Y0206121D01*
X0180150Y0205422D02*
X0204944Y0205422D01*
X0204944Y0204724D02*
X0180150Y0204724D01*
X0180150Y0204025D02*
X0204944Y0204025D01*
X0202524Y0211011D02*
X0180150Y0211011D01*
X0180150Y0211709D02*
X0201548Y0211709D01*
X0201059Y0212408D02*
X0180150Y0212408D01*
X0180150Y0213106D02*
X0200770Y0213106D01*
X0200750Y0213805D02*
X0180150Y0213805D01*
X0180150Y0214503D02*
X0200815Y0214503D01*
X0201104Y0215202D02*
X0180150Y0215202D01*
X0180150Y0215900D02*
X0201658Y0215900D01*
X0202788Y0216599D02*
X0180150Y0216599D01*
X0180150Y0217297D02*
X0204944Y0217297D01*
X0204944Y0216599D02*
X0204712Y0216599D01*
X0204944Y0217996D02*
X0180150Y0217996D01*
X0179493Y0218694D02*
X0204944Y0218694D01*
X0204944Y0219393D02*
X0178794Y0219393D01*
X0178096Y0220091D02*
X0204944Y0220091D01*
X0204944Y0220790D02*
X0177397Y0220790D01*
X0176699Y0221488D02*
X0204944Y0221488D01*
X0204099Y0222187D02*
X0176000Y0222187D01*
X0175302Y0222885D02*
X0181428Y0222885D01*
X0180729Y0223584D02*
X0174603Y0223584D01*
X0173975Y0224282D02*
X0173905Y0224282D01*
X0173277Y0224981D02*
X0173206Y0224981D01*
X0172946Y0225679D02*
X0172508Y0225679D01*
X0172750Y0226378D02*
X0171809Y0226378D01*
X0171111Y0227076D02*
X0172750Y0227076D01*
X0172927Y0227775D02*
X0170650Y0227775D01*
X0170650Y0228473D02*
X0173231Y0228473D01*
X0173929Y0229172D02*
X0170859Y0229172D01*
X0168750Y0229750D02*
X0170750Y0231750D01*
X0178750Y0231750D01*
X0180463Y0236150D02*
X0180463Y0236150D01*
X0180470Y0236157D02*
X0155700Y0236157D01*
X0155700Y0236855D02*
X0181169Y0236855D01*
X0181850Y0237554D02*
X0155700Y0237554D01*
X0155700Y0238253D02*
X0181850Y0238253D01*
X0181850Y0238951D02*
X0155700Y0238951D01*
X0155700Y0239650D02*
X0181608Y0239650D01*
X0181084Y0240348D02*
X0155700Y0240348D01*
X0155700Y0241047D02*
X0180794Y0241047D01*
X0180750Y0241745D02*
X0155700Y0241745D01*
X0155700Y0242444D02*
X0180790Y0242444D01*
X0181079Y0243142D02*
X0155700Y0243142D01*
X0155700Y0243841D02*
X0181598Y0243841D01*
X0182644Y0244539D02*
X0155700Y0244539D01*
X0155700Y0245238D02*
X0186129Y0245238D01*
X0185840Y0245936D02*
X0155700Y0245936D01*
X0155700Y0246635D02*
X0185750Y0246635D01*
X0185750Y0247333D02*
X0155700Y0247333D01*
X0155700Y0248032D02*
X0186034Y0248032D01*
X0186488Y0248730D02*
X0155700Y0248730D01*
X0155700Y0249429D02*
X0186850Y0249429D01*
X0186850Y0250127D02*
X0155700Y0250127D01*
X0155700Y0250826D02*
X0186850Y0250826D01*
X0186850Y0251524D02*
X0155700Y0251524D01*
X0155700Y0252223D02*
X0186850Y0252223D01*
X0186850Y0252921D02*
X0166538Y0252921D01*
X0168446Y0253616D02*
X0168446Y0253616D01*
X0168451Y0253620D02*
X0186850Y0253620D01*
X0186850Y0254318D02*
X0169284Y0254318D01*
X0170116Y0255017D02*
X0186850Y0255017D01*
X0186850Y0255715D02*
X0170947Y0255715D01*
X0170945Y0255712D02*
X0170945Y0255712D01*
X0171350Y0256414D02*
X0186850Y0256414D01*
X0186850Y0257112D02*
X0171753Y0257112D01*
X0172157Y0257811D02*
X0187124Y0257811D01*
X0187822Y0258509D02*
X0172560Y0258509D01*
X0172694Y0259208D02*
X0188521Y0259208D01*
X0189219Y0259906D02*
X0172818Y0259906D01*
X0172941Y0260605D02*
X0189918Y0260605D01*
X0190616Y0261303D02*
X0173064Y0261303D01*
X0173098Y0262002D02*
X0187021Y0262002D01*
X0186811Y0262070D02*
X0187567Y0261824D01*
X0188353Y0261700D01*
X0188400Y0261700D01*
X0188400Y0266400D01*
X0183700Y0266400D01*
X0183700Y0266353D01*
X0183824Y0265567D01*
X0184070Y0264811D01*
X0184431Y0264103D01*
X0184898Y0263460D01*
X0185460Y0262898D01*
X0186103Y0262431D01*
X0186811Y0262070D01*
X0185732Y0262700D02*
X0172975Y0262700D01*
X0172852Y0263399D02*
X0184959Y0263399D01*
X0184435Y0264097D02*
X0172729Y0264097D01*
X0172606Y0264796D02*
X0184078Y0264796D01*
X0183848Y0265494D02*
X0172269Y0265494D01*
X0171866Y0266193D02*
X0183725Y0266193D01*
X0183770Y0267590D02*
X0171059Y0267590D01*
X0171463Y0266891D02*
X0188400Y0266891D01*
X0188400Y0266193D02*
X0189100Y0266193D01*
X0189100Y0265494D02*
X0188400Y0265494D01*
X0188400Y0264796D02*
X0189100Y0264796D01*
X0189100Y0264097D02*
X0188400Y0264097D01*
X0188400Y0263399D02*
X0189100Y0263399D01*
X0189100Y0262700D02*
X0188400Y0262700D01*
X0188400Y0262002D02*
X0189100Y0262002D01*
X0190479Y0262002D02*
X0191315Y0262002D01*
X0191768Y0262700D02*
X0192013Y0262700D01*
X0192541Y0263399D02*
X0192712Y0263399D01*
X0193065Y0264097D02*
X0193410Y0264097D01*
X0193422Y0264796D02*
X0193877Y0264796D01*
X0195990Y0261303D02*
X0203646Y0261303D01*
X0203687Y0262002D02*
X0201006Y0262002D01*
X0202125Y0262700D02*
X0203822Y0262700D01*
X0203910Y0263399D02*
X0202824Y0263399D01*
X0203334Y0264097D02*
X0203998Y0264097D01*
X0203877Y0264796D02*
X0203623Y0264796D01*
X0203848Y0260605D02*
X0195292Y0260605D01*
X0194593Y0259906D02*
X0204455Y0259906D01*
X0204944Y0259208D02*
X0193895Y0259208D01*
X0193196Y0258509D02*
X0204944Y0258509D01*
X0204944Y0257811D02*
X0192498Y0257811D01*
X0191799Y0257112D02*
X0204944Y0257112D01*
X0204944Y0256414D02*
X0191101Y0256414D01*
X0190650Y0255715D02*
X0204944Y0255715D01*
X0204944Y0255017D02*
X0190650Y0255017D01*
X0190650Y0254318D02*
X0204944Y0254318D01*
X0204944Y0253620D02*
X0190650Y0253620D01*
X0190650Y0252921D02*
X0204944Y0252921D01*
X0204944Y0252223D02*
X0190650Y0252223D01*
X0190650Y0251524D02*
X0204944Y0251524D01*
X0204944Y0250826D02*
X0190650Y0250826D01*
X0190650Y0250127D02*
X0204944Y0250127D01*
X0204944Y0249429D02*
X0190650Y0249429D01*
X0191012Y0248730D02*
X0204944Y0248730D01*
X0204944Y0248032D02*
X0191466Y0248032D01*
X0191750Y0247333D02*
X0204944Y0247333D01*
X0204944Y0246635D02*
X0191750Y0246635D01*
X0191660Y0245936D02*
X0204944Y0245936D01*
X0203995Y0245238D02*
X0191371Y0245238D01*
X0190782Y0244539D02*
X0203296Y0244539D01*
X0202955Y0243841D02*
X0189565Y0243841D01*
X0187934Y0243841D02*
X0185902Y0243841D01*
X0186421Y0243142D02*
X0197455Y0243142D01*
X0196757Y0242444D02*
X0186710Y0242444D01*
X0186750Y0241745D02*
X0196058Y0241745D01*
X0198750Y0241750D02*
X0195250Y0238250D01*
X0193750Y0238250D01*
X0190500Y0238253D02*
X0185650Y0238253D01*
X0185650Y0238951D02*
X0190523Y0238951D01*
X0190812Y0239650D02*
X0185892Y0239650D01*
X0186416Y0240348D02*
X0191252Y0240348D01*
X0192009Y0241047D02*
X0186706Y0241047D01*
X0183750Y0241750D02*
X0183750Y0236750D01*
X0186320Y0237554D02*
X0190521Y0237554D01*
X0190810Y0236855D02*
X0187387Y0236855D01*
X0186718Y0244539D02*
X0184856Y0244539D01*
X0188750Y0246750D02*
X0188750Y0256750D01*
X0198750Y0266750D01*
X0208750Y0266750D02*
X0208750Y0243250D01*
X0210250Y0241750D01*
X0210250Y0238250D02*
X0213750Y0238250D01*
X0218374Y0234061D02*
X0208748Y0234061D01*
X0208750Y0231750D02*
X0205250Y0228250D01*
X0203750Y0228250D01*
X0205750Y0224750D02*
X0205250Y0224250D01*
X0182750Y0224250D01*
X0180250Y0226750D01*
X0175750Y0226750D01*
X0177525Y0224282D02*
X0180031Y0224282D01*
X0178250Y0217250D02*
X0178250Y0199250D01*
X0181250Y0199136D02*
X0187884Y0199136D01*
X0188591Y0199834D02*
X0181250Y0199834D01*
X0180966Y0200533D02*
X0189846Y0200533D01*
X0190544Y0201231D02*
X0180511Y0201231D01*
X0180150Y0201930D02*
X0191243Y0201930D01*
X0191941Y0202628D02*
X0180150Y0202628D01*
X0180150Y0203327D02*
X0192640Y0203327D01*
X0203750Y0213750D02*
X0204250Y0214250D01*
X0221250Y0214250D01*
X0242150Y0235150D01*
X0248750Y0235150D01*
X0248475Y0238253D02*
X0242750Y0238253D01*
X0242750Y0238951D02*
X0244900Y0238951D01*
X0244900Y0239650D02*
X0242625Y0239650D01*
X0242335Y0240348D02*
X0245123Y0240348D01*
X0244900Y0237554D02*
X0242502Y0237554D01*
X0239750Y0238750D02*
X0237750Y0236750D01*
X0223750Y0236750D01*
X0218750Y0231750D01*
X0208750Y0231750D01*
X0209537Y0229850D02*
X0211151Y0229850D01*
X0211047Y0229695D01*
X0210817Y0229140D01*
X0210700Y0228550D01*
X0210700Y0228400D01*
X0213600Y0228400D01*
X0213600Y0228100D01*
X0213900Y0228100D01*
X0213900Y0228400D01*
X0216800Y0228400D01*
X0216800Y0228550D01*
X0216683Y0229140D01*
X0216453Y0229695D01*
X0216349Y0229850D01*
X0219537Y0229850D01*
X0220650Y0230963D01*
X0224537Y0234850D01*
X0238537Y0234850D01*
X0239437Y0235750D01*
X0240063Y0235750D01*
X0220463Y0216150D01*
X0208556Y0216150D01*
X0208556Y0223685D01*
X0208750Y0224153D01*
X0208750Y0225347D01*
X0208556Y0225815D01*
X0208556Y0228869D01*
X0209537Y0229850D01*
X0208859Y0229172D02*
X0210831Y0229172D01*
X0210700Y0228473D02*
X0208556Y0228473D01*
X0208556Y0227775D02*
X0210735Y0227775D01*
X0210700Y0227950D02*
X0210817Y0227360D01*
X0211047Y0226805D01*
X0211381Y0226306D01*
X0211806Y0225881D01*
X0212305Y0225547D01*
X0212860Y0225317D01*
X0213450Y0225200D01*
X0213600Y0225200D01*
X0213600Y0228100D01*
X0210700Y0228100D01*
X0210700Y0227950D01*
X0210935Y0227076D02*
X0208556Y0227076D01*
X0208556Y0226378D02*
X0211333Y0226378D01*
X0212107Y0225679D02*
X0208612Y0225679D01*
X0208750Y0224981D02*
X0229294Y0224981D01*
X0229992Y0225679D02*
X0215393Y0225679D01*
X0215195Y0225547D02*
X0215694Y0225881D01*
X0216119Y0226306D01*
X0216453Y0226805D01*
X0216683Y0227360D01*
X0216800Y0227950D01*
X0216800Y0228100D01*
X0213900Y0228100D01*
X0213900Y0225200D01*
X0214050Y0225200D01*
X0214640Y0225317D01*
X0215195Y0225547D01*
X0216167Y0226378D02*
X0230691Y0226378D01*
X0231389Y0227076D02*
X0216565Y0227076D01*
X0216765Y0227775D02*
X0232088Y0227775D01*
X0232786Y0228473D02*
X0216800Y0228473D01*
X0216669Y0229172D02*
X0233485Y0229172D01*
X0234183Y0229870D02*
X0219557Y0229870D01*
X0220256Y0230569D02*
X0234882Y0230569D01*
X0235580Y0231267D02*
X0220954Y0231267D01*
X0221653Y0231966D02*
X0236279Y0231966D01*
X0236977Y0232664D02*
X0222351Y0232664D01*
X0223050Y0233363D02*
X0237676Y0233363D01*
X0238374Y0234061D02*
X0223748Y0234061D01*
X0224447Y0234760D02*
X0239073Y0234760D01*
X0239145Y0235458D02*
X0239771Y0235458D01*
X0242351Y0232664D02*
X0245294Y0232664D01*
X0241653Y0231966D02*
X0251800Y0231966D01*
X0251800Y0231267D02*
X0240954Y0231267D01*
X0240256Y0230569D02*
X0251800Y0230569D01*
X0251800Y0229870D02*
X0239557Y0229870D01*
X0238859Y0229172D02*
X0251800Y0229172D01*
X0251800Y0228473D02*
X0238160Y0228473D01*
X0237462Y0227775D02*
X0251800Y0227775D01*
X0251800Y0227076D02*
X0236763Y0227076D01*
X0236065Y0226378D02*
X0251800Y0226378D01*
X0251800Y0225679D02*
X0235366Y0225679D01*
X0234668Y0224981D02*
X0251800Y0224981D01*
X0251800Y0224282D02*
X0233969Y0224282D01*
X0233271Y0223584D02*
X0251800Y0223584D01*
X0251800Y0222885D02*
X0232572Y0222885D01*
X0231874Y0222187D02*
X0251800Y0222187D01*
X0251800Y0221488D02*
X0231175Y0221488D01*
X0230477Y0220790D02*
X0251800Y0220790D01*
X0251800Y0220091D02*
X0229778Y0220091D01*
X0229080Y0219393D02*
X0251800Y0219393D01*
X0251800Y0218694D02*
X0228381Y0218694D01*
X0227683Y0217996D02*
X0251800Y0217996D01*
X0251800Y0217297D02*
X0226984Y0217297D01*
X0226286Y0216599D02*
X0251800Y0216599D01*
X0251800Y0215900D02*
X0225587Y0215900D01*
X0224889Y0215202D02*
X0251800Y0215202D01*
X0251800Y0214503D02*
X0224190Y0214503D01*
X0223492Y0213805D02*
X0251800Y0213805D01*
X0251800Y0213106D02*
X0222793Y0213106D01*
X0222095Y0212408D02*
X0251800Y0212408D01*
X0271811Y0199834D02*
X0277250Y0199834D01*
X0277250Y0199136D02*
X0272607Y0199136D01*
X0280250Y0217250D02*
X0270750Y0226750D01*
X0270750Y0229750D01*
X0251800Y0241047D02*
X0241696Y0241047D01*
X0248475Y0240348D02*
X0249025Y0240348D01*
X0249025Y0239650D02*
X0248475Y0239650D01*
X0248475Y0238951D02*
X0249025Y0238951D01*
X0228750Y0229750D02*
X0226750Y0229750D01*
X0223750Y0226750D01*
X0227198Y0222885D02*
X0208556Y0222885D01*
X0208556Y0222187D02*
X0226500Y0222187D01*
X0225801Y0221488D02*
X0208556Y0221488D01*
X0208556Y0220790D02*
X0225103Y0220790D01*
X0224404Y0220091D02*
X0208556Y0220091D01*
X0208556Y0219393D02*
X0223706Y0219393D01*
X0223007Y0218694D02*
X0208556Y0218694D01*
X0208556Y0217996D02*
X0222309Y0217996D01*
X0221610Y0217297D02*
X0208556Y0217297D01*
X0208556Y0216599D02*
X0220912Y0216599D01*
X0227897Y0223584D02*
X0208556Y0223584D01*
X0208750Y0224282D02*
X0228595Y0224282D01*
X0213900Y0225679D02*
X0213600Y0225679D01*
X0213600Y0226378D02*
X0213900Y0226378D01*
X0213900Y0227076D02*
X0213600Y0227076D01*
X0213600Y0227775D02*
X0213900Y0227775D01*
X0204750Y0241750D02*
X0205750Y0242750D01*
X0204750Y0241750D02*
X0198750Y0241750D01*
X0211006Y0262002D02*
X0216494Y0262002D01*
X0215375Y0262700D02*
X0212125Y0262700D01*
X0212824Y0263399D02*
X0214676Y0263399D01*
X0214166Y0264097D02*
X0213334Y0264097D01*
X0213623Y0264796D02*
X0213877Y0264796D01*
X0184641Y0269686D02*
X0168683Y0269686D01*
X0169516Y0268987D02*
X0184222Y0268987D01*
X0183940Y0268289D02*
X0170348Y0268289D01*
X0160962Y0252921D02*
X0155700Y0252921D01*
X0155700Y0253620D02*
X0159049Y0253620D01*
X0159054Y0253616D02*
X0159054Y0253616D01*
X0158216Y0254318D02*
X0155700Y0254318D01*
X0155700Y0255017D02*
X0157384Y0255017D01*
X0156555Y0255712D02*
X0156555Y0255712D01*
X0156553Y0255715D02*
X0155700Y0255715D01*
X0155700Y0256414D02*
X0156150Y0256414D01*
X0155747Y0257112D02*
X0155700Y0257112D01*
X0149800Y0257112D02*
X0149753Y0257112D01*
X0149800Y0257193D02*
X0149800Y0240841D01*
X0149771Y0240858D01*
X0149428Y0240950D01*
X0147025Y0240950D01*
X0147025Y0238625D01*
X0146475Y0238625D01*
X0146475Y0240950D01*
X0144072Y0240950D01*
X0143729Y0240858D01*
X0143421Y0240680D01*
X0143170Y0240429D01*
X0142992Y0240121D01*
X0142900Y0239778D01*
X0142900Y0238625D01*
X0146475Y0238625D01*
X0146475Y0238075D01*
X0142900Y0238075D01*
X0142900Y0237242D01*
X0142708Y0237050D01*
X0140293Y0237050D01*
X0140293Y0237051D01*
X0140750Y0238153D01*
X0140750Y0239347D01*
X0140293Y0240449D01*
X0139449Y0241293D01*
X0138347Y0241750D01*
X0137153Y0241750D01*
X0136051Y0241293D01*
X0135207Y0240449D01*
X0134750Y0239347D01*
X0134750Y0238650D01*
X0120963Y0238650D01*
X0115963Y0233650D01*
X0106337Y0233650D01*
X0109037Y0236350D01*
X0109054Y0236350D01*
X0109909Y0235495D01*
X0111104Y0235000D01*
X0112396Y0235000D01*
X0113591Y0235495D01*
X0114505Y0236409D01*
X0115000Y0237604D01*
X0115000Y0238896D01*
X0114505Y0240091D01*
X0113591Y0241005D01*
X0112396Y0241500D01*
X0111250Y0241500D01*
X0111250Y0242347D01*
X0110793Y0243449D01*
X0109949Y0244293D01*
X0108847Y0244750D01*
X0108650Y0244750D01*
X0108650Y0261854D01*
X0109724Y0262299D01*
X0111201Y0263776D01*
X0111750Y0265102D01*
X0112299Y0263776D01*
X0113776Y0262299D01*
X0115706Y0261500D01*
X0117794Y0261500D01*
X0119724Y0262299D01*
X0121201Y0263776D01*
X0122000Y0265706D01*
X0122000Y0267794D01*
X0121201Y0269724D01*
X0121125Y0269800D01*
X0136953Y0269800D01*
X0134555Y0267788D01*
X0134555Y0267787D01*
X0132924Y0264962D01*
X0132357Y0261750D01*
X0132924Y0258538D01*
X0132924Y0258537D01*
X0134555Y0255712D01*
X0137054Y0253616D01*
X0140119Y0252500D01*
X0143381Y0252500D01*
X0146446Y0253616D01*
X0146446Y0253616D01*
X0148945Y0255712D01*
X0148945Y0255712D01*
X0148945Y0255712D01*
X0149800Y0257193D01*
X0149800Y0256414D02*
X0149350Y0256414D01*
X0148947Y0255715D02*
X0149800Y0255715D01*
X0149800Y0255017D02*
X0148116Y0255017D01*
X0147284Y0254318D02*
X0149800Y0254318D01*
X0149800Y0253620D02*
X0146451Y0253620D01*
X0144538Y0252921D02*
X0149800Y0252921D01*
X0149800Y0252223D02*
X0108650Y0252223D01*
X0108650Y0252921D02*
X0138962Y0252921D01*
X0137054Y0253616D02*
X0137054Y0253616D01*
X0137049Y0253620D02*
X0108650Y0253620D01*
X0108650Y0254318D02*
X0136216Y0254318D01*
X0135384Y0255017D02*
X0108650Y0255017D01*
X0108650Y0255715D02*
X0134553Y0255715D01*
X0134555Y0255712D02*
X0134555Y0255712D01*
X0134150Y0256414D02*
X0108650Y0256414D01*
X0108650Y0257112D02*
X0133747Y0257112D01*
X0133343Y0257811D02*
X0108650Y0257811D01*
X0108650Y0258509D02*
X0132940Y0258509D01*
X0132806Y0259208D02*
X0108650Y0259208D01*
X0108650Y0259906D02*
X0132682Y0259906D01*
X0132559Y0260605D02*
X0108650Y0260605D01*
X0108650Y0261303D02*
X0132436Y0261303D01*
X0132357Y0261750D02*
X0132357Y0261750D01*
X0132402Y0262002D02*
X0119006Y0262002D01*
X0120125Y0262700D02*
X0132525Y0262700D01*
X0132648Y0263399D02*
X0120824Y0263399D01*
X0121334Y0264097D02*
X0132771Y0264097D01*
X0132894Y0264796D02*
X0121623Y0264796D01*
X0121912Y0265494D02*
X0133231Y0265494D01*
X0132924Y0264962D02*
X0132924Y0264962D01*
X0133634Y0266193D02*
X0122000Y0266193D01*
X0122000Y0266891D02*
X0134037Y0266891D01*
X0134441Y0267590D02*
X0122000Y0267590D01*
X0121795Y0268289D02*
X0135152Y0268289D01*
X0134555Y0267788D02*
X0134555Y0267788D01*
X0135984Y0268987D02*
X0121506Y0268987D01*
X0121217Y0269686D02*
X0136817Y0269686D01*
X0149800Y0251524D02*
X0108650Y0251524D01*
X0108650Y0250826D02*
X0149800Y0250826D01*
X0149800Y0250127D02*
X0108650Y0250127D01*
X0108650Y0249429D02*
X0149800Y0249429D01*
X0149800Y0248730D02*
X0108650Y0248730D01*
X0108650Y0248032D02*
X0149800Y0248032D01*
X0149800Y0247333D02*
X0108650Y0247333D01*
X0108650Y0246635D02*
X0149800Y0246635D01*
X0149800Y0245936D02*
X0108650Y0245936D01*
X0108650Y0245238D02*
X0149800Y0245238D01*
X0149800Y0244539D02*
X0109356Y0244539D01*
X0110402Y0243841D02*
X0149800Y0243841D01*
X0149800Y0243142D02*
X0110921Y0243142D01*
X0111210Y0242444D02*
X0149800Y0242444D01*
X0149800Y0241745D02*
X0138359Y0241745D01*
X0137141Y0241745D02*
X0111250Y0241745D01*
X0113491Y0241047D02*
X0135804Y0241047D01*
X0135165Y0240348D02*
X0114248Y0240348D01*
X0114688Y0239650D02*
X0134875Y0239650D01*
X0134750Y0238951D02*
X0114977Y0238951D01*
X0115000Y0238253D02*
X0120566Y0238253D01*
X0119867Y0237554D02*
X0114979Y0237554D01*
X0114690Y0236855D02*
X0119169Y0236855D01*
X0118470Y0236157D02*
X0114253Y0236157D01*
X0113503Y0235458D02*
X0117771Y0235458D01*
X0117073Y0234760D02*
X0107447Y0234760D01*
X0108145Y0235458D02*
X0109997Y0235458D01*
X0109247Y0236157D02*
X0108844Y0236157D01*
X0108250Y0238250D02*
X0103250Y0233250D01*
X0101750Y0233250D01*
X0101750Y0228250D02*
X0095250Y0234750D01*
X0083250Y0234750D01*
X0081750Y0236750D02*
X0079250Y0234250D01*
X0085250Y0228250D01*
X0091750Y0228250D01*
X0089254Y0226150D02*
X0081537Y0226150D01*
X0079037Y0228650D01*
X0076093Y0228650D01*
X0075449Y0229293D01*
X0074347Y0229750D01*
X0073153Y0229750D01*
X0072051Y0229293D01*
X0071207Y0228449D01*
X0070750Y0227347D01*
X0070750Y0226153D01*
X0071207Y0225051D01*
X0072051Y0224207D01*
X0073153Y0223750D01*
X0074347Y0223750D01*
X0075449Y0224207D01*
X0076093Y0224850D01*
X0077463Y0224850D01*
X0078850Y0223463D01*
X0079963Y0222350D01*
X0101907Y0222350D01*
X0102051Y0222207D01*
X0103153Y0221750D01*
X0104347Y0221750D01*
X0105449Y0222207D01*
X0106293Y0223051D01*
X0106750Y0224153D01*
X0106750Y0225347D01*
X0106293Y0226449D01*
X0105449Y0227293D01*
X0105118Y0227431D01*
X0105150Y0227463D01*
X0107537Y0229850D01*
X0109151Y0229850D01*
X0109047Y0229695D01*
X0108817Y0229140D01*
X0108700Y0228550D01*
X0108700Y0228400D01*
X0111600Y0228400D01*
X0111600Y0228100D01*
X0111900Y0228100D01*
X0111900Y0228400D01*
X0114800Y0228400D01*
X0114800Y0228550D01*
X0114683Y0229140D01*
X0114453Y0229695D01*
X0114349Y0229850D01*
X0117537Y0229850D01*
X0118650Y0230963D01*
X0122537Y0234850D01*
X0136537Y0234850D01*
X0137437Y0235750D01*
X0138063Y0235750D01*
X0118463Y0216150D01*
X0103593Y0216150D01*
X0103449Y0216293D01*
X0102347Y0216750D01*
X0101153Y0216750D01*
X0100051Y0216293D01*
X0099207Y0215449D01*
X0098750Y0214347D01*
X0098750Y0213153D01*
X0099207Y0212051D01*
X0100051Y0211207D01*
X0101153Y0210750D01*
X0102347Y0210750D01*
X0103449Y0211207D01*
X0104293Y0212051D01*
X0104417Y0212350D01*
X0120037Y0212350D01*
X0140937Y0233250D01*
X0142708Y0233250D01*
X0143608Y0232350D01*
X0149800Y0232350D01*
X0149800Y0196750D01*
X0119812Y0196750D01*
X0118759Y0197915D01*
X0118756Y0197948D01*
X0118633Y0198054D01*
X0118235Y0198494D01*
X0118142Y0198627D01*
X0118109Y0198632D01*
X0117492Y0199315D01*
X0116839Y0199348D01*
X0113650Y0202537D01*
X0112537Y0203650D01*
X0090963Y0203650D01*
X0087161Y0199848D01*
X0086548Y0199833D01*
X0085438Y0198667D01*
X0085405Y0198663D01*
X0085396Y0198650D01*
X0079249Y0198650D01*
X0079250Y0198653D01*
X0079250Y0199847D01*
X0078793Y0200949D01*
X0078150Y0201593D01*
X0078150Y0218037D01*
X0077037Y0219150D01*
X0068650Y0227537D01*
X0068650Y0228963D01*
X0069537Y0229850D01*
X0077537Y0229850D01*
X0079250Y0231563D01*
X0084463Y0226350D01*
X0089054Y0226350D01*
X0089254Y0226150D01*
X0084435Y0226378D02*
X0081309Y0226378D01*
X0080611Y0227076D02*
X0083737Y0227076D01*
X0083038Y0227775D02*
X0079912Y0227775D01*
X0079214Y0228473D02*
X0082340Y0228473D01*
X0081641Y0229172D02*
X0075571Y0229172D01*
X0077557Y0229870D02*
X0080943Y0229870D01*
X0080244Y0230569D02*
X0078256Y0230569D01*
X0078954Y0231267D02*
X0079546Y0231267D01*
X0076750Y0231750D02*
X0079250Y0234250D01*
X0077771Y0235458D02*
X0053700Y0235458D01*
X0053700Y0234760D02*
X0077073Y0234760D01*
X0077350Y0235037D02*
X0075963Y0233650D01*
X0067963Y0233650D01*
X0064850Y0230537D01*
X0064850Y0225963D01*
X0065963Y0224850D01*
X0074350Y0216463D01*
X0074350Y0201593D01*
X0073707Y0200949D01*
X0073250Y0199847D01*
X0073250Y0198653D01*
X0073251Y0198650D01*
X0068933Y0198650D01*
X0068821Y0198922D01*
X0067977Y0199766D01*
X0066874Y0200222D01*
X0065681Y0200222D01*
X0064578Y0199766D01*
X0063734Y0198922D01*
X0063278Y0197819D01*
X0063278Y0196750D01*
X0053700Y0196750D01*
X0053700Y0257193D01*
X0054555Y0255712D01*
X0057054Y0253616D01*
X0060119Y0252500D01*
X0063381Y0252500D01*
X0066446Y0253616D01*
X0066446Y0253616D01*
X0068945Y0255712D01*
X0068945Y0255712D01*
X0068945Y0255712D01*
X0070576Y0258537D01*
X0070576Y0258538D01*
X0071143Y0261750D01*
X0070576Y0264962D01*
X0070576Y0264962D01*
X0068945Y0267787D01*
X0068945Y0267788D01*
X0066547Y0269800D01*
X0082724Y0269800D01*
X0082431Y0269397D01*
X0082070Y0268689D01*
X0081824Y0267933D01*
X0081700Y0267147D01*
X0081700Y0267100D01*
X0086400Y0267100D01*
X0086400Y0266400D01*
X0087100Y0266400D01*
X0087100Y0261700D01*
X0087147Y0261700D01*
X0087933Y0261824D01*
X0088689Y0262070D01*
X0089397Y0262431D01*
X0090040Y0262898D01*
X0090602Y0263460D01*
X0091069Y0264103D01*
X0091430Y0264811D01*
X0091624Y0265407D01*
X0091945Y0264632D01*
X0084850Y0257537D01*
X0084850Y0249093D01*
X0084207Y0248449D01*
X0083750Y0247347D01*
X0083750Y0246153D01*
X0084207Y0245051D01*
X0085051Y0244207D01*
X0086153Y0243750D01*
X0087347Y0243750D01*
X0088449Y0244207D01*
X0089293Y0245051D01*
X0089750Y0246153D01*
X0089750Y0247347D01*
X0089293Y0248449D01*
X0088650Y0249093D01*
X0088650Y0255963D01*
X0094632Y0261945D01*
X0095706Y0261500D01*
X0097794Y0261500D01*
X0099724Y0262299D01*
X0101201Y0263776D01*
X0101750Y0265102D01*
X0102299Y0263776D01*
X0103776Y0262299D01*
X0104850Y0261854D01*
X0104850Y0245542D01*
X0104347Y0245750D01*
X0103153Y0245750D01*
X0102051Y0245293D01*
X0101207Y0244449D01*
X0100876Y0243650D01*
X0095963Y0243650D01*
X0093398Y0241085D01*
X0092396Y0241500D01*
X0091104Y0241500D01*
X0089909Y0241005D01*
X0088995Y0240091D01*
X0088500Y0238896D01*
X0088500Y0237604D01*
X0088895Y0236650D01*
X0085593Y0236650D01*
X0084949Y0237293D01*
X0083847Y0237750D01*
X0083650Y0237750D01*
X0083650Y0239407D01*
X0084293Y0240051D01*
X0084750Y0241153D01*
X0084750Y0242347D01*
X0084293Y0243449D01*
X0083449Y0244293D01*
X0082347Y0244750D01*
X0081153Y0244750D01*
X0080051Y0244293D01*
X0079207Y0243449D01*
X0078750Y0242347D01*
X0078750Y0241153D01*
X0079207Y0240051D01*
X0079850Y0239407D01*
X0079850Y0237537D01*
X0078463Y0236150D01*
X0077350Y0235037D01*
X0076374Y0234061D02*
X0053700Y0234061D01*
X0053700Y0233363D02*
X0067676Y0233363D01*
X0066977Y0232664D02*
X0053700Y0232664D01*
X0053700Y0231966D02*
X0066279Y0231966D01*
X0065580Y0231267D02*
X0053700Y0231267D01*
X0053700Y0230569D02*
X0064882Y0230569D01*
X0064850Y0229870D02*
X0053700Y0229870D01*
X0053700Y0229172D02*
X0064850Y0229172D01*
X0064850Y0228473D02*
X0053700Y0228473D01*
X0053700Y0227775D02*
X0064850Y0227775D01*
X0064850Y0227076D02*
X0053700Y0227076D01*
X0053700Y0226378D02*
X0064850Y0226378D01*
X0065134Y0225679D02*
X0053700Y0225679D01*
X0053700Y0224981D02*
X0065832Y0224981D01*
X0065963Y0224850D02*
X0065963Y0224850D01*
X0066531Y0224282D02*
X0053700Y0224282D01*
X0053700Y0223584D02*
X0067229Y0223584D01*
X0067928Y0222885D02*
X0053700Y0222885D01*
X0053700Y0222187D02*
X0068626Y0222187D01*
X0069325Y0221488D02*
X0053700Y0221488D01*
X0053700Y0220790D02*
X0070023Y0220790D01*
X0070722Y0220091D02*
X0053700Y0220091D01*
X0053700Y0219393D02*
X0071420Y0219393D01*
X0072119Y0218694D02*
X0053700Y0218694D01*
X0053700Y0217996D02*
X0072817Y0217996D01*
X0073516Y0217297D02*
X0053700Y0217297D01*
X0053700Y0216599D02*
X0074214Y0216599D01*
X0074350Y0215900D02*
X0053700Y0215900D01*
X0053700Y0215202D02*
X0074350Y0215202D01*
X0074350Y0214503D02*
X0053700Y0214503D01*
X0053700Y0213805D02*
X0074350Y0213805D01*
X0074350Y0213106D02*
X0053700Y0213106D01*
X0053700Y0212408D02*
X0074350Y0212408D01*
X0074350Y0211709D02*
X0053700Y0211709D01*
X0053700Y0211011D02*
X0074350Y0211011D01*
X0074350Y0210312D02*
X0053700Y0210312D01*
X0053700Y0209614D02*
X0074350Y0209614D01*
X0074350Y0208915D02*
X0053700Y0208915D01*
X0053700Y0208217D02*
X0074350Y0208217D01*
X0074350Y0207518D02*
X0053700Y0207518D01*
X0053700Y0206820D02*
X0074350Y0206820D01*
X0074350Y0206121D02*
X0053700Y0206121D01*
X0053700Y0205422D02*
X0074350Y0205422D01*
X0074350Y0204724D02*
X0053700Y0204724D01*
X0053700Y0204025D02*
X0074350Y0204025D01*
X0074350Y0203327D02*
X0053700Y0203327D01*
X0053700Y0202628D02*
X0074350Y0202628D01*
X0074350Y0201930D02*
X0053700Y0201930D01*
X0053700Y0201231D02*
X0073989Y0201231D01*
X0073534Y0200533D02*
X0053700Y0200533D01*
X0053700Y0199834D02*
X0064744Y0199834D01*
X0063948Y0199136D02*
X0053700Y0199136D01*
X0053700Y0198437D02*
X0063534Y0198437D01*
X0063278Y0197739D02*
X0053700Y0197739D01*
X0053700Y0197040D02*
X0063278Y0197040D01*
X0066278Y0197222D02*
X0066750Y0196750D01*
X0086750Y0196750D01*
X0091750Y0201750D01*
X0111750Y0201750D01*
X0125392Y0188108D01*
X0125392Y0177419D01*
X0119550Y0197040D02*
X0149800Y0197040D01*
X0149800Y0197739D02*
X0118918Y0197739D01*
X0118286Y0198437D02*
X0149800Y0198437D01*
X0149800Y0199136D02*
X0117654Y0199136D01*
X0116353Y0199834D02*
X0149800Y0199834D01*
X0149800Y0200533D02*
X0115654Y0200533D01*
X0114956Y0201231D02*
X0149800Y0201231D01*
X0149800Y0201930D02*
X0114257Y0201930D01*
X0113650Y0202537D02*
X0113650Y0202537D01*
X0113559Y0202628D02*
X0149800Y0202628D01*
X0149800Y0203327D02*
X0112860Y0203327D01*
X0120095Y0212408D02*
X0149800Y0212408D01*
X0149800Y0213106D02*
X0120793Y0213106D01*
X0121492Y0213805D02*
X0149800Y0213805D01*
X0149800Y0214503D02*
X0122190Y0214503D01*
X0122889Y0215202D02*
X0149800Y0215202D01*
X0149800Y0215900D02*
X0123587Y0215900D01*
X0124286Y0216599D02*
X0149800Y0216599D01*
X0149800Y0217297D02*
X0124984Y0217297D01*
X0125683Y0217996D02*
X0149800Y0217996D01*
X0149800Y0218694D02*
X0126381Y0218694D01*
X0127080Y0219393D02*
X0149800Y0219393D01*
X0149800Y0220091D02*
X0127778Y0220091D01*
X0128477Y0220790D02*
X0149800Y0220790D01*
X0149800Y0221488D02*
X0129175Y0221488D01*
X0129874Y0222187D02*
X0149800Y0222187D01*
X0149800Y0222885D02*
X0130572Y0222885D01*
X0131271Y0223584D02*
X0149800Y0223584D01*
X0149800Y0224282D02*
X0131969Y0224282D01*
X0132668Y0224981D02*
X0149800Y0224981D01*
X0149800Y0225679D02*
X0133366Y0225679D01*
X0134065Y0226378D02*
X0149800Y0226378D01*
X0149800Y0227076D02*
X0134763Y0227076D01*
X0135462Y0227775D02*
X0149800Y0227775D01*
X0149800Y0228473D02*
X0136160Y0228473D01*
X0136859Y0229172D02*
X0149800Y0229172D01*
X0149800Y0229870D02*
X0137557Y0229870D01*
X0138256Y0230569D02*
X0149800Y0230569D01*
X0149800Y0231267D02*
X0138954Y0231267D01*
X0139653Y0231966D02*
X0149800Y0231966D01*
X0146750Y0235150D02*
X0140150Y0235150D01*
X0119250Y0214250D01*
X0102250Y0214250D01*
X0101750Y0213750D01*
X0099658Y0215900D02*
X0078150Y0215900D01*
X0078150Y0215202D02*
X0099104Y0215202D01*
X0098815Y0214503D02*
X0078150Y0214503D01*
X0078150Y0213805D02*
X0098750Y0213805D01*
X0098770Y0213106D02*
X0078150Y0213106D01*
X0078150Y0212408D02*
X0099059Y0212408D01*
X0099548Y0211709D02*
X0078150Y0211709D01*
X0078150Y0211011D02*
X0100524Y0211011D01*
X0102976Y0211011D02*
X0149800Y0211011D01*
X0149800Y0211709D02*
X0103952Y0211709D01*
X0102712Y0216599D02*
X0118912Y0216599D01*
X0119610Y0217297D02*
X0078150Y0217297D01*
X0078150Y0216599D02*
X0100788Y0216599D01*
X0102099Y0222187D02*
X0074000Y0222187D01*
X0073302Y0222885D02*
X0079428Y0222885D01*
X0078729Y0223584D02*
X0072603Y0223584D01*
X0071975Y0224282D02*
X0071905Y0224282D01*
X0071277Y0224981D02*
X0071206Y0224981D01*
X0070946Y0225679D02*
X0070508Y0225679D01*
X0070750Y0226378D02*
X0069809Y0226378D01*
X0069111Y0227076D02*
X0070750Y0227076D01*
X0070927Y0227775D02*
X0068650Y0227775D01*
X0068650Y0228473D02*
X0071231Y0228473D01*
X0071929Y0229172D02*
X0068859Y0229172D01*
X0066750Y0229750D02*
X0068750Y0231750D01*
X0076750Y0231750D01*
X0078463Y0236150D02*
X0078463Y0236150D01*
X0078470Y0236157D02*
X0053700Y0236157D01*
X0053700Y0236855D02*
X0079169Y0236855D01*
X0079850Y0237554D02*
X0053700Y0237554D01*
X0053700Y0238253D02*
X0079850Y0238253D01*
X0079850Y0238951D02*
X0053700Y0238951D01*
X0053700Y0239650D02*
X0079608Y0239650D01*
X0079084Y0240348D02*
X0053700Y0240348D01*
X0053700Y0241047D02*
X0078794Y0241047D01*
X0078750Y0241745D02*
X0053700Y0241745D01*
X0053700Y0242444D02*
X0078790Y0242444D01*
X0079079Y0243142D02*
X0053700Y0243142D01*
X0053700Y0243841D02*
X0079598Y0243841D01*
X0080644Y0244539D02*
X0053700Y0244539D01*
X0053700Y0245238D02*
X0084129Y0245238D01*
X0083840Y0245936D02*
X0053700Y0245936D01*
X0053700Y0246635D02*
X0083750Y0246635D01*
X0083750Y0247333D02*
X0053700Y0247333D01*
X0053700Y0248032D02*
X0084034Y0248032D01*
X0084488Y0248730D02*
X0053700Y0248730D01*
X0053700Y0249429D02*
X0084850Y0249429D01*
X0084850Y0250127D02*
X0053700Y0250127D01*
X0053700Y0250826D02*
X0084850Y0250826D01*
X0084850Y0251524D02*
X0053700Y0251524D01*
X0053700Y0252223D02*
X0084850Y0252223D01*
X0084850Y0252921D02*
X0064538Y0252921D01*
X0066451Y0253620D02*
X0084850Y0253620D01*
X0084850Y0254318D02*
X0067284Y0254318D01*
X0068116Y0255017D02*
X0084850Y0255017D01*
X0084850Y0255715D02*
X0068947Y0255715D01*
X0069350Y0256414D02*
X0084850Y0256414D01*
X0084850Y0257112D02*
X0069753Y0257112D01*
X0070157Y0257811D02*
X0085124Y0257811D01*
X0085822Y0258509D02*
X0070560Y0258509D01*
X0070694Y0259208D02*
X0086521Y0259208D01*
X0087219Y0259906D02*
X0070818Y0259906D01*
X0070941Y0260605D02*
X0087918Y0260605D01*
X0088616Y0261303D02*
X0071064Y0261303D01*
X0071143Y0261750D02*
X0071143Y0261750D01*
X0071098Y0262002D02*
X0085021Y0262002D01*
X0084811Y0262070D02*
X0085567Y0261824D01*
X0086353Y0261700D01*
X0086400Y0261700D01*
X0086400Y0266400D01*
X0081700Y0266400D01*
X0081700Y0266353D01*
X0081824Y0265567D01*
X0082070Y0264811D01*
X0082431Y0264103D01*
X0082898Y0263460D01*
X0083460Y0262898D01*
X0084103Y0262431D01*
X0084811Y0262070D01*
X0083732Y0262700D02*
X0070975Y0262700D01*
X0070852Y0263399D02*
X0082959Y0263399D01*
X0082435Y0264097D02*
X0070729Y0264097D01*
X0070606Y0264796D02*
X0082078Y0264796D01*
X0081848Y0265494D02*
X0070269Y0265494D01*
X0069866Y0266193D02*
X0081725Y0266193D01*
X0081770Y0267590D02*
X0069059Y0267590D01*
X0069463Y0266891D02*
X0086400Y0266891D01*
X0086400Y0266193D02*
X0087100Y0266193D01*
X0087100Y0265494D02*
X0086400Y0265494D01*
X0086400Y0264796D02*
X0087100Y0264796D01*
X0087100Y0264097D02*
X0086400Y0264097D01*
X0086400Y0263399D02*
X0087100Y0263399D01*
X0087100Y0262700D02*
X0086400Y0262700D01*
X0086400Y0262002D02*
X0087100Y0262002D01*
X0088479Y0262002D02*
X0089315Y0262002D01*
X0089768Y0262700D02*
X0090013Y0262700D01*
X0090541Y0263399D02*
X0090712Y0263399D01*
X0091065Y0264097D02*
X0091410Y0264097D01*
X0091422Y0264796D02*
X0091877Y0264796D01*
X0093990Y0261303D02*
X0104850Y0261303D01*
X0104850Y0260605D02*
X0093292Y0260605D01*
X0092593Y0259906D02*
X0104850Y0259906D01*
X0104850Y0259208D02*
X0091895Y0259208D01*
X0091196Y0258509D02*
X0104850Y0258509D01*
X0104850Y0257811D02*
X0090498Y0257811D01*
X0089799Y0257112D02*
X0104850Y0257112D01*
X0104850Y0256414D02*
X0089101Y0256414D01*
X0088650Y0255715D02*
X0104850Y0255715D01*
X0104850Y0255017D02*
X0088650Y0255017D01*
X0088650Y0254318D02*
X0104850Y0254318D01*
X0104850Y0253620D02*
X0088650Y0253620D01*
X0088650Y0252921D02*
X0104850Y0252921D01*
X0104850Y0252223D02*
X0088650Y0252223D01*
X0088650Y0251524D02*
X0104850Y0251524D01*
X0104850Y0250826D02*
X0088650Y0250826D01*
X0088650Y0250127D02*
X0104850Y0250127D01*
X0104850Y0249429D02*
X0088650Y0249429D01*
X0089012Y0248730D02*
X0104850Y0248730D01*
X0104850Y0248032D02*
X0089466Y0248032D01*
X0089750Y0247333D02*
X0104850Y0247333D01*
X0104850Y0246635D02*
X0089750Y0246635D01*
X0089660Y0245936D02*
X0104850Y0245936D01*
X0101995Y0245238D02*
X0089371Y0245238D01*
X0088782Y0244539D02*
X0101296Y0244539D01*
X0100955Y0243841D02*
X0087565Y0243841D01*
X0085934Y0243841D02*
X0083902Y0243841D01*
X0084421Y0243142D02*
X0095455Y0243142D01*
X0094757Y0242444D02*
X0084710Y0242444D01*
X0084750Y0241745D02*
X0094058Y0241745D01*
X0096750Y0241750D02*
X0093250Y0238250D01*
X0091750Y0238250D01*
X0088500Y0238253D02*
X0083650Y0238253D01*
X0083650Y0238951D02*
X0088523Y0238951D01*
X0088812Y0239650D02*
X0083892Y0239650D01*
X0084416Y0240348D02*
X0089252Y0240348D01*
X0090009Y0241047D02*
X0084706Y0241047D01*
X0081750Y0241750D02*
X0081750Y0236750D01*
X0084320Y0237554D02*
X0088521Y0237554D01*
X0088810Y0236855D02*
X0085387Y0236855D01*
X0084718Y0244539D02*
X0082856Y0244539D01*
X0086750Y0246750D02*
X0086750Y0256750D01*
X0096750Y0266750D01*
X0101623Y0264796D02*
X0101877Y0264796D01*
X0102166Y0264097D02*
X0101334Y0264097D01*
X0100824Y0263399D02*
X0102676Y0263399D01*
X0103375Y0262700D02*
X0100125Y0262700D01*
X0099006Y0262002D02*
X0104494Y0262002D01*
X0109006Y0262002D02*
X0114494Y0262002D01*
X0113375Y0262700D02*
X0110125Y0262700D01*
X0110824Y0263399D02*
X0112676Y0263399D01*
X0112166Y0264097D02*
X0111334Y0264097D01*
X0111623Y0264796D02*
X0111877Y0264796D01*
X0106750Y0266750D02*
X0106750Y0243250D01*
X0108250Y0241750D01*
X0108250Y0238250D02*
X0111750Y0238250D01*
X0116374Y0234061D02*
X0106748Y0234061D01*
X0106750Y0231750D02*
X0103250Y0228250D01*
X0101750Y0228250D01*
X0105462Y0227775D02*
X0108735Y0227775D01*
X0108700Y0227950D02*
X0108817Y0227360D01*
X0109047Y0226805D01*
X0109381Y0226306D01*
X0109806Y0225881D01*
X0110305Y0225547D01*
X0110860Y0225317D01*
X0111450Y0225200D01*
X0111600Y0225200D01*
X0111600Y0228100D01*
X0108700Y0228100D01*
X0108700Y0227950D01*
X0108700Y0228473D02*
X0106160Y0228473D01*
X0106859Y0229172D02*
X0108831Y0229172D01*
X0108935Y0227076D02*
X0105666Y0227076D01*
X0106323Y0226378D02*
X0109333Y0226378D01*
X0110107Y0225679D02*
X0106612Y0225679D01*
X0106750Y0224981D02*
X0127294Y0224981D01*
X0127992Y0225679D02*
X0113393Y0225679D01*
X0113195Y0225547D02*
X0113694Y0225881D01*
X0114119Y0226306D01*
X0114453Y0226805D01*
X0114683Y0227360D01*
X0114800Y0227950D01*
X0114800Y0228100D01*
X0111900Y0228100D01*
X0111900Y0225200D01*
X0112050Y0225200D01*
X0112640Y0225317D01*
X0113195Y0225547D01*
X0114167Y0226378D02*
X0128691Y0226378D01*
X0129389Y0227076D02*
X0114565Y0227076D01*
X0114765Y0227775D02*
X0130088Y0227775D01*
X0130786Y0228473D02*
X0114800Y0228473D01*
X0114669Y0229172D02*
X0131485Y0229172D01*
X0132183Y0229870D02*
X0117557Y0229870D01*
X0118256Y0230569D02*
X0132882Y0230569D01*
X0133580Y0231267D02*
X0118954Y0231267D01*
X0119653Y0231966D02*
X0134279Y0231966D01*
X0134977Y0232664D02*
X0120351Y0232664D01*
X0121050Y0233363D02*
X0135676Y0233363D01*
X0136374Y0234061D02*
X0121748Y0234061D01*
X0122447Y0234760D02*
X0137073Y0234760D01*
X0137145Y0235458D02*
X0137771Y0235458D01*
X0135750Y0236750D02*
X0121750Y0236750D01*
X0116750Y0231750D01*
X0106750Y0231750D01*
X0111600Y0227775D02*
X0111900Y0227775D01*
X0111900Y0227076D02*
X0111600Y0227076D01*
X0111600Y0226378D02*
X0111900Y0226378D01*
X0111900Y0225679D02*
X0111600Y0225679D01*
X0106750Y0224282D02*
X0126595Y0224282D01*
X0125897Y0223584D02*
X0106514Y0223584D01*
X0106128Y0222885D02*
X0125198Y0222885D01*
X0124500Y0222187D02*
X0105401Y0222187D01*
X0103250Y0224250D02*
X0103750Y0224750D01*
X0103250Y0224250D02*
X0080750Y0224250D01*
X0078250Y0226750D01*
X0073750Y0226750D01*
X0075525Y0224282D02*
X0078031Y0224282D01*
X0074699Y0221488D02*
X0123801Y0221488D01*
X0123103Y0220790D02*
X0075397Y0220790D01*
X0076096Y0220091D02*
X0122404Y0220091D01*
X0121706Y0219393D02*
X0076794Y0219393D01*
X0077037Y0219150D02*
X0077037Y0219150D01*
X0077493Y0218694D02*
X0121007Y0218694D01*
X0120309Y0217996D02*
X0078150Y0217996D01*
X0076250Y0217250D02*
X0076250Y0199250D01*
X0079250Y0199136D02*
X0085884Y0199136D01*
X0086591Y0199834D02*
X0079250Y0199834D01*
X0078966Y0200533D02*
X0087846Y0200533D01*
X0088544Y0201231D02*
X0078511Y0201231D01*
X0078150Y0201930D02*
X0089243Y0201930D01*
X0089941Y0202628D02*
X0078150Y0202628D01*
X0078150Y0203327D02*
X0090640Y0203327D01*
X0078150Y0204025D02*
X0149800Y0204025D01*
X0149800Y0204724D02*
X0078150Y0204724D01*
X0078150Y0205422D02*
X0149800Y0205422D01*
X0149800Y0206121D02*
X0078150Y0206121D01*
X0078150Y0206820D02*
X0149800Y0206820D01*
X0149800Y0207518D02*
X0078150Y0207518D01*
X0078150Y0208217D02*
X0149800Y0208217D01*
X0149800Y0208915D02*
X0078150Y0208915D01*
X0078150Y0209614D02*
X0149800Y0209614D01*
X0149800Y0210312D02*
X0078150Y0210312D01*
X0076250Y0217250D02*
X0066750Y0226750D01*
X0066750Y0229750D01*
X0058962Y0252921D02*
X0053700Y0252921D01*
X0053700Y0253620D02*
X0057049Y0253620D01*
X0057054Y0253616D02*
X0057054Y0253616D01*
X0056216Y0254318D02*
X0053700Y0254318D01*
X0053700Y0255017D02*
X0055384Y0255017D01*
X0054553Y0255715D02*
X0053700Y0255715D01*
X0053700Y0256414D02*
X0054150Y0256414D01*
X0053747Y0257112D02*
X0053700Y0257112D01*
X0066683Y0269686D02*
X0082641Y0269686D01*
X0082222Y0268987D02*
X0067516Y0268987D01*
X0068348Y0268289D02*
X0081940Y0268289D01*
X0096750Y0241750D02*
X0102750Y0241750D01*
X0103750Y0242750D01*
X0121750Y0226750D02*
X0124750Y0229750D01*
X0126750Y0229750D01*
X0135750Y0236750D02*
X0137750Y0238750D01*
X0140502Y0237554D02*
X0142900Y0237554D01*
X0142900Y0238951D02*
X0140750Y0238951D01*
X0140750Y0238253D02*
X0146475Y0238253D01*
X0146475Y0238951D02*
X0147025Y0238951D01*
X0147025Y0239650D02*
X0146475Y0239650D01*
X0146475Y0240348D02*
X0147025Y0240348D01*
X0149800Y0241047D02*
X0139696Y0241047D01*
X0140335Y0240348D02*
X0143123Y0240348D01*
X0142900Y0239650D02*
X0140625Y0239650D01*
X0140351Y0232664D02*
X0143294Y0232664D01*
X0168750Y0229750D02*
X0168750Y0226750D01*
X0178250Y0217250D01*
X0175250Y0199834D02*
X0169811Y0199834D01*
X0170607Y0199136D02*
X0175250Y0199136D01*
X0073250Y0199136D02*
X0068607Y0199136D01*
X0067811Y0199834D02*
X0073250Y0199834D01*
X0079250Y0421262D02*
X0086005Y0421262D01*
X0087274Y0421961D02*
X0079203Y0421961D01*
X0078913Y0422660D02*
X0087973Y0422660D01*
X0088671Y0423358D02*
X0078385Y0423358D01*
X0078150Y0424057D02*
X0089370Y0424057D01*
X0090068Y0424755D02*
X0078150Y0424755D01*
D20*
X0101770Y0407293D02*
X0102065Y0406998D01*
X0102065Y0313750D01*
X0121750Y0313750D02*
X0125392Y0317392D01*
X0125392Y0351388D01*
X0082380Y0313750D02*
X0078148Y0317982D01*
X0078148Y0351388D01*
X0180148Y0351388D02*
X0180148Y0317982D01*
X0184380Y0313750D01*
X0204065Y0313750D02*
X0204065Y0406998D01*
X0203770Y0407293D01*
X0227392Y0351388D02*
X0227392Y0317392D01*
X0223750Y0313750D01*
X0282148Y0317982D02*
X0286380Y0313750D01*
X0282148Y0317982D02*
X0282148Y0351388D01*
X0306065Y0313750D02*
X0306065Y0406998D01*
X0305770Y0407293D01*
X0329392Y0351388D02*
X0329392Y0317392D01*
X0325750Y0313750D01*
X0305770Y0185293D02*
X0306065Y0184998D01*
X0306065Y0091750D01*
X0325750Y0091750D02*
X0329392Y0095392D01*
X0329392Y0129388D01*
X0286380Y0091750D02*
X0282148Y0095982D01*
X0282148Y0129388D01*
X0227392Y0129388D02*
X0227392Y0095392D01*
X0223750Y0091750D01*
X0204065Y0091750D02*
X0204065Y0184998D01*
X0203770Y0185293D01*
X0180148Y0129388D02*
X0180148Y0095982D01*
X0184380Y0091750D01*
X0125392Y0095392D02*
X0121750Y0091750D01*
X0125392Y0095392D02*
X0125392Y0129388D01*
X0102065Y0091750D02*
X0102065Y0184998D01*
X0101770Y0185293D01*
X0078148Y0129388D02*
X0078148Y0095982D01*
X0082380Y0091750D01*
M02*
